<?xml version="1.0" encoding="UTF-8"?>
<svg width="44px" height="31px" viewBox="0 0 44 31" version="1.1" xmlns="http://www.w3.org/2000/svg" xmlns:xlink="http://www.w3.org/1999/xlink">
    <!-- Generator: Sketch 49.3 (51167) - http://www.bohemiancoding.com/sketch -->
    <title>amex</title>
    <desc>Created with Sketch.</desc>
    <defs>
        <linearGradient x1="0%" y1="50%" x2="100%" y2="100%" id="linearGradient-1">
            <stop stop-color="#79D1F3" offset="0%"></stop>
            <stop stop-color="#1587C8" offset="100%"></stop>
        </linearGradient>
        <rect id="path-2" x="0.168674699" y="0" width="43.6389558" height="30.4457831" rx="3"></rect>
    </defs>
    <g id="Main-Page" stroke="none" stroke-width="1" fill="none" fill-rule="evenodd">
        <g id="Контент-4--RU-" transform="translate(-948.000000, -852.000000)">
            <g id="Group-3" transform="translate(0.000000, 696.000000)">
                <g id="Footer">
                    <g id="Group-15" transform="translate(849.000000, 156.000000)">
                        <g id="amex" transform="translate(99.000000, 0.000000)">
                            <g id="Rectangle-Copy-4">
                                <use fill="url(#linearGradient-1)" fill-rule="evenodd" xlink:href="#path-2"></use>
                                <rect stroke="#CAD2DB" stroke-width="1" x="0.668674699" y="0.5" width="42.6389558" height="29.4457831" rx="3"></rect>
                            </g>
                            <polygon id="Fill-1" fill="#FFFFFF" points="25.3855617 13.5458722 25.3855617 14.5894903 28.2474415 14.5894903 28.2474415 15.7606172 25.3855617 15.7606172 25.3855617 16.9026272 28.5907259 16.9026272 30.0796536 15.2186315 28.6538672 13.5458722"></polygon>
                            <polygon id="Fill-2" fill="#FFFFFF" points="11.4258266 15.6212565 13.2052972 15.6212565 12.3130548 13.3335236"></polygon>
                            <path d="M32.0215367,11.2168772 L30.9450702,12.4427206 L29.9368521,11.2168772 L23.732383,11.2168772 L23.732383,11.2208833 L20.1479067,11.2208833 L19.298749,13.2882848 L18.426749,11.2208833 L14.4405826,11.2208833 L14.4405826,12.1662072 L14.002679,11.2208833 L10.6031696,11.2208833 L7.37952736,19.2248217 L9.02472982,19.2248217 L11.2520394,19.2248217 L11.7541985,17.9501244 L12.8784852,17.9501244 L13.3794372,19.2248217 L17.7619082,19.2248217 L17.7619082,18.2503808 L18.1530129,19.2289254 L20.4280499,19.2289254 L20.8192474,18.2357246 L20.8192474,19.2248217 L23.732383,19.2248217 L23.732383,19.2262873 L29.8047197,19.2262873 L30.9137781,17.9811955 L31.9587668,19.2262873 L34.317466,19.2285346 L34.317466,19.2289254 L35.4129677,19.2289254 L35.4129677,17.8303345 L33.2383996,15.2386323 L35.4129677,12.7878249 L35.4129677,11.2168772 L32.0215367,11.2168772 Z M32.5919441,12.3586918 L34.3132875,12.3586918 L31.7579217,15.2386323 L34.1578485,18.0990312 L32.5238815,18.0990312 L30.9186994,16.1989056 L29.2505618,18.0990312 L27.7326634,18.0990312 L27.7326634,18.0975656 L24.0869029,18.0975656 L24.0869029,12.3587895 L27.0109025,12.3587895 L27.0109025,12.3586918 L29.3300456,12.3586918 L30.9338348,14.2402529 L32.5919441,12.3586918 Z M20.928909,12.3587895 L23.0992986,12.3587895 L23.0992986,18.0975656 L21.7631171,18.0975656 L21.7581958,13.603002 L19.8678565,18.0975656 L18.7233274,18.0975656 L16.8282525,13.598996 L16.8282525,18.0975656 L14.1767819,18.0975656 L13.6759228,16.8175921 L10.9617751,16.8175921 L10.4557161,18.0975656 L9.03977231,18.0975656 L11.3742364,12.3587895 L13.3110032,12.3587895 L15.5281916,17.7922284 L15.5281916,12.3587895 L17.6555894,12.3587895 L19.3617046,16.2518633 L20.928909,12.3587895 Z" id="Fill-3" fill="#FFFFFF"></path>
                        </g>
                    </g>
                </g>
            </g>
        </g>
    </g>
</svg>