<?xml version="1.0" encoding="UTF-8"?>
<svg width="40px" height="40px" viewBox="0 0 40 40" version="1.1" xmlns="http://www.w3.org/2000/svg" xmlns:xlink="http://www.w3.org/1999/xlink">
    <!-- Generator: Sketch 49.3 (51167) - http://www.bohemiancoding.com/sketch -->
    <title>Facebook</title>
    <desc>Created with Sketch.</desc>
    <defs></defs>
    <g id="Main-Page" stroke="none" stroke-width="1" fill="none" fill-rule="evenodd">
        <g id="Контент-4--RU-" transform="translate(-313.000000, -733.000000)" fill="#161620">
            <g id="Group-3" transform="translate(0.000000, 696.000000)">
                <g id="Footer">
                    <g id="Facebook">
                        <path d="M333.002634,37 C321.955617,37 313,45.955617 313,57.002634 C313,68.044383 321.955617,77 333.002634,77 C344.044383,77 353,68.044383 353,57.002634 C353,45.955617 344.044383,37 333.002634,37 L333.002634,37 Z M342.732648,65.4577901 C342.732648,66.0478072 342.442908,66.6752272 341.858159,66.6752272 L336.937837,66.6752272 L336.937837,59.3000132 L339.440142,59.3000132 L339.819439,56.1392072 L336.937837,56.1392072 L336.937837,54.2527328 C336.937837,53.4098512 337.164362,52.9784012 338.376004,52.9784012 L340.098643,52.9784012 L340.098643,50.2227051 C339.571842,50.1858291 338.755301,50.1068089 337.685895,50.1068089 C335.462795,50.1068089 333.777031,51.4659555 333.777031,53.9629922 L333.777031,56.1392072 L331.143026,56.1392072 L331.143026,59.3000132 L333.777031,59.3000132 L333.777031,66.6752272 L324.652838,66.6752272 C324.062821,66.6752272 323.767812,66.0478072 323.767812,65.4577901 L323.767812,48.2524694 C323.767812,47.6624523 324.062821,47.1835901 324.652838,47.1835901 L341.858159,47.1835901 C342.442908,47.1835901 342.732648,47.6624523 342.732648,48.2524694 L342.732648,65.4577901 L342.732648,65.4577901 Z"></path>
                    </g>
                </g>
            </g>
        </g>
    </g>
</svg>