<?xml version="1.0" encoding="UTF-8"?>
<svg width="116px" height="92px" viewBox="0 0 116 92" version="1.1" xmlns="http://www.w3.org/2000/svg" xmlns:xlink="http://www.w3.org/1999/xlink">
    <!-- Generator: Sketch 49.3 (51167) - http://www.bohemiancoding.com/sketch -->
    <title>footerPlanet</title>
    <desc>Created with Sketch.</desc>
    <defs></defs>
    <g id="Main-Page" stroke="none" stroke-width="1" fill="none" fill-rule="evenodd">
        <g id="Контент-4--RU-" transform="translate(-6.000000, -821.000000)" fill-rule="nonzero">
            <g id="Group-3" transform="translate(0.000000, 696.000000)">
                <g id="footerPlanet" transform="translate(4.000000, 125.000000)">
                    <g id="moon-(1)">
                        <rect id="Rectangle-path" fill="#F24125" x="60" y="29" width="33" height="24"></rect>
                        <path d="M1,94 C33.3350844,62 85.6649156,62 118,94 L1,94 Z" id="Shape" fill="#FCBC1D"></path>
                        <path d="M72,73.173913 L81.2857143,68 C85.1330952,72.1613478 90.8995238,74.0644348 96.5214048,73.0281304 L97.3809524,72.8695652 L98,82" id="Shape" fill="#FCBC1D"></path>
                        <g id="Group" transform="translate(84.000000, 0.000000)" fill="#FCBC1D">
                            <path d="M5.0834375,9.75848485 C4.2203125,9.75848485 3.5209375,9.08 3.5209375,8.24333333 L3.5209375,1.74818182 C3.5209375,0.911515152 4.2203125,0.233030303 5.0834375,0.233030303 C5.9465625,0.233030303 6.6459375,0.911515152 6.6459375,1.74818182 L6.6459375,8.24333333 C6.6459375,9.08 5.94625,9.75848485 5.0834375,9.75848485 Z" id="Shape"></path>
                            <path d="M8.4321875,6.51090909 L1.7340625,6.51090909 C0.8709375,6.51090909 0.1715625,5.83242424 0.1715625,4.99575758 C0.1715625,4.15909091 0.8709375,3.48060606 1.7340625,3.48060606 L8.4321875,3.48060606 C9.2953125,3.48060606 9.9946875,4.15909091 9.9946875,4.99575758 C9.9946875,5.83242424 9.2953125,6.51090909 8.4321875,6.51090909 Z" id="Shape"></path>
                        </g>
                        <g id="Group" transform="translate(32.000000, 31.000000)" fill="#FCBC1D">
                            <path d="M5.50711765,9.96151515 C4.61352941,9.96151515 3.88947059,9.2830303 3.88947059,8.44636364 L3.88947059,1.54545455 C3.88947059,0.708787879 4.61352941,0.0303030303 5.50711765,0.0303030303 C6.40070588,0.0303030303 7.12476471,0.708787879 7.12476471,1.54545455 L7.12476471,8.44636364 C7.12476471,9.2830303 6.40070588,9.96151515 5.50711765,9.96151515 Z" id="Shape"></path>
                            <path d="M9.19114706,6.51090909 L1.82341176,6.51090909 C0.929823529,6.51090909 0.205764706,5.83242424 0.205764706,4.99575758 C0.205764706,4.15909091 0.929823529,3.48060606 1.82341176,3.48060606 L9.19114706,3.48060606 C10.0847353,3.48060606 10.8087941,4.15909091 10.8087941,4.99575758 C10.8087941,5.83242424 10.0847353,6.51090909 9.19114706,6.51090909 Z" id="Shape"></path>
                        </g>
                        <path d="M59.5,84 C58.6714,84 58,83.3261388 58,82.4951738 L58,29.5048262 C58,28.6738612 58.6714,28 59.5,28 C60.3286,28 61,28.6738612 61,29.5048262 L61,82.4948728 C61,83.3261388 60.3286,84 59.5,84 Z" id="Shape" fill="#333333"></path>
                        <rect id="Rectangle-path" fill="#1AA5E2" x="60" y="29" width="15" height="12"></rect>
                        <path d="M98.49985,90 C98.4008599,90 98.3048695,89.988009 98.2058794,89.9700225 C98.110189,89.9490382 98.0168983,89.9220585 97.9269073,89.8830877 C97.8369163,89.8471147 97.749925,89.7991506 97.6659334,89.7451911 C97.5849415,89.6912316 97.5069493,89.6282788 97.4379562,89.5593305 C97.3689631,89.4903822 97.3059694,89.4154384 97.2519748,89.3315014 C97.1979802,89.2505621 97.1529847,89.1636273 97.1139886,89.0736947 C97.0779922,88.9837622 97.0479952,88.8878341 97.029997,88.7919061 C97.0092991,88.695978 97,88.5970522 97,88.4981264 C97,88.4021984 97.0089991,88.3032725 97.029997,88.2073445 C97.0482952,88.1114164 97.0779922,88.0154884 97.1139886,87.9255558 C97.1529847,87.8356233 97.1979802,87.7486885 97.2519748,87.6677492 C97.3059694,87.5868099 97.3689631,87.5088683 97.4379562,87.4399201 C97.5066493,87.3709718 97.5849415,87.308019 97.6659334,87.2540595 C97.749925,87.2000999 97.8369163,87.1521359 97.9269073,87.1161629 C98.0168983,87.0771921 98.109889,87.0502123 98.2058794,87.0292281 C98.4008599,86.9902573 98.5991401,86.9902573 98.7938206,87.0292281 C98.889811,87.0502123 98.9828017,87.0771921 99.0730927,87.1161629 C99.1630837,87.1521359 99.250075,87.2000999 99.3307669,87.2540595 C99.4147585,87.308019 99.4927507,87.3709718 99.5590441,87.4399201 C99.6307369,87.5088683 99.6937306,87.5868099 99.7480252,87.6677492 C99.8020198,87.7486885 99.8470153,87.8356233 99.8860114,87.9255558 C99.9220078,88.0154884 99.9520048,88.1114164 99.969703,88.2073445 C99.9907009,88.3032725 100,88.4021984 100,88.4981264 C100,88.5970522 99.9910009,88.695978 99.969703,88.7919061 C99.9517048,88.8878341 99.9220078,88.9837622 99.8860114,89.0736947 C99.8470153,89.1636273 99.8020198,89.2505621 99.7480252,89.3315014 C99.6937306,89.4154384 99.6307369,89.4903822 99.5590441,89.5593305 C99.279772,89.8381214 98.8928107,90 98.49985,90 Z" id="Shape" fill="#333333"></path>
                        <path d="M13.49985,91 C13.4008599,91 13.3048695,90.988009 13.2058794,90.9700225 C13.110189,90.9490382 13.0168983,90.9220585 12.9269073,90.8830877 C12.8339166,90.8471147 12.7469253,90.7991506 12.6659334,90.7451911 C12.5849415,90.6912316 12.5069493,90.6282788 12.4379562,90.5593305 C12.3689631,90.4903822 12.3059694,90.4124407 12.2519748,90.3315014 C12.1979802,90.2505621 12.1529847,90.1636273 12.1139886,90.0736947 C12.0779922,89.9837622 12.0479952,89.8878341 12.029997,89.7919061 C12.0092991,89.695978 12,89.5970522 12,89.5011242 C12,89.1054209 12.1589841,88.718711 12.4379562,88.4399201 C12.5066493,88.3709718 12.5849415,88.308019 12.6659334,88.2540595 C12.7472253,88.2000999 12.8342166,88.1521359 12.9269073,88.1161629 C13.0168983,88.0771921 13.109889,88.0502123 13.2058794,88.0292281 C13.4008599,87.9902573 13.5991401,87.9902573 13.7938206,88.0292281 C13.889811,88.0502123 13.9828017,88.0771921 14.0730927,88.1161629 C14.1630837,88.1521359 14.250075,88.2000999 14.3307669,88.2540595 C14.4147585,88.308019 14.489751,88.3709718 14.5590441,88.4399201 C14.8407159,88.718711 15,89.1054209 15,89.5011242 C15,89.5970522 14.9910009,89.695978 14.969703,89.7919061 C14.9517048,89.8878341 14.9220078,89.9837622 14.8860114,90.0736947 C14.8470153,90.1636273 14.8020198,90.2505621 14.7480252,90.3315014 C14.6937306,90.4124407 14.6307369,90.4903822 14.5590441,90.5593305 C14.490051,90.6282788 14.4150585,90.6912316 14.3307669,90.7451911 C14.249775,90.7991506 14.1627837,90.8471147 14.0730927,90.8830877 C13.9828017,90.9220585 13.890111,90.9490382 13.7938206,90.9700225 C13.6948305,90.988009 13.5988401,91 13.49985,91 Z" id="Shape" fill="#333333"></path>
                        <path d="M21.49985,87 C21.4008599,87 21.3018698,86.988009 21.2058794,86.9700225 C21.110189,86.9490382 21.0168983,86.9220585 20.9269073,86.8830877 C20.8339166,86.8471147 20.7469253,86.7991506 20.6659334,86.7451911 C20.5849415,86.6912316 20.5069493,86.6282788 20.4379562,86.5593305 C20.3689631,86.4903822 20.3059694,86.4124407 20.2519748,86.3315014 C20.1979802,86.2505621 20.1529847,86.1636273 20.1139886,86.0736947 C20.0779922,85.9837622 20.0479952,85.8878341 20.029997,85.7919061 C20.0092991,85.695978 20,85.5970522 20,85.5011242 C20,85.1054209 20.1589841,84.718711 20.4379562,84.4399201 C20.5066493,84.3709718 20.5849415,84.308019 20.6659334,84.2540595 C20.7472253,84.2000999 20.8342166,84.1521359 20.9269073,84.1161629 C21.0168983,84.0771921 21.109889,84.0502123 21.2058794,84.0292281 C21.4008599,83.9902573 21.5991401,83.9902573 21.7938206,84.0292281 C21.889811,84.0502123 21.9828017,84.0771921 22.0730927,84.1161629 C22.1630837,84.1521359 22.250075,84.2000999 22.3307669,84.2540595 C22.4147585,84.308019 22.489751,84.3709718 22.5590441,84.4399201 C22.8407159,84.718711 23,85.1054209 23,85.5011242 C23,85.5970522 22.9910009,85.695978 22.969703,85.7919061 C22.9517048,85.8878341 22.9220078,85.9837622 22.8860114,86.0736947 C22.8470153,86.1636273 22.8020198,86.2505621 22.7480252,86.3315014 C22.6910309,86.4124407 22.6307369,86.4903822 22.5590441,86.5593305 C22.490051,86.6282788 22.4150585,86.6912316 22.3307669,86.7451911 C22.249775,86.7991506 22.1627837,86.8471147 22.0730927,86.8830877 C21.9828017,86.9220585 21.890111,86.9490382 21.7938206,86.9700225 C21.6948305,86.988009 21.5988401,87 21.49985,87 Z" id="Shape" fill="#333333"></path>
                        <g id="Group" transform="translate(63.000000, 32.000000)" fill="#FFFFFF">
                            <path d="M1.77938462,3.617 C1.67784615,3.617 1.57630769,3.60366667 1.47784615,3.58366667 C1.37969231,3.56033333 1.284,3.53033333 1.19169231,3.487 C1.09630769,3.447 1.00707692,3.39366667 0.924,3.33366667 C0.840923077,3.27366667 0.760923077,3.20366667 0.690153846,3.127 C0.404,2.817 0.240923077,2.387 0.240923077,1.95033333 C0.240923077,1.84033333 0.250153846,1.73033333 0.271692308,1.62366667 C0.290461538,1.517 0.320923077,1.41366667 0.357846154,1.31033333 C0.397846154,1.21033333 0.444,1.11366667 0.499384615,1.02366667 C0.554769231,0.933666667 0.619384615,0.847 0.690153846,0.770333333 C0.760615385,0.693666667 0.840923077,0.623666667 0.924,0.563666667 C1.00738462,0.503666667 1.09661538,0.450333333 1.19169231,0.410333333 C1.284,0.367 1.37938462,0.337 1.47784615,0.313666667 C1.67784615,0.270333333 1.88123077,0.270333333 2.08092308,0.313666667 C2.17661538,0.337 2.27476923,0.367 2.36738462,0.410333333 C2.45969231,0.450333333 2.54892308,0.503666667 2.63169231,0.563666667 C2.71784615,0.623666667 2.79476923,0.693666667 2.86584615,0.770333333 C2.93630769,0.847 3.00092308,0.933666667 3.05969231,1.02366667 C3.11507692,1.11366667 3.16123077,1.21033333 3.20123077,1.31033333 C3.23815385,1.41366667 3.26892308,1.517 3.28707692,1.62366667 C3.30861538,1.73033333 3.31815385,1.84033333 3.31815385,1.95033333 C3.31815385,2.387 3.15507692,2.817 2.86584615,3.127 C2.79507692,3.20366667 2.71815385,3.27366667 2.63169231,3.33366667 C2.54861538,3.39366667 2.45938462,3.447 2.36738462,3.487 C2.27476923,3.53033333 2.17661538,3.56033333 2.08092308,3.58366667 C1.97938462,3.60366667 1.87784615,3.617 1.77938462,3.617 Z" id="Shape"></path>
                            <path d="M6.24092308,3.617 C5.83476923,3.617 5.43784615,3.437 5.15169231,3.127 C5.08092308,3.05033333 5.01630769,2.967 4.96092308,2.87366667 C4.90553846,2.78366667 4.85938462,2.687 4.81938462,2.587 C4.78246154,2.487 4.75169231,2.38033333 4.73323077,2.27366667 C4.712,2.167 4.70246154,2.057 4.70246154,1.95033333 C4.70246154,1.84033333 4.71169231,1.73033333 4.73323077,1.62366667 C4.752,1.517 4.78246154,1.41366667 4.81938462,1.31033333 C4.85938462,1.21033333 4.90553846,1.11366667 4.96092308,1.02366667 C5.01630769,0.933666667 5.08092308,0.847 5.15169231,0.770333333 C5.22215385,0.693666667 5.30246154,0.623666667 5.38553846,0.563666667 C5.46892308,0.503666667 5.55815385,0.450333333 5.65323077,0.410333333 C5.74553846,0.367 5.84092308,0.337 5.93938462,0.313666667 C6.13938462,0.270333333 6.34276923,0.270333333 6.54246154,0.313666667 C6.63815385,0.337 6.73630769,0.367 6.82892308,0.410333333 C6.92123077,0.450333333 7.01046154,0.503666667 7.09323077,0.563666667 C7.17938462,0.623666667 7.25630769,0.693666667 7.32738462,0.770333333 C7.61353846,1.08033333 7.77969231,1.51033333 7.77969231,1.95033333 C7.77969231,2.057 7.77046154,2.167 7.74861538,2.27366667 C7.73015385,2.38033333 7.69969231,2.487 7.65938462,2.587 C7.62276923,2.687 7.57630769,2.78366667 7.51784615,2.87366667 C7.46246154,2.967 7.39784615,3.05033333 7.32738462,3.127 C7.25661538,3.20366667 7.17969231,3.27366667 7.09323077,3.33366667 C7.01015385,3.39366667 6.92092308,3.447 6.82892308,3.487 C6.73630769,3.53033333 6.63815385,3.56033333 6.54246154,3.58366667 C6.44092308,3.60366667 6.33938462,3.617 6.24092308,3.617 Z" id="Shape"></path>
                            <path d="M3.93323077,6.78366667 C3.83476923,6.78366667 3.73323077,6.77033333 3.63169231,6.75033333 C3.53353846,6.727 3.43784615,6.697 3.34553846,6.65366667 C3.25323077,6.61366667 3.164,6.56033333 3.07784615,6.50033333 C2.99476923,6.44033333 2.91476923,6.37033333 2.844,6.29366667 C2.55784615,5.98366667 2.39476923,5.557 2.39476923,5.117 C2.39476923,4.677 2.55784615,4.247 2.844,3.937 C2.91446154,3.86033333 2.99476923,3.79033333 3.07784615,3.73033333 C3.164,3.67033333 3.25323077,3.617 3.34553846,3.577 C3.43784615,3.53366667 3.53323077,3.50366667 3.63169231,3.48033333 C3.83169231,3.437 4.03507692,3.437 4.23476923,3.48033333 C4.33323077,3.50366667 4.42861538,3.53366667 4.52123077,3.577 C4.61353846,3.617 4.70276923,3.67033333 4.78892308,3.73033333 C4.872,3.79033333 4.95169231,3.86033333 5.02276923,3.937 C5.09323077,4.01366667 5.15784615,4.10033333 5.21353846,4.19033333 C5.26892308,4.28033333 5.31507692,4.377 5.35507692,4.477 C5.392,4.58033333 5.42276923,4.68366667 5.44092308,4.79033333 C5.46246154,4.897 5.472,5.007 5.472,5.117 C5.472,5.55366667 5.30892308,5.98366667 5.02276923,6.29366667 C4.952,6.37033333 4.872,6.44033333 4.78892308,6.50033333 C4.70276923,6.56033333 4.61353846,6.61366667 4.52123077,6.65366667 C4.42861538,6.697 4.33353846,6.727 4.23476923,6.75033333 C4.13630769,6.77033333 4.03476923,6.78366667 3.93323077,6.78366667 Z" id="Shape"></path>
                        </g>
                        <path d="M76.49985,81 C76.4008599,81 76.3048695,80.988009 76.2058794,80.9700225 C76.110189,80.9490382 76.0168983,80.9220585 75.9269073,80.8830877 C75.8369163,80.8471147 75.749925,80.7991506 75.6659334,80.7451911 C75.5849415,80.6912316 75.5069493,80.6282788 75.4379562,80.5593305 C75.1589841,80.2805396 75,79.8938296 75,79.5011242 C75,79.4021984 75.0089991,79.3032725 75.029997,79.2073445 C75.0482952,79.1114164 75.0779922,79.0184861 75.1139886,78.9255558 C75.1529847,78.8356233 75.1979802,78.7486885 75.2519748,78.6677492 C75.3059694,78.5868099 75.3689631,78.5088683 75.4379562,78.4399201 C75.5066493,78.3709718 75.5849415,78.308019 75.6659334,78.2540595 C75.749925,78.2000999 75.8369163,78.1521359 75.9269073,78.1161629 C76.0168983,78.0771921 76.109889,78.0502123 76.2058794,78.0292281 C76.4008599,77.9902573 76.5991401,77.9902573 76.7938206,78.0292281 C76.889811,78.0502123 76.9828017,78.0771921 77.0730927,78.1161629 C77.1630837,78.1521359 77.250075,78.2000999 77.3307669,78.2540595 C77.4147585,78.308019 77.4927507,78.3709718 77.5620438,78.4399201 C77.6307369,78.5088683 77.6937306,78.5868099 77.7480252,78.6677492 C77.8020198,78.7486885 77.8470153,78.8356233 77.8860114,78.9255558 C77.9220078,79.0184861 77.9520048,79.1114164 77.969703,79.2073445 C77.9907009,79.3032725 78,79.4021984 78,79.5011242 C78,79.8938296 77.8410159,80.2805396 77.5620438,80.5593305 C77.4930507,80.6282788 77.4150585,80.6912316 77.3307669,80.7451911 C77.249775,80.7991506 77.1627837,80.8471147 77.0730927,80.8830877 C76.9828017,80.9220585 76.890111,80.9490382 76.7938206,80.9700225 C76.6948305,80.988009 76.5958404,81 76.49985,81 Z" id="Shape" fill="#333333"></path>
                        <path d="M39.49985,87 C39.4008599,87 39.3018698,86.9909977 39.2058794,86.9729932 C39.110189,86.951988 39.0168983,86.9249812 38.9269073,86.8859715 C38.8369163,86.8499625 38.7469253,86.8019505 38.6659334,86.747937 C38.5849415,86.6939235 38.5069493,86.6309077 38.4379562,86.5618905 C38.3689631,86.4928732 38.3059694,86.4178545 38.2519748,86.3338335 C38.1979802,86.2528132 38.1529847,86.1657914 38.1139886,86.0757689 C38.0779922,85.9857464 38.0479952,85.8897224 38.029997,85.7936984 C38.0092991,85.6976744 38,85.5986497 38,85.5026257 C38,85.4036009 38.0089991,85.3045761 38.029997,85.2085521 C38.0482952,85.1125281 38.0779922,85.0165041 38.1139886,84.9264816 C38.1529847,84.8364591 38.1979802,84.7494374 38.2519748,84.6684171 C38.3059694,84.5873968 38.3689631,84.5093773 38.4379562,84.4403601 C38.5066493,84.3713428 38.5849415,84.3083271 38.6659334,84.2543136 C38.7472253,84.2003001 38.8369163,84.1522881 38.9269073,84.1162791 C39.0168983,84.0772693 39.109889,84.0502626 39.2058794,84.0292573 C39.4008599,83.9902476 39.5991401,83.9902476 39.7938206,84.0292573 C39.889811,84.0502626 39.9828017,84.0772693 40.0730927,84.1162791 C40.1630837,84.1522881 40.250075,84.2003001 40.3307669,84.2543136 C40.4147585,84.3083271 40.4927507,84.3713428 40.5620438,84.4403601 C40.6307369,84.5093773 40.6937306,84.5873968 40.7480252,84.6684171 C40.8020198,84.7494374 40.8470153,84.8364591 40.8860114,84.9264816 C40.9220078,85.0165041 40.9520048,85.1125281 40.969703,85.2085521 C40.9907009,85.3045761 41,85.4036009 41,85.5026257 C41,85.5986497 40.9910009,85.6976744 40.969703,85.7936984 C40.9517048,85.8897224 40.9220078,85.9857464 40.8860114,86.0757689 C40.8470153,86.1657914 40.8020198,86.2528132 40.7480252,86.3338335 C40.6937306,86.4178545 40.6307369,86.4928732 40.5620438,86.5618905 C40.4930507,86.6309077 40.4150585,86.6939235 40.3307669,86.747937 C40.249775,86.8019505 40.1627837,86.8499625 40.0730927,86.8859715 C39.9828017,86.9249812 39.890111,86.951988 39.7938206,86.9729932 C39.6948305,86.9912978 39.5988401,87 39.49985,87 Z" id="Shape" fill="#333333"></path>
                        <path d="M70.49985,90 C70.1038896,90 69.719628,89.8380916 69.4379562,89.5592494 C69.3689631,89.4902884 69.3059694,89.4123325 69.2519748,89.3313783 C69.1979802,89.2504241 69.1529847,89.1634733 69.1139886,89.0735242 C69.0779922,88.9835751 69.0479952,88.8876294 69.029997,88.7916837 C69.0092991,88.695738 69,88.596794 69,88.49785 C69,88.4019043 69.0089991,88.3029603 69.029997,88.2070146 C69.0482952,88.1110689 69.0779922,88.0151231 69.1139886,87.925174 C69.1529847,87.8352249 69.1979802,87.7482741 69.2519748,87.6673199 C69.3059694,87.5863658 69.3689631,87.5084099 69.4379562,87.4394489 C69.7859214,87.0916457 70.3048695,86.9297373 70.7938206,87.0286813 C70.889811,87.0496694 70.9828017,87.0766542 71.0730927,87.1156321 C71.1630837,87.1516118 71.250075,87.1995846 71.3307669,87.2535541 C71.4147585,87.3075235 71.489751,87.3704879 71.5590441,87.4394489 C71.6307369,87.5084099 71.6907309,87.5863658 71.7480252,87.6673199 C71.8020198,87.7482741 71.8470153,87.8352249 71.8860114,87.925174 C71.9220078,88.0151231 71.9520048,88.1110689 71.969703,88.2070146 C71.9907009,88.3029603 72,88.4019043 72,88.49785 C72,88.596794 71.9910009,88.695738 71.969703,88.7916837 C71.9517048,88.8876294 71.9220078,88.9835751 71.8860114,89.0735242 C71.8470153,89.1634733 71.8020198,89.2504241 71.7480252,89.3313783 C71.6910309,89.4123325 71.6307369,89.4902884 71.5590441,89.5592494 C71.279772,89.8380916 70.8928107,90 70.49985,90 Z" id="Shape" fill="#333333"></path>
                        <path d="M92.5211268,42 L74.4788732,42 C73.6619437,42 73,41.3283 73,40.5 C73,39.6717 73.6619437,39 74.4788732,39 L92.5211268,39 C93.3380563,39 94,39.6717 94,40.5 C94,41.3283 93.3380563,42 92.5211268,42 Z" id="Shape" fill="#FFFFFF"></path>
                        <path d="M92.5211268,36 L74.4788732,36 C73.6619437,36 73,35.3283 73,34.5 C73,33.6717 73.6619437,33 74.4788732,33 L92.5211268,33 C93.3380563,33 94,33.6717 94,34.5 C94,35.3283 93.3380563,36 92.5211268,36 Z" id="Shape" fill="#FFFFFF"></path>
                        <path d="M92.4874331,48 L59.5125669,48 C58.6770249,48 58,47.3283 58,46.5 C58,45.6717 58.6770249,45 59.5125669,45 L92.4874331,45 C93.3229751,45 94,45.6717 94,46.5 C94,47.3283 93.3229751,48 92.4874331,48 Z" id="Shape" fill="#FFFFFF"></path>
                        <path d="M92.4874331,55 L59.5125669,55 C58.6770249,55 58,54.3187166 58,53.478599 L58,29.521401 C58,28.6812834 58.6770249,28 59.5125669,28 L92.4874331,28 C93.3229751,28 94,28.6812834 94,29.521401 L94,53.478599 C94,54.3187166 93.3229751,55 92.4874331,55 Z M61.0251338,51.9571979 L90.9748662,51.9571979 L90.9748662,31.0428021 L61.0251338,31.0428021 L61.0251338,51.9571979 Z" id="Shape" fill="#333333"></path>
                        <path d="M17.5,93 C16.6714,93 16,92.3261388 16,91.4951738 L16,38.5048262 C16,37.6738612 16.6714,37 17.5,37 C18.3286,37 19,37.6738612 19,38.5048262 L19,91.4948728 C19,92.3261388 18.3286,93 17.5,93 Z" id="Shape" fill="#333333" transform="translate(17.500000, 65.000000) rotate(-1.000000) translate(-17.500000, -65.000000) "></path>
                        <path d="M50.4874331,64 L17.5125669,64 C16.6770249,64 16,63.3187166 16,62.478599 L16,38.521401 C16,37.6812834 16.6770249,37 17.5125669,37 L50.4874331,37 C51.3229751,37 52,37.6812834 52,38.521401 L52,62.478599 C52,63.3187166 51.3229751,64 50.4874331,64 Z M19.0251338,60.9571979 L48.9748662,60.9571979 L48.9748662,40.0428021 L19.0251338,40.0428021 L19.0251338,60.9571979 Z" id="Shape" fill="#333333" transform="translate(34.000000, 50.500000) rotate(-1.000000) translate(-34.000000, -50.500000) "></path>
                        <path d="M74.4483561,42 L59.5525749,42 C58.6954468,42 58.000931,41.3521628 58.000931,40.5526425 L58,29.447647 C58,29.0638078 58.1632329,28.6956 58.4543213,28.4240758 C58.7454097,28.1525515 59.1401479,28 59.5516439,28 L74.4483561,28 C75.3054842,28 76,28.6481267 76,29.4473575 L76,40.552353 C76,41.3518733 75.3054842,42 74.4483561,42 Z M61.1042187,39.1052849 L72.8967122,39.1052849 L72.8967122,30.8950045 L61.1032878,30.8950045 L61.1042187,39.1052849 Z" id="Shape" fill="#333333"></path>
                        <path d="M118.484557,96 C118.097043,96 117.708922,95.8524279 117.413514,95.5572836 C111.271756,89.4275964 104.257409,84.3538968 96.5643806,80.4761968 C96.0577939,80.2206672 95.7402683,79.7065839 95.7323907,79.1480476 L95.3145779,75.0668311 C89.9569386,75.6156906 84.5820294,73.8714363 80.575086,70.2804133 L74.3636421,72.8169607 C74.0988354,72.9339903 73.7997917,72.9754193 73.499839,72.925523 C60.994237,70.8292728 47.9953795,71.6980736 35.9078933,75.4390879 C23.424409,79.3025749 11.9019852,86.2593314 2.58587975,95.5572836 C1.99476093,96.1475721 1.03491242,96.1475721 0.443793593,95.5572836 C-0.147931198,94.9666926 -0.147931198,94.0092881 0.443793593,93.4189995 C10.106208,83.7750995 22.0594729,76.5591846 35.0107622,72.550847 C47.4103203,68.7133665 60.7336721,67.7889238 73.5731608,69.8727755 L80.333003,67.1124507 C80.8989743,66.8820204 81.5467508,67.0123556 81.9778949,67.4426736 C85.6194414,71.07694 90.8283162,72.7576899 95.9114534,71.9396927 L96.4207669,71.8577418 C96.8322171,71.7912134 97.2533628,71.8976588 97.5842197,72.1507693 C97.9150765,72.4041821 98.1265583,72.7824869 98.1689759,73.1964751 L98.6773805,78.1576812 C106.365561,82.1294282 113.386271,87.2605842 119.556206,93.4186971 C120.147931,94.0092881 120.147931,94.9666926 119.556206,95.5569812 C119.25989,95.8521255 118.872072,96 118.484557,96 Z" id="Shape" fill="#333333"></path>
                        <path d="M93.2266113,82 C91.7619662,82 90.0261476,81.7997615 88.1063625,81.2010061 C87.2903768,80.9465431 86.8229107,80.038447 87.0629608,79.1731424 C87.303011,78.3081645 88.1572076,77.8116515 88.9759666,78.0670944 C93.5742064,79.5011023 96.853865,78.1641104 96.8868372,78.150391 C97.6735485,77.8198178 98.57027,78.2235613 98.8873581,79.0565272 C99.2038299,79.8894931 98.8312745,80.8351544 98.0476447,81.1761804 C97.934553,81.225505 96.10444,82 93.2266113,82 Z" id="Shape" fill="#333333"></path>
                        <path d="M77.3803331,76 C77.0241481,76 76.6663441,75.8882988 76.3671486,75.6577599 L72.6048634,72.7606653 C71.9080359,72.2241893 71.796971,71.2474244 72.3568291,70.5796995 C72.9166872,69.9116643 73.9360239,69.8055481 74.6328514,70.3420242 L78.3951366,73.2391188 C79.0919641,73.7755948 79.203029,74.7523597 78.6431709,75.4200846 C78.3235758,75.8017304 77.8540592,76 77.3803331,76 Z" id="Shape" fill="#333333"></path>
                    </g>
                    <g id="finland" transform="translate(34.000000, 50.500000) rotate(-1.000000) translate(-34.000000, -50.500000) translate(17.000000, 39.000000)">
                        <rect id="Rectangle-path" fill="#FFFFFF" x="15" y="1" width="18" height="9"></rect>
                        <path d="M2.68988444,13.5589963 L1,13.5589963 L1,22 L11,22 L11,13.5589963 L4.94310735,13.5589963 C4.63197024,13.5589963 4.37981254,13.3087195 4.37981254,13 L3.25317926,13 C3.25317926,13.3087195 3.00106521,13.5589963 2.68988444,13.5589963 Z" id="Shape" fill="#FFFFFF"></path>
                        <rect id="Rectangle-path" fill="#FFFFFF" x="1" y="1" width="10" height="9"></rect>
                        <rect id="Rectangle-path" fill="#FFFFFF" x="15" y="13" width="18" height="9"></rect>
                        <path d="M11.8688313,22 L11.8688313,13.0961078 C11.8688313,12.816163 11.6411082,12.5884279 11.3612306,12.5884279 L4.8944062,12.5884279 C4.61452854,12.5884279 4.38680544,12.816163 4.38680544,13.0961078 L4.38680544,13.1387628 L3.20098216,13.1387628 L3.20098216,13.0961078 C3.20098216,12.816163 2.97325906,12.5884279 2.6933814,12.5884279 L1,12.5884279 L1,10.4116148 L11.3795678,10.4116148 C11.6594455,10.4116148 11.8871686,10.183837 11.8871686,9.90389217 L11.8871686,1 L14.0634168,1 L14.0634168,9.90389217 C14.0634168,10.183837 14.2911399,10.4116148 14.5710175,10.4116148 L33,10.4116148 L33,12.5884279 L14.5526803,12.5884279 C14.2728026,12.5884279 14.0450795,12.816163 14.0450795,13.0961078 L14.0450795,22 L11.8688313,22 Z" id="Shape" fill="#164FCE"></path>
                        <path d="M11.9162637,1 L11.9162637,9.89738172 C11.9162637,10.2025812 11.6692892,10.4500043 11.3645477,10.4500043 L1,10.4500043 L1,12.5500385 L2.65514809,12.5500385 C2.95993239,12.5500385 3.20686411,12.7974188 3.20686411,13.1026183 L4.31029617,13.1026183 C4.31029617,12.7974188 4.55727066,12.5500385 4.8620122,12.5500385 L11.3461186,12.5500385 C11.6509029,12.5500385 11.8978347,12.7974188 11.8978347,13.1026183 L11.8978347,22 L13.9943812,22 L13.9943812,13.1026183 C13.9943812,12.7974188 14.2413557,12.5500385 14.5460973,12.5500385 L33,12.5500385 L33,10.4500043 L14.564569,10.4500043 C14.2597847,10.4500043 14.012853,10.2025812 14.012853,9.89738172 L14.012853,1 L11.9162637,1 Z" id="Shape" fill="#164FCE"></path>
                        <path d="M33.4516643,0 L0.548378185,0 C0.245437807,0 0,0.245220838 0,0.547651383 L0,22.4523911 C0,22.7548216 0.245437807,23 0.548378185,23 L33.4516218,23 C33.7545622,23 34,22.7548216 34,22.4523911 L34,0.547651383 C34.0000425,0.245220838 33.7546047,0 33.4516643,0 Z M32.9032436,9.36426995 L15.1276814,9.36426995 L15.1276814,1.09526033 L32.9032436,1.09526033 L32.9032436,9.36426995 Z M14.5793032,10.4595303 L32.9032436,10.4595303 L32.9032436,12.5405122 L14.5609857,12.5405122 C14.2580878,12.5405122 14.0126075,12.7856481 14.0126075,13.0880787 L14.0126075,21.9047397 L11.9287449,21.9047397 L11.9287449,13.0880787 C11.9287449,12.7856481 11.6833071,12.5405122 11.3803667,12.5405122 L4.93548867,12.5405122 C4.63259079,12.5405122 4.38711048,12.7856481 4.38711048,13.0880787 C4.38711048,13.3905092 4.63259079,13.6356876 4.93548867,13.6356876 L10.8319885,13.6356876 L10.8319885,21.9047397 L1.09679887,21.9047397 L1.09679887,13.6356876 L2.74193343,13.6356876 C3.04487381,13.6356876 3.29031161,13.3905092 3.29031161,13.0880787 C3.29031161,12.7856481 3.04487381,12.5405122 2.74193343,12.5405122 L1.09679887,12.5405122 L1.09679887,10.4595303 L11.3986417,10.4595303 C11.7015396,10.4595303 11.9470199,10.2143519 11.9470199,9.91192133 L11.9470199,1.09526033 L14.0308825,1.09526033 L14.0308825,9.91192133 C14.030925,10.2143519 14.2763628,10.4595303 14.5793032,10.4595303 Z M10.8502636,9.36426995 L1.09679887,9.36426995 L1.09679887,1.09526033 L10.8502636,1.09526033 L10.8502636,9.36426995 Z M15.1094064,21.9047397 L15.1094064,13.6356876 L32.9032861,13.6356876 L32.9032861,21.9047397 L15.1094064,21.9047397 Z" id="Shape" fill="#333333"></path>
                    </g>
                </g>
            </g>
        </g>
    </g>
</svg>