<?xml version="1.0" encoding="UTF-8"?>
<svg width="40px" height="40px" viewBox="0 0 40 40" version="1.1" xmlns="http://www.w3.org/2000/svg" xmlns:xlink="http://www.w3.org/1999/xlink">
    <!-- Generator: Sketch 49.3 (51167) - http://www.bohemiancoding.com/sketch -->
    <title>Insta</title>
    <desc>Created with Sketch.</desc>
    <defs></defs>
    <g id="Main-Page" stroke="none" stroke-width="1" fill="none" fill-rule="evenodd">
        <g id="Контент-4--RU-" transform="translate(-363.000000, -733.000000)" fill="#161620">
            <g id="Group-3" transform="translate(0.000000, 696.000000)">
                <g id="Footer">
                    <g id="Insta">
                        <g transform="translate(363.000000, 37.000000)">
                            <path d="M19.9842105,0 C8.94736842,0 0,8.94736842 0,19.9842105 C0,31.0157895 8.94736842,39.9631579 19.9842105,39.9631579 C31.0157895,39.9631579 39.9631579,31.0157895 39.9631579,19.9842105 C39.9631579,8.94736842 31.0157895,0 19.9842105,0 L19.9842105,0 Z M30.2315789,27.2894737 C30.2315789,28.5526316 29.1052632,29.4052632 27.8421053,29.4052632 L13.1315789,29.4052632 C11.8631579,29.4052632 10.7578947,28.5526316 10.7578947,27.2894737 L10.7578947,12.5684211 C10.7578947,11.3052632 11.8631579,10.4578947 13.1315789,10.4578947 L27.8421053,10.4578947 C29.1052632,10.4578947 30.2315789,11.3052632 30.2315789,12.5684211 L30.2315789,27.2894737 L30.2315789,27.2894737 Z" id="Instagram-Circle"></path>
                            <path d="M16.8,19.9526316 C16.8,17.9052632 18.4578947,16.2473684 20.5052632,16.2473684 C22.5578947,16.2473684 24.2210526,17.9052632 24.2210526,19.9526316 C24.2210526,21.9947368 22.5578947,23.6526316 20.5052632,23.6526316 C18.4578947,23.6526316 16.8,21.9947368 16.8,19.9526316 Z M27.6,15.1157895 C27.6,15.45 27.3289474,15.7210526 26.9947368,15.7210526 L25.0473684,15.7210526 C24.7131579,15.7210526 24.4421053,15.45 24.4421053,15.1157895 L24.4421053,13.1684211 C24.4421053,12.8342105 24.7131579,12.5631579 25.0473684,12.5631579 L26.9947368,12.5631579 C27.3289474,12.5631579 27.6,12.8342105 27.6,13.1684211 L27.6,15.1157895 Z M28.1263158,18.3526316 L28.1263158,27.1631579 C28.1263158,27.5 28.0526316,27.8263158 27.7210526,27.8263158 L13.2473684,27.8263158 C12.9157895,27.8263158 12.8631579,27.5 12.8631579,27.1631579 L12.8631579,18.3526316 L15.0578947,18.3526316 C14.7421053,18.3526316 14.6368421,19.5315789 14.6368421,20.0684211 C14.6368421,23.2947368 17.2736842,25.8684211 20.5052632,25.8684211 C23.7473684,25.8684211 26.3789474,23.3236842 26.3789474,20.0973684 C26.3789474,19.5605263 26.3,18.3526316 25.9105263,18.3526316 L28.1263158,18.3526316 Z" id="Instagram"></path>
                        </g>
                    </g>
                </g>
            </g>
        </g>
    </g>
</svg>