<?xml version="1.0" encoding="UTF-8"?>
<svg width="40px" height="40px" viewBox="0 0 40 40" version="1.1" xmlns="http://www.w3.org/2000/svg" xmlns:xlink="http://www.w3.org/1999/xlink">
    <!-- Generator: Sketch 49.3 (51167) - http://www.bohemiancoding.com/sketch -->
    <title>Linkedin</title>
    <desc>Created with Sketch.</desc>
    <defs></defs>
    <g id="Main-Page" stroke="none" stroke-width="1" fill="none" fill-rule="evenodd">
        <g id="Контент-4--RU-" transform="translate(-416.000000, -733.000000)" fill="#161620">
            <g id="Group-3" transform="translate(0.000000, 696.000000)">
                <g id="Footer">
                    <g id="Linkedin">
                        <path d="M436.002634,37 C424.955617,37 416,45.955617 416,57.002634 C416,68.044383 424.955617,77 436.002634,77 C447.044383,77 456,68.044383 456,57.002634 C456,45.955617 447.044383,37 436.002634,37 L436.002634,37 Z M427.294613,53.7891479 L430.98222,53.7891479 L430.98222,65.9055709 L427.294613,65.9055709 L427.294613,53.7891479 Z M428.922429,52.7355459 L428.896089,52.7355459 C427.521138,52.7355459 426.636112,51.6872119 426.636112,50.5229817 C426.636112,49.3376794 427.547478,48.3736336 428.948769,48.3736336 C430.344791,48.3736336 431.203477,49.3692875 431.235085,50.5545898 C431.235085,51.71882 430.344791,52.7355459 428.922429,52.7355459 L428.922429,52.7355459 Z M446.259449,65.9055709 L441.51824,65.9055709 L441.51824,59.7683393 C441.51824,58.1405242 440.975635,57.0342421 439.495325,57.0342421 C438.36797,57.0342421 437.714737,57.7822995 437.419729,58.5040169 C437.3091,58.7621493 437.303832,59.120374 437.303832,59.4838667 L437.303832,65.9055709 L433.226393,65.9055709 C433.226393,65.9055709 433.279073,54.8427499 433.226393,53.7891479 L437.303832,53.7891479 L437.303832,55.8594758 C437.830633,55.0376663 439.094956,53.8629 441.265376,53.8629 C443.957329,53.8629 446.259449,55.5855393 446.259449,59.3047544 L446.259449,65.9055709 L446.259449,65.9055709 Z"></path>
                    </g>
                </g>
            </g>
        </g>
    </g>
</svg>