<?xml version="1.0" encoding="UTF-8"?>
<svg width="45px" height="31px" viewBox="0 0 45 31" version="1.1" xmlns="http://www.w3.org/2000/svg" xmlns:xlink="http://www.w3.org/1999/xlink">
    <!-- Generator: Sketch 49.3 (51167) - http://www.bohemiancoding.com/sketch -->
    <title>visa</title>
    <desc>Created with Sketch.</desc>
    <defs></defs>
    <g id="Main-Page" stroke="none" stroke-width="1" fill="none" fill-rule="evenodd">
        <g id="Контент-4--RU-" transform="translate(-849.000000, -852.000000)">
            <g id="Group-3" transform="translate(0.000000, 696.000000)">
                <g id="Footer">
                    <g id="Group-15" transform="translate(849.000000, 156.000000)">
                        <g id="visa">
                            <rect id="Rectangle-Copy-4" fill="#FFFFFF" x="0.43373494" y="0" width="43.6389558" height="30.4457831" rx="3"></rect>
                            <path d="M27.7401917,11.5614278 C27.3144113,11.403452 26.6472697,11.2341283 25.8139846,11.2341283 C23.6905199,11.2341283 22.1944734,12.2912817 22.1817861,13.8063855 C22.1698539,14.9264006 23.2497866,15.5512858 24.0649469,15.9241264 C24.9014038,16.3060753 25.1826394,16.5497581 25.1787124,16.8909439 C25.173426,17.4133987 24.5106645,17.652154 23.8929129,17.652154 C23.0327428,17.652154 22.5758482,17.5340455 21.8700405,17.2430297 L21.593034,17.1190979 L21.291408,18.8639982 C21.7934634,19.0815508 22.7216013,19.2701362 23.6853846,19.2798417 C25.9444828,19.2798417 27.4110766,18.2347829 27.427842,16.6168008 C27.4358471,15.7301657 26.8632562,15.0552599 25.6233727,14.4990598 C24.8722532,14.138463 24.4121868,13.8977665 24.41702,13.5326903 C24.41702,13.2086758 24.8063999,12.8622639 25.6476901,12.8622639 C26.3506281,12.8515132 26.8596313,13.0029191 27.2562611,13.1608948 L27.4488365,13.2507827 L27.7401917,11.5614278" id="Fill-2" fill="#00579F"></path>
                            <path d="M30.6010919,16.4010549 C30.7788654,15.951914 31.4573349,14.2220946 31.4573349,14.2220946 C31.4446476,14.2428495 31.6337491,13.7708633 31.7423465,13.4782051 L31.8876466,14.1502739 C31.8876466,14.1502739 32.2990782,16.0108936 32.3850197,16.4010549 L30.6010919,16.4010549 Z M33.2512314,11.3770381 L31.5905518,11.3770381 C31.0761112,11.3770381 30.6911114,11.5157522 30.4651563,12.0234247 L27.273389,19.1668248 L29.5300706,19.1668248 C29.5300706,19.1668248 29.8992112,18.2062786 29.982585,17.9954452 C30.2292325,17.9954452 32.4215713,17.9987301 32.7349783,17.9987301 C32.7993211,18.2715294 32.9964277,19.1668248 32.9964277,19.1668248 L34.9906026,19.1668248 L33.2512314,11.3770381 L33.2512314,11.3770381 Z" id="Fill-4" fill="#00579F"></path>
                            <path d="M15.9947388,11.3752165 L13.8906071,16.690697 L13.6664644,15.6103997 C13.2748189,14.3651089 12.0544195,13.0160439 10.6899284,12.3406902 L12.61387,19.1575374 L14.8877701,19.1549991 L18.2712065,11.3752165 L15.9947388,11.3752165" id="Fill-6" fill="#00579F"></path>
                            <path d="M11.9387233,11.3704085 L8.47327233,11.3704085 L8.44578313,11.5325651 C11.1419898,12.1777571 12.9259176,13.7370583 13.6664644,15.6103699 L12.9129282,12.0284417 C12.7827321,11.5349542 12.4054354,11.3875798 11.9387233,11.3704085" id="Fill-8" fill="#F9A51A"></path>
                            <polygon id="Fill-1" fill="#00579F" points="19.1409223 11.3695276 17.7972747 19.164391 19.9455099 19.164391 21.2900638 11.3695276"></polygon>
                            <path d="M2.03614458,3.00618605 C2.03614458,1.34591534 3.38146066,0 5.04224283,0 L39.4641829,0 C41.1244051,0 42.4702811,1.34103673 42.4702811,3.00618605 L42.4702811,8.01204819 L2.03614458,8.01204819 L2.03614458,3.00618605 Z" id="Rectangle-Copy-5" fill="#00579F"></path>
                            <path d="M2.03614458,25.439921 C2.03614458,23.7796503 3.38146066,22.4337349 5.04224283,22.4337349 L39.4641829,22.4337349 C41.1244051,22.4337349 42.4702811,23.7747717 42.4702811,25.439921 L42.4702811,30.4457831 L2.03614458,30.4457831 L2.03614458,25.439921 Z" id="Rectangle-Copy-6" fill="#F9A51A" transform="translate(22.253213, 26.439759) rotate(180.000000) translate(-22.253213, -26.439759) "></path>
                            <rect id="Rectangle-Copy-4" stroke="#CAD2DB" x="0.93373494" y="0.5" width="42.6389558" height="29.4457831" rx="3"></rect>
                        </g>
                    </g>
                </g>
            </g>
        </g>
    </g>
</svg>