<?xml version="1.0" standalone="no"?>
<!DOCTYPE svg PUBLIC "-//W3C//DTD SVG 20010904//EN"
 "http://www.w3.org/TR/2001/REC-SVG-20010904/DTD/svg10.dtd">
<svg version="1.0" xmlns="http://www.w3.org/2000/svg"
 width="512.000000pt" height="512.000000pt" viewBox="0 0 512.000000 512.000000"
 preserveAspectRatio="xMidYMid meet">
<metadata>
Created by potrace 1.11, written by Peter Selinger 2001-2013
</metadata>
<g transform="translate(0.000000,512.000000) scale(0.100000,-0.100000)"
fill="#000000" stroke="none">
<path d="M313 4072 l-313 -56 0 -125 c0 -120 12 -195 253 -1563 140 -791 256
-1440 259 -1443 6 -6 606 100 615 109 5 5 -3 68 -34 241 l-6 30 39 -37 c129
-120 319 -188 530 -188 390 0 711 204 876 557 118 251 134 592 42 888 -107
342 -350 608 -651 711 -188 64 -378 67 -582 8 -167 -49 -317 -153 -422 -295
-30 -40 -55 -66 -56 -58 -2 8 -52 295 -113 639 -60 344 -110 628 -110 632 0 5
-3 8 -7 7 -5 -1 -149 -26 -320 -57z m1300 -1443 c397 -133 485 -746 138 -968
-146 -94 -337 -104 -489 -27 -109 55 -218 186 -263 316 -28 79 -33 245 -10
325 50 176 184 315 348 360 77 21 203 18 276 -6z"/>
<path d="M3890 3670 c-275 -45 -513 -168 -689 -356 -246 -263 -333 -636 -241
-1028 80 -341 289 -603 586 -737 74 -33 216 -72 302 -84 l52 -7 0 -274 0 -274
70 0 70 0 0 270 c0 257 1 270 19 270 10 0 33 3 50 6 l31 7 0 -277 0 -276 70 0
70 0 0 93 0 92 61 -93 62 -92 85 0 84 0 -24 33 c-14 17 -50 66 -81 108 l-56
76 69 82 c38 44 71 85 75 91 4 6 -22 10 -73 10 l-79 0 -49 -62 c-27 -34 -54
-69 -61 -77 -10 -13 -12 17 -13 145 l0 161 58 12 c284 61 535 212 680 409 65
88 108 170 96 182 -8 8 -496 210 -507 210 -3 0 -19 -22 -37 -50 -75 -117 -214
-206 -364 -235 -97 -19 -142 -19 -231 0 -145 31 -274 123 -324 232 -14 29 -22
55 -19 58 3 3 324 62 714 130 390 69 724 128 741 131 32 6 33 7 27 48 -48 345
-152 590 -333 779 -92 96 -169 153 -282 207 -134 64 -219 82 -399 86 -85 1
-180 -1 -210 -6z m325 -502 c91 -47 179 -163 199 -263 l6 -30 -277 -48 c-153
-27 -349 -61 -437 -77 l-159 -28 6 72 c13 179 147 330 342 388 45 13 87 17
165 15 90 -3 112 -7 155 -29z"/>
<path d="M2900 1215 l0 -305 65 0 c58 0 65 2 65 20 0 18 2 18 38 -6 32 -22 45
-25 98 -22 112 7 177 85 178 209 0 57 -4 74 -30 115 -51 85 -155 118 -236 74
l-37 -20 -3 118 -3 117 -67 3 -68 3 0 -306z m275 -21 c31 -20 46 -73 34 -118
-18 -64 -94 -87 -142 -42 -88 81 9 225 108 160z"/>
<path d="M3509 1292 c-43 -22 -59 -38 -82 -82 -26 -49 -28 -62 -24 -119 6 -78
41 -133 107 -168 39 -21 56 -24 122 -21 66 3 82 7 119 33 23 17 44 35 46 40 1
6 -17 23 -42 38 l-45 29 -26 -21 c-37 -29 -85 -27 -123 5 -17 14 -31 30 -31
35 0 5 65 9 146 9 l147 0 -6 54 c-6 57 -33 120 -64 148 -60 54 -162 63 -244
20z m144 -73 c25 -14 37 -28 37 -46 0 -9 -23 -13 -80 -13 -82 0 -89 3 -67 31
28 37 72 48 110 28z"/>
<path d="M4685 1304 c-22 -8 -49 -23 -60 -34 -19 -20 -19 -20 14 -54 l33 -34
32 19 c40 24 98 25 119 1 28 -31 20 -39 -46 -44 -76 -6 -149 -37 -172 -72 -22
-33 -21 -97 0 -130 36 -55 141 -74 203 -36 26 16 32 17 32 5 0 -12 14 -15 66
-15 l66 0 -4 143 c-3 157 -17 201 -71 241 -36 27 -154 33 -212 10z m155 -248
c0 -47 -59 -79 -106 -57 -56 25 -8 81 69 81 33 0 37 -3 37 -24z"/>
</g>
</svg>
