<svg width="174" height="169" viewBox="0 0 174 169" version="1.1" xmlns="http://www.w3.org/2000/svg" xmlns:xlink="http://www.w3.org/1999/xlink">
<title>space_by_kosmofish</title>
<desc>Created using Figma</desc>
<g id="Canvas" transform="translate(-1465 -1521)">
<g id="space_by_kosmofish">
<g id="g10">
<g id="g12">
<g id="path38">
<use xlink:href="#path0_fill" transform="matrix(0.133333 0 0 -0.133333 1505.76 1648.8)" fill="#1D5479"/>
</g>
<g id="path40">
<use xlink:href="#path1_fill" transform="matrix(0.133333 0 0 -0.133333 1541.56 1681.68)" fill="#1D5479"/>
</g>
<g id="path42">
<use xlink:href="#path2_fill" transform="matrix(0.133333 0 0 -0.133333 1549.62 1689.19)" fill="#1D5479"/>
</g>
<g id="path44">
<use xlink:href="#path3_fill" transform="matrix(0.133333 0 0 -0.133333 1557.68 1675.16)" fill="#1D5479"/>
</g>
<g id="path46">
<use xlink:href="#path4_fill" transform="matrix(0.133333 0 0 -0.133333 1465.51 1543.25)" fill="#1D5479"/>
</g>
<g id="path48">
<use xlink:href="#path5_fill" transform="matrix(0.133333 0 0 -0.133333 1622.54 1590.73)" fill="#1D5479"/>
</g>
<g id="path50">
<use xlink:href="#path6_fill" transform="matrix(0.133333 0 0 -0.133333 1590.13 1568.81)" fill="#1D5479"/>
</g>
<g id="path52">
<use xlink:href="#path7_fill" transform="matrix(0.133333 0 0 -0.133333 1497.14 1592.67)" fill="#1D5479"/>
</g>
<g id="path54">
<use xlink:href="#path8_fill" transform="matrix(0.133333 0 0 -0.133333 1482.01 1685.41)" fill="#1D5479"/>
</g>
<g id="path56">
<use xlink:href="#path9_fill" transform="matrix(0.133333 0 0 -0.133333 1469.33 1641.8)" fill="#1D5479"/>
</g>
<g id="path58">
<use xlink:href="#path10_fill" transform="matrix(0.133333 0 0 -0.133333 1617.12 1613.05)" fill="#1D5479"/>
</g>
<g id="path60">
<use xlink:href="#path11_fill" transform="matrix(0.133333 0 0 -0.133333 1589.4 1531.97)" fill="#1D5479"/>
</g>
<g id="path62">
<use xlink:href="#path12_fill" transform="matrix(0.133333 0 0 -0.133333 1513.5 1543.29)" fill="#1D5479"/>
</g>
<g id="path64">
<use xlink:href="#path13_fill" transform="matrix(0.133333 0 0 -0.133333 1469.33 1571.8)" fill="#1D5479"/>
</g>
<g id="path66">
<use xlink:href="#path14_fill" transform="matrix(0.133333 0 0 -0.133333 1631.84 1525.56)" fill="#1D5479"/>
</g>
<g id="path68">
<use xlink:href="#path15_fill" transform="matrix(0.133333 0 0 -0.133333 1600.16 1688.33)" fill="#1D5479"/>
</g>
</g>
</g>
</g>
</g>
<defs>
<path id="path0_fill" d="M 636.832 118.7L 459.651 111.6L 432.081 262.7C 424.44 304.6 388.018 335 345.479 335C 302.94 335 266.522 304.6 258.877 262.7L 231.288 111.5L 54.1314 118.7C 39.0884 121.9 29.1514 136 31.3774 151.4L 37.0964 190.9C 38.0964 197.8 41.5774 204.2 46.8894 208.8L 200.252 341.2C 222.534 360.4 236.022 387.2 238.225 416.6L 261.252 722.9C 262.866 744.4 268.643 764.9 278.424 784.1L 316.678 858.8C 322.335 869.9 333.1 876.5 345.479 876.5C 357.862 876.5 368.627 869.9 374.28 858.8L 412.53 784.1C 422.319 764.9 428.092 744.4 429.71 722.9L 452.733 416.6C 454.94 387.2 468.424 360.4 490.713 341.2L 644.082 208.7C 649.382 204.2 652.862 197.8 653.862 190.9L 659.582 151.4C 661.812 136 651.862 121.9 636.832 118.7L 636.832 118.7ZM 428.76 39.5001C 414.811 30.9001 387.647 31.0002 356.213 31.1002L 345.479 31.1002L 334.745 31.1002C 303.252 31.0002 276.139 30.9001 262.194 39.5001C 255.475 43.6001 251.948 51.7999 253.42 59.7999L 289.432 257.1C 294.374 284.3 317.952 304 345.479 304C 373.006 304 396.585 284.3 401.53 257.1L 437.542 59.7999C 439.01 51.7999 435.479 43.6001 428.76 39.5001ZM 684.602 195.3C 682.512 209.7 675.322 222.8 664.362 232.3L 511.01 364.7C 494.983 378.5 485.288 397.8 483.694 418.9L 460.67 725.3C 458.752 750.8 451.854 775.4 440.17 798.2L 401.924 872.9C 391.022 894.3 369.389 907.5 345.479 907.5C 321.569 907.5 299.94 894.3 289.038 872.9L 250.784 798.2C 239.108 775.3 232.206 750.8 230.288 725.3L 207.264 418.9C 205.674 397.8 195.975 378.5 179.956 364.7L 26.6124 232.3C 15.6244 222.8 8.4364 209.7 6.3624 195.3L 0.643401 155.9C -4.0556 123.5 17.4604 93.7 49.6204 87.9L 225.659 80.6998L 222.866 65.4C 219.116 44.8 228.393 23.8001 245.944 13.0001C 267.428 -0.199903 297.217 -0.199805 334.842 0.100195L 345.479 0.100195L 356.116 0.100195C 359.596 0.00019531 363.006 9.76563e-05 366.35 9.76563e-05C 399.217 9.76563e-05 425.53 1.1001 445.014 13.0001C 462.565 23.8001 471.838 44.8 468.092 65.4L 465.284 80.7999L 639.242 87.6998L 641.342 87.9C 673.492 93.7 695.002 123.5 690.312 155.9L 684.602 195.3"/>
<path id="path1_fill" d="M 15.523 154.3C 6.94898 154.3 2.97852e-05 147.4 2.97852e-05 138.8L 2.97852e-05 15.5C 2.97852e-05 7 6.94898 0 15.523 0C 24.102 0 31.051 7 31.051 15.5L 31.051 138.8C 31.051 147.4 24.102 154.3 15.523 154.3Z"/>
<path id="path2_fill" d="M 15.527 247.8C 6.94901 247.8 -2.83203e-05 240.9 -2.83203e-05 232.3L -2.83203e-05 15.5002C -2.83203e-05 6.9002 6.94901 0.000195313 15.527 0.000195313C 24.102 0.000195313 31.051 6.9002 31.051 15.5002L 31.051 232.3C 31.051 240.9 24.102 247.8 15.527 247.8Z"/>
<path id="path3_fill" d="M 15.528 105.4C 6.95299 105.4 -2.53906e-05 98.4998 -2.53906e-05 89.8998L -2.53906e-05 15.4999C -2.53906e-05 6.8999 6.95299 -9.76563e-05 15.528 -9.76563e-05C 24.102 -9.76563e-05 31.055 6.8999 31.055 15.4999L 31.055 89.8998C 31.055 98.4998 24.102 105.4 15.528 105.4Z"/>
<path id="path4_fill" d="M 83.05 31.0002C 54.379 31.0002 31.05 54.3002 31.05 83.0002C 31.05 111.7 54.379 135 83.05 135C 111.73 135 135.058 111.7 135.058 83.0002C 135.058 54.3002 111.73 31.0002 83.05 31.0002ZM 166.113 83.0002C 166.113 128.8 128.851 166.1 83.05 166.1C 37.254 166.1 7.20215e-06 128.8 7.20215e-06 83.0002C 7.20215e-06 37.2002 37.254 0.000195313 83.05 0.000195313C 128.851 0.000195313 166.113 37.2002 166.113 83.0002Z"/>
<path id="path5_fill" d="M 58.44 31.0001C 43.34 31.0001 31.0499 43.3 31.0499 58.4C 31.0499 73.5 43.34 85.7999 58.44 85.7999C 73.53 85.7999 85.81 73.5 85.81 58.4C 85.81 43.3 73.53 31.0001 58.44 31.0001ZM 58.44 116.9C 26.22 116.9 1.95312e-05 90.6 1.95312e-05 58.4C 1.95312e-05 26.2 26.22 9.76563e-05 58.44 9.76563e-05C 90.66 9.76563e-05 116.87 26.2 116.87 58.4C 116.87 90.6 90.66 116.9 58.44 116.9Z"/>
<path id="path6_fill" d="M 80.855 26.5L 64.655 42.7002L 80.855 58.8999C 86.925 64.9999 86.925 74.7999 80.855 80.8999C 74.795 86.8999 64.965 86.8999 58.905 80.8999L 42.705 64.7002L 26.505 80.8999C 20.435 86.8999 10.615 86.8999 4.54499 80.8999C -1.51501 74.7999 -1.51501 64.9999 4.54499 58.8999L 20.7449 42.7002L 4.54499 26.5C -1.51501 20.4 -1.51501 10.6 4.54499 4.5C 7.57499 1.5 11.555 0 15.525 0C 19.495 0 23.465 1.5 26.505 4.5L 42.705 20.7002L 58.905 4.5C 61.935 1.5 65.905 0 69.885 0C 73.855 0 77.825 1.5 80.855 4.5C 86.925 10.6 86.925 20.4 80.855 26.5Z"/>
<path id="path7_fill" d="M 69.8862 9.76563e-05C 73.8582 9.76563e-05 77.8273 1.5001 80.8623 4.5001C 86.9293 10.6001 86.9293 20.4001 80.8623 26.5001L 64.6593 42.6998L 80.8623 58.9C 86.9293 64.9 86.9293 74.7999 80.8623 80.7999C 74.7963 86.8999 64.9723 86.8999 58.9053 80.7999L 42.7062 64.6002L 26.5032 80.7999C 20.4402 86.8999 10.6122 86.8999 4.55024 80.7999C -1.51676 74.7999 -1.51676 64.9 4.55024 58.9L 20.7492 42.6998L 4.55024 26.5001C -1.51676 20.4001 -1.51676 10.6001 4.55024 4.5001C 7.58124 1.5001 11.5543 9.76563e-05 15.5263 9.76563e-05C 19.4993 9.76563e-05 23.4722 1.5001 26.5032 4.5001L 42.7062 20.6998L 58.9053 4.5001C 61.9403 1.5001 65.9092 9.76563e-05 69.8862 9.76563e-05Z"/>
<path id="path8_fill" d="M 92.403 69.5L 69.489 69.5L 69.489 92.3999C 69.489 101 62.539 107.9 53.965 107.9C 45.387 107.9 38.438 101 38.438 92.3999L 38.438 69.5L 15.528 69.5C 6.95399 69.5 -5.7373e-06 62.6 -5.7373e-06 54C -5.7373e-06 45.4 6.95399 38.3999 15.528 38.3999L 38.438 38.3999L 38.438 15.5C 38.438 7 45.387 0 53.965 0C 62.539 0 69.489 7 69.489 15.5L 69.489 38.3999L 92.403 38.3999C 100.977 38.3999 107.926 45.4 107.926 54C 107.926 62.6 100.977 69.5 92.403 69.5Z"/>
<path id="path9_fill" d="M 15.77 31.5001C 7.05899 31.5001 4.39453e-06 24.4999 4.39453e-06 15.7999C 4.39453e-06 6.9999 7.05899 9.76563e-05 15.77 9.76563e-05C 24.477 9.76563e-05 31.535 6.9999 31.535 15.7999C 31.535 24.4999 24.477 31.5001 15.77 31.5001Z"/>
<path id="path10_fill" d="M 15.77 0.000195313C 24.48 0.000195313 31.5401 7.1 31.5401 15.8C 31.5401 24.5 24.48 31.5002 15.77 31.5002C 7.06003 31.5002 1.46484e-05 24.5 1.46484e-05 15.8C 1.46484e-05 7.1 7.06003 0.000195313 15.77 0.000195313Z"/>
<path id="path11_fill" d="M 15.77 -0.000195313C 24.48 -0.000195313 31.5399 7.1001 31.5399 15.8001C 31.5399 24.5001 24.48 31.4998 15.77 31.4998C 7.06005 31.4998 2.92969e-05 24.5001 2.92969e-05 15.8001C 2.92969e-05 7.1001 7.06005 -0.000195313 15.77 -0.000195313Z"/>
<path id="path12_fill" d="M 15.769 -9.76563e-05C 24.48 -9.76563e-05 31.539 7.1002 31.539 15.8002C 31.539 24.5002 24.48 31.6 15.769 31.6C 7.06201 31.6 -8.05664e-06 24.5002 -8.05664e-06 15.8002C -8.05664e-06 7.1002 7.06201 -9.76563e-05 15.769 -9.76563e-05"/>
<path id="path13_fill" d="M 15.77 31.5001C 7.05899 31.5001 4.39453e-06 24.3998 4.39453e-06 15.6998C 4.39453e-06 6.9998 7.05899 9.76563e-05 15.77 9.76563e-05C 24.477 9.76563e-05 31.535 6.9998 31.535 15.6998C 31.535 24.3998 24.477 31.5001 15.77 31.5001Z"/>
<path id="path14_fill" d="M 15.77 -9.76563e-05C 24.48 -9.76563e-05 31.54 7.0001 31.54 15.7001C 31.54 24.5001 24.48 31.4999 15.77 31.4999C 7.05997 31.4999 -5.37109e-05 24.5001 -5.37109e-05 15.7001C -5.37109e-05 7.0001 7.05997 -9.76563e-05 15.77 -9.76563e-05Z"/>
<path id="path15_fill" d="M 173.992 43.1998C 151.592 30.6998 125.682 27.5998 100.962 34.6998C 76.2823 41.6998 55.8022 57.7999 43.2922 80.2999C 40.4422 85.3999 38.1422 90.7002 36.2722 96.1002L 114.912 140C 122.402 144.2 125.092 153.7 120.902 161.1C 116.722 168.6 107.272 171.3 99.7822 167.1L 31.2023 128.9C 31.3723 137 32.4722 145.2 34.7622 153.3C 41.7522 177.9 57.9522 198.4 80.3522 210.9C 94.8622 219 110.852 223.2 127.032 223.2C 135.822 223.2 144.672 222 153.372 219.5C 178.062 212.5 198.542 196.3 211.052 173.9C 214.382 167.9 216.982 161.7 218.922 155.4C 217.952 155.1 216.942 155 216.012 154.5L 126.702 104.6C 119.212 100.5 116.522 91.0001 120.712 83.5001C 123.552 78.4001 128.832 75.6002 134.282 75.6002C 136.842 75.6002 139.432 76.2001 141.832 77.5001L 223.002 122.8C 221.522 90.6999 204.082 59.9998 173.992 43.1998L 173.992 43.1998ZM 161.842 249.3C 129.172 258.7 94.8522 254.6 65.2222 238.1C 35.5722 221.5 14.1422 194.4 4.88219 161.7C -4.38781 129.1 -0.367756 94.8002 16.1822 65.1002C 39.4322 23.5002 82.7722 9.76563e-05 127.392 9.76563e-05C 148.332 9.76563e-05 169.572 5.2002 189.122 16.1002C 250.322 50.2002 272.322 127.8 238.162 189C 221.612 218.7 194.502 240.1 161.842 249.3"/>
</defs>
</svg>
