<?xml version="1.0" encoding="UTF-8"?>
<svg width="32px" height="32px" viewBox="0 0 32 32" version="1.1" xmlns="http://www.w3.org/2000/svg" xmlns:xlink="http://www.w3.org/1999/xlink">
    <!-- Generator: Sketch 49.3 (51167) - http://www.bohemiancoding.com/sketch -->
    <defs>
        <path d="M3.22522605,0.074217633 C3.15313279,0.150468626 2.99748269,0.246290707 2.86253075,0.297505957 C2.33870829,0.496521048 2.34686018,0.492517871 2.02186736,0.710976966 C1.88175679,0.805146942 1.72572457,0.901604448 1.67509371,0.925242256 C1.62452653,0.948943606 1.53084351,1.02208102 1.46690215,1.08778396 C1.40296078,1.15355044 1.3209961,1.23590151 1.28475841,1.27084988 C1.04835368,1.49884035 0.93919481,1.61683876 0.93919481,1.64447975 C0.93919481,1.6719301 0.846212344,1.81540905 0.550770112,2.24368546 C0.514405051,2.29642573 0.453329582,2.42223987 0.41511761,2.52327244 C0.376905638,2.62424146 0.297042616,2.815695 0.237622999,2.94868944 C0.178203382,3.08168388 0.102543677,3.31043685 0.0694903212,3.45702939 L0.00937015158,3.72359015 L0.00191881699,15.847498 C-0.00349454574,24.6843527 0.0022372501,28.0399047 0.023062775,28.2240508 C0.0593641486,28.5452581 0.122796023,28.7981573 0.22214715,29.0179508 C0.265262992,29.1133916 0.344807581,29.300969 0.398877522,29.4348531 C0.456259167,29.5766799 0.565545408,29.7762033 0.660947965,29.9130103 C0.75093716,30.0421287 0.859459161,30.2099444 0.902192883,30.2858777 C0.97046494,30.4074345 1.04988216,30.5007784 1.27501436,30.7241938 C1.30749454,30.7563463 1.39136981,30.8397141 1.4614251,30.9093566 C1.53148038,30.9789992 1.62764718,31.0548054 1.67515739,31.0778078 C1.72266761,31.1007466 1.86870103,31.1911041 1.9997681,31.2785385 C2.30310747,31.4808578 2.42353887,31.5439555 2.72242018,31.6570612 C2.99875643,31.7615886 3.16192155,31.8506751 3.23872761,31.9388721 L3.29203331,32 L12.5078057,32 C21.2550993,32 21.7252977,31.9977125 21.7568862,31.9555203 C21.8330554,31.8537887 22.1090096,31.7071962 22.4148327,31.6059095 C22.5846212,31.5496743 22.7168347,31.4777442 23.0002401,31.2873709 C23.1193341,31.2073709 23.2649854,31.1176489 23.3239592,31.0880381 C23.4725401,31.0134392 24.0234294,30.4586497 24.0945036,30.3120572 C24.1257101,30.2478157 24.2174188,30.1063066 24.2983008,29.9976489 C24.4621665,29.7776648 24.5159817,29.6802542 24.6175618,29.4201747 C24.6557738,29.3223193 24.7316246,29.1439555 24.786204,29.0238602 C24.8407198,28.9037649 24.9111572,28.6921684 24.942682,28.5536458 L25,28.3018268 L25,18.5162828 L25,8.73073868 L24.9438921,8.48470214 C24.9127493,8.34814932 24.8459421,8.15593328 24.7937827,8.05261319 C24.7420692,7.95030977 24.668129,7.77505957 24.6295349,7.66322478 C24.5291011,7.37213662 24.4905707,7.29010326 24.3955503,7.16454329 C24.3492501,7.10328832 24.2548665,6.97378872 24.1859576,6.87675933 C23.939363,6.52962669 23.7266497,6.30996029 21.2585384,3.85385226 C18.1388493,0.749356632 17.9785501,0.607720413 17.3576056,0.406862589 C17.0780213,0.31644162 16.8125118,0.178427323 16.7374252,0.0845115171 L16.6697901,0 L9.98263122,0 L3.2954087,0 L3.22522605,0.074217633 M14.7313604,1.82888006 C14.9264325,1.85397935 15.0120273,1.90335187 15.0903619,2.03602859 C15.1401648,2.12034948 15.1416933,2.18281176 15.1571691,4.77839555 C15.1755109,7.85855441 15.1734092,7.82862589 15.3966308,8.18122319 C15.4109603,8.20390786 15.4850915,8.33677522 15.5612607,8.47656871 C15.744105,8.81194599 16.0776955,9.15418586 16.4150436,9.35262907 C17.2025286,9.81579031 16.7940426,9.76864178 20.1598168,9.78490866 C23.0901019,9.79901509 23.0069272,9.79526608 23.1218816,9.91860207 C23.2316136,10.0363463 23.229512,9.86503574 23.229512,18.7575536 C23.2294483,28.6316759 23.2444146,28.0831136 22.9624103,28.5559968 C22.9040733,28.6538523 22.837075,28.7853852 22.8135746,28.8482923 C22.7586131,28.9952025 22.5726481,29.2420016 22.4587128,29.3192693 C22.4099925,29.3523114 22.347707,29.4146465 22.3203218,29.4577919 C22.2589915,29.5543765 22.0508637,29.7130421 21.8870617,29.7880858 C21.8197449,29.8189039 21.7360607,29.8571565 21.7010331,29.8731692 C21.6660054,29.8891183 21.5972239,29.9276251 21.5481852,29.9588245 C21.1242233,30.2283082 21.4256521,30.2196029 12.5174224,30.2201747 C4.7791159,30.2206831 4.34585582,30.2161716 3.95794062,30.1309611 C3.85986322,30.1094202 3.7509591,30.0857824 3.71593146,30.0785385 C3.68090382,30.0712311 3.60065868,30.0353932 3.53760892,29.9989833 C3.39896315,29.9187927 3.25821572,29.8464178 3.09014673,29.7688324 C3.02098306,29.7369341 2.91870235,29.6711676 2.86278549,29.6226847 C2.80693233,29.5742017 2.75362662,29.5345512 2.74432838,29.5345512 C2.73503013,29.5345512 2.70458793,29.4958539 2.6766295,29.4485782 C2.64867107,29.4013026 2.59307265,29.3430342 2.55307746,29.3190786 C2.45238891,29.2588403 2.16236004,28.8573153 2.16210529,28.7778237 C2.16204161,28.7600318 2.11077388,28.6570929 2.04816993,28.5490707 C1.90633983,28.3043685 1.839851,28.0323431 1.80546022,27.5569817 C1.77202474,27.0944559 1.77202474,4.89258141 1.80546022,4.43653693 C1.84169791,3.94268467 2.0088116,3.35504369 2.1130666,3.35504369 C2.12491231,3.35504369 2.14656576,3.31056394 2.16121368,3.25617156 C2.24782749,2.93540905 2.77426109,2.38595711 3.19510228,2.17709293 C3.34037146,2.10503574 3.51984036,2.01537728 3.59390789,1.97782367 C3.74178823,1.90290707 3.94456643,1.85918983 4.27637372,1.8307228 C4.59104931,1.80365369 14.521704,1.80193805 14.7313604,1.82888006 M17.4206553,2.66592534 C17.5977678,2.79879269 22.2953566,7.47335981 22.3801872,7.60127085 C22.4703674,7.73725179 22.4441285,7.83930103 22.2994325,7.91504369 C22.145693,7.99548848 17.9098959,7.99891978 17.6648298,7.91872915 C17.3470336,7.81483717 17.0660482,7.46268467 17.0147168,7.10405083 C16.9777149,6.84555997 16.9796891,3.01598094 17.0169458,2.8427641 C17.0752828,2.57118348 17.2134827,2.51069102 17.4206553,2.66592534" id="path-1"></path>
    </defs>
    <g id="baseIcon" stroke="none" stroke-width="1" fill="none" fill-rule="evenodd">
        <g id="plane1" transform="translate(4.000000, 0.000000)">
            <g id="colors/black">
                <mask id="mask-2" fill="white">
                    <use xlink:href="#path-1"></use>
                </mask>
                <use id="Mask" fill="#C1C1C1" xlink:href="#path-1"></use>
            </g>
        </g>
    </g>
</svg>
