<?xml version="1.0" encoding="UTF-8"?>
<svg width="12px" height="12px" viewBox="0 0 12 12" version="1.1" xmlns="http://www.w3.org/2000/svg" xmlns:xlink="http://www.w3.org/1999/xlink">
    <!-- Generator: Sketch 49.3 (51167) - http://www.bohemiancoding.com/sketch -->
    <title>deleteIcon</title>
    <desc>Created with Sketch.</desc>
    <defs></defs>
    <g id="OrderSteps" stroke="none" stroke-width="1" fill="none" fill-rule="evenodd" opacity="0.4">
        <g id="Final-Review---Case-2" transform="translate(-685.000000, -1628.000000)" fill="#EA4B36">
            <g id="Modal" transform="translate(87.000000, 186.000000)">
                <g id="main-content">
                    <g id="Данные-об-отправителе" transform="translate(0.000000, 1330.000000)">
                        <g id="Group" transform="translate(260.000000, 108.000000)">
                            <g id="deleteIcon" transform="translate(338.000000, 4.000000)">
                                <path d="M0.967250935,0.00679206423 C0.931817603,0.00983751151 0.907035273,0.0183529369 0.90295489,0.0288493814 C0.898724492,0.0396710679 0.879222659,0.0459097997 0.849579872,0.0459097997 C0.823897457,0.0459097997 0.80286548,0.0512319406 0.80286548,0.0577367794 C0.80286548,0.0642416183 0.791884447,0.0695637592 0.778473186,0.0695637592 C0.765091928,0.0695637592 0.750990602,0.0775469705 0.747210247,0.0873042288 C0.743399889,0.0970614871 0.727378382,0.105044698 0.711566896,0.105044698 C0.694045248,0.105044698 0.682854196,0.111963482 0.682854196,0.122785168 C0.682854196,0.133015505 0.671993175,0.140525638 0.657231787,0.140525638 C0.643130461,0.140525638 0.619098202,0.15383099 0.603796763,0.170093087 C0.588495325,0.186355184 0.567253328,0.199660536 0.556572323,0.199660536 C0.53452025,0.199660536 0.502837271,0.227069562 0.502837271,0.246110999 C0.502837271,0.253088917 0.49473651,0.258795435 0.484835579,0.258795435 C0.474934648,0.258795435 0.466833886,0.264117576 0.466833886,0.270622415 C0.466833886,0.277127254 0.453332617,0.282449394 0.436831066,0.282449394 C0.420329514,0.282449394 0.406828245,0.288126345 0.406828245,0.295074695 C0.406828245,0.302023046 0.387926468,0.325263061 0.364824296,0.346729029 C0.341722124,0.368194997 0.322820346,0.397111963 0.322820346,0.410979097 C0.322820346,0.42484623 0.317029802,0.436200131 0.309949136,0.436200131 C0.293357576,0.436200131 0.262814705,0.466299794 0.262814705,0.482650594 C0.262814705,0.489628512 0.25702416,0.49533503 0.249943495,0.49533503 C0.229181543,0.49533503 0.202809063,0.527238307 0.202809063,0.552370639 C0.202809063,0.565143778 0.194708302,0.578656102 0.184807371,0.582411168 C0.17490644,0.586136667 0.166805678,0.599708126 0.166805678,0.612540399 C0.166805678,0.625372672 0.16140517,0.639151103 0.15480455,0.643172276 C0.148203929,0.647193449 0.142803422,0.660824044 0.142803422,0.673449344 C0.142803422,0.686074645 0.13470266,0.696393685 0.124801729,0.696393685 C0.112800601,0.696393685 0.106800037,0.708220665 0.106800037,0.731874624 C0.106800037,0.755528584 0.100799472,0.767355564 0.0887983441,0.767355564 C0.0762271621,0.767355564 0.0707966516,0.779833027 0.0707966516,0.808749993 C0.0707966516,0.831516929 0.0653961438,0.850144422 0.0587955232,0.850144422 C0.0521949027,0.850144422 0.0467943949,0.871432985 0.0467943949,0.897452341 C0.0467943949,0.929296484 0.0414838956,0.94476026 0.0305928717,0.94476026 C-0.0111110493,0.94476026 -0.00973091951,1.61413775 0.0320030042,1.62782747 C0.0401337687,1.63051811 0.0467943949,1.65089008 0.0467943949,1.67309524 C0.0467943949,1.69532996 0.0521949027,1.71351394 0.0587955232,1.71351394 C0.0653961438,1.71351394 0.0707966516,1.72681929 0.0707966516,1.74308139 C0.0707966516,1.76147235 0.0776072919,1.77264884 0.0887983441,1.77264884 C0.101789565,1.77264884 0.106800037,1.78577679 0.106800037,1.81995676 C0.106800037,1.85413673 0.111810508,1.86726468 0.124801729,1.86726468 C0.135002688,1.86726468 0.142803422,1.87787939 0.142803422,1.89177609 C0.142803422,1.91794329 0.168785864,1.95005354 0.189937853,1.95005354 C0.197018519,1.95005354 0.202809063,1.96335889 0.202809063,1.97962099 C0.202809063,1.99588308 0.208209571,2.00918844 0.214810191,2.00918844 C0.221410812,2.00918844 0.22681132,2.01717165 0.22681132,2.02692891 C0.22681132,2.03668616 0.234912081,2.04466938 0.244813012,2.04466938 C0.255073977,2.04466938 0.262814705,2.05531366 0.262814705,2.06938776 C0.262814705,2.08473327 0.301518344,2.13183422 0.364824296,2.19351191 C0.420929571,2.24818213 0.466833886,2.29826939 0.466833886,2.30480379 C0.466833886,2.3113382 0.472234394,2.31668991 0.478835015,2.31668991 C0.499716978,2.31668991 0.622848555,2.44687539 0.622848555,2.46896227 C0.622848555,2.48058228 0.636349824,2.49722875 0.652851375,2.50592158 C0.669352927,2.51461441 0.682854196,2.52883636 0.682854196,2.53749962 C0.682854196,2.54613332 0.688254704,2.5532295 0.694855325,2.5532295 C0.710486794,2.5532295 0.80286548,2.64426768 0.80286548,2.65967232 C0.80286548,2.66617716 0.810066157,2.6714993 0.81882698,2.6714993 C0.827617807,2.6714993 0.842049164,2.68480465 0.850869993,2.70106675 C0.859690822,2.71732885 0.874122179,2.7306342 0.882913005,2.7306342 C0.891673829,2.7306342 0.898874506,2.73634072 0.898874506,2.74331864 C0.898874506,2.75966943 0.929417378,2.7897691 0.946008938,2.7897691 C0.953089603,2.7897691 0.958880148,2.79547562 0.958880148,2.80245353 C0.958880148,2.81880433 0.989423019,2.848904 1.00601458,2.848904 C1.01309524,2.848904 1.01888579,2.85461051 1.01888579,2.86158843 C1.01888579,2.87793923 1.04942866,2.9080389 1.06602022,2.9080389 C1.07310089,2.9080389 1.07889143,2.91374541 1.07889143,2.92072333 C1.07889143,2.93707413 1.1094343,2.96717379 1.12602586,2.96717379 C1.13310653,2.96717379 1.13889707,2.97515701 1.13889707,2.98491426 C1.13889707,2.99467152 1.14429758,3.00265473 1.1508982,3.00265473 C1.15749882,3.00265473 1.16289933,3.01081535 1.16289933,3.02080915 C1.16289933,3.04088545 1.32278436,3.20371339 1.34249621,3.20371339 C1.34933686,3.20371339 1.35491738,3.20941991 1.35491738,3.21639782 C1.35491738,3.23274862 1.38546025,3.26284829 1.40205181,3.26284829 C1.40913248,3.26284829 1.41492302,3.26864351 1.41492302,3.2757397 C1.41492302,3.28283588 1.46082734,3.33336665 1.51693261,3.38803687 C1.57303789,3.44270708 1.61894221,3.49279434 1.61894221,3.49932875 C1.61894221,3.50586315 1.62473275,3.51121486 1.63181342,3.51121486 C1.64840498,3.51121486 1.67894785,3.54131453 1.67894785,3.55766533 C1.67894785,3.56464324 1.68704861,3.57034976 1.69694954,3.57034976 C1.70685047,3.57034976 1.71495123,3.58060967 1.71495123,3.59314626 C1.71495123,3.60568286 1.7284525,3.62640964 1.74495405,3.63921235 C1.7614556,3.65198549 1.77495687,3.66605959 1.77495687,3.67046514 C1.77495687,3.68309045 1.80786997,3.71227352 1.82209131,3.71227352 C1.82917197,3.71227352 1.83496252,3.71936971 1.83496252,3.7280034 C1.83496252,3.73666666 1.84846379,3.75088861 1.86496534,3.75958144 C1.88146689,3.76827427 1.89496816,3.78249621 1.89496816,3.79115947 C1.89496816,3.79979317 1.9007587,3.80688936 1.90783937,3.80688936 C1.92443093,3.80688936 1.9549738,3.83698902 1.9549738,3.85333982 C1.9549738,3.86031774 1.96076434,3.86602425 1.96784501,3.86602425 C1.98443657,3.86602425 2.01497944,3.89612392 2.01497944,3.91247472 C2.01497944,3.91945264 2.0230802,3.92515915 2.03298113,3.92515915 C2.04288206,3.92515915 2.05098283,3.93086567 2.05098283,3.93784359 C2.05098283,3.95419439 2.0815257,3.98429405 2.09811726,3.98429405 C2.10519792,3.98429405 2.11098847,3.99000057 2.11098847,3.99697849 C2.11098847,4.01332929 2.14153134,4.04342895 2.1581229,4.04342895 C2.16520356,4.04342895 2.17099411,4.04913547 2.17099411,4.05611339 C2.17099411,4.07246419 2.20153698,4.10256385 2.21812854,4.10256385 C2.22520921,4.10256385 2.23099975,4.11054706 2.23099975,4.12030432 C2.23099975,4.13006158 2.23640026,4.13804479 2.24300088,4.13804479 C2.2496015,4.13804479 2.25500201,4.14641238 2.25500201,4.15664271 C2.25500201,4.17707382 2.53411825,4.45737324 2.55443016,4.45737324 C2.56136081,4.45737324 2.56703134,4.46316846 2.56703134,4.47026465 C2.56703134,4.47736084 2.61293566,4.52789161 2.66904093,4.58256182 C2.72514621,4.63723204 2.77105053,4.68731929 2.77105053,4.6938537 C2.77105053,4.70038811 2.77684107,4.70573982 2.78392174,4.70573982 C2.80507372,4.70573982 2.83105617,4.73785007 2.83105617,4.76401726 C2.83105617,4.77791396 2.8388569,4.78852867 2.84905786,4.78852867 C2.85895879,4.78852867 2.86705955,4.79423519 2.86705955,4.80121311 C2.86705955,4.81756391 2.89760242,4.84766357 2.91419398,4.84766357 C2.92127465,4.84766357 2.92706519,4.85337009 2.92706519,4.86034801 C2.92706519,4.87669881 2.95760807,4.90679847 2.97419962,4.90679847 C2.98128029,4.90679847 2.98707084,4.91389466 2.98707084,4.92252835 C2.98707084,4.93119162 3.0005721,4.94541356 3.01707366,4.95410639 C3.03357521,4.96279922 3.04707648,4.97474447 3.04707648,4.98059882 C3.04707648,4.99535298 3.07857944,5.02506827 3.09421091,5.02506827 C3.10129157,5.02506827 3.10708212,5.03305148 3.10708212,5.04280874 C3.10708212,5.052566 3.11287266,5.06054921 3.11995333,5.06054921 C3.13654489,5.06054921 3.16708776,5.09064887 3.16708776,5.10699967 C3.16708776,5.11397759 3.17518852,5.11968411 3.18508945,5.11968411 C3.19499038,5.11968411 3.20309114,5.12539062 3.20309114,5.13236854 C3.20309114,5.14871934 3.23363402,5.178819 3.25022558,5.178819 C3.25730624,5.178819 3.26309679,5.18452552 3.26309679,5.19150344 C3.26309679,5.20785424 3.29363966,5.2379539 3.31023122,5.2379539 C3.31731188,5.2379539 3.32310243,5.24593711 3.32310243,5.25569437 C3.32310243,5.26545163 3.32850294,5.27343484 3.33510356,5.27343484 C3.34170418,5.27343484 3.34710468,5.28180243 3.34710468,5.2920032 C3.34710468,5.31234561 3.68622657,5.65189819 3.70653848,5.65189819 C3.71346913,5.65189819 3.71913966,5.65766385 3.71913966,5.66473047 C3.71913966,5.67176752 3.75964347,5.71709442 3.80914813,5.76540763 C3.85865278,5.81372084 3.89915659,5.86153141 3.89915659,5.87167305 C3.89915659,5.89281377 3.92723923,5.92391873 3.94629102,5.92391873 C3.95337169,5.92391873 3.95916223,5.92962525 3.95916223,5.93660316 C3.95916223,5.95295396 3.9897051,5.98305363 4.00629666,5.98305363 C4.01337733,5.98305363 4.01916787,5.98876014 4.01916787,5.99573806 C4.01916787,6.01208886 4.04971074,6.04218853 4.0663023,6.04218853 C4.07338297,6.04218853 4.07917351,6.04789504 4.07917351,6.05487296 C4.07917351,6.07122376 4.10971638,6.10132342 4.12630794,6.10132342 C4.13338861,6.10132342 4.13917915,6.10930664 4.13917915,6.11906389 C4.13917915,6.12882115 4.14457966,6.13680436 4.15118028,6.13680436 C4.17746275,6.13680436 4.1599111,6.16421339 4.09117464,6.23047404 C4.04830061,6.27180934 4.01916787,6.30998091 4.01916787,6.32479421 C4.01916787,6.33848394 4.01337733,6.34969 4.00629666,6.34969 C3.9897051,6.34969 3.95916223,6.37978966 3.95916223,6.39614046 C3.95916223,6.40311838 3.95337169,6.4088249 3.94629102,6.4088249 C3.92969946,6.4088249 3.89915659,6.43892456 3.89915659,6.45527536 C3.89915659,6.46225328 3.89336604,6.4679598 3.88628538,6.4679598 C3.86969382,6.4679598 3.83915095,6.49805946 3.83915095,6.51441026 C3.83915095,6.52138818 3.83195027,6.52709469 3.82318945,6.52709469 C3.81439862,6.52709469 3.79996726,6.54040005 3.79114643,6.55666214 C3.7823256,6.57292424 3.76882433,6.58622959 3.76114361,6.58622959 C3.75346289,6.58622959 3.73996162,6.59953495 3.73114079,6.61579704 C3.72231996,6.63205914 3.7110089,6.64536449 3.70602843,6.64536449 C3.69423732,6.64536449 3.62313064,6.71543935 3.62313064,6.72705935 C3.62313064,6.73196755 3.60962937,6.74311448 3.59312782,6.75180731 C3.57662626,6.76050014 3.56312499,6.77380549 3.56312499,6.78137476 C3.56312499,6.78894403 3.54962373,6.80224938 3.53312217,6.81094221 C3.51662062,6.81963504 3.50311935,6.83385698 3.50311935,6.84252024 C3.50311935,6.85115394 3.49501859,6.85825013 3.48511766,6.85825013 C3.4749167,6.85825013 3.46711597,6.86886484 3.46711597,6.88276154 C3.46711597,6.90892874 3.44113353,6.94103899 3.41998154,6.94103899 C3.41290087,6.94103899 3.40711033,6.9467455 3.40711033,6.95372342 C3.40711033,6.97007422 3.37656745,7.00017388 3.3599759,7.00017388 C3.35289523,7.00017388 3.34710468,7.0058804 3.34710468,7.01285832 C3.34710468,7.02920912 3.31656181,7.05930878 3.29997025,7.05930878 C3.29288959,7.05930878 3.28709904,7.06436482 3.28709904,7.07054441 C3.28709904,7.07675358 3.20609143,7.16164173 3.10708212,7.25921431 C2.99220132,7.37242807 2.92706519,7.44537097 2.92706519,7.46083474 C2.92706519,7.47416966 2.92127465,7.48508005 2.91419398,7.48508005 C2.89760242,7.48508005 2.86705955,7.51517972 2.86705955,7.53153052 C2.86705955,7.53850843 2.86126901,7.54421495 2.85418834,7.54421495 C2.83759678,7.54421495 2.80705391,7.57431462 2.80705391,7.59066541 C2.80705391,7.59764333 2.80126337,7.60334985 2.7941827,7.60334985 C2.77759114,7.60334985 2.74704827,7.63344951 2.74704827,7.64980031 C2.74704827,7.65677823 2.74125772,7.66248475 2.73417706,7.66248475 C2.7175855,7.66248475 2.68704263,7.69258441 2.68704263,7.70893521 C2.68704263,7.71591313 2.67984195,7.72161965 2.67108113,7.72161965 C2.6622903,7.72161965 2.64785894,7.734925 2.63903811,7.7511871 C2.63021728,7.76744919 2.61671601,7.78075455 2.60903529,7.78075455 C2.60135457,7.78075455 2.5878533,7.7940599 2.57903247,7.810322 C2.57021164,7.82658409 2.55890058,7.83988945 2.55392011,7.83988945 C2.542129,7.83988945 2.47102232,7.9099643 2.47102232,7.92158431 C2.47102232,7.9264925 2.45752105,7.93763943 2.4410195,7.94633226 C2.42451794,7.95502509 2.41101668,7.96924704 2.41101668,7.9779103 C2.41101668,7.98654399 2.40291591,7.99364018 2.39301498,7.99364018 C2.38281402,7.99364018 2.37501329,8.0042549 2.37501329,8.0181516 C2.37501329,8.04431879 2.34903085,8.07642904 2.32787886,8.07642904 C2.32079819,8.07642904 2.31500765,8.08213556 2.31500765,8.08911348 C2.31500765,8.10546428 2.28446478,8.13556394 2.26787322,8.13556394 C2.26079255,8.13556394 2.25500201,8.14127046 2.25500201,8.14824837 C2.25500201,8.16459917 2.22445914,8.19469884 2.20786758,8.19469884 C2.20078691,8.19469884 2.19499637,8.20040536 2.19499637,8.20738327 C2.19499637,8.22373407 2.16445349,8.25383374 2.14786193,8.25383374 C2.14078127,8.25383374 2.13499072,8.25897847 2.13499072,8.26524677 C2.13499072,8.27154464 2.06748438,8.3432457 1.98497662,8.42461532 C1.89178786,8.51654052 1.83496252,8.58164805 1.83496252,8.59652047 C1.83496252,8.60970756 1.82917197,8.62047011 1.82209131,8.62047011 C1.80549975,8.62047011 1.77495687,8.65056977 1.77495687,8.66692057 C1.77495687,8.67389849 1.76916633,8.67960501 1.76208566,8.67960501 C1.7454941,8.67960501 1.71495123,8.70970467 1.71495123,8.72605547 C1.71495123,8.73303339 1.70916069,8.73873991 1.70208002,8.73873991 C1.68548846,8.73873991 1.65494559,8.76883957 1.65494559,8.78519037 C1.65494559,8.79216829 1.64915505,8.7978748 1.64207438,8.7978748 C1.62548282,8.7978748 1.59493995,8.82797447 1.59493995,8.84432527 C1.59493995,8.85130318 1.5891494,8.8570097 1.58206874,8.8570097 C1.56547718,8.8570097 1.53493431,8.88710937 1.53493431,8.90346017 C1.53493431,8.91043808 1.52773363,8.9161446 1.51897281,8.9161446 C1.51018198,8.9161446 1.49575062,8.92944995 1.48692979,8.94571205 C1.47810896,8.96197415 1.46598783,8.9752795 1.46004727,8.9752795 C1.44507586,8.9752795 1.41492302,9.00632532 1.41492302,9.02172996 C1.41492302,9.02870788 1.40772235,9.0344144 1.39896152,9.0344144 C1.3901707,9.0344144 1.37573934,9.04771975 1.36691851,9.06398185 C1.35809768,9.08024395 1.34366632,9.0935493 1.3348755,9.0935493 C1.32611467,9.0935493 1.318914,9.10097073 1.318914,9.11001837 C1.318914,9.11909557 1.31081324,9.12956245 1.30091231,9.13331752 C1.29101137,9.13704302 1.28291061,9.14816038 1.28291061,9.15800634 C1.28291061,9.17755042 1.13376659,9.33008889 1.1146848,9.33008889 C1.10820419,9.33008889 1.10289369,9.33579541 1.10289369,9.34277333 C1.10289369,9.35912413 1.07235082,9.38922379 1.05575926,9.38922379 C1.04867859,9.38922379 1.04288805,9.39493031 1.04288805,9.40190823 C1.04288805,9.41825903 1.01234517,9.44835869 0.995753615,9.44835869 C0.988672949,9.44835869 0.982882404,9.4537104 0.982882404,9.4602448 C0.982882404,9.46677921 0.936978089,9.51686647 0.880872814,9.57153668 C0.817566862,9.63321438 0.778863223,9.68031533 0.778863223,9.69566084 C0.778863223,9.70973494 0.771122495,9.72037922 0.76086153,9.72037922 C0.7509606,9.72037922 0.742859838,9.72608574 0.742859838,9.73306366 C0.742859838,9.74941446 0.712316966,9.77951412 0.695725406,9.77951412 C0.688644741,9.77951412 0.682854196,9.78749733 0.682854196,9.79725459 C0.682854196,9.80701185 0.677063652,9.81499506 0.669982986,9.81499506 C0.653391426,9.81499506 0.622848555,9.84509472 0.622848555,9.86144552 C0.622848555,9.86842344 0.61705801,9.87412996 0.609977344,9.87412996 C0.590655528,9.87412996 0.562842913,9.90535319 0.562842913,9.92708526 C0.562842913,9.93761127 0.549341644,9.95854503 0.532840092,9.97362443 C0.516338541,9.98870383 0.502837271,10.0123874 0.502837271,10.0262841 C0.502837271,10.0401808 0.497046727,10.0515347 0.489966061,10.0515347 C0.468694061,10.0515347 0.44283163,10.083704 0.44283163,10.1101965 C0.44283163,10.1238862 0.434730868,10.1381377 0.424829937,10.1418632 C0.413728894,10.1460618 0.406828245,10.1640388 0.406828245,10.1888163 C0.406828245,10.2108736 0.401427737,10.2289394 0.394827116,10.2289394 C0.388226496,10.2289394 0.382825988,10.2502279 0.382825988,10.2762473 C0.382825988,10.3104272 0.377815517,10.3235552 0.364824296,10.3235552 C0.352253114,10.3235552 0.346822603,10.3360327 0.346822603,10.3649496 C0.346822603,10.3877166 0.341422095,10.406344 0.334821475,10.406344 C0.327140753,10.406344 0.322820346,10.5127869 0.322820346,10.7020185 C0.322820346,10.8912502 0.327140753,10.997693 0.334821475,10.997693 C0.341422095,10.997693 0.346822603,11.0164979 0.346822603,11.0394718 C0.346822603,11.0656686 0.353513232,11.0837639 0.364824296,11.0880216 C0.375835331,11.0921906 0.382825988,11.110138 0.382825988,11.1342651 C0.382825988,11.1559676 0.388226496,11.17699 0.394827116,11.1810112 C0.401427737,11.1850324 0.406828245,11.2066462 0.406828245,11.2290288 C0.406828245,11.2572952 0.412318761,11.2697136 0.424829937,11.2697136 C0.436020989,11.2697136 0.44283163,11.2808901 0.44283163,11.299281 C0.44283163,11.3155431 0.448232137,11.3288485 0.454832758,11.3288485 C0.461433379,11.3288485 0.466833886,11.3368317 0.466833886,11.3465889 C0.466833886,11.3563462 0.474934648,11.3643294 0.484835579,11.3643294 C0.496026631,11.3643294 0.502837271,11.3755059 0.502837271,11.3938969 C0.502837271,11.410159 0.508237779,11.4234643 0.5148384,11.4234643 C0.52143902,11.4234643 0.526839528,11.4319206 0.526839528,11.4422692 C0.526839528,11.4628777 0.686004492,11.624523 0.706286399,11.624523 C0.713187048,11.624523 0.718857581,11.6302295 0.718857581,11.6372074 C0.718857581,11.6535582 0.749400453,11.6836579 0.765992013,11.6836579 C0.773072678,11.6836579 0.778863223,11.6893939 0.778863223,11.6964014 C0.778863223,11.7186953 0.848049728,11.7782737 0.873942162,11.7782737 C0.887653451,11.7782737 0.898874506,11.7839802 0.898874506,11.7909581 C0.898874506,11.8114188 0.93124755,11.8374086 0.956749947,11.8374086 C0.969711166,11.8374086 0.983422455,11.8453918 0.987232813,11.8551491 C0.991013169,11.8649063 1.00511449,11.8728895 1.01849575,11.8728895 C1.03190701,11.8728895 1.04288805,11.8782117 1.04288805,11.8847165 C1.04288805,11.8912214 1.05581926,11.8965435 1.07160075,11.8965435 C1.08741223,11.8965435 1.10343374,11.9045267 1.1072441,11.914284 C1.1115645,11.9254309 1.12992623,11.9320244 1.15650873,11.9320244 C1.17982092,11.9320244 1.19890271,11.9373466 1.19890271,11.9438514 C1.19890271,11.9503563 1.22395507,11.9556784 1.25458795,11.9556784 C1.29353161,11.9556784 1.31483361,11.9618284 1.32545461,11.9761391 C1.34864679,12.0073919 1.925241,12.0073919 1.94843318,11.9761391 C1.95725401,11.964253 1.9794261,11.9556784 2.00129815,11.9556784 C2.0220301,11.9556784 2.0389817,11.9503563 2.0389817,11.9438514 C2.0389817,11.9373466 2.05806349,11.9320244 2.08137568,11.9320244 C2.10795818,11.9320244 2.12631991,11.9254309 2.13064031,11.914284 C2.13445067,11.9045267 2.15047218,11.8965435 2.16628367,11.8965435 C2.18206515,11.8965435 2.19499637,11.8912214 2.19499637,11.8847165 C2.19499637,11.8782117 2.20849763,11.8728895 2.22499919,11.8728895 C2.24366094,11.8728895 2.25500201,11.8661777 2.25500201,11.8551491 C2.25500201,11.8441204 2.26634307,11.8374086 2.28500483,11.8374086 C2.30150638,11.8374086 2.31500765,11.8320865 2.31500765,11.8255816 C2.31500765,11.8190768 2.32850892,11.8137546 2.34501047,11.8137546 C2.36367222,11.8137546 2.37501329,11.8070428 2.37501329,11.7960142 C2.37501329,11.7862569 2.38080383,11.7782737 2.3878845,11.7782737 C2.40447606,11.7782737 2.43501893,11.748174 2.43501893,11.7318232 C2.43501893,11.7248453 2.4485202,11.7191388 2.46502175,11.7191388 C2.48368351,11.7191388 2.49502457,11.712427 2.49502457,11.7013983 C2.49502457,11.6916411 2.50081512,11.6836579 2.50789578,11.6836579 C2.52448734,11.6836579 2.55503022,11.6535582 2.55503022,11.6372074 C2.55503022,11.6302295 2.56082076,11.624523 2.56790143,11.624523 C2.58449299,11.624523 2.61503586,11.5944233 2.61503586,11.5780725 C2.61503586,11.5710946 2.6208264,11.5653881 2.62790707,11.5653881 C2.64449863,11.5653881 2.6750415,11.5352884 2.6750415,11.5189376 C2.6750415,11.5119597 2.68023199,11.5062532 2.68659258,11.5062532 C2.70609442,11.5062532 2.80705391,11.4030923 2.80705391,11.3831343 C2.80705391,11.3727857 2.81245442,11.3643294 2.81905504,11.3643294 C2.82565566,11.3643294 2.83105617,11.3563462 2.83105617,11.3465889 C2.83105617,11.3368317 2.83684671,11.3288485 2.84392738,11.3288485 C2.86051894,11.3288485 2.89106181,11.2987488 2.89106181,11.282398 C2.89106181,11.2754201 2.89685235,11.2697136 2.90393302,11.2697136 C2.92052458,11.2697136 2.95106745,11.2396139 2.95106745,11.2232631 C2.95106745,11.2162852 2.95685799,11.2105787 2.96393866,11.2105787 C2.98053022,11.2105787 3.01107309,11.180479 3.01107309,11.1641282 C3.01107309,11.1571503 3.01686364,11.1514438 3.0239443,11.1514438 C3.04053586,11.1514438 3.07107873,11.1213441 3.07107873,11.1049933 C3.07107873,11.0980154 3.07917949,11.0923089 3.08908043,11.0923089 C3.09898136,11.0923089 3.10708212,11.0866024 3.10708212,11.0796244 C3.10708212,11.0632736 3.13762499,11.033174 3.15421655,11.033174 C3.16129722,11.033174 3.16708776,11.0274675 3.16708776,11.0204895 C3.16708776,11.0041387 3.19763063,10.9740391 3.21422219,10.9740391 C3.22130286,10.9740391 3.2270934,10.9683326 3.2270934,10.9613546 C3.2270934,10.9450038 3.25763627,10.9149042 3.27422783,10.9149042 C3.2813085,10.9149042 3.28709904,10.9090203 3.28709904,10.9018354 C3.28709904,10.8946209 3.30060031,10.8782701 3.31710186,10.865497 C3.33360342,10.8526943 3.34710468,10.8347764 3.34710468,10.82564 C3.34710468,10.8165333 3.41461103,10.7427921 3.49711879,10.6617772 C3.57962655,10.5807624 3.64713289,10.5087657 3.64713289,10.5018173 C3.64713289,10.4948394 3.65292344,10.4891329 3.6600041,10.4891329 C3.67659566,10.4891329 3.70713853,10.4590332 3.70713853,10.4426824 C3.70713853,10.4357045 3.71292908,10.429998 3.72000974,10.429998 C3.7366013,10.429998 3.76714418,10.3998983 3.76714418,10.3835475 C3.76714418,10.3765696 3.77293472,10.3708631 3.78001539,10.3708631 C3.79660695,10.3708631 3.82714982,10.3407634 3.82714982,10.3244126 C3.82714982,10.3174347 3.83294036,10.3117282 3.84002103,10.3117282 C3.86117302,10.3117282 3.88715546,10.279618 3.88715546,10.2534508 C3.88715546,10.2395541 3.89495619,10.2289394 3.90515715,10.2289394 C3.91505808,10.2289394 3.92315884,10.2209561 3.92315884,10.2111989 C3.92315884,10.2014416 3.92894939,10.1934584 3.93603005,10.1934584 C3.95262161,10.1934584 3.98316449,10.1633587 3.98316449,10.1470079 C3.98316449,10.14003 3.98895503,10.1343235 3.9960357,10.1343235 C4.01262726,10.1343235 4.04317013,10.1042239 4.04317013,10.0878731 C4.04317013,10.0808951 4.04896067,10.0751886 4.05604134,10.0751886 C4.0726329,10.0751886 4.10317577,10.045089 4.10317577,10.0287382 C4.10317577,10.0217602 4.10896631,10.0160537 4.11604698,10.0160537 C4.13263854,10.0160537 4.16318141,9.98595405 4.16318141,9.96960325 C4.16318141,9.96262534 4.16897196,9.95691882 4.17605262,9.95691882 C4.19264418,9.95691882 4.22318705,9.92681915 4.22318705,9.91046836 C4.22318705,9.90349044 4.23128781,9.89778392 4.24118875,9.89778392 C4.25108968,9.89778392 4.25919044,9.8920774 4.25919044,9.88509948 C4.25919044,9.86874868 4.28973331,9.83864902 4.30632487,9.83864902 C4.31340553,9.83864902 4.31919608,9.83332688 4.31919608,9.82682204 C4.31919608,9.8203172 4.34079811,9.7937065 4.36720059,9.76768714 C4.39360308,9.74166779 4.42060561,9.72037922 4.42720623,9.72037922 C4.43380685,9.72037922 4.43920736,9.70707387 4.43920736,9.69081177 C4.43920736,9.67454968 4.44460787,9.66124432 4.45120849,9.66124432 C4.45780911,9.66124432 4.46320962,9.65326111 4.46320962,9.64350386 C4.46320962,9.6337466 4.46891016,9.62576339 4.47590081,9.62576339 C4.49246237,9.62576339 4.79924121,9.32343622 4.79924121,9.30711498 C4.79924121,9.30022577 4.80503176,9.29460795 4.81211242,9.29460795 C4.82870398,9.29460795 4.85924685,9.26450829 4.85924685,9.24815749 C4.85924685,9.24117957 4.8650374,9.23547305 4.87211806,9.23547305 C4.88870962,9.23547305 4.9192525,9.20537339 4.9192525,9.18902259 C4.9192525,9.18204467 4.92504304,9.17633816 4.93212371,9.17633816 C4.95327569,9.17633816 4.97925814,9.14422791 4.97925814,9.11806071 C4.97925814,9.10416401 4.98705887,9.0935493 4.99725983,9.0935493 C5.00716076,9.0935493 5.01526152,9.08784278 5.01526152,9.08086486 C5.01526152,9.06451406 5.04580439,9.0344144 5.06239595,9.0344144 C5.06947662,9.0344144 5.07526716,9.02643119 5.07526716,9.01667393 C5.07526716,9.00691667 5.08105771,8.99893346 5.08813837,8.99893346 C5.10472993,8.99893346 5.13527281,8.9688338 5.13527281,8.952483 C5.13527281,8.94550508 5.14106335,8.93979856 5.14814402,8.93979856 C5.16473558,8.93979856 5.19527845,8.9096989 5.19527845,8.8933481 C5.19527845,8.88637018 5.20106899,8.88066366 5.20814966,8.88066366 C5.22474122,8.88066366 5.25528409,8.850564 5.25528409,8.8342132 C5.25528409,8.82723528 5.26338485,8.82152876 5.27328578,8.82152876 C5.28318671,8.82152876 5.29128747,8.81694581 5.29128747,8.81135756 C5.29128747,8.80576931 5.34529255,8.74752144 5.41129876,8.68191127 C5.47730496,8.61633067 5.53131004,8.55438686 5.53131004,8.54424522 C5.53131004,8.53413316 5.53671055,8.52585427 5.54331117,8.52585427 C5.54991179,8.52585427 5.5553123,8.51787106 5.5553123,8.5081138 C5.5553123,8.49835654 5.56110284,8.49037333 5.56818351,8.49037333 C5.58477507,8.49037333 5.61531794,8.46027367 5.61531794,8.44392287 C5.61531794,8.43694495 5.62110848,8.43123843 5.62818915,8.43123843 C5.64478071,8.43123843 5.67532358,8.40113877 5.67532358,8.38478797 C5.67532358,8.37781005 5.68096411,8.37210353 5.68783476,8.37210353 C5.69473541,8.37210353 5.76707221,8.30557677 5.84864988,8.22426629 C5.99029319,8.08305215 6.04735856,8.04567889 6.04735856,8.09416951 C6.04735856,8.10392677 6.05275907,8.11190998 6.05935969,8.11190998 C6.06596031,8.11190998 6.07136082,8.12137156 6.07136082,8.13293244 C6.07136082,8.15354095 6.11006445,8.19469884 6.12947628,8.19469884 C6.13487679,8.19469884 6.14654788,8.20800419 6.15536871,8.22426629 C6.16418954,8.24052838 6.1786209,8.25383374 6.18741173,8.25383374 C6.19617255,8.25383374 6.20337323,8.25954025 6.20337323,8.26651817 C6.20337323,8.28286897 6.2339161,8.31296863 6.25050766,8.31296863 C6.25758832,8.31296863 6.26337887,8.31867515 6.26337887,8.32565307 C6.26337887,8.34200387 6.29392174,8.37210353 6.3105133,8.37210353 C6.31759397,8.37210353 6.32338451,8.37781005 6.32338451,8.38478797 C6.32338451,8.40113877 6.35392738,8.43123843 6.37051894,8.43123843 C6.37759961,8.43123843 6.38339015,8.43694495 6.38339015,8.44392287 C6.38339015,8.46027367 6.41393302,8.49037333 6.43052458,8.49037333 C6.43760525,8.49037333 6.44339579,8.49607985 6.44339579,8.50305777 C6.44339579,8.51940857 6.47393866,8.54950823 6.49053022,8.54950823 C6.49761089,8.54950823 6.50340143,8.55521475 6.50340143,8.56219267 C6.50340143,8.57854346 6.53394431,8.60864313 6.55053587,8.60864313 C6.55761653,8.60864313 6.56340708,8.61434965 6.56340708,8.62132756 C6.56340708,8.63767836 6.59394995,8.66777803 6.61054151,8.66777803 C6.61762217,8.66777803 6.62341272,8.67865885 6.62341272,8.69193463 C6.62341272,8.70710273 6.67921796,8.77096843 6.77342682,8.86363281 C6.85593458,8.94476589 6.92344093,9.01637825 6.92344093,9.02276482 C6.92344093,9.02918096 6.92923147,9.0344144 6.93631214,9.0344144 C6.9529037,9.0344144 6.98344657,9.06451406 6.98344657,9.08086486 C6.98344657,9.08784278 6.98923711,9.0935493 6.99631778,9.0935493 C7.01290934,9.0935493 7.04345221,9.12364896 7.04345221,9.13999976 C7.04345221,9.14697768 7.04924275,9.1526842 7.05632342,9.1526842 C7.07291498,9.1526842 7.10345785,9.18278386 7.10345785,9.19913466 C7.10345785,9.20611258 7.1092484,9.21181909 7.11632906,9.21181909 C7.13559087,9.21181909 7.16346349,9.24301275 7.16346349,9.26456742 C7.16346349,9.27500473 7.17156425,9.28659517 7.18146519,9.29032067 C7.19136612,9.29407574 7.19946688,9.30117193 7.19946688,9.30610969 C7.19946688,9.31920807 7.32742891,9.44835869 7.34042013,9.44835869 C7.3464807,9.44835869 7.35866185,9.46166404 7.36748267,9.47792614 C7.3763035,9.49418824 7.39073486,9.50749359 7.39952569,9.50749359 C7.40828651,9.50749359 7.41548719,9.51320011 7.41548719,9.52017802 C7.41548719,9.53652882 7.44603006,9.56662849 7.46262162,9.56662849 C7.46970229,9.56662849 7.47549283,9.572335 7.47549283,9.57931292 C7.47549283,9.59566372 7.5060357,9.62576339 7.52262726,9.62576339 C7.52970793,9.62576339 7.53549847,9.6314699 7.53549847,9.63844782 C7.53549847,9.65479862 7.56604134,9.68489828 7.5826329,9.68489828 C7.58971357,9.68489828 7.59550411,9.6906048 7.59550411,9.69758272 C7.59550411,9.71393352 7.62604698,9.74403318 7.64263854,9.74403318 C7.64971921,9.74403318 7.65550975,9.7497397 7.65550975,9.75671762 C7.65550975,9.77306842 7.68605263,9.80316808 7.70264419,9.80316808 C7.70972485,9.80316808 7.7155154,9.81431501 7.7155154,9.82791604 C7.7155154,9.84405986 7.77801127,9.91404602 7.89553232,10.0294182 C7.99454163,10.1266655 8.07554925,10.2113172 8.07554925,10.2175559 C8.07554925,10.2238242 8.08133979,10.2289394 8.08842046,10.2289394 C8.10501202,10.2289394 8.13555489,10.259039 8.13555489,10.2753898 C8.13555489,10.2823677 8.14134543,10.2880743 8.1484261,10.2880743 C8.16501766,10.2880743 8.19556053,10.3181739 8.19556053,10.3345247 C8.19556053,10.3415026 8.20135107,10.3472091 8.20843174,10.3472091 C8.2250233,10.3472091 8.25556617,10.3773088 8.25556617,10.3936596 C8.25556617,10.4006375 8.26366693,10.406344 8.27356786,10.406344 C8.28376882,10.406344 8.29156956,10.4169588 8.29156956,10.4308555 C8.29156956,10.4570227 8.317552,10.4891329 8.33870399,10.4891329 C8.34578465,10.4891329 8.3515752,10.4945142 8.3515752,10.5010782 C8.3515752,10.5165124 8.54005292,10.7020185 8.55571439,10.7020185 C8.56225501,10.7020185 8.56759551,10.7077251 8.56759551,10.714703 C8.56759551,10.7310538 8.59813838,10.7611534 8.61472994,10.7611534 C8.6218106,10.7611534 8.62760115,10.76686 8.62760115,10.7738379 C8.62760115,10.7901887 8.65814402,10.8202883 8.67473558,10.8202883 C8.68181625,10.8202883 8.68760679,10.8259949 8.68760679,10.8329728 C8.68760679,10.8493236 8.71814966,10.8794232 8.73474122,10.8794232 C8.74182189,10.8794232 8.74761243,10.8851298 8.74761243,10.8921077 C8.74761243,10.9084585 8.7781553,10.9385581 8.79474686,10.9385581 C8.80182753,10.9385581 8.80761807,10.9465413 8.80761807,10.9562986 C8.80761807,10.9660559 8.81301858,10.9740391 8.8196192,10.9740391 C8.82621982,10.9740391 8.83162033,10.9825841 8.83162033,10.9930214 C8.83162033,11.0034291 8.8802249,11.0599325 8.93963049,11.1185352 C8.99903607,11.1771083 9.04764064,11.2275208 9.04764064,11.2305071 C9.04764064,11.2410331 9.08211388,11.2697136 9.09477507,11.2697136 C9.10185574,11.2697136 9.10764628,11.2776968 9.10764628,11.287454 C9.10764628,11.2972113 9.11343683,11.3051945 9.12051749,11.3051945 C9.13710905,11.3051945 9.16765192,11.3352942 9.16765192,11.351645 C9.16765192,11.3586229 9.17344247,11.3643294 9.18052313,11.3643294 C9.19711469,11.3643294 9.22765757,11.3944291 9.22765757,11.4107799 C9.22765757,11.4177578 9.23344811,11.4234643 9.24052878,11.4234643 C9.25712034,11.4234643 9.28766321,11.453564 9.28766321,11.4699148 C9.28766321,11.4768927 9.29345375,11.4825992 9.30053442,11.4825992 C9.31712598,11.4825992 9.34766885,11.5126989 9.34766885,11.5290497 C9.34766885,11.5360276 9.35576961,11.5417341 9.36567054,11.5417341 C9.3758715,11.5417341 9.38367223,11.5523488 9.38367223,11.5662455 C9.38367223,11.5924127 9.40965468,11.624523 9.43080666,11.624523 C9.43788733,11.624523 9.44367788,11.6302295 9.44367788,11.6372074 C9.44367788,11.6580524 9.47626094,11.6836579 9.50281343,11.6836579 C9.51691476,11.6836579 9.52768577,11.6913454 9.52768577,11.7013983 C9.52768577,11.7111556 9.53578654,11.7191388 9.54568747,11.7191388 C9.5555884,11.7191388 9.56368916,11.7252001 9.56368916,11.7326216 C9.56368916,11.7490019 9.59978255,11.7773867 9.62126457,11.7778893 C9.62984538,11.7780963 9.64934721,11.791579 9.66464865,11.8078411 C9.67995009,11.8241032 9.70341229,11.8374086 9.71679355,11.8374086 C9.73017481,11.8374086 9.74424613,11.8453918 9.74805649,11.8551491 C9.75183685,11.8649063 9.76593817,11.8728895 9.77931943,11.8728895 C9.79273069,11.8728895 9.80371172,11.8782117 9.80371172,11.8847165 C9.80371172,11.8912214 9.81721299,11.8965435 9.83371455,11.8965435 C9.8523763,11.8965435 9.86371737,11.9032553 9.86371737,11.914284 C9.86371737,11.9270867 9.87703862,11.9320244 9.91172188,11.9320244 C9.93812436,11.9320244 9.95972639,11.9373466 9.95972639,11.9438514 C9.95972639,11.9503563 9.97667799,11.9556784 9.99740994,11.9556784 C10.019402,11.9556784 10.0414541,11.9642825 10.0503949,11.9763165 C10.0738271,12.0078945 10.6857046,12.0078945 10.7091369,11.9763165 C10.7180777,11.9642825 10.7401298,11.9556784 10.7621218,11.9556784 C10.7828538,11.9556784 10.7998054,11.9503563 10.7998054,11.9438514 C10.7998054,11.9373466 10.8214074,11.9320244 10.8478099,11.9320244 C10.8824932,11.9320244 10.8958144,11.9270867 10.8958144,11.914284 C10.8958144,11.9032553 10.9071555,11.8965435 10.9258172,11.8965435 C10.9423188,11.8965435 10.95582,11.8912214 10.95582,11.8847165 C10.95582,11.8782117 10.9668011,11.8728895 10.9802123,11.8728895 C10.9935936,11.8728895 11.0076949,11.8649063 11.0114753,11.8551491 C11.0152856,11.8453918 11.029357,11.8374086 11.0427382,11.8374086 C11.0561195,11.8374086 11.0795817,11.8241032 11.0948831,11.8078411 C11.1101846,11.791579 11.1296864,11.7780963 11.1382672,11.7778893 C11.1597492,11.7773867 11.1958426,11.7490019 11.1958426,11.7326216 C11.1958426,11.7252001 11.2039434,11.7191388 11.2138443,11.7191388 C11.2237452,11.7191388 11.231846,11.7111556 11.231846,11.7013983 C11.231846,11.6913454 11.242617,11.6836579 11.2567183,11.6836579 C11.2832708,11.6836579 11.3158539,11.6580524 11.3158539,11.6372074 C11.3158539,11.6302295 11.3216444,11.624523 11.3287251,11.624523 C11.3498771,11.624523 11.3758595,11.5924127 11.3758595,11.5662455 C11.3758595,11.5523488 11.3836603,11.5417341 11.3938612,11.5417341 C11.4037622,11.5417341 11.4118629,11.5360276 11.4118629,11.5290497 C11.4118629,11.5221013 11.4195736,11.508796 11.4289945,11.4994822 C11.4384454,11.490198 11.4519467,11.4825992 11.4589974,11.4825992 C11.466078,11.4825992 11.4718686,11.4692939 11.4718686,11.4530318 C11.4718686,11.4367697 11.4772691,11.4234643 11.4838697,11.4234643 C11.4904703,11.4234643 11.4958708,11.4154811 11.4958708,11.4057238 C11.4958708,11.3959666 11.5039716,11.3879834 11.5138725,11.3879834 C11.5250636,11.3879834 11.5318742,11.3768069 11.5318742,11.3584159 C11.5318742,11.3421538 11.5372747,11.3288485 11.5438753,11.3288485 C11.550476,11.3288485 11.5558765,11.3155431 11.5558765,11.299281 C11.5558765,11.2808901 11.5626871,11.2697136 11.5738782,11.2697136 C11.5850692,11.2697136 11.5918798,11.2585371 11.5918798,11.2401461 C11.5918798,11.223884 11.5972804,11.2105787 11.603881,11.2105787 C11.6104816,11.2105787 11.6158821,11.192513 11.6158821,11.1704556 C11.6158821,11.1456781 11.6227828,11.1277011 11.6338838,11.1235025 C11.6451949,11.1192448 11.6518855,11.1011495 11.6518855,11.0749528 C11.6518855,11.0519789 11.657286,11.033174 11.6638866,11.033174 C11.6708173,11.033174 11.6758877,10.9961555 11.6758877,10.945743 C11.6758877,10.8789206 11.6801481,10.8566859 11.6938894,10.851482 C11.7206219,10.8413995 11.7206219,10.5600948 11.6938894,10.5600948 C11.6794881,10.5600948 11.6758877,10.5423543 11.6758877,10.4713924 C11.6758877,10.420152 11.6708173,10.3826901 11.6638866,10.3826901 C11.657286,10.3826901 11.6518855,10.3614015 11.6518855,10.3353822 C11.6518855,10.3012022 11.646875,10.2880743 11.6338838,10.2880743 C11.6208926,10.2880743 11.6158821,10.2749463 11.6158821,10.2407663 C11.6158821,10.214747 11.6104816,10.1934584 11.603881,10.1934584 C11.5972804,10.1934584 11.5918798,10.1826367 11.5918798,10.1694201 C11.5918798,10.156233 11.5837791,10.1423363 11.5738782,10.1386108 C11.5639772,10.1348557 11.5558765,10.1190667 11.5558765,10.1034847 C11.5558765,10.0879322 11.550476,10.0751886 11.5438753,10.0751886 C11.5372747,10.0751886 11.5318742,10.0618833 11.5318742,10.0456212 C11.5318742,10.0293591 11.5260837,10.0160537 11.519003,10.0160537 C11.497851,10.0160537 11.4718686,9.98394347 11.4718686,9.95777627 C11.4718686,9.94387957 11.4640678,9.93326486 11.4538669,9.93326486 C11.4439659,9.93326486 11.4358652,9.92755834 11.4358652,9.92058042 C11.4358652,9.91363207 11.4281545,9.90032672 11.4187336,9.89101297 C11.4092827,9.88172879 11.3957814,9.87412996 11.3887307,9.87412996 C11.3816501,9.87412996 11.3758595,9.86324914 11.3758595,9.84997335 C11.3758595,9.83631319 11.3445666,9.79459352 11.3038528,9.75396785 C11.264249,9.71443617 11.231846,9.67741772 11.231846,9.67168163 C11.231846,9.66594555 11.2237452,9.66124432 11.2138443,9.66124432 C11.2039434,9.66124432 11.1958426,9.65553781 11.1958426,9.64855989 C11.1958426,9.64161154 11.1881319,9.62830619 11.178711,9.61899244 C11.1692601,9.60970826 11.1557588,9.60210943 11.1487082,9.60210943 C11.1416275,9.60210943 11.135837,9.59640291 11.135837,9.58942499 C11.135837,9.58247664 11.1281262,9.56917129 11.1187054,9.55985754 C11.1092545,9.55057336 11.0957532,9.54297453 11.0887025,9.54297453 C11.0816219,9.54297453 11.0758313,9.53499132 11.0758313,9.52523406 C11.0758313,9.5154768 11.0700408,9.50749359 11.0629601,9.50749359 C11.0559095,9.50749359 11.0424082,9.49989475 11.0329573,9.49061057 C11.0235364,9.48129683 11.0158257,9.46799148 11.0158257,9.46104313 C11.0158257,9.45406521 11.0100351,9.44835869 11.0029545,9.44835869 C10.9959038,9.44835869 10.9824025,9.44075986 10.9729517,9.43147568 C10.9635308,9.42216193 10.95582,9.40885658 10.95582,9.40190823 C10.95582,9.39493031 10.9500295,9.38922379 10.9429488,9.38922379 C10.9358982,9.38922379 10.9223969,9.38162496 10.912946,9.37234078 C10.9035251,9.36302703 10.8958144,9.34972168 10.8958144,9.34277333 C10.8958144,9.33579541 10.8877136,9.33008889 10.8778127,9.33008889 C10.8676118,9.33008889 10.859811,9.31947418 10.859811,9.30557748 C10.859811,9.27941028 10.8338286,9.24730003 10.8126766,9.24730003 C10.8055959,9.24730003 10.7998054,9.24159352 10.7998054,9.2346156 C10.7998054,9.22766725 10.7920947,9.2143619 10.7826738,9.20504815 C10.7732229,9.19576397 10.7597216,9.18816514 10.7526709,9.18816514 C10.7455903,9.18816514 10.7397997,9.18245862 10.7397997,9.1754807 C10.7397997,9.1591299 10.7092569,9.12903024 10.6926653,9.12903024 C10.6855846,9.12903024 10.6797941,9.12403334 10.6797941,9.11791288 C10.6797941,9.10342483 10.4897562,8.9161446 10.4750548,8.9161446 C10.4688443,8.9161446 10.4637738,8.91043808 10.4637738,8.90346017 C10.4637738,8.88710937 10.4332309,8.8570097 10.4166394,8.8570097 C10.4095587,8.8570097 10.4037681,8.85130318 10.4037681,8.84432527 C10.4037681,8.82797447 10.3732253,8.7978748 10.3566337,8.7978748 C10.349553,8.7978748 10.3437625,8.78989159 10.3437625,8.78013433 C10.3437625,8.77037708 10.338362,8.76239386 10.3317614,8.76239386 C10.3251608,8.76239386 10.3197602,8.74908851 10.3197602,8.73282642 C10.3197602,8.71656432 10.3143597,8.70325897 10.3077591,8.70325897 C10.3011585,8.70325897 10.274156,8.6819704 10.2477535,8.65595105 C10.221351,8.62993169 10.199749,8.60332099 10.199749,8.59681615 C10.199749,8.59031131 10.1939584,8.58498917 10.1868777,8.58498917 C10.1702862,8.58498917 10.1397433,8.55488951 10.1397433,8.53853871 C10.1397433,8.53156079 10.1316426,8.52585427 10.1217416,8.52585427 C10.1118407,8.52585427 10.1037399,8.52014775 10.1037399,8.51316983 C10.1037399,8.49681903 10.0731971,8.46671937 10.0566055,8.46671937 C10.0495248,8.46671937 10.0437343,8.46101285 10.0437343,8.45403494 C10.0437343,8.43768414 10.0131914,8.40758447 9.99659986,8.40758447 C9.98951919,8.40758447 9.98372865,8.40187796 9.98372865,8.39490004 C9.98372865,8.38795169 9.97601792,8.37464633 9.96659704,8.36533259 C9.95714615,8.35604841 9.94364488,8.34844957 9.93659422,8.34844957 C9.92951355,8.34844957 9.92372301,8.34046636 9.92372301,8.3307091 C9.92372301,8.32095185 9.91793246,8.31296863 9.9108518,8.31296863 C9.90380114,8.31296863 9.89029987,8.3053698 9.88084898,8.29608562 C9.87142809,8.28677187 9.86371737,8.27346652 9.86371737,8.26651817 C9.86371737,8.25954025 9.85792682,8.25383374 9.85084616,8.25383374 C9.84379549,8.25383374 9.83029422,8.2462349 9.82084334,8.23695072 C9.81142245,8.22763698 9.80371172,8.21433162 9.80371172,8.20738327 C9.80371172,8.20040536 9.79561096,8.19469884 9.78571003,8.19469884 C9.77550907,8.19469884 9.76770834,8.18408412 9.76770834,8.17018742 C9.76770834,8.14402023 9.7417259,8.11190998 9.72057391,8.11190998 C9.71349324,8.11190998 9.7077027,8.10620346 9.7077027,8.09922554 C9.7077027,8.09227719 9.69999197,8.07897184 9.69057109,8.06965809 C9.6811202,8.06037392 9.66761893,8.05277508 9.66056827,8.05277508 C9.6534876,8.05277508 9.64769706,8.04706856 9.64769706,8.04009064 C9.64769706,8.03314229 9.63998633,8.01983694 9.63056545,8.0105232 C9.62111456,8.00123902 9.60761329,7.99364018 9.60056263,7.99364018 C9.59348196,7.99364018 9.58769142,7.98793366 9.58769142,7.98095575 C9.58769142,7.9740074 9.57998069,7.96070204 9.5705598,7.9513883 C9.56110892,7.94210412 9.54760765,7.93450528 9.54055698,7.93450528 C9.53347632,7.93450528 9.52768577,7.92888747 9.52768577,7.92199825 C9.52768577,7.91510904 9.47128047,7.85390442 9.40236399,7.78598799 C9.33344751,7.71807155 9.27134167,7.66248475 9.26435102,7.66248475 C9.25736036,7.66248475 9.25165982,7.65450154 9.25165982,7.64474428 C9.25165982,7.63498702 9.24625931,7.62700381 9.23965869,7.62700381 C9.23305807,7.62700381 9.22765757,7.61369846 9.22765757,7.59743636 C9.22765757,7.58117426 9.22225706,7.56786891 9.21565644,7.56786891 C9.20905582,7.56786891 9.18205328,7.54658035 9.1556508,7.52056099 C9.12924831,7.49454164 9.10764628,7.46793093 9.10764628,7.46142609 C9.10764628,7.45492126 9.10224577,7.44959911 9.09564515,7.44959911 C9.08904453,7.44959911 9.06204199,7.42831055 9.03563951,7.4022912 C9.00923703,7.37627184 8.987635,7.34966114 8.987635,7.3431563 C8.987635,7.33665146 8.97953424,7.33132932 8.96963331,7.33132932 C8.95973238,7.33132932 8.95163161,7.3256228 8.95163161,7.31864488 C8.95163161,7.30229408 8.92108874,7.27219442 8.90449718,7.27219442 C8.89741652,7.27219442 8.89162597,7.2664879 8.89162597,7.25950998 C8.89162597,7.24315918 8.8610831,7.21305952 8.84449154,7.21305952 C8.83741087,7.21305952 8.83162033,7.207353 8.83162033,7.20037508 C8.83162033,7.18402428 8.80107746,7.15392462 8.7844859,7.15392462 C8.77740523,7.15392462 8.77161469,7.1482181 8.77161469,7.14124019 C8.77161469,7.12488939 8.74107182,7.09478972 8.72448026,7.09478972 C8.71739959,7.09478972 8.71160905,7.08680651 8.71160905,7.07704925 C8.71160905,7.06729199 8.70350829,7.05930878 8.69360735,7.05930878 C8.6834064,7.05930878 8.67560566,7.04869407 8.67560566,7.03479737 C8.67560566,7.00863017 8.64962322,6.97651992 8.62847123,6.97651992 C8.62139056,6.97651992 8.61560002,6.97081341 8.61560002,6.96383549 C8.61560002,6.95688714 8.6078893,6.94358179 8.59846841,6.93426804 C8.58901752,6.92498386 8.57551625,6.91738503 8.56846559,6.91738503 C8.56138492,6.91738503 8.55559438,6.91167851 8.55559438,6.90470059 C8.55559438,6.89775224 8.54788365,6.88444689 8.53846277,6.87513314 C8.52901188,6.86584896 8.51551061,6.85825013 8.50845995,6.85825013 C8.50137928,6.85825013 8.49558874,6.85254361 8.49558874,6.84556569 C8.49558874,6.83861734 8.48787801,6.82531199 8.47845713,6.81599824 C8.46900624,6.80671406 8.45550497,6.79911523 8.44845431,6.79911523 C8.44137364,6.79911523 8.4355831,6.79340871 8.4355831,6.78643079 C8.4355831,6.77948244 8.42787237,6.76617709 8.41845148,6.75686334 C8.4090006,6.74757916 8.39549933,6.73998033 8.38844866,6.73998033 C8.381368,6.73998033 8.37557745,6.73424424 8.37557745,6.72723676 C8.37557745,6.72025884 8.32157238,6.66159702 8.25556617,6.59690344 C8.18955996,6.53220986 8.13555489,6.47180356 8.13555489,6.46266722 C8.13555489,6.45350131 8.12205362,6.43555387 8.10555207,6.42275117 C8.08905052,6.40997803 8.07554925,6.39362723 8.07554925,6.38641277 C8.07554925,6.37922788 8.0697587,6.37334396 8.06267804,6.37334396 C8.04608648,6.37334396 8.0155436,6.34324429 8.0155436,6.3268935 C8.0155436,6.31991558 8.00975306,6.31420906 8.00267239,6.31420906 C7.98608083,6.31420906 7.95553796,6.2841094 7.95553796,6.2677586 C7.95553796,6.26078068 7.94974742,6.25507416 7.94266675,6.25507416 C7.92607519,6.25507416 7.89553232,6.2249745 7.89553232,6.2086237 C7.89553232,6.20164578 7.88974178,6.19593926 7.88266111,6.19593926 C7.86606955,6.19593926 7.83552668,6.1658396 7.83552668,6.1494888 C7.83552668,6.14251088 7.84092719,6.13680436 7.84752781,6.13680436 C7.85412843,6.13680436 7.85952894,6.12882115 7.85952894,6.11906389 C7.85952894,6.10930664 7.86531948,6.10132342 7.87240015,6.10132342 C7.88899171,6.10132342 7.91953458,6.07122376 7.91953458,6.05487296 C7.91953458,6.04789504 7.92532512,6.04218853 7.93240579,6.04218853 C7.94899735,6.04218853 7.97954022,6.01208886 7.97954022,5.99573806 C7.97954022,5.98876014 7.98533076,5.98305363 7.99241143,5.98305363 C8.00900299,5.98305363 8.03954586,5.95295396 8.03954586,5.93660316 C8.03954586,5.92962525 8.04494637,5.92391873 8.05154699,5.92391873 C8.07446914,5.92391873 8.25556617,5.73495316 8.25556617,5.71103309 C8.25556617,5.69790515 8.26357692,5.68737913 8.27356786,5.68737913 C8.28346879,5.68737913 8.29156956,5.68167262 8.29156956,5.6746947 C8.29156956,5.6583439 8.32211243,5.62824423 8.33870399,5.62824423 C8.34578465,5.62824423 8.3515752,5.62253772 8.3515752,5.6155598 C8.3515752,5.599209 8.38211807,5.56910934 8.39870963,5.56910934 C8.40579029,5.56910934 8.41158084,5.56340282 8.41158084,5.5564249 C8.41158084,5.5400741 8.44212371,5.50997444 8.45871527,5.50997444 C8.46579594,5.50997444 8.47158648,5.50426792 8.47158648,5.49729 C8.47158648,5.4809392 8.50212935,5.45083954 8.51872091,5.45083954 C8.52580158,5.45083954 8.53159212,5.4455174 8.53159212,5.43901256 C8.53159212,5.43250772 8.55319415,5.40589702 8.57959664,5.37987766 C8.60599912,5.35385831 8.63300166,5.33256974 8.63960228,5.33256974 C8.6462029,5.33256974 8.65160341,5.32745457 8.65160341,5.32121584 C8.65160341,5.31494754 8.68670671,5.27541586 8.72961074,5.23334138 C8.77251477,5.1912669 8.80761807,5.1484828 8.80761807,5.13828203 C8.80761807,5.12805169 8.81301858,5.11968411 8.8196192,5.11968411 C8.82621982,5.11968411 8.83162033,5.11170089 8.83162033,5.10194364 C8.83162033,5.09218638 8.83741087,5.08420317 8.84449154,5.08420317 C8.8610831,5.08420317 8.89162597,5.0541035 8.89162597,5.0377527 C8.89162597,5.03077479 8.89741652,5.02506827 8.90449718,5.02506827 C8.92108874,5.02506827 8.95163161,4.9949686 8.95163161,4.97861781 C8.95163161,4.97163989 8.95742216,4.96593337 8.96450282,4.96593337 C8.98109438,4.96593337 9.01163726,4.93583371 9.01163726,4.91948291 C9.01163726,4.91250499 9.0174278,4.90679847 9.02450847,4.90679847 C9.04110003,4.90679847 9.0716429,4.87669881 9.0716429,4.86034801 C9.0716429,4.85337009 9.07743344,4.84766357 9.08451411,4.84766357 C9.10110567,4.84766357 9.13164854,4.81756391 9.13164854,4.80121311 C9.13164854,4.79423519 9.13743908,4.78852867 9.14451975,4.78852867 C9.16111131,4.78852867 9.19165418,4.75842901 9.19165418,4.74207821 C9.19165418,4.73510029 9.19744472,4.72939377 9.20452539,4.72939377 C9.22111695,4.72939377 9.25165982,4.69929411 9.25165982,4.68294331 C9.25165982,4.67596539 9.25748037,4.67025888 9.26459104,4.67025888 C9.28721316,4.67025888 9.34766885,4.60207634 9.34766885,4.57655963 C9.34766885,4.56304731 9.35345939,4.55198908 9.36054006,4.55198908 C9.37713162,4.55198908 9.40767449,4.52188942 9.40767449,4.50553862 C9.40767449,4.4985607 9.41577525,4.49285418 9.42567618,4.49285418 C9.43557711,4.49285418 9.44367788,4.48714766 9.44367788,4.48016974 C9.44367788,4.46381895 9.47422075,4.43371928 9.49081231,4.43371928 C9.49789297,4.43371928 9.50368352,4.42801276 9.50368352,4.42103485 C9.50368352,4.40468405 9.53422639,4.37458438 9.55081795,4.37458438 C9.55789861,4.37458438 9.56368916,4.36887787 9.56368916,4.36189995 C9.56368916,4.34554915 9.59423203,4.31544948 9.61082359,4.31544948 C9.61790426,4.31544948 9.6236948,4.31012734 9.6236948,4.3036225 C9.6236948,4.28821786 9.71607349,4.19717969 9.73170495,4.19717969 C9.73830558,4.19717969 9.74370608,4.19147317 9.74370608,4.18449525 C9.74370608,4.16814445 9.77424895,4.13804479 9.79084051,4.13804479 C9.79792118,4.13804479 9.80371172,4.13236784 9.80371172,4.12541949 C9.80371172,4.11847114 9.8226135,4.09523112 9.84571567,4.07376515 C9.86881785,4.05229919 9.88771962,4.02338222 9.88771962,4.00951509 C9.88771962,3.99564795 9.89354017,3.98429405 9.90065084,3.98429405 C9.91745242,3.98429405 9.98372865,3.91897956 9.98372865,3.90242178 C9.98372865,3.8954143 9.98951919,3.88967821 9.99659986,3.88967821 C10.0131914,3.88967821 10.0437343,3.85957855 10.0437343,3.84322775 C10.0437343,3.83624983 10.0495248,3.83054332 10.0566055,3.83054332 C10.0731971,3.83054332 10.1037399,3.80044365 10.1037399,3.78409285 C10.1037399,3.77711493 10.1095305,3.77140842 10.1166111,3.77140842 C10.1332027,3.77140842 10.1637456,3.74130875 10.1637456,3.72495795 C10.1637456,3.71798004 10.1695361,3.71227352 10.1766168,3.71227352 C10.1932083,3.71227352 10.2237512,3.68217385 10.2237512,3.66582305 C10.2237512,3.65884514 10.2295418,3.65313862 10.2366224,3.65313862 C10.253214,3.65313862 10.2837569,3.62303896 10.2837569,3.60668816 C10.2837569,3.59971024 10.2895474,3.59400372 10.2966281,3.59400372 C10.3132196,3.59400372 10.3437625,3.56390406 10.3437625,3.54755326 C10.3437625,3.54057534 10.349553,3.53486882 10.3566337,3.53486882 C10.3732253,3.53486882 10.4037681,3.50476916 10.4037681,3.48841836 C10.4037681,3.48144044 10.4118689,3.47573392 10.4217698,3.47573392 C10.4319708,3.47573392 10.4397715,3.46511921 10.4397715,3.45122251 C10.4397715,3.42505531 10.465754,3.39294506 10.486906,3.39294506 C10.4939866,3.39294506 10.4997772,3.38496185 10.4997772,3.3752046 C10.4997772,3.36544734 10.5055677,3.35746413 10.5126484,3.35746413 C10.5292399,3.35746413 10.5597828,3.32736446 10.5597828,3.31101366 C10.5597828,3.30403574 10.5678836,3.29832923 10.5777845,3.29832923 C10.5876854,3.29832923 10.5957862,3.29300709 10.5957862,3.28650225 C10.5957862,3.27999741 10.6173882,3.2533867 10.6437907,3.22736735 C10.6701932,3.20134799 10.6971957,3.18005943 10.7037963,3.18005943 C10.710397,3.18005943 10.7157975,3.17482599 10.7157975,3.16843942 C10.7157975,3.15330089 10.8686618,3.00265473 10.8840233,3.00265473 C10.8905039,3.00265473 10.8958144,2.99697778 10.8958144,2.99002943 C10.8958144,2.98308108 10.9147162,2.95984107 10.9378184,2.9383751 C10.9609205,2.91690913 10.9798223,2.88799217 10.9798223,2.87412503 C10.9798223,2.8602579 10.9856128,2.848904 10.9926935,2.848904 C11.0092851,2.848904 11.0398279,2.81880433 11.0398279,2.80245353 C11.0398279,2.79547562 11.0455885,2.7897691 11.0526091,2.7897691 C11.0692607,2.7897691 11.1958426,2.66502403 11.1958426,2.6486141 C11.1958426,2.64169531 11.2016332,2.63601836 11.2087138,2.63601836 C11.2243453,2.63601836 11.2558483,2.60630308 11.2558483,2.59154892 C11.2558483,2.58569456 11.2693495,2.57374931 11.2858511,2.56505648 C11.3023526,2.55636365 11.3158539,2.54214171 11.3158539,2.53347845 C11.3158539,2.52484475 11.3216444,2.51774856 11.3287251,2.51774856 C11.3453167,2.51774856 11.3758595,2.4876489 11.3758595,2.4712981 C11.3758595,2.46432018 11.3816501,2.45861367 11.3887307,2.45861367 C11.4053223,2.45861367 11.4358652,2.428514 11.4358652,2.4121632 C11.4358652,2.40518528 11.4416557,2.39947877 11.4487364,2.39947877 C11.4653279,2.39947877 11.4958708,2.3693791 11.4958708,2.3530283 C11.4958708,2.34605039 11.5039716,2.34034387 11.5138725,2.34034387 C11.5238034,2.34034387 11.5318742,2.32984742 11.5318742,2.31689688 C11.5318742,2.29339076 11.6778379,2.13928521 11.7001,2.13928521 C11.7065806,2.13928521 11.7118911,2.13369696 11.7118911,2.12689645 C11.7118911,2.12006637 11.7253924,2.10217806 11.7418939,2.08709866 C11.7583955,2.07201927 11.7718968,2.04833574 11.7718968,2.03443904 C11.7718968,2.02054234 11.7776873,2.00918844 11.784768,2.00918844 C11.8055299,2.00918844 11.8319024,1.97728516 11.8319024,1.95215283 C11.8319024,1.93937969 11.8400032,1.92586736 11.8499041,1.9221123 C11.859805,1.9183868 11.8679058,1.9044901 11.8679058,1.89130302 C11.8679058,1.87808637 11.8733063,1.86726468 11.8799069,1.86726468 C11.8865075,1.86726468 11.8919081,1.85452111 11.8919081,1.83896863 C11.8919081,1.82338658 11.9000088,1.80759757 11.9099097,1.8038425 C11.9198107,1.800117 11.9279114,1.7862203 11.9279114,1.77303322 C11.9279114,1.75981657 11.9333119,1.74899488 11.9399126,1.74899488 C11.9465132,1.74899488 11.9519137,1.7296282 11.9519137,1.70594468 C11.9519137,1.68028013 11.9595944,1.65736536 11.9709655,1.64917517 C12.0110793,1.62025821 12.0089491,0.90927932 11.9687753,0.90927932 C11.9574942,0.90927932 11.9519137,0.895530456 11.9519137,0.867884891 C11.9519137,0.845117955 11.9465132,0.826490462 11.9399126,0.826490462 C11.9333119,0.826490462 11.9279114,0.805201899 11.9279114,0.779182543 C11.9279114,0.745002572 11.922901,0.731874624 11.9099097,0.731874624 C11.8987187,0.731874624 11.8919081,0.720698129 11.8919081,0.702307175 C11.8919081,0.686045078 11.8865075,0.672739726 11.8799069,0.672739726 C11.8733063,0.672739726 11.8679058,0.661918039 11.8679058,0.648701389 C11.8679058,0.635514307 11.859805,0.621617606 11.8499041,0.617892107 C11.8400032,0.614137041 11.8319024,0.603670164 11.8319024,0.594592957 C11.8319024,0.585545318 11.8265019,0.578123888 11.8199013,0.578123888 C11.8133007,0.578123888 11.8079002,0.569874569 11.8079002,0.559821637 C11.8079002,0.549739136 11.7943989,0.529189759 11.7778973,0.51411036 C11.7613958,0.499030961 11.7478945,0.479871254 11.7478945,0.471503665 C11.7478945,0.463165645 11.7127912,0.422746942 11.6698872,0.381677754 C11.6269831,0.340638135 11.5918798,0.301520399 11.5918798,0.294749453 C11.5918798,0.287978507 11.5837791,0.282449394 11.5738782,0.282449394 C11.5639772,0.282449394 11.5558765,0.277127254 11.5558765,0.270622415 C11.5558765,0.264117576 11.5423752,0.258795435 11.5258736,0.258795435 C11.5093721,0.258795435 11.4958708,0.253088917 11.4958708,0.246110999 C11.4958708,0.2297602 11.4653279,0.199660536 11.4487364,0.199660536 C11.4416557,0.199660536 11.4358652,0.191677325 11.4358652,0.181920067 C11.4358652,0.170891408 11.4245241,0.164179597 11.4058624,0.164179597 C11.3893608,0.164179597 11.3758595,0.158857456 11.3758595,0.152352617 C11.3758595,0.145847778 11.3623583,0.140525638 11.3458567,0.140525638 C11.327195,0.140525638 11.3158539,0.133813827 11.3158539,0.122785168 C11.3158539,0.111756509 11.3045128,0.105044698 11.2858511,0.105044698 C11.2671893,0.105044698 11.2558483,0.0983328874 11.2558483,0.0873042288 C11.2558483,0.0762755702 11.2445072,0.0695637592 11.2258454,0.0695637592 C11.2093439,0.0695637592 11.1958426,0.0642416183 11.1958426,0.0577367794 C11.1958426,0.0512319406 11.178711,0.0459097997 11.157769,0.0459097997 C11.1368571,0.0459097997 11.1092845,0.0365960532 11.0965033,0.0252125852 C11.0609499,-0.00648372052 10.3139997,-0.00648372052 10.2904775,0.0252125852 C10.2814766,0.0373056719 10.2594546,0.0459097997 10.2374325,0.0459097997 C10.2167006,0.0459097997 10.199749,0.0512319406 10.199749,0.0577367794 C10.199749,0.0642416183 10.1862477,0.0695637592 10.1697461,0.0695637592 C10.1510844,0.0695637592 10.1397433,0.0762755702 10.1397433,0.0873042288 C10.1397433,0.0983328874 10.1284023,0.105044698 10.1097405,0.105044698 C10.0910787,0.105044698 10.0797377,0.111756509 10.0797377,0.122785168 C10.0797377,0.133813827 10.0683966,0.140525638 10.0497349,0.140525638 C10.0332333,0.140525638 10.019732,0.145847778 10.019732,0.152352617 C10.019732,0.158857456 10.0062308,0.164179597 9.98972921,0.164179597 C9.97106746,0.164179597 9.95972639,0.170891408 9.95972639,0.181920067 C9.95972639,0.191677325 9.95393585,0.199660536 9.94685518,0.199660536 C9.93026362,0.199660536 9.89972075,0.2297602 9.89972075,0.246110999 C9.89972075,0.253088917 9.88621948,0.258795435 9.86971793,0.258795435 C9.85321638,0.258795435 9.83971511,0.264117576 9.83971511,0.270622415 C9.83971511,0.277127254 9.83161435,0.282449394 9.82171342,0.282449394 C9.81181249,0.282449394 9.80371172,0.287978507 9.80371172,0.294749453 C9.80371172,0.309207936 9.64871715,0.45985409 9.63383575,0.45985409 C9.62825523,0.45985409 9.6236948,0.467837302 9.6236948,0.47759456 C9.6236948,0.487351818 9.61649412,0.49533503 9.6077333,0.49533503 C9.59894247,0.49533503 9.58451112,0.508640382 9.57569029,0.524902479 C9.56686946,0.541164576 9.55438828,0.554469928 9.54799768,0.554469928 C9.53320629,0.554469928 9.5045536,0.591133566 9.50407355,0.610707217 C9.50386353,0.618867833 9.47668098,0.651598999 9.44367788,0.683443142 C9.41067477,0.715287285 9.38367223,0.747220131 9.38367223,0.754345886 C9.38367223,0.761501209 9.37788169,0.767355564 9.37080102,0.767355564 C9.35420946,0.767355564 9.32366659,0.797455227 9.32366659,0.813806026 C9.32366659,0.820783945 9.31787605,0.826490462 9.31079538,0.826490462 C9.29420382,0.826490462 9.26366095,0.856590126 9.26366095,0.872940925 C9.26366095,0.879918843 9.25787041,0.885625361 9.25078974,0.885625361 C9.23419818,0.885625361 9.20365531,0.915725024 9.20365531,0.932075824 C9.20365531,0.939053742 9.19786476,0.94476026 9.1907841,0.94476026 C9.17419254,0.94476026 9.14364967,0.974859923 9.14364967,0.991210723 C9.14364967,0.998188641 9.13755909,1.00389516 9.13008839,1.00389516 C9.11166666,1.00389516 8.95163161,1.17047817 8.95163161,1.18963788 C8.95163161,1.1980646 8.94623111,1.20495381 8.93963049,1.20495381 C8.93302986,1.20495381 8.92762936,1.21293703 8.92762936,1.22269428 C8.92762936,1.23245154 8.92183881,1.24043475 8.91475815,1.24043475 C8.89816659,1.24043475 8.86762372,1.27053442 8.86762372,1.28688522 C8.86762372,1.29386313 8.85952295,1.29956965 8.84962202,1.29956965 C8.83972109,1.29956965 8.83162033,1.30527617 8.83162033,1.31225409 C8.83162033,1.32860489 8.80107746,1.35870455 8.7844859,1.35870455 C8.77740523,1.35870455 8.77161469,1.36441107 8.77161469,1.37138899 C8.77161469,1.38773979 8.74107182,1.41783945 8.72448026,1.41783945 C8.71739959,1.41783945 8.71160905,1.42354597 8.71160905,1.43052388 C8.71160905,1.44687468 8.68106618,1.47697435 8.66447462,1.47697435 C8.65739395,1.47697435 8.65160341,1.48229649 8.65160341,1.48880133 C8.65160341,1.50420597 8.55922472,1.59524415 8.54359325,1.59524415 C8.53699263,1.59524415 8.53159212,1.60322736 8.53159212,1.61298461 C8.53159212,1.62274187 8.52439145,1.63072508 8.51563062,1.63072508 C8.5068398,1.63072508 8.49240844,1.64403044 8.48358761,1.66029253 C8.47476678,1.67655463 8.46228561,1.68985998 8.45589501,1.68985998 C8.44119362,1.68985998 8.41248092,1.72649405 8.41197088,1.7458903 C8.41176086,1.75396221 8.37107703,1.80005787 8.32157238,1.84837108 C8.27206772,1.89668429 8.23156391,1.94201119 8.23156391,1.94904824 C8.23156391,1.95611486 8.22577337,1.96188052 8.2186927,1.96188052 C8.20210114,1.96188052 8.17155827,1.99198018 8.17155827,2.00833098 C8.17155827,2.0153089 8.16576773,2.02101542 8.15868706,2.02101542 C8.1420955,2.02101542 8.11155263,2.05111508 8.11155263,2.06746588 C8.11155263,2.0744438 8.10576209,2.08015031 8.09868142,2.08015031 C8.08208986,2.08015031 8.05154699,2.11024998 8.05154699,2.12660078 C8.05154699,2.1335787 8.04575644,2.13928521 8.03867578,2.13928521 C8.02208422,2.13928521 7.99154135,2.16938488 7.99154135,2.18573568 C7.99154135,2.19271359 7.9857508,2.19842011 7.97867014,2.19842011 C7.96207858,2.19842011 7.93153571,2.22851978 7.93153571,2.24487057 C7.93153571,2.25184849 7.92541513,2.25755501 7.91794443,2.25755501 C7.90012275,2.25755501 7.85952894,2.30403504 7.85952894,2.32440701 C7.85952894,2.33318855 7.85412843,2.34034387 7.84752781,2.34034387 C7.84092719,2.34034387 7.83552668,2.34832708 7.83552668,2.35808434 C7.83552668,2.3678416 7.82973613,2.37582481 7.82265547,2.37582481 C7.80606391,2.37582481 7.77552104,2.40592447 7.77552104,2.42227527 C7.77552104,2.42925319 7.76973049,2.43495971 7.76264983,2.43495971 C7.74605827,2.43495971 7.7155154,2.46505937 7.7155154,2.48141017 C7.7155154,2.48838809 7.70741463,2.4940946 7.6975137,2.4940946 C7.68761277,2.4940946 7.67951201,2.49980112 7.67951201,2.50677904 C7.67951201,2.52312984 7.64896914,2.5532295 7.63237758,2.5532295 C7.62529691,2.5532295 7.61950637,2.55893602 7.61950637,2.56591394 C7.61950637,2.58226474 7.5889635,2.6123644 7.57237194,2.6123644 C7.56529127,2.6123644 7.55950073,2.61807092 7.55950073,2.62504884 C7.55950073,2.64139964 7.52895786,2.6714993 7.5123663,2.6714993 C7.50528563,2.6714993 7.49949509,2.67720582 7.49949509,2.68418374 C7.49949509,2.70053454 7.46895221,2.7306342 7.45236065,2.7306342 C7.44527999,2.7306342 7.43948944,2.73634072 7.43948944,2.74331864 C7.43948944,2.75966943 7.40894657,2.7897691 7.39235501,2.7897691 C7.38527435,2.7897691 7.3794838,2.79648091 7.3794838,2.80470066 C7.3794838,2.81292041 7.36598253,2.82962602 7.34948098,2.84183738 C7.33297943,2.85404873 7.31947816,2.87116829 7.31947816,2.87989068 C7.31947816,2.88858351 7.26547308,2.948635 7.19946688,3.01332858 C7.13346067,3.07802216 7.07945559,3.13668398 7.07945559,3.1436619 C7.07945559,3.15066938 7.07366505,3.15640547 7.06658438,3.15640547 C7.04999282,3.15640547 7.01944995,3.18650513 7.01944995,3.20285593 C7.01944995,3.20983385 7.01365941,3.21554037 7.00657874,3.21554037 C6.98998718,3.21554037 6.95944431,3.24564003 6.95944431,3.26199083 C6.95944431,3.26896875 6.95365377,3.27467527 6.9465731,3.27467527 C6.92998154,3.27467527 6.89943867,3.30477493 6.89943867,3.32112573 C6.89943867,3.32810365 6.89364813,3.33381017 6.88656746,3.33381017 C6.8699759,3.33381017 6.83943303,3.36390983 6.83943303,3.38026063 C6.83943303,3.38723855 6.83364248,3.39294506 6.82656182,3.39294506 C6.80540983,3.39294506 6.77942739,3.42505531 6.77942739,3.45122251 C6.77942739,3.46511921 6.77162665,3.47573392 6.76142569,3.47573392 C6.75152476,3.47573392 6.743424,3.48144044 6.743424,3.48841836 C6.743424,3.50476916 6.71288113,3.53486882 6.69628957,3.53486882 C6.6892089,3.53486882 6.68341836,3.54285203 6.68341836,3.55260929 C6.68341836,3.56236655 6.67762782,3.57034976 6.67054715,3.57034976 C6.65395559,3.57034976 6.62341272,3.60044942 6.62341272,3.61680022 C6.62341272,3.62377814 6.61762217,3.62948466 6.61054151,3.62948466 C6.59394995,3.62948466 6.56340708,3.65958432 6.56340708,3.67593512 C6.56340708,3.68291304 6.55530631,3.68861956 6.54540538,3.68861956 C6.53550445,3.68861956 6.52740369,3.69432608 6.52740369,3.70130399 C6.52740369,3.71765479 6.49686082,3.74775446 6.48026926,3.74775446 C6.47318859,3.74775446 6.46739805,3.7530766 6.46739805,3.75958144 C6.46739805,3.77498608 6.37501936,3.86602425 6.3593879,3.86602425 C6.35278727,3.86602425 6.34738677,3.87173077 6.34738677,3.87870869 C6.34738677,3.89505949 6.3168439,3.92515915 6.30025234,3.92515915 C6.29317167,3.92515915 6.28738113,3.93187096 6.28738113,3.94009071 C6.28738113,3.94831047 6.27387986,3.96501607 6.2573783,3.97722743 C6.24087675,3.98943879 6.22737548,4.00933768 6.22737548,4.02143077 C6.22737548,4.03352385 6.22197498,4.04342895 6.21537436,4.04342895 C6.20877373,4.04342895 6.20337323,4.05141216 6.20337323,4.06116942 C6.20337323,4.07092668 6.19758268,4.07890989 6.19050202,4.07890989 C6.17391046,4.07890989 6.14336759,4.10900955 6.14336759,4.12536035 C6.14336759,4.13233827 6.13742703,4.13804479 6.13016634,4.13804479 C6.12293566,4.13804479 6.09053262,4.16465549 6.05818958,4.19720925 L5.99941405,4.25637372 L5.97538179,4.23269019 C5.96215055,4.21965095 5.95134953,4.20102346 5.95134953,4.1912662 C5.95134953,4.18150894 5.94594902,4.17352573 5.9393484,4.17352573 C5.93274778,4.17352573 5.92734728,4.16554252 5.92734728,4.15578526 C5.92734728,4.146028 5.91924651,4.13804479 5.90934558,4.13804479 C5.89944465,4.13804479 5.89134389,4.13233827 5.89134389,4.12536035 C5.89134389,4.11261678 5.86215115,4.07890989 5.85111011,4.07890989 C5.84156921,4.07890989 5.77133261,4.00700185 5.77133261,3.99721503 C5.77133261,3.99230683 5.75783134,3.9811599 5.74132979,3.97246707 C5.72482823,3.96377424 5.71132697,3.9495523 5.71132697,3.94088904 C5.71132697,3.93225534 5.70553642,3.92515915 5.69845576,3.92515915 C5.69140509,3.92515915 5.67790382,3.91756032 5.66845293,3.90827614 C5.65903205,3.89896239 5.65132132,3.88565704 5.65132132,3.87870869 C5.65132132,3.87173077 5.64553078,3.86602425 5.63845011,3.86602425 C5.63139945,3.86602425 5.61789818,3.85842542 5.60844729,3.84914124 C5.59902641,3.83982749 5.59131568,3.82652214 5.59131568,3.81957379 C5.59131568,3.81259587 5.58552514,3.80688936 5.57844447,3.80688936 C5.57139381,3.80688936 5.55789254,3.79929052 5.54844165,3.79000634 C5.53902077,3.7806926 5.53131004,3.76738724 5.53131004,3.76043889 C5.53131004,3.75346097 5.5255195,3.74775446 5.51843883,3.74775446 C5.51138817,3.74775446 5.4978869,3.74015562 5.48843601,3.73087144 C5.47901512,3.7215577 5.4713044,3.70825234 5.4713044,3.70130399 C5.4713044,3.69432608 5.46320364,3.68861956 5.45330271,3.68861956 C5.44340178,3.68861956 5.43530101,3.68063635 5.43530101,3.67087909 C5.43530101,3.66112183 5.42990051,3.65313862 5.42329989,3.65313862 C5.41669926,3.65313862 5.41129876,3.64527368 5.41129876,3.63566426 C5.41129876,3.61579493 5.07190685,3.27467527 5.05213499,3.27467527 C5.04505432,3.27467527 5.03926378,3.26896875 5.03926378,3.26199083 C5.03926378,3.24564003 5.00872091,3.21554037 4.99212935,3.21554037 C4.98504868,3.21554037 4.97925814,3.20983385 4.97925814,3.20285593 C4.97925814,3.18650513 4.94871527,3.15640547 4.93212371,3.15640547 C4.92504304,3.15640547 4.9192525,3.15037371 4.9192525,3.14298185 C4.9192525,3.13558999 4.90575123,3.1172286 4.88924967,3.1021492 C4.87274812,3.0870698 4.85924685,3.06613605 4.85924685,3.05561004 C4.85924685,3.03387796 4.83143424,3.00265473 4.81211242,3.00265473 C4.80503176,3.00265473 4.79924121,2.99694822 4.79924121,2.9899703 C4.79924121,2.9736195 4.76869834,2.94351983 4.75210678,2.94351983 C4.74502612,2.94351983 4.73923557,2.93781332 4.73923557,2.9308354 C4.73923557,2.9144846 4.7086927,2.88438494 4.69210114,2.88438494 C4.68502047,2.88438494 4.67922993,2.87728875 4.67922993,2.86865505 C4.67922993,2.85999179 4.66572866,2.84576985 4.64922711,2.83707702 C4.63272556,2.82838419 4.61922429,2.81643894 4.61922429,2.81058458 C4.61922429,2.79583043 4.58772133,2.76611514 4.57208986,2.76611514 C4.56500919,2.76611514 4.55921865,2.76040862 4.55921865,2.7534307 C4.55921865,2.7370799 4.52867577,2.70698024 4.51208421,2.70698024 C4.50500355,2.70698024 4.499213,2.69899703 4.499213,2.68923977 C4.499213,2.67948251 4.49342246,2.6714993 4.48634179,2.6714993 C4.46975023,2.6714993 4.43920736,2.64139964 4.43920736,2.62504884 C4.43920736,2.61807092 4.43341682,2.6123644 4.42633615,2.6123644 C4.40974459,2.6123644 4.37920172,2.58226474 4.37920172,2.56591394 C4.37920172,2.55893602 4.37341118,2.5532295 4.36633051,2.5532295 C4.34721871,2.5532295 4.31919608,2.52209498 4.31919608,2.50086555 C4.31919608,2.48040488 3.92027857,2.08015031 3.89987666,2.08015031 C3.892886,2.08015031 3.88715546,2.0744438 3.88715546,2.06746588 C3.88715546,2.05111508 3.85661259,2.02101542 3.84002103,2.02101542 C3.83294036,2.02101542 3.82714982,2.0153089 3.82714982,2.00833098 C3.82714982,1.99198018 3.79660695,1.96188052 3.78001539,1.96188052 C3.77293472,1.96188052 3.76714418,1.94819079 3.76714418,1.93145561 C3.76714418,1.90147422 3.74311192,1.86726468 3.72201993,1.86726468 C3.71607938,1.86726468 3.70395824,1.85395933 3.69513741,1.83769723 C3.68631658,1.82143513 3.67188522,1.80812978 3.66309439,1.80812978 C3.65433357,1.80812978 3.64713289,1.80242326 3.64713289,1.79544534 C3.64713289,1.77909455 3.61659002,1.74899488 3.59999846,1.74899488 C3.5929178,1.74899488 3.58712725,1.74328836 3.58712725,1.73631045 C3.58712725,1.71995965 3.55658438,1.68985998 3.53999282,1.68985998 C3.53291215,1.68985998 3.52712161,1.68415347 3.52712161,1.67717555 C3.52712161,1.66082475 3.49657874,1.63072508 3.47998718,1.63072508 C3.47290651,1.63072508 3.46711597,1.62501857 3.46711597,1.61804065 C3.46711597,1.60168985 3.4365731,1.57159019 3.41998154,1.57159019 C3.41290087,1.57159019 3.40711033,1.56588367 3.40711033,1.55890575 C3.40711033,1.54255495 3.37656745,1.51245529 3.3599759,1.51245529 C3.35289523,1.51245529 3.34710468,1.50674877 3.34710468,1.49977085 C3.34710468,1.48342005 3.31656181,1.45332039 3.29997025,1.45332039 C3.29288959,1.45332039 3.28709904,1.44533718 3.28709904,1.43557992 C3.28709904,1.42582266 3.2813085,1.41783945 3.27422783,1.41783945 C3.25763627,1.41783945 3.2270934,1.38773979 3.2270934,1.37138899 C3.2270934,1.36441107 3.21899264,1.35870455 3.20909171,1.35870455 C3.19904076,1.35870455 3.19109002,1.34817854 3.19109002,1.33487319 C3.19109002,1.32076951 3.14956611,1.27015004 3.08908043,1.21054206 C3.03297515,1.15525093 2.98707084,1.10474973 2.98707084,1.09833359 C2.98707084,1.09191745 2.98128029,1.08668402 2.97419962,1.08668402 C2.95760807,1.08668402 2.92706519,1.05658435 2.92706519,1.04023355 C2.92706519,1.03325564 2.92163468,1.02754912 2.91500406,1.02754912 C2.90837344,1.02754912 2.85754866,0.98231092 2.80207344,0.92701979 C2.74659823,0.87172866 2.69532341,0.826490462 2.68812273,0.826490462 C2.68092205,0.826490462 2.6750415,0.818507251 2.6750415,0.808749993 C2.6750415,0.798992734 2.66964099,0.791009523 2.66304037,0.791009523 C2.65643975,0.791009523 2.65103924,0.777704171 2.65103924,0.761442074 C2.65103924,0.744706897 2.64410859,0.731874624 2.63507774,0.731874624 C2.62628691,0.731874624 2.61185556,0.718569272 2.60303473,0.702307175 C2.5942139,0.686045078 2.57978254,0.672739726 2.57099172,0.672739726 C2.56223089,0.672739726 2.55503022,0.667033208 2.55503022,0.66005529 C2.55503022,0.644650649 2.52487738,0.613604827 2.50990597,0.613604827 C2.50396541,0.613604827 2.49184427,0.600299475 2.48302345,0.584037378 C2.47420262,0.567775281 2.45977126,0.554469928 2.45098043,0.554469928 C2.44221961,0.554469928 2.43501893,0.548763411 2.43501893,0.541785493 C2.43501893,0.525434693 2.40447606,0.49533503 2.3878845,0.49533503 C2.38080383,0.49533503 2.37501329,0.489628512 2.37501329,0.482650594 C2.37501329,0.466299794 2.34447042,0.436200131 2.32787886,0.436200131 C2.32079819,0.436200131 2.31500765,0.430493613 2.31500765,0.423515695 C2.31500765,0.407164896 2.28446478,0.377065232 2.26787322,0.377065232 C2.26079255,0.377065232 2.25500201,0.371358715 2.25500201,0.364380797 C2.25500201,0.348029997 2.22445914,0.317930334 2.20786758,0.317930334 C2.20078691,0.317930334 2.19499637,0.310834146 2.19499637,0.302200451 C2.19499637,0.293537188 2.1814951,0.279315245 2.16499354,0.270622415 C2.14849199,0.261929585 2.13499072,0.247707641 2.13499072,0.239044379 C2.13499072,0.230144577 2.1219695,0.223314496 2.1049879,0.223314496 C2.08848635,0.223314496 2.07498508,0.217992355 2.07498508,0.211487516 C2.07498508,0.204982677 2.06688432,0.199660536 2.05698339,0.199660536 C2.04708246,0.199660536 2.0389817,0.191677325 2.0389817,0.181920067 C2.0389817,0.171867134 2.02821068,0.164179597 2.01410936,0.164179597 C1.98755686,0.164179597 1.9549738,0.138574186 1.9549738,0.117729134 C1.9549738,0.110751216 1.93337177,0.105044698 1.90696929,0.105044698 C1.87228602,0.105044698 1.85896477,0.100106934 1.85896477,0.0873042288 C1.85896477,0.0762755702 1.84762371,0.0695637592 1.82896195,0.0695637592 C1.8124604,0.0695637592 1.79895913,0.0642416183 1.79895913,0.0577367794 C1.79895913,0.0512319406 1.78200754,0.0459097997 1.76127559,0.0459097997 C1.73925352,0.0459097997 1.71723145,0.0373056719 1.7082606,0.0252125852 C1.69304917,0.00472234278 1.1476879,-0.00884911647 0.967250935,0.00679206423" id="path1"></path>
                            </g>
                        </g>
                    </g>
                </g>
            </g>
        </g>
    </g>
</svg>