<?xml version="1.0" encoding="UTF-8"?>
<svg width="24px" height="29px" viewBox="0 0 24 29" version="1.1" xmlns="http://www.w3.org/2000/svg" xmlns:xlink="http://www.w3.org/1999/xlink">
    <!-- Generator: Sketch 49.3 (51167) - http://www.bohemiancoding.com/sketch -->
    <title>exclIIcon</title>
    <defs>
        <path d="M2.92286111,0.0672597299 C2.8575266,0.136362192 2.71646869,0.223200953 2.59416849,0.269614774 C2.11945439,0.4499722 2.12684204,0.446344321 1.83231729,0.644322875 C1.70534209,0.729664416 1.56393789,0.817079031 1.51805367,0.838500794 C1.47222717,0.859980143 1.38732693,0.926260921 1.32938007,0.98580421 C1.27143321,1.04540508 1.19715271,1.12003574 1.16431231,1.1517077 C0.95007052,1.35832407 0.851145296,1.46526013 0.851145296,1.49030977 C0.851145296,1.51518666 0.766879937,1.64521446 0.499135414,2.03333995 C0.466179578,2.08113582 0.410829934,2.19515488 0.376200334,2.28671565 C0.341570734,2.37821882 0.269194871,2.55172359 0.215345843,2.6722498 C0.161496815,2.79277601 0.0929302075,3.0000834 0.0629756036,3.13293288 L0.00849169987,3.37450357 L0.0017389279,14.3617951 C-0.00316693208,22.3701946 0.0020275079,25.4111636 0.0209006398,25.5780461 C0.0537987597,25.8691402 0.111283895,26.09833 0.201320855,26.2975179 C0.240394587,26.3840111 0.312481871,26.5540032 0.361482754,26.6753356 C0.41348487,26.8038662 0.512525526,26.9846843 0.598984093,27.1086656 C0.680536801,27.2256791 0.778884864,27.3777621 0.8176123,27.4465766 C0.879483852,27.5567375 0.951455704,27.6413304 1.15548176,27.8438006 C1.18491692,27.8729388 1.26092889,27.9484909 1.32441649,28.0116044 C1.38790409,28.074718 1.47505525,28.1434174 1.51811139,28.1642633 C1.56116753,28.1850516 1.69351031,28.266938 1.81228984,28.3461755 C2.08719115,28.5295274 2.1963321,28.5867097 2.46719329,28.6892117 C2.71762301,28.7839396 2.8654914,28.8646743 2.9350969,28.9446029 L2.98340519,29 L11.3351989,29 C19.2624338,29 19.688551,28.9979269 19.7171781,28.9596902 C19.7862065,28.867496 20.0362899,28.7346465 20.3134421,28.6428554 C20.467313,28.5918924 20.5871314,28.5267057 20.8439676,28.3541799 C20.9518965,28.2816799 21.083893,28.2003693 21.137338,28.1735346 C21.2719895,28.1059293 21.7712329,27.6031513 21.8356439,27.4703018 C21.8639248,27.412083 21.9470358,27.2838403 22.0203351,27.1853693 C22.1688384,26.9860087 22.2176084,26.8977303 22.3096654,26.6620334 C22.344295,26.5733519 22.4130348,26.4117097 22.4624974,26.3028733 C22.5119023,26.1940369 22.5757362,26.0022776 22.6043056,25.8767415 L22.65625,25.6485306 L22.65625,16.7803813 L22.65625,7.91223193 L22.6054022,7.68926132 C22.5771791,7.56551033 22.516635,7.39131454 22.4693656,7.2976807 C22.4225002,7.20496823 22.3554919,7.04614774 22.320516,6.94479746 C22.2294979,6.68099881 22.1945797,6.60665608 22.1084674,6.49286736 C22.0665079,6.43735504 21.9809728,6.31999603 21.9185241,6.23206315 C21.6950477,5.91747419 21.5022763,5.71840151 19.2655504,3.49255361 C16.4383322,0.679104448 16.293061,0.550746624 15.73033,0.368719222 C15.4769568,0.286775218 15.2363388,0.161699762 15.1682916,0.0765885624 L15.1069972,0 L9.04675954,0 L2.98646414,0 L2.92286111,0.0672597299 M13.3502953,1.65742256 C13.5270795,1.68016878 13.6046498,1.72491263 13.6756404,1.84515091 C13.7207744,1.92156672 13.7221595,1.97817315 13.7361845,4.33042097 C13.7528067,7.12181493 13.7509021,7.09469222 13.9531967,7.41423352 C13.9661828,7.4347915 14.0333642,7.55520254 14.1023925,7.68189039 C14.2680952,7.98582605 14.5704116,8.29598094 14.8761332,8.4758201 C15.5897916,8.89555997 15.2196011,8.85283161 18.269834,8.86757347 C20.9254049,8.88035743 20.8500278,8.87695989 20.9542052,8.98873312 C21.0536498,9.09543884 21.0517452,8.94018864 21.0517452,16.999033 C21.0516875,25.9474563 21.0652508,25.4503217 20.8096843,25.8788721 C20.7568164,25.9675536 20.6960992,26.0867554 20.674802,26.1437649 C20.6249931,26.2769023 20.4564624,26.5005639 20.3532085,26.5705878 C20.3090557,26.6005322 20.2526095,26.6570234 20.2277916,26.6961239 C20.1722111,26.7836537 19.9835952,26.9274444 19.8351496,26.9954527 C19.7741438,27.0233817 19.698305,27.0580481 19.6665612,27.0725596 C19.6348174,27.0870135 19.5724841,27.1219102 19.5280428,27.1501847 C19.1438274,27.3944043 19.4169972,27.3865151 11.343914,27.3870334 C4.33107378,27.387494 3.93843184,27.3834055 3.58688368,27.3061835 C3.49800104,27.286662 3.39930668,27.2652403 3.36756289,27.2586755 C3.33581909,27.2520532 3.26309693,27.2195751 3.20595809,27.1865786 C3.08031035,27.1139059 2.95275799,27.0483161 2.80044547,26.9780044 C2.7377659,26.9490965 2.645074,26.8894956 2.59439935,26.845558 C2.54378242,26.8016203 2.49547413,26.7656871 2.48704759,26.7656871 C2.47862106,26.7656871 2.45103281,26.7306176 2.42569549,26.687774 C2.40035816,26.6449305 2.34997209,26.5921247 2.31372645,26.570415 C2.22247745,26.5158241 1.95963879,26.151942 1.95940792,26.0799027 C1.95935021,26.0637788 1.91288883,25.9704905 1.856154,25.8725953 C1.72762047,25.650834 1.66736496,25.404311 1.63619832,24.9735147 C1.60589742,24.5543507 1.60589742,4.43390191 1.63619832,4.0206116 C1.66903873,3.57305798 1.82048551,3.04050834 1.9149666,3.04050834 C1.92570178,3.04050834 1.94532522,3.00019857 1.9585999,2.95090548 C2.03709366,2.66021446 2.51417411,2.16227363 2.89556144,1.97299047 C3.02721163,1.90768864 3.18985532,1.82643566 3.25697903,1.7924027 C3.39099558,1.72450953 3.57476332,1.68489079 3.87546368,1.65909253 C4.16063844,1.63456116 13.1602943,1.63300635 13.3502953,1.65742256 M15.7874689,2.41599484 C15.9479771,2.53640588 20.2051669,6.77273233 20.2820446,6.88865171 C20.3637705,7.01188443 20.3399915,7.10436656 20.2088607,7.17300834 C20.0695343,7.24591144 16.2308432,7.24902105 16.008752,7.17634829 C15.7207492,7.08219619 15.4661062,6.76305798 15.4195871,6.43804607 C15.3860541,6.20378872 15.3878433,2.73323272 15.4216071,2.57625496 C15.474475,2.33013503 15.5997187,2.27531374 15.7874689,2.41599484 M7.43654087,11.4882844 C6.74394887,11.9201747 6.82330837,12.6606652 6.85938087,12.7793487 C6.88875831,12.8760921 9.10222462,15.9581195 9.12761966,16.0317712 C9.19133812,16.2166203 9.18966436,16.2239913 9.05276201,16.3571287 C8.9859846,16.422085 8.92099638,16.4868685 8.90829886,16.5011497 C8.89560134,16.5154309 6.97331225,19.0514337 6.93625858,19.0787867 C6.73742696,19.2254567 6.3891109,20.2774265 7.11910287,20.8459095 C7.84909483,21.4143924 8.38897029,21.2445731 8.50428686,21.2202145 C8.55265287,21.2100218 11.0597782,18.6239774 11.0899637,18.5828038 C11.1434664,18.5097855 11.2053957,18.4829508 11.2053957,18.5328197 C11.2053957,18.546525 11.4853182,18.310828 11.7075248,18.5328197 C11.9909681,18.8160246 13.7077305,21.0567871 13.7686786,21.1149484 C13.9332269,21.271811 14.8638397,21.2316739 15.1416268,21.0474583 C15.2403479,20.981991 15.5744968,20.9135147 15.6610708,20.0972994 C15.8026335,18.7626534 13.5592229,16.4391411 13.5274835,16.4045214 C13.3377133,16.1975596 13.3848095,15.860973 13.6355855,15.6314376 C13.6580371,15.6109373 15.5225524,13.3554905 15.5225524,12.6550218 C15.5225524,12.0723729 15.4829015,11.8280381 15.3883627,11.8280381 C15.368797,11.8280381 15.1348741,11.6029944 14.9878714,11.4427919 C14.8860604,11.3318249 14.8057774,11.3212867 14.0630879,11.3212867 C13.2170291,11.3212867 11.3854696,13.6544162 11.2928354,13.6837847 C11.2470089,13.6983539 10.9603335,13.4154369 10.8995009,13.3598094 C10.6911461,13.1692017 9.16282642,11.4134234 8.99227564,11.3212867 C8.82172486,11.2291501 8.12913286,11.056394 7.43654087,11.4882844 Z" id="path-1"></path>
    </defs>
    <g id="OrderSteps" stroke="none" stroke-width="1" fill="none" fill-rule="evenodd">
        <g id="Final-Review---Case-2" transform="translate(-350.000000, -1715.000000)">
            <g id="Modal" transform="translate(87.000000, 186.000000)">
                <g id="main-content">
                    <g id="Данные-об-отправителе" transform="translate(0.000000, 1330.000000)">
                        <g id="Group" transform="translate(260.000000, 199.000000)">
                            <g id="icons/docs/excel">
                                <g id="plane" transform="translate(3.625000, 0.000000)">
                                    <g id="colors/black">
                                        <mask id="mask-2" fill="white">
                                            <use xlink:href="#path-1"></use>
                                        </mask>
                                        <use id="Mask" fill="#4AC27C" xlink:href="#path-1"></use>
                                        <g id="colors/excel" mask="url(#mask-2)" fill="#4AC27C">
                                            <g transform="translate(-0.906250, -0.906250)" id="Rectangle-5">
                                                <rect x="0" y="0" width="31" height="31"></rect>
                                            </g>
                                        </g>
                                    </g>
                                </g>
                            </g>
                        </g>
                    </g>
                </g>
            </g>
        </g>
    </g>
</svg>
