<?xml version="1.0" encoding="UTF-8"?>
<svg width="24px" height="29px" viewBox="0 0 24 29" version="1.1" xmlns="http://www.w3.org/2000/svg" xmlns:xlink="http://www.w3.org/1999/xlink">
    <!-- Generator: Sketch 49.3 (51167) - http://www.bohemiancoding.com/sketch -->
    <defs>
        <path d="M2.92286111,0.0672597299 C2.8575266,0.136362192 2.71646869,0.223200953 2.59416849,0.269614774 C2.11945439,0.4499722 2.12684204,0.446344321 1.83231729,0.644322875 C1.70534209,0.729664416 1.56393789,0.817079031 1.51805367,0.838500794 C1.47222717,0.859980143 1.38732693,0.926260921 1.32938007,0.98580421 C1.27143321,1.04540508 1.19715271,1.12003574 1.16431231,1.1517077 C0.95007052,1.35832407 0.851145296,1.46526013 0.851145296,1.49030977 C0.851145296,1.51518666 0.766879937,1.64521446 0.499135414,2.03333995 C0.466179578,2.08113582 0.410829934,2.19515488 0.376200334,2.28671565 C0.341570734,2.37821882 0.269194871,2.55172359 0.215345843,2.6722498 C0.161496815,2.79277601 0.0929302075,3.0000834 0.0629756036,3.13293288 L0.00849169987,3.37450357 L0.0017389279,14.3617951 C-0.00316693208,22.3701946 0.0020275079,25.4111636 0.0209006398,25.5780461 C0.0537987597,25.8691402 0.111283895,26.09833 0.201320855,26.2975179 C0.240394587,26.3840111 0.312481871,26.5540032 0.361482754,26.6753356 C0.41348487,26.8038662 0.512525526,26.9846843 0.598984093,27.1086656 C0.680536801,27.2256791 0.778884864,27.3777621 0.8176123,27.4465766 C0.879483852,27.5567375 0.951455704,27.6413304 1.15548176,27.8438006 C1.18491692,27.8729388 1.26092889,27.9484909 1.32441649,28.0116044 C1.38790409,28.074718 1.47505525,28.1434174 1.51811139,28.1642633 C1.56116753,28.1850516 1.69351031,28.266938 1.81228984,28.3461755 C2.08719115,28.5295274 2.1963321,28.5867097 2.46719329,28.6892117 C2.71762301,28.7839396 2.8654914,28.8646743 2.9350969,28.9446029 L2.98340519,29 L11.3351989,29 C19.2624338,29 19.688551,28.9979269 19.7171781,28.9596902 C19.7862065,28.867496 20.0362899,28.7346465 20.3134421,28.6428554 C20.467313,28.5918924 20.5871314,28.5267057 20.8439676,28.3541799 C20.9518965,28.2816799 21.083893,28.2003693 21.137338,28.1735346 C21.2719895,28.1059293 21.7712329,27.6031513 21.8356439,27.4703018 C21.8639248,27.412083 21.9470358,27.2838403 22.0203351,27.1853693 C22.1688384,26.9860087 22.2176084,26.8977303 22.3096654,26.6620334 C22.344295,26.5733519 22.4130348,26.4117097 22.4624974,26.3028733 C22.5119023,26.1940369 22.5757362,26.0022776 22.6043056,25.8767415 L22.65625,25.6485306 L22.65625,16.7803813 L22.65625,7.91223193 L22.6054022,7.68926132 C22.5771791,7.56551033 22.516635,7.39131454 22.4693656,7.2976807 C22.4225002,7.20496823 22.3554919,7.04614774 22.320516,6.94479746 C22.2294979,6.68099881 22.1945797,6.60665608 22.1084674,6.49286736 C22.0665079,6.43735504 21.9809728,6.31999603 21.9185241,6.23206315 C21.6950477,5.91747419 21.5022763,5.71840151 19.2655504,3.49255361 C16.4383322,0.679104448 16.293061,0.550746624 15.73033,0.368719222 C15.4769568,0.286775218 15.2363388,0.161699762 15.1682916,0.0765885624 L15.1069972,0 L9.04675954,0 L2.98646414,0 L2.92286111,0.0672597299 M13.3502953,1.65742256 C13.5270795,1.68016878 13.6046498,1.72491263 13.6756404,1.84515091 C13.7207744,1.92156672 13.7221595,1.97817315 13.7361845,4.33042097 C13.7528067,7.12181493 13.7509021,7.09469222 13.9531967,7.41423352 C13.9661828,7.4347915 14.0333642,7.55520254 14.1023925,7.68189039 C14.2680952,7.98582605 14.5704116,8.29598094 14.8761332,8.4758201 C15.5897916,8.89555997 15.2196011,8.85283161 18.269834,8.86757347 C20.9254049,8.88035743 20.8500278,8.87695989 20.9542052,8.98873312 C21.0536498,9.09543884 21.0517452,8.94018864 21.0517452,16.999033 C21.0516875,25.9474563 21.0652508,25.4503217 20.8096843,25.8788721 C20.7568164,25.9675536 20.6960992,26.0867554 20.674802,26.1437649 C20.6249931,26.2769023 20.4564624,26.5005639 20.3532085,26.5705878 C20.3090557,26.6005322 20.2526095,26.6570234 20.2277916,26.6961239 C20.1722111,26.7836537 19.9835952,26.9274444 19.8351496,26.9954527 C19.7741438,27.0233817 19.698305,27.0580481 19.6665612,27.0725596 C19.6348174,27.0870135 19.5724841,27.1219102 19.5280428,27.1501847 C19.1438274,27.3944043 19.4169972,27.3865151 11.343914,27.3870334 C4.33107378,27.387494 3.93843184,27.3834055 3.58688368,27.3061835 C3.49800104,27.286662 3.39930668,27.2652403 3.36756289,27.2586755 C3.33581909,27.2520532 3.26309693,27.2195751 3.20595809,27.1865786 C3.08031035,27.1139059 2.95275799,27.0483161 2.80044547,26.9780044 C2.7377659,26.9490965 2.645074,26.8894956 2.59439935,26.845558 C2.54378242,26.8016203 2.49547413,26.7656871 2.48704759,26.7656871 C2.47862106,26.7656871 2.45103281,26.7306176 2.42569549,26.687774 C2.40035816,26.6449305 2.34997209,26.5921247 2.31372645,26.570415 C2.22247745,26.5158241 1.95963879,26.151942 1.95940792,26.0799027 C1.95935021,26.0637788 1.91288883,25.9704905 1.856154,25.8725953 C1.72762047,25.650834 1.66736496,25.404311 1.63619832,24.9735147 C1.60589742,24.5543507 1.60589742,4.43390191 1.63619832,4.0206116 C1.66903873,3.57305798 1.82048551,3.04050834 1.9149666,3.04050834 C1.92570178,3.04050834 1.94532522,3.00019857 1.9585999,2.95090548 C2.03709366,2.66021446 2.51417411,2.16227363 2.89556144,1.97299047 C3.02721163,1.90768864 3.18985532,1.82643566 3.25697903,1.7924027 C3.39099558,1.72450953 3.57476332,1.68489079 3.87546368,1.65909253 C4.16063844,1.63456116 13.1602943,1.63300635 13.3502953,1.65742256 M15.7874689,2.41599484 C15.9479771,2.53640588 20.2051669,6.77273233 20.2820446,6.88865171 C20.3637705,7.01188443 20.3399915,7.10436656 20.2088607,7.17300834 C20.0695343,7.24591144 16.2308432,7.24902105 16.008752,7.17634829 C15.7207492,7.08219619 15.4661062,6.76305798 15.4195871,6.43804607 C15.3860541,6.20378872 15.3878433,2.73323272 15.4216071,2.57625496 C15.474475,2.33013503 15.5997187,2.27531374 15.7874689,2.41599484 M10.2586224,8.95038125 C9.89795511,9.06710683 9.44909778,9.39943209 9.36517871,9.61197975 C9.33562812,9.68666799 9.26925472,9.80517871 9.2175989,9.8753753 C8.91510935,10.2865925 8.90102664,11.9242057 9.19480108,12.5315012 C9.24241678,12.6299722 9.30982907,12.8376827 9.3445741,12.9930481 C9.4066188,13.2706096 9.53232425,13.5675774 9.64019545,13.6911557 C9.87475328,13.9599643 9.87313723,14.7818229 9.63736737,15.1284869 C9.51425914,15.3095353 9.38364783,15.6032784 9.34613243,15.7836358 C9.33008739,15.8606275 9.27110164,15.9912311 9.21500168,16.0738662 C9.15890173,16.1565588 9.05974564,16.3744619 8.99458428,16.5581593 C8.92948063,16.7419142 8.83632701,16.9465727 8.78755699,17.0129686 C8.73878697,17.0794222 8.65036606,17.253618 8.59103401,17.4001728 C8.4218107,17.8180123 8.24185221,18.00194 7.84903712,18.1583419 C7.66578882,18.2313026 7.44970012,18.3357625 7.36889772,18.3904686 C7.28809532,18.4451747 7.1917096,18.4899186 7.15465592,18.4899762 C7.02416005,18.4900338 6.18289164,18.9526747 5.97038133,19.1412669 C5.9176289,19.1880838 5.77091483,19.2935226 5.64440136,19.3755818 C5.26538039,19.6213562 4.58485104,20.367778 4.47345916,20.6597935 C4.44281196,20.7401251 4.39104071,20.8372716 4.35837345,20.8756235 C4.3257062,20.914033 4.25460009,21.0890925 4.20028933,21.2646704 L4.10153725,21.5839237 L4.18724551,21.8625218 C4.5082619,22.9068904 5.57750852,23.4745095 6.31610016,22.9925774 C6.37220012,22.9559531 6.49294199,22.8908241 6.58430641,22.8478078 C6.73327141,22.7777264 7.00771099,22.5275179 7.38609708,22.1169341 C7.52767443,21.9632387 7.68685516,21.7445294 7.94536512,21.3483419 C8.03517122,21.2105977 8.14240754,21.0522379 8.18355905,20.9963225 C8.31139999,20.822645 8.60488585,20.3204428 8.78259341,19.9713026 C9.00912871,19.5261676 9.26942787,19.1969519 9.47304992,19.0980203 C9.56406805,19.0538523 9.70651114,18.9836557 9.78967989,18.942079 C9.87279093,18.90056 10.2038499,18.8286358 10.5253857,18.7823372 C11.0408473,18.7081096 11.3321977,18.6444778 11.8760556,18.4872697 C11.9565694,18.4640052 12.2965166,18.4336577 12.631558,18.4198948 L13.2406349,18.3949027 L13.5307156,18.6467236 C13.6903003,18.7852164 13.9432118,19.0241382 14.0926963,19.1776033 C14.2422384,19.3310683 14.4492657,19.5148233 14.5527505,19.5859412 C14.656293,19.6570016 14.7556799,19.7393487 14.7736873,19.76889 C14.7916947,19.7984889 14.9234026,19.89028 15.0664229,19.9729726 C15.2094431,20.0556652 15.3884782,20.1675536 15.4642593,20.2216839 C15.7505306,20.4262272 16.7330878,20.5510147 17.2948376,20.4541561 C18.3117358,20.2788086 18.8192326,19.1492137 18.2615806,18.3021326 C17.9891034,17.8882089 17.9347926,17.8309114 17.6933089,17.702496 C17.5547328,17.6287867 17.4300662,17.5501827 17.4162144,17.5278396 C17.3715422,17.4558002 17.0942168,17.361245 16.6230234,17.2574762 C16.3699965,17.2017335 16.0665257,17.1292911 15.9486119,17.096525 C15.6206119,17.0051946 14.9969905,16.9386835 14.5216416,16.9442693 C13.8281261,16.9523888 13.7021898,16.8687172 12.7241922,15.750006 C11.5865521,14.4486914 11.5415336,14.3646743 11.6439218,13.7352661 C11.6852465,13.4811994 11.7581995,13.2097994 11.8162041,13.0941104 C12.2007081,12.3277641 12.214329,10.2438642 11.837559,9.8324166 C11.7949069,9.78588761 11.7207995,9.66973789 11.6728375,9.57437649 C11.5781833,9.38612986 11.4492457,9.26733122 11.2504141,9.18515687 C11.1804623,9.15624901 11.1232658,9.11634234 11.1232658,9.09647538 C11.1232658,8.96829031 10.5188638,8.86613384 10.2586224,8.95038125 M11.340682,16.205276 C11.9188231,16.8232824 11.8933704,17.2069162 11.2690564,17.2859809 C10.4896595,17.3846823 10.1711249,17.2039793 10.3877908,16.785967 C10.4202849,16.723199 10.4602821,16.6007149 10.4766157,16.5138185 C10.5647481,16.0452462 11.0340946,15.8776152 11.340682,16.205276 M16.5085726,18.7193963 C16.634278,18.8227045 16.7538079,18.9071823 16.7741816,18.9071823 C16.8337445,18.9071823 16.8167183,19.1010723 16.7524804,19.1542812 C16.6637132,19.2277601 16.5071874,19.169311 16.3057585,18.9874563 C16.206083,18.8973928 16.1024828,18.8237411 16.0756449,18.8237411 C15.9933996,18.8237411 15.9244867,18.707361 15.9531715,18.6171247 C16.003673,18.458477 16.2449836,18.5029329 16.5085726,18.7193963 M6.43072414,21.0093368 C6.4197581,21.1593467 6.39851861,21.1918824 6.26479064,21.2633459 C6.17977497,21.3087232 6.08223493,21.4063304 6.04593157,21.4824007 C5.94163876,21.7005917 5.68624546,21.6340806 5.68624546,21.3887093 C5.68624546,21.3794956 5.77091483,21.2768209 5.87445733,21.160556 C5.97794212,21.0442335 6.06266921,20.9314813 6.06266921,20.9099444 C6.06266921,20.8618606 6.31402239,20.7908002 6.38893776,20.8177502 C6.42466396,20.8305917 6.43903524,20.8964118 6.43072414,21.0093368" id="path-1"></path>
    </defs>
    <g id="OrderSteps" stroke="none" stroke-width="1" fill="none" fill-rule="evenodd">
        <g id="Final-Review---Case-2" transform="translate(-350.000000, -1758.000000)">
            <g id="Modal" transform="translate(87.000000, 186.000000)">
                <g id="main-content">
                    <g id="Данные-об-отправителе" transform="translate(0.000000, 1330.000000)">
                        <g id="Group" transform="translate(260.000000, 242.000000)">
                            <g id="icons/docs/pdf">
                                <g id="plane" transform="translate(3.625000, 0.000000)">
                                    <g id="colors/black">
                                        <mask id="mask-2" fill="white">
                                            <use xlink:href="#path-1"></use>
                                        </mask>
                                        <use id="Mask" fill="#E52E28" xlink:href="#path-1"></use>
                                        <g id="colors/pdf" mask="url(#mask-2)" fill="#E52E28">
                                            <g transform="translate(-0.906250, -0.906250)" id="Rectangle-5">
                                                <rect x="0" y="0" width="31" height="31"></rect>
                                            </g>
                                        </g>
                                    </g>
                                </g>
                            </g>
                        </g>
                    </g>
                </g>
            </g>
        </g>
    </g>
</svg>
