<svg width="23" height="16" viewBox="0 0 23 16" version="1.1" xmlns="http://www.w3.org/2000/svg" xmlns:xlink="http://www.w3.org/1999/xlink">
<title>Group</title>
<desc>Created using Figma</desc>
<g id="Canvas" transform="translate(-12704 -1296)">
<g id="Group">
<g id="Rectangle 7">
<use xlink:href="#ru-RU_a" transform="translate(12704 1306.46)" fill="#E83C3C"/>
</g>
<g id="Rectangle 7">
<use xlink:href="#ru-RU_b" transform="translate(12704 1300.92)" fill="#3C95E8"/>
</g>
<g id="Rectangle 7">
<use xlink:href="#ru-RU_c" transform="translate(12704 1296)" fill="#FFFFFF"/>
</g>
<g id="Rectangle 5 (Stroke)">
<use xlink:href="#ru-RU_d" transform="translate(12704 1296)" fill="#BDC6D0"/>
</g>
</g>
</g>
<defs>
<path id="ru-RU_a" d="M 0 0L 23 0L 23 3.53846C 23 4.64303 22.1046 5.53846 21 5.53846L 2 5.53846C 0.89543 5.53846 0 4.64303 0 3.53846L 0 0Z"/>
<path id="ru-RU_b" d="M 0 0L 23 0L 23 5.53846L 0 5.53846L 0 0Z"/>
<path id="ru-RU_c" d="M 0 2C 0 0.89543 0.89543 0 2 0L 21 0C 22.1046 0 23 0.89543 23 2L 23 4.92308L 0 4.92308L 0 2Z"/>
<path id="ru-RU_d" fill-rule="evenodd" d="M 21 1L 2 1C 1.44772 1 1 1.44772 1 2L 1 14C 1 14.5523 1.44772 15 2 15L 21 15C 21.5523 15 22 14.5523 22 14L 22 2C 22 1.44772 21.5523 1 21 1ZM 2 0C 0.895431 0 0 0.895431 0 2L 0 14C 0 15.1046 0.895431 16 2 16L 21 16C 22.1046 16 23 15.1046 23 14L 23 2C 23 0.895431 22.1046 0 21 0L 2 0Z"/>
</defs>
</svg>
