<?xml version="1.0" encoding="UTF-8"?>
<svg width="60px" height="60px" viewBox="0 0 60 60" version="1.1" xmlns="http://www.w3.org/2000/svg" xmlns:xlink="http://www.w3.org/1999/xlink">
    <!-- Generator: Sketch 49.3 (51167) - http://www.bohemiancoding.com/sketch -->
    <title>analytics</title>
    <desc>Created with Sketch.</desc>
    <defs></defs>
    <g id="Main-Page" stroke="none" stroke-width="1" fill="none" fill-rule="evenodd">
        <g id="Контент-1--RU-" transform="translate(-129.000000, -2984.000000)" fill-rule="nonzero">
            <g id="analytics" transform="translate(129.000000, 2984.000000)">
                <path d="M34.9189453,1.171875 L3.515625,1.171875 C2.22117188,1.171875 1.171875,2.22117188 1.171875,3.515625 L1.171875,56.484375 C1.171875,57.7788281 2.22117188,58.828125 3.515625,58.828125 L43.8251953,58.828125 C45.1196484,58.828125 46.1689453,57.7788281 46.1689453,56.484375 L46.1689453,12.4222266 L34.9189453,1.171875 Z" id="Shape" fill="#FFFFFF"></path>
                <path d="M37.2626953,12.4222266 L46.1689453,12.4222266 L34.9189453,1.17210937 L34.9189453,10.0784766 C34.9189453,11.3729297 35.9682422,12.4222266 37.2626953,12.4222266 Z" id="Shape" fill="#FEDA9B"></path>
                <rect id="Rectangle-path" fill="#36D28F" x="14.765625" y="48.3246094" width="7.5" height="10.5023438"></rect>
                <rect id="Rectangle-path" fill="#72D8FF" x="39.140625" y="33.3984375" width="7.5" height="25.4296875"></rect>
                <rect id="Rectangle-path" fill="#FFC66C" x="26.953125" y="41.6015625" width="7.5" height="17.2265625"></rect>
                <rect id="Rectangle-path" fill="#4DBAF6" x="51.328125" y="25.6347656" width="7.5" height="33.1933594"></rect>
                <path d="M17.0596875,20.4084375 L26.6661328,20.4084375 C26.6661328,25.7138672 22.3652344,30.0148828 17.0596875,30.0148828 C11.7541406,30.0148828 7.45324219,25.7139844 7.45324219,20.4084375 C7.45324219,15.1030078 11.7541406,10.8019922 17.0596875,10.8019922 L17.0596875,20.4084375 Z" id="Shape" fill="#36D28F"></path>
                <path d="M17.0596875,7.58542969 L17.0596875,20.4085547 L29.8828125,20.4085547 C29.8828125,13.3264453 24.1416797,7.58542969 17.0596875,7.58542969 Z" id="Shape" fill="#FFC66C"></path>
                <path d="M58.828125,24.4627734 L51.328125,24.4627734 C50.6808984,24.4627734 50.15625,24.9875391 50.15625,25.6346484 L50.15625,31.5526172 C50.15625,32.1997266 50.6808984,32.7244922 51.328125,32.7244922 C51.9753516,32.7244922 52.5,32.1997266 52.5,31.5526172 L52.5,26.8065234 L57.65625,26.8065234 L57.65625,57.65625 L55.078125,57.65625 L52.5,57.65625 L52.5,40.3416797 C52.5,39.6945703 51.9753516,39.1698047 51.328125,39.1698047 C50.6808984,39.1698047 50.15625,39.6945703 50.15625,40.3416797 L50.15625,57.65625 L47.8125,57.65625 L47.8125,33.3984375 C47.8125,32.7513281 47.2878516,32.2265625 46.640625,32.2265625 L39.140625,32.2265625 C38.4933984,32.2265625 37.96875,32.7513281 37.96875,33.3984375 L37.96875,57.65625 L35.625,57.65625 L35.625,41.6015625 C35.625,40.9544531 35.1003516,40.4296875 34.453125,40.4296875 L26.953125,40.4296875 C26.3058984,40.4296875 25.78125,40.9544531 25.78125,41.6015625 L25.78125,57.65625 L23.4375,57.65625 L23.4375,48.3251953 C23.4375,47.6780859 22.9128516,47.1533203 22.265625,47.1533203 L14.765625,47.1533203 C14.1183984,47.1533203 13.59375,47.6780859 13.59375,48.3251953 L13.59375,57.65625 L3.515625,57.65625 C2.86945313,57.65625 2.34375,57.1305469 2.34375,56.484375 L2.34375,3.515625 C2.34375,2.86945313 2.86945313,2.34375 3.515625,2.34375 L33.7470703,2.34375 L33.7470703,10.0784766 C33.7470703,12.0169922 35.3241797,13.5941016 37.2626953,13.5941016 L44.9970703,13.5941016 L44.9970703,28.0078125 C44.9970703,28.6549219 45.5217187,29.1796875 46.1689453,29.1796875 C46.8161719,29.1796875 47.3408203,28.6549219 47.3408203,28.0078125 L47.3408203,12.4222266 C47.3408203,12.1114453 47.2173047,11.8134375 46.9975781,11.5935938 L35.7475781,0.343242188 C35.5277344,0.123515625 35.2297266,0 34.9189453,0 L3.515625,0 C1.57710938,0 0,1.57710938 0,3.515625 L0,56.484375 C0,58.4228906 1.57710938,60 3.515625,60 L58.828125,60 C59.4753516,60 60,59.4752344 60,58.828125 L60,25.6346484 C60,24.9875391 59.4753516,24.4627734 58.828125,24.4627734 Z M36.0908203,10.0784766 L36.0908203,4.00113281 L43.3399219,11.2503516 L37.2626953,11.2503516 C36.6164062,11.2503516 36.0908203,10.7246484 36.0908203,10.0784766 Z M15.9375,57.65625 L15.9375,49.4970703 L21.09375,49.4970703 L21.09375,57.65625 L15.9375,57.65625 Z M28.125,57.65625 L28.125,42.7734375 L33.28125,42.7734375 L33.28125,57.65625 L28.125,57.65625 Z M40.3125,57.65625 L40.3125,34.5703125 L45.46875,34.5703125 L45.46875,57.65625 L40.3125,57.65625 Z" id="Shape" fill="#000000"></path>
                <path d="M51.328125,36.9011719 C51.6363281,36.9011719 51.9386719,36.7757813 52.1566406,36.5578125 C52.3746094,36.3398438 52.5,36.0375 52.5,35.7292969 C52.5,35.4210938 52.3746094,35.11875 52.1566406,34.9007813 C51.9386719,34.6817578 51.6363281,34.5574219 51.328125,34.5574219 C51.0199219,34.5574219 50.7175781,34.6817578 50.4996094,34.9007813 C50.2816406,35.11875 50.15625,35.4210938 50.15625,35.7292969 C50.15625,36.0375 50.2816406,36.3398438 50.4996094,36.5578125 C50.7175781,36.7756641 51.0199219,36.9011719 51.328125,36.9011719 Z" id="Shape" fill="#000000"></path>
                <path d="M17.0598047,6.41355469 C16.4125781,6.41355469 15.8879297,6.93832031 15.8879297,7.58542969 L15.8879297,9.69351563 C10.4936719,10.2791016 6.28148437,14.8611328 6.28148437,20.4085547 C6.28148437,26.3517187 11.1166406,31.186875 17.0598047,31.186875 C22.6072266,31.186875 27.1892578,26.9748047 27.7748437,21.5804297 L29.8828125,21.5804297 C30.5300391,21.5804297 31.0546875,21.0556641 31.0546875,20.4085547 C31.0546875,12.6916406 24.7766016,6.41355469 17.0598047,6.41355469 Z M17.0598047,28.8430078 C12.4089844,28.8430078 8.62523437,25.0592578 8.62523437,20.4084375 C8.62523437,16.1553516 11.7898828,12.6273047 15.8879297,12.0550781 L15.8879297,20.4084375 C15.8879297,21.0555469 16.4125781,21.5803125 17.0598047,21.5803125 L25.4131641,21.5803125 C24.8409375,25.6783594 21.3128906,28.8430078 17.0598047,28.8430078 Z M18.2316797,19.2365625 L18.2316797,8.81578125 C23.7221484,9.36679688 28.1014453,13.7462109 28.6524609,19.2366797 L18.2316797,19.2366797 L18.2316797,19.2365625 Z" id="Shape" fill="#000000"></path>
                <path d="M31.0546875,35.6542969 C31.0546875,35.0071875 30.5300391,34.4824219 29.8828125,34.4824219 L7.5,34.4824219 C6.85277344,34.4824219 6.328125,35.0071875 6.328125,35.6542969 C6.328125,36.3014062 6.85277344,36.8261719 7.5,36.8261719 L29.8828125,36.8261719 C30.5300391,36.8261719 31.0546875,36.3014062 31.0546875,35.6542969 Z" id="Shape" fill="#000000"></path>
                <path d="M7.5,40.1367188 C6.85277344,40.1367188 6.328125,40.6614844 6.328125,41.3085938 C6.328125,41.9557031 6.85277344,42.4804688 7.5,42.4804688 L15,42.4804688 C15.6472266,42.4804688 16.171875,41.9557031 16.171875,41.3085938 C16.171875,40.6614844 15.6472266,40.1367188 15,40.1367188 L7.5,40.1367188 Z" id="Shape" fill="#000000"></path>
                <path d="M20.0402344,40.4800781 C19.8210937,40.6980469 19.696875,41.0003906 19.696875,41.3085938 C19.696875,41.6167969 19.8210937,41.9191406 20.0402344,42.1369922 C20.2582031,42.3549609 20.559375,42.4804688 20.86875,42.4804688 C21.1769531,42.4804688 21.4792969,42.3550781 21.6972656,42.1369922 C21.9152344,41.9191406 22.040625,41.6167969 22.040625,41.3085938 C22.040625,41.0003906 21.9152344,40.6980469 21.6972656,40.4800781 C21.4792969,40.2621094 21.1769531,40.1367188 20.86875,40.1367188 C20.559375,40.1367188 20.2582031,40.2619922 20.0402344,40.4800781 Z" id="Shape" fill="#000000"></path>
            </g>
        </g>
    </g>
</svg>