<?xml version="1.0" encoding="UTF-8"?>
<svg width="103px" height="149px" viewBox="0 0 103 149" version="1.1" xmlns="http://www.w3.org/2000/svg" xmlns:xlink="http://www.w3.org/1999/xlink">
    <!-- Generator: Sketch 49.3 (51167) - http://www.bohemiancoding.com/sketch -->
    <title>astronaut</title>
    <desc>Created with Sketch.</desc>
    <defs></defs>
    <g id="Main-Page" stroke="none" stroke-width="1" fill="none" fill-rule="evenodd">
        <g id="Контент-4--RU-" transform="translate(-734.000000, -31.000000)" fill-rule="nonzero">
            <g id="astronaut" transform="translate(734.000000, 31.000000)">
                <path d="M2,103.493392 L2,106.257313 C2,107.773323 3.25534805,109 4.80339559,109 L8,103 L2,103.493392 Z" id="Shape" fill="#F9763D"></path>
                <path d="M84.0705227,27.6955019 C87.0315496,29.6356397 89,33.0535055 89,36.9372987 L89,40.8310051 L89,67 L88.9965976,67 C88.6875967,66.3681041 88.378905,65.7563548 88.0729972,65.1653914 C86.6467677,62.3826193 85.2731209,59.987427 84.0702134,58.013392 L84.0702134,36.9376185 C84.0702134,33.7167404 81.536344,31.0970588 78.4209712,31.0970588 L75,31.0970588 L75,26 L78.4209712,26 C80.4982988,26 82.4339623,26.6216627 84.0705227,27.6955019 Z" id="Shape" fill="#7FC8E5"></path>
                <path d="M89,24.0708644 L89,38 C89,34.0689869 87.0315062,30.6089574 84.0704138,28.6450694 L84.0704138,24.0708644 C84.0704138,20.8105578 81.5364884,18.1588072 78.4210468,18.1588072 L75,18.1588072 L75,13 L78.4210468,13 C84.2544575,13 89,17.9662057 89,24.0708644 Z" id="Shape" fill="#6CBBD3"></path>
                <polygon id="Shape" fill="#F9763D" points="79 147 63 147 64.8077456 143 71.5970149 143"></polygon>
                <path d="M76.98095,117 C77.007823,118.144224 77.0179399,119.882133 76.9306816,122 L66.5678112,122 L66.5643335,122 C66.4233292,120.809619 66.2383795,119.61556 66,118.432203 C69.6718036,118.087364 73.3331741,117.611078 76.98095,117 Z" id="Shape" fill="#158ACC"></path>
                <path d="M66.0030499,122 L76,122 C75.9353422,123.487349 75.8087715,125.186131 75.5852141,127 L66.353178,127 C66.3272539,125.369743 66.2202025,123.686482 66,122 L66.0030499,122 Z" id="Shape" fill="#53AEF9"></path>
                <path d="M67.1624959,127 L77,127 C76.7894053,128.599215 76.4959376,130.288626 76.0952226,132 L67,132 C67.120897,130.435047 67.1901202,128.748565 67.1624959,127 Z" id="Shape" fill="#53AEF9"></path>
                <path d="M66.5755569,133 L75,133 C74.6354606,134.664519 74.1748946,136.354223 73.5927152,138 L66,138 C66.2203492,136.581469 66.4346779,134.879466 66.5755569,133 Z" id="Shape" fill="#53AEF9"></path>
                <path d="M71.3969881,45.3801816 C70.2268612,44.8171288 69.0035611,44.352706 67.7264584,44 L67.7229974,44 C67.3183771,53.0142712 59.987386,60.1970248 50.9982695,60.1970248 C42.0122994,60.1970248 34.6813083,53.0142712 34.2766879,44 C33.0030462,44.352706 31.7728241,44.817448 30.5960899,45.3836927 L18,81.766033 L18,116.564867 C20.5507444,117.100789 23.1112425,117.575426 25.6821235,117.982394 C29.3126946,118.565556 32.9564803,119.023595 36.6103343,119.352362 C41.3975029,119.786461 46.1978862,120 50.9982695,120 C55.7986528,120 60.5993507,119.786461 65.3830583,119.352362 C69.0369124,119.023276 72.6806981,118.569067 76.3112692,117.985586 C78.8786892,117.575106 81.4395019,117.10047 83.9933927,116.564548 C83.9968537,116.564548 83.9968537,116.564548 84,116.564548 L84,81.766033 L71.3969881,45.3801816 Z M39.6522237,88.6979026 L39.6522237,67.7733408 L62.3408544,67.7733408 L62.3408544,88.6979026 L39.6522237,88.6979026 Z" id="Shape" fill="#44A1E0"></path>
                <path d="M69.9244378,45.3801816 C68.8960972,44.8171288 67.8210283,44.352706 66.6989132,44 L66.6960523,44 C66.3406628,53.0142712 59.8981963,60.1970248 51.9985695,60.1970248 C44.1018037,60.1970248 37.6593372,53.0142712 37.3039477,44 C36.1846935,44.352706 35.1035849,44.817448 34.0695225,45.3836927 L23,81.766033 L23,116.564867 C25.2413693,117.100789 27.4919571,117.575426 29.7511277,117.982394 C32.9413676,118.565556 36.1436871,119.023595 39.3545893,119.352362 C43.5614083,119.786461 47.7799889,120 51.9985695,120 C56.2171502,120 60.4357308,119.786461 64.6396889,119.352362 C67.8505911,119.023276 71.0529105,118.569067 74.2431505,117.985586 C76.4994602,117.575106 78.7497301,117.10047 80.9942782,116.564548 C80.9971391,116.564548 80.9971391,116.564548 81,116.564548 L81,81.766033 L69.9244378,45.3801816 Z M42.0273212,88.6979026 L42.0273212,67.7733408 L61.9660033,67.7733408 L61.9660033,88.6979026 L42.0273212,88.6979026 Z" id="Shape" fill="#53AEF9"></path>
                <path d="M101,103 L98.0061806,102.747085 L95.3809438,102.527808 C95.3809438,102.527808 91.12682,87.5509379 84.3555854,80.5921325 L84.3555854,87.6623219 L84.348907,87.6623219 C80.8484853,87.6623219 78,84.8199662 78,81.3270768 L78,49 C78.6891445,49.6978163 79.3280423,50.4464059 79.9090607,51.2321235 C79.9090607,51.2321235 81.7844116,53.5080391 84.4436763,57.7088994 C85.6804474,59.6677989 87.0927644,62.0449438 88.5591444,64.8060622 C86.8224493,65.6758733 85.6330628,67.4697593 85.6330628,69.5365521 C85.6330628,72.4598279 88.0083376,74.8334822 90.9379174,74.8334822 C91.7081565,74.8334822 92.4450037,74.6649781 93.1039365,74.3714447 C96.4418511,82.2879625 99.5030903,91.971393 101,103 Z" id="Shape" fill="#44A1E0"></path>
                <path d="M75,41.7640917 L75,41.7675597 C74.8990506,41.7543184 74.7949367,41.7508505 74.6908228,41.7508505 C72.9389241,41.7508505 71.5167722,43.1676638 71.5167722,44.9161388 L71.5167722,44.9965321 C70.3398734,44.4403997 69.1094937,43.9816851 67.825,43.6333143 L34.181962,43.6333143 C32.9009494,43.9816851 31.6636076,44.440715 30.4800633,45 L30.4800633,44.9161388 C30.4800633,43.1676638 29.0579114,41.7508505 27.3060127,41.7508505 C27.2018987,41.7508505 27.1009494,41.7543184 27,41.7640917 L27,31.6446273 L27,26.620205 L27,18.0783404 L27,13.0539181 L27,8.45826002 C27,4.90739926 29.9151899,2 33.4791139,2 L68.5243671,2 C72.0984177,2 75,4.89069007 75,8.45479207 L75,13.0539181 L75,18.0783404 L75,26.6198897 L75,31.6446273 L75,41.7640917 Z" id="Shape" fill="#0B7FB2"></path>
                <path d="M71.6625989,41.7456335 L71.6625989,41.7491566 C71.577229,41.734744 71.4889815,41.7302601 71.400734,41.7296195 C69.9168329,41.7148866 68.6976743,43.1420549 68.679769,44.9183286 L68.6788098,45 C67.687624,44.4250972 66.6497565,43.9485203 65.5652074,43.5837212 L37.0647783,43.2989922 C35.9760725,43.6420122 34.9231774,44.0977709 33.9150455,44.6560191 L33.9160047,44.5708246 C33.9335903,42.794551 32.7432081,41.3430414 31.259307,41.3283085 C31.1710595,41.3273477 31.0853699,41.3299099 31,41.339198 L31.102316,31.0594867 L31.1531542,25.9555024 L31.2394833,17.2784729 L31.2903215,12.1744887 L31.3366834,7.50576509 C31.372494,3.89877018 33.8715612,0.969808319 36.8908411,1.00023493 L66.5790946,1.29681434 C69.6070074,1.32692067 72.0357324,4.28823083 71.9996021,7.90867751 L71.9529204,12.5806039 L71.9020822,17.6845882 L71.8157531,26.3616177 L71.7649148,31.4656019 L71.6625989,41.7456335 Z" id="Shape" fill="#158ACC"></path>
                <path d="M65.8914488,138 L74,138 C73.4432062,139.72077 72.7806472,141.405812 71.9917488,143 L65,143 C65,143 65.4577797,141.06928 65.8914488,138 Z" id="Shape" fill="#53AEF9"></path>
                <path d="M69,25.9818965 L69,43.7886719 L68.9964821,43.7886719 C68.585202,52.8109034 61.1335503,60 51.9964821,60 C42.8626119,60 35.4109602,52.8109034 35,43.7886719 L35,25.9818965 C35,21.2907578 36.9028896,17.0478395 39.9778953,13.9725942 C43.0529009,10.9008632 47.3038603,9 52,9 C61.3884416,9 69,16.6034528 69,25.9818965 Z" id="Shape" fill="#44A1E0"></path>
                <path d="M65,26.650847 L65,42.0135804 L64.9974533,42.0135804 C64.6708326,49.7975098 58.7534605,56 51.4974533,56 C44.2439927,56 38.3266206,49.7975098 38,42.0135804 L38,26.650847 C38,22.6037643 39.5111774,18.9430433 41.9531917,16.2901115 C44.395206,13.6397278 47.7709223,12 51.5003183,12 C58.9556087,11.9996815 65,18.5595483 65,26.650847 Z" id="Shape" fill="#53AEF9"></path>
                <path d="M64,32.7583738 L64,38.2416262 C64,44.7343116 58.8106574,50 52.4121078,50 L49.5878922,50 C43.1893426,50 38,44.7343116 38,38.2416262 L38,32.7583738 C38,26.2656884 43.1893426,21 49.5878922,21 L52.4121078,21 C58.8106574,21 64,26.2656884 64,32.7583738 Z M60.2579221,44.544263 C60.2579221,43.1198588 59.1190289,41.9642101 57.7152767,41.9642101 C56.3083714,41.9642101 55.1691629,43.1198588 55.1691629,44.544263 C55.1691629,45.9718667 56.3080561,47.1278354 57.7152767,47.1278354 C59.1190289,47.1278354 60.2579221,45.9718667 60.2579221,44.544263 Z" id="Shape" fill="#D8B86F"></path>
                <path d="M85,91.6142278 L85,98 C77.8307439,98 72,92.2868498 72,85.2621822 L72,55.8717214 L72,48.2756116 L72,48.194477 C72,46.4298784 73.4593096,45 75.2569816,45 C75.3638158,45 75.4709747,45.0034999 75.5742369,45.0168633 C77.2267573,45.1689509 78.5172104,46.5348762 78.5172104,48.194477 L78.5172104,52.8493772 L78.5172104,85.2621822 C78.5172104,88.7643344 81.4257631,91.6142278 85,91.6142278 Z" id="Shape" fill="#44A1E0"></path>
                <path d="M30.9996753,55.8717214 L30.9996753,85.2621822 C30.9996753,92.2868498 25.1690771,98 18,98 L18,91.6142278 C21.5741476,91.6142278 24.4826277,88.7643344 24.4826277,85.2621822 L24.4826277,52.8528771 L24.4826277,48.194477 C24.4826277,46.534558 25.7762957,45.1689509 27.4290995,45.0133633 C27.5326839,45.0031817 27.6359435,45 27.7430998,45 C29.5407269,45 31,46.4298784 31,48.194477 L31,48.2791115 L31,55.8717214 L30.9996753,55.8717214 Z" id="Shape" fill="#44A1E0"></path>
                <path d="M61,32.7583738 L61,38.2416262 C61,44.7343116 57.4072948,50 52.9776036,50 L51.0223964,50 C46.5927052,50 43,44.7343116 43,38.2416262 L43,32.7583738 C43,26.2656884 46.5927052,21 51.0223964,21 L52.9776036,21 C57.4072948,21 61,26.2656884 61,32.7583738 Z" id="Shape" fill="#F7D789"></path>
                <polygon id="Shape" fill="#158ACC" points="63 67 63 88 40 88 40 67"></polygon>
                <path d="M85,88.6142278 L85,95 C77.8307439,95 72,89.2868498 72,82.2621822 L72,52.8717214 L72,45.2756116 L72,45.194477 C72,43.4298784 73.4593096,42 75.2569816,42 C75.3638158,42 75.4709747,42.0034999 75.5742369,42.0168633 C77.2267573,42.1689509 78.5172104,43.5348762 78.5172104,45.194477 L78.5172104,49.8493772 L78.5172104,82.2621822 C78.5172104,85.7643344 81.4257631,88.6142278 85,88.6142278 Z" id="Shape" fill="#158ACC"></path>
                <path d="M58.5017039,42 C59.8809716,42 61,43.1190284 61,44.4982961 C61,45.8806618 59.8809716,47 58.5017039,47 C57.1193382,47 56,45.8809716 56,44.4982961 C56,43.1190284 57.1193382,42 58.5017039,42 Z" id="Shape" fill="#F9763D"></path>
                <path d="M57,75.9372348 L57,80.0627652 C57,81.685025 55.7499724,83 54.207837,83 L48.792163,83 C47.2500276,83 46,81.685025 46,80.0627652 L46,75.9372348 C46,74.314975 47.2500276,73 48.792163,73 L54.207837,73 C55.7499724,73 57,74.314975 57,75.9372348 Z" id="Shape" fill="#F73E3E"></path>
                <polygon id="Shape" fill="#F9763D" points="37.1925313 143 39 147 23 147 30.4031295 143"></polygon>
                <path d="M38,143 L31.0082512,143 C30.2193528,141.405472 29.5564724,139.72077 29,138 L37.1085512,138 C37.5422203,141.06928 38,143 38,143 Z" id="Shape" fill="#53AEF9"></path>
                <path d="M26.01905,117 C29.6671421,117.610669 33.3285126,118.090314 37,118.434588 C36.7616205,119.617154 36.5766708,120.810415 36.4356665,122 L36.4321888,122 L26.0693184,122 C25.9820601,119.883883 25.992177,118.143793 26.01905,117 Z" id="Shape" fill="#158ACC"></path>
                <path d="M36,138 L28.4072848,138 C27.8251054,136.35393 27.3645394,134.664519 27,133 L35.4244431,133 C35.5650211,134.879173 35.7790488,136.581176 36,138 Z" id="Shape" fill="#53AEF9"></path>
                <path d="M35.9966451,122 L36,122 C35.7797975,123.686482 35.6727461,125.369743 35.646822,127 L26.4147859,127 C26.1912285,125.186131 26.0649628,123.487349 26,122 L35.9966451,122 Z" id="Shape" fill="#53AEF9"></path>
                <path d="M36,132 L26.9047774,132 C26.5043874,130.288626 26.2105947,128.599215 26,127 L35.8375041,127 C35.8102047,128.748565 35.879103,130.435047 36,132 Z" id="Shape" fill="#53AEF9"></path>
                <path d="M30.9996753,52.8717214 L30.9996753,82.2621822 C30.9996753,89.2868498 25.1690771,95 18,95 L18,88.6142278 C21.5741476,88.6142278 24.4826277,85.7643344 24.4826277,82.2621822 L24.4826277,49.8528771 L24.4826277,45.194477 C24.4826277,43.534558 25.7762957,42.1689509 27.4290995,42.0133633 C27.5326839,42.0031817 27.6359435,42 27.7430998,42 C29.5407269,42 31,43.4298784 31,45.194477 L31,45.2791115 L31,52.8717214 L30.9996753,52.8717214 Z" id="Shape" fill="#158ACC"></path>
                <path d="M17.9295862,27.6955152 C19.5661828,26.6219874 21.501889,26 23.5789532,26 L27,26 L27,31.0964589 L23.5789532,31.0964589 C20.4635116,31.0964589 17.9295862,33.716161 17.9295862,36.9370642 L17.9295862,58.0130021 C16.5723029,60.2316902 15.0111796,62.9805865 13.3943793,66.211723 C13.2629195,66.4697917 13.1314598,66.731698 13,67 L13,40.830801 L13,36.9370642 C13,33.0535606 14.9684938,29.6353483 17.9295862,27.6955152 Z" id="Shape" fill="#7FC8E5"></path>
                <path d="M27,13 L27,18.1588072 L23.5789532,18.1588072 C20.4635116,18.1588072 17.9295862,20.8105578 17.9295862,24.0708644 L17.9295862,28.6450694 C14.9684938,30.6089574 13,34.0686632 13,38 L13,24.0708644 C13,17.9662057 17.7455425,13 23.5789532,13 L27,13 Z" id="Shape" fill="#6CBBD3"></path>
                <path d="M78,54 L78,82.4622118 C78,84.7669453 79.2474934,86.793411 81.1066046,87.9103154 L84.45708,81.7120713 C85.6563814,82.9305705 84.45708,81.7120713 84.45708,81.7120713 C91.3472411,88.718282 95.6770813,103.806395 95.6770813,103.806395 L98,104 C96.3161912,91.9702755 92.7800634,81.542427 89.051491,73.2598911 L89.0479332,73.2598911 L85.9413287,66.8750703 C84.2507277,63.6470378 82.6183453,60.9007821 81.1991073,58.6842253 C79.9140953,56.6679829 78.8076202,55.0964576 78,54 Z" id="Shape" fill="#53AEF9"></path>
                <path d="M25,49 L25,81.3256757 C25,83.6150673 23.7734054,85.6280435 21.9454392,86.737513 C20.9824814,87.3243005 19.8573345,87.6613304 18.651093,87.6613304 L18.651093,80.5805286 C11.8763602,87.5401012 7.61905618,102.527777 7.61905618,102.527777 L5.33505247,102.720094 L4.99381939,102.747069 L2,103 C3.64224382,90.9322978 7.14616374,80.4761191 10.8393042,72.1849292 L10.8428024,72.1849292 L13.8973632,65.8426101 C15.5596422,62.6360655 17.1646779,59.9080908 18.5601399,57.7062889 C21.2159064,53.5083305 23.0912573,51.2290943 23.0912573,51.2290943 C23.6824523,50.4395176 24.3140356,49.6978614 25,49 Z" id="Shape" fill="#44A1E0"></path>
                <path d="M25,54 L25,82.4622118 C25,84.7669453 23.7525066,86.793411 21.8933954,87.9103154 L18.54292,81.7120713 C17.3436186,82.9305705 18.54292,81.7120713 18.54292,81.7120713 C11.6527589,88.718282 7.32291869,103.806395 7.32291869,103.806395 L5,104 C6.68380878,91.9702755 10.2199366,81.542427 13.948509,73.2598911 L13.9520668,73.2598911 L17.0586713,66.8750703 C18.7492723,63.6470378 20.3816547,60.9007821 21.8008927,58.6842253 C23.0859047,56.6679829 24.1927033,55.0964576 25,54 Z" id="Shape" fill="#53AEF9"></path>
                <path d="M18,66 L18,72 L10.0035823,72 L10,72 C10.9030735,70.1274956 11.8165683,68.3699775 12.7163851,66.740055 C12.8547934,66.4881661 12.9932017,66.2425819 13.13161,66 L18,66 Z" id="Shape" fill="#F9E33D"></path>
                <path d="M51.0017244,61 C41.908094,61 34.346006,54.4017604 32.9756127,45.6443528 C32.4219374,45.8504793 31.8770407,46.0803777 31.3440577,46.3327967 L30,43.5070799 C31.2619156,42.9096569 32.5830864,42.4210838 33.926517,42.0551231 C34.3861365,41.9303211 34.8771079,42.0197782 35.2621097,42.2997225 C35.6471115,42.579354 35.8835051,43.018194 35.905138,43.4926917 C36.2732098,51.5560252 42.9041452,57.872131 51.0014108,57.872131 C59.1005576,57.872131 65.7330606,51.5560252 66.1011324,43.4926917 C66.1393818,42.6575507 66.8291245,42.0000726 67.6671618,42.0000726 C67.8063644,42.0000726 67.9480752,42.018527 68.0822615,42.0551231 C69.4162866,42.4173303 70.7343222,42.9049651 72,43.5036392 L70.6562558,46.3296689 C70.1238999,46.0775626 69.5808843,45.8482898 69.0312848,45.6434144 C67.6608914,54.400822 60.0972358,61 51.0017244,61 Z" id="Shape" fill="#333333"></path>
                <path d="M93,74.5392259 C92.3825983,74.8316402 91.6924911,75 90.9705006,75 C88.2255662,75 86,72.6328365 86,69.7175544 C86,67.6564132 87.1144219,65.867749 88.7416567,65 C89.0360548,65.5851451 89.3337306,66.1902275 89.6314064,66.8155638 C90.7523838,69.1561442 91.8951132,71.7350233 93,74.5392259 Z" id="Shape" fill="#F9E33D"></path>
                <path d="M70,43 L66.8189009,43 L66.8189009,25.3821448 C66.8189009,16.9891829 59.9467725,10.1608338 51.5,10.1608338 C47.4065617,10.1608338 43.5593404,11.7437793 40.666767,14.6179254 C37.7741935,17.4952324 36.1810991,21.3182608 36.1810991,25.3821448 L36.1810991,43 L33,43 L33,25.3821448 C33,20.4746343 34.9236106,15.8582366 38.4167756,12.3835321 C41.9108948,8.91167226 46.5572082,7 51.5,7 C61.7008305,7 70,15.2462992 70,25.3821448 L70,43 Z" id="Shape" fill="#333333"></path>
                <path d="M52.9046929,52 L50.0953071,52 C42.8743984,52 37,46.0448331 37,38.7246423 L37,33.2753577 C37,25.9551669 42.8743984,20 50.0953071,20 L52.9046929,20 C60.1256016,20 66,25.9554849 66,33.2753577 L66,38.7246423 C66,46.0445151 60.1256016,52 52.9046929,52 Z M50.0953071,23.1793323 C44.6038785,23.1793323 40.1365254,27.7084261 40.1365254,33.2750397 L40.1365254,38.7243243 C40.1365254,44.291256 44.6041921,48.8200318 50.0953071,48.8200318 L52.9046929,48.8200318 C58.3961215,48.8200318 62.8634746,44.290938 62.8634746,38.7243243 L62.8634746,33.2750397 C62.8634746,27.7081081 58.3958079,23.1793323 52.9046929,23.1793323 C52.9046929,23.1793323 50.0953071,23.1793323 50.0953071,23.1793323 Z" id="Shape" fill="#333333"></path>
                <path d="M37.4057997,144 L30.4694285,144 C29.8762219,144 29.3321302,143.676004 29.0568951,143.158614 C28.2764776,141.692155 27.5738786,140.065895 26.9682338,138.325357 C26.3718379,136.618725 25.8526227,134.753549 25.4265345,132.783514 C25.0492423,131.022883 24.7427523,129.172777 24.5147185,127.280915 C24.2988041,125.484494 24.1495457,123.640981 24.0714082,121.801235 C23.9801947,119.747061 23.9929519,118.056127 24.0194229,117 L27.207749,117.07786 C27.1822347,118.085011 27.1704343,119.698713 27.2575018,121.667178 C27.3324499,123.430635 27.4753298,125.193777 27.6816764,126.911396 C27.8985476,128.710015 28.1894102,130.466564 28.546291,132.132382 C28.9452702,133.975268 29.4294034,135.717061 29.9846575,137.305962 C30.4238218,138.568668 30.916247,139.760107 31.4530033,140.860188 L35.4322715,140.860188 C35.2839699,140.106394 35.1123864,139.156382 34.9439923,138.048767 C34.665249,136.236648 34.4553942,134.392507 34.3204875,132.570028 C34.1865376,130.676911 34.131682,128.829002 34.1571962,127.073081 C34.1868566,125.153905 34.3153847,123.292497 34.5389534,121.539715 C34.6923579,120.335403 34.8913691,119.164056 35.1308843,118.058953 L36.6824704,118.384519 L38.285085,118.382949 C38.285085,118.493145 38.2732846,118.605853 38.2500029,118.713538 C38.0296234,119.731991 37.8456018,120.814177 37.7033598,121.930582 C37.4944618,123.570342 37.3742258,125.316217 37.3461601,127.119545 C37.3219216,128.786619 37.3742258,130.545994 37.5017971,132.347124 C37.6303252,134.083894 37.8309311,135.846723 38.0978741,137.58161 C38.5099294,140.29445 38.9481369,142.031221 38.952283,142.048488 C39.0715621,142.517529 38.9644022,143.014511 38.6623771,143.395647 C38.3603521,143.776782 37.8966303,144 37.4057997,144 Z" id="Shape" fill="#333333"></path>
                <path d="M47.5,39 C46.6717,39 46,38.2690889 46,37.3677733 L46,30.6322267 C46,29.7309111 46.6717,29 47.5,29 C48.3283,29 49,29.7309111 49,30.6322267 L49,37.3680998 C49,38.2694153 48.3283,39 47.5,39 Z" id="Shape" fill="#333333"></path>
                <path d="M54.5,39 C53.6717,39 53,38.2690889 53,37.3677733 L53,30.6322267 C53,29.7309111 53.6717,29 54.5,29 C55.3283,29 56,29.7309111 56,30.6322267 L56,37.3680998 C56,38.2694153 55.3283,39 54.5,39 Z" id="Shape" fill="#333333"></path>
                <rect id="Rectangle-path" fill="#333333" x="74" y="31" width="3" height="10"></rect>
                <rect id="Rectangle-path" fill="#333333" x="74" y="18" width="3" height="9"></rect>
                <path d="M77,13 L73.845621,13 L73.845621,8.26623733 C73.845621,5.49762868 71.6574283,3.2449703 68.9680047,3.2449703 L34.0354651,3.2449703 C31.3441489,3.2449703 29.154379,5.49925116 29.154379,8.2698068 L29.154379,13 L26,13 L26,8.2698068 C26,3.70965004 29.6048243,0 34.0354651,0 L68.9680047,0 C73.3970683,0 77,3.70835205 77,8.26623733 L77,13 Z" id="Shape" fill="#333333"></path>
                <rect id="Rectangle-path" fill="#333333" x="26" y="18" width="3" height="9"></rect>
                <rect id="Rectangle-path" fill="#333333" x="26" y="31" width="3" height="10"></rect>
                <path d="M18,96 L18,92.828579 C24.0053736,92.828579 28.8913068,87.8443738 28.8913068,81.7175057 L28.8913068,44.7698171 C28.8913068,43.8884792 28.1899856,43.1711038 27.3276341,43.1711038 C27.2775841,43.1711038 27.2293994,43.1717381 27.1809037,43.1768124 C26.3822804,43.2551465 25.7605418,43.9544448 25.7605418,44.7695 L25.7605418,81.7168714 C25.7605418,86.0826495 22.2791162,89.6340067 18,89.6340067 L18,86.4625857 C20.5649828,86.4625857 22.6518486,84.3336108 22.6518486,81.7168714 L22.6518486,44.7698171 C22.6518486,42.2983288 24.4688798,40.256568 26.8784279,40.0206142 C27.0139669,40.0069771 27.1628733,40 27.3276341,40 C29.904119,40 32,42.1397577 32,44.7701343 L32,81.7175057 C32,89.5927782 25.7195071,96 18,96 Z" id="Shape" fill="#333333"></path>
                <path d="M58.0016833,49 C55.795325,49 54,47.2049811 54,44.9983167 C54,42.7934887 55.795325,41 58.0016833,41 C60.2065113,41 62,42.7937947 62,44.9983167 C62,47.204675 60.2065113,49 58.0016833,49 Z M58.0016833,44.0602548 C57.4826122,44.0602548 57.0605608,44.4810819 57.0605608,44.9980106 C57.0605608,45.5167757 57.4826122,45.9391331 58.0016833,45.9391331 C58.518612,45.9391331 58.9394392,45.5170818 58.9394392,44.9980106 C58.9394392,44.4810819 58.5189181,44.0602548 58.0016833,44.0602548 Z" id="Shape" fill="#333333"></path>
                <path d="M4.31137763,110 C1.93402123,110 0,108.092791 0,105.74844 L0,103.078797 C0,102.245855 0.647601121,101.552004 1.49003553,101.482139 L7.23712955,101.005577 C8.12965465,100.932506 8.91874572,101.585976 8.99420703,102.467952 C9.06934307,103.349928 8.40482821,104.124861 7.51002626,104.199214 L3.25296776,104.552389 L3.25296776,105.748761 C3.25296776,106.325955 3.72785356,106.795466 4.31170289,106.795466 C5.20975748,106.795466 5.93802414,107.513033 5.93802414,108.397893 C5.93802414,109.282754 5.20943222,110 4.31137763,110 Z" id="Shape" fill="#333333"></path>
                <path d="M102,103.493392 L102,106.257313 C102,107.773323 100.744581,109 99.1967853,109 L96,103 L102,103.493392 Z" id="Shape" fill="#F9763D"></path>
                <path d="M98.6882983,110 C97.7902439,110 97.0619775,109.28248 97.0619775,108.397678 C97.0619775,107.512875 97.7902439,106.795355 98.6882983,106.795355 C99.2721475,106.795355 99.7470331,106.325875 99.7470331,105.748719 L99.7470331,104.552425 L95.4899758,104.199273 C94.5948488,104.124925 93.9306594,103.350042 94.0057954,102.468124 C94.0812567,101.586206 94.8729497,100.930856 95.7628724,101.005845 L101.509965,101.482696 C102.352399,101.552557 103,102.246683 103,103.07925 L103,105.748719 C103,108.092596 101.065654,110 98.6882983,110 Z" id="Shape" fill="#333333"></path>
                <path d="M51.5011116,120 C46.6041777,120 41.6726422,119.782339 36.8433245,119.352703 C33.1514186,119.026686 29.4052292,118.566091 25.7104663,117.983555 C23.1521628,117.586458 20.5186244,117.109436 17.8863558,116.567021 C17.1492444,116.415385 16.621013,115.769352 16.621013,115.020332 L16.621013,85.0624007 C11.7837591,92.2297358 8.75817395,102.704002 8.72293736,102.827523 C8.54262759,103.460288 7.98709575,103.915828 7.3283937,103.97048 L1.72101398,104.440552 C1.24293914,104.480673 0.768673671,104.3025 0.436941798,103.955001 C0.105209924,103.607501 -0.0503389923,103.128899 0.0144201485,102.654089 C1.45816805,92.0720974 4.46819832,81.607308 8.9600701,71.5503567 C9.80860531,69.651114 10.7114239,67.7638758 11.6434476,65.9407671 C11.7812195,65.6703493 11.9199438,65.4046702 12.058668,65.142466 C13.543684,62.2853883 15.1328225,59.520556 16.7762444,56.9348438 C19.3193105,52.9262792 21.1506609,50.6514212 21.3900158,50.3582579 C22.0252268,49.5157296 22.7058326,48.7246944 23.413104,48.0066341 L25.679674,50.2186263 C25.0546213,50.8529709 24.4762333,51.5264881 23.9118129,52.2774029 C23.8975278,52.2966733 23.8826078,52.3153119 23.8673704,52.3336346 C23.8495933,52.3551164 22.0163383,54.5923813 19.4599394,58.6224278 C17.8647694,61.1326377 16.3216607,63.8175452 14.8731511,66.6041753 C14.7366489,66.8622726 14.6055434,67.11342 14.4744379,67.3708855 C13.5662227,69.1475557 12.6875301,70.9845644 11.8615336,72.8335776 C7.76837492,81.9974552 4.941194,91.5050414 3.44601972,101.125091 L5.98686366,100.912485 C7.10808565,97.3152329 11.0942647,85.5713295 17.0705176,79.4490202 C17.5206571,78.9877936 18.2072945,78.8443711 18.8056816,79.0860412 C19.4043862,79.3280272 19.7961156,79.9067719 19.7961156,80.5496459 L19.7961156,113.72953 C21.9541187,114.156638 24.1041857,114.536992 26.2044135,114.86301 C29.8315603,115.434804 33.5047368,115.886554 37.1258521,116.206253 C41.8624753,116.627359 46.6990943,116.84123 51.5020639,116.84123 C56.3059859,116.84123 61.1416525,116.627675 65.8738315,116.206569 C69.526374,115.884026 73.1995506,115.433225 76.7927306,114.867117 C78.9094656,114.535097 81.062707,114.153163 83.2111868,113.72795 L83.2111868,80.5594391 C83.2111868,79.9162491 83.6029161,79.3375045 84.2019381,79.0958344 C84.8012776,78.8541643 85.4872801,78.9979027 85.9374196,79.4591293 C91.9101806,85.5811227 95.8931852,97.3164966 97.0140897,100.912485 L99.5555686,101.125091 C98.1819764,92.2768062 95.6665282,83.4904394 92.0679516,74.979229 C90.9991084,72.4377441 89.8083655,69.879516 88.5274678,67.372781 C88.2328772,66.7930886 87.9195573,66.1941259 87.5944918,65.5891608 C86.3288315,63.2122643 84.9666674,60.8694859 83.5432361,58.6208482 C80.9846151,54.5895382 79.1516775,52.3557482 79.1332656,52.3336346 C79.1161235,52.3127846 79.0989813,52.290671 79.0827916,52.2688733 C78.5440844,51.5425994 77.9520462,50.852339 77.3235016,50.2173627 L79.5846749,48 C80.3094059,48.7319603 80.9919164,49.5261546 81.6131597,50.3611011 C81.8661648,50.6710075 83.6927535,52.940811 86.2282009,56.9351598 C87.6944875,59.2517178 89.0966499,61.6630483 90.3965944,64.1043903 C90.7302309,64.7254666 91.054979,65.3462271 91.3584581,65.9439262 C92.6730052,68.5166861 93.8970799,71.1463096 94.9948108,73.7566626 C98.965435,83.1473626 101.654527,92.8710303 102.985581,102.654405 C103.05034,103.129215 102.894791,103.607817 102.562742,103.955001 C102.230692,104.302184 101.756427,104.480041 101.27867,104.440552 L95.6712899,103.97048 C95.0125879,103.915828 94.457056,103.460288 94.2767462,102.827523 C94.2415097,102.704002 91.2187815,92.239213 86.385337,85.0740893 L86.385337,115.020016 C86.385337,115.807261 85.8066316,116.459928 85.049521,116.579973 C82.4569333,117.112595 79.8459336,117.585826 77.2876301,117.98703 C73.6242944,118.564511 69.8784225,119.023842 66.1550893,119.352703 C61.329581,119.782339 56.3993152,120 51.5011116,120 Z" id="Shape" fill="#333333"></path>
                <path d="M72.530317,144 L65.5943568,144 C65.1029174,144 64.6392231,143.777065 64.337216,143.395562 C64.0352088,143.014374 63.9283741,142.517008 64.0479651,142.047901 C64.052111,142.03126 64.4902925,140.294247 64.9020045,137.583854 C65.1692505,135.845899 65.3698445,134.083139 65.4986839,132.340788 C65.6256099,130.54443 65.6782299,128.78481 65.6539928,127.115933 C65.6262477,125.313924 65.5060189,123.567805 65.2968143,121.92813 C65.1545807,120.811255 64.97057,119.728919 64.7502036,118.710323 L67.8691374,118.055647 C68.1083194,119.160904 68.3076378,120.332415 68.4610332,121.537208 C68.6845887,123.290235 68.8131092,125.151589 68.8427678,127.069776 C68.8682805,128.827513 68.8134281,130.675365 68.6798051,132.564037 C68.5445875,134.391794 68.3347451,136.236193 68.0556994,138.05139 C67.8876341,139.15759 67.7163798,140.107107 67.567768,140.860377 L71.5468004,140.860377 C72.0835249,139.760144 72.575921,138.569166 73.0144214,137.307853 C73.5705994,135.716534 74.0547039,133.974497 74.4542973,132.1279 C74.8105191,130.46499 75.1013645,128.707881 75.3179039,126.909012 C75.5245572,125.19178 75.6671097,123.428078 75.7420534,121.667202 C75.8294346,119.696577 75.817316,118.083906 75.7921222,117.07787 C75.7918033,117.064997 75.7918033,117.051809 75.7918033,117.038935 L77.4584237,117.037365 L78.9805782,117 C79.0070477,118.055333 79.0198041,119.744932 78.928596,121.801277 C78.8504632,123.638454 78.7015325,125.482224 78.485312,127.278582 C78.2572917,129.171022 77.9508198,131.021386 77.5745067,132.779123 C77.1471682,134.752573 76.6283026,136.618323 76.0313042,138.327077 C75.426652,140.065974 74.7237757,141.692147 73.9437234,143.158811 C73.6675479,143.675959 73.1234884,144 72.530317,144 Z" id="Shape" fill="#333333"></path>
                <path d="M39.4483624,149 L23.5508756,149 C22.8508205,149 22.2376131,148.544206 22.0543022,147.887946 C21.8709914,147.231687 22.1625518,146.536842 22.7664541,146.192584 L30.1221511,142 L31.6913045,144.600319 L29.2614276,145.985487 L37.1233231,145.985487 L36.2213469,143.879549 L39.0845322,142.72077 L40.8807304,146.913354 C41.0801702,147.378494 41.027131,147.909651 40.7392926,148.328969 C40.4511441,148.747987 39.9669677,149 39.4483624,149 Z" id="Shape" fill="#333333"></path>
                <path d="M79.448504,149 L63.5510173,149 C63.0327221,149 62.5485457,148.748288 62.2607074,148.328969 C61.972869,147.909651 61.9198298,147.378494 62.1192696,146.913354 L63.9154678,142.72077 L66.7786531,143.879549 L65.8766769,145.985487 L73.7385724,145.985487 L71.3086955,144.600319 L72.8778489,142 L80.2335459,146.192584 C80.8374482,146.536842 81.1290086,147.231385 80.9456978,147.887946 C80.7623869,148.544507 80.1485592,149 79.448504,149 Z" id="Shape" fill="#333333"></path>
                <path d="M31.4520755,123 L25.5491626,123 C24.6945696,123 24,122.3283 24,121.5 C24,120.6717 24.6911648,120 25.5460673,120 L31.452385,120 C32.306978,120 33,120.6717 33,121.5 C33,122.3283 32.3066685,123 31.4520755,123 Z" id="Shape" fill="#333333"></path>
                <path d="M77.3657613,123 L66.6362021,123 C65.7326913,123 65,122.3283 65,121.5 C65,120.6717 65.7326913,120 66.6362021,120 L77.3621617,120 C78.2656725,120 79,120.6717 79,121.5 C79,122.3283 78.2692721,123 77.3657613,123 Z" id="Shape" fill="#333333"></path>
                <path d="M36.3879497,129 L26.6152777,129 C25.7242124,129 25,128.3283 25,127.5 C25,126.6717 25.7206623,126 26.6120503,126 L36.3847223,126 C37.2757876,126 38,126.6717 38,127.5 C38,128.3283 37.2793377,129 36.3879497,129 Z" id="Shape" fill="#333333"></path>
                <path d="M69.3296593,129 L66.6716767,129 C65.749499,129 65,128.3283 65,127.5 C65,126.6717 65.745825,126 66.6683367,126 L69.3299933,126 C70.252171,126 71,126.6717 71,127.5 C71,128.3283 70.251837,129 69.3296593,129 Z" id="Shape" fill="#333333"></path>
                <path d="M76.4159107,129 L74.5859925,129 C73.7102074,129 73,128.3283 73,127.5 C73,126.6717 73.7102074,126 74.5859925,126 L76.4124215,126 C77.2882066,126 78,126.6717 78,127.5 C78,128.3283 77.2916957,129 76.4159107,129 Z" id="Shape" fill="#333333"></path>
                <path d="M36.4225738,134 L27.5793214,134 C26.7072201,134 26,133.3283 26,132.5 C26,131.6717 26.7072201,131 27.5793214,131 L36.4190993,131 C37.2912005,131 38,131.6717 38,132.5 C38,133.3283 37.2946751,134 36.4225738,134 Z" id="Shape" fill="#333333"></path>
                <path d="M75.4204043,134 L66.5808591,134 C65.7087808,134 65,133.3283 65,132.5 C65,131.6717 65.7053064,131 66.5777006,131 L75.4207202,131 C76.2927985,131 77,131.6717 77,132.5 C77,133.3283 76.2927985,134 75.4204043,134 Z" id="Shape" fill="#333333"></path>
                <path d="M32.5068259,140 L28.4931741,140 C27.6686433,140 27,139.3283 27,138.5 C27,137.6717 27.6686433,137 28.4931741,137 L32.5068259,137 C33.3313567,137 34,137.6717 34,138.5 C34,139.3283 33.3316553,140 32.5068259,140 Z" id="Shape" fill="#333333"></path>
                <path d="M74.4385646,140 L66.5614354,140 C65.6992108,140 65,139.3283 65,138.5 C65,137.6717 65.6992108,137 66.5614354,137 L74.4385646,137 C75.3007892,137 76,137.6717 76,138.5 C76,139.3283 75.3007892,140 74.4385646,140 Z" id="Shape" fill="#333333"></path>
                <path d="M84.4011192,96 C76.4604377,96 70,89.5928145 70,81.7175866 L70,44.7701073 C70,42.1400627 72.1559308,40 74.8062356,40 C74.9245528,40 75.1007495,40.0028543 75.2964525,40.0263226 C77.7609673,40.2698864 79.6159888,42.3043414 79.6159888,44.7697901 L79.6159888,81.7169523 C79.6159888,84.3336769 81.7626461,86.4626397 84.4011192,86.4626397 C85.2840212,86.4626397 86,87.1727169 86,88.0483412 L86,94.4133471 C86,95.2899229 85.2840212,96 84.4011192,96 Z M74.8378935,43.171403 C74.8273409,43.171403 74.8167882,43.171403 74.8059159,43.171403 C73.9191766,43.171403 73.1974418,43.8884572 73.1974418,44.7701073 L73.1974418,81.7172694 C73.1974418,87.3059158 77.3788348,91.9437756 82.8019187,92.7153779 L82.8019187,89.4751555 C79.1638253,88.7384385 76.4179075,85.5400786 76.4179075,81.7175866 L76.4179075,44.7701073 C76.4179075,43.9414197 75.7949835,43.2582994 74.9690017,43.1815515 C74.948536,43.1796487 74.9280704,43.1774287 74.9076047,43.1745744 C74.8849006,43.1720373 74.8615569,43.171403 74.8378935,43.171403 Z" id="Shape" fill="#333333"></path>
                <path d="M17.4773635,75 L10,75 L10,71.6649992 L15.9547269,71.6649992 L15.9547269,68.3350008 L12.9249848,68.3350008 L12.9249848,65 L17.4773635,65 C18.3181634,65 19,65.7467067 19,66.6675004 L19,73.3324996 C19,74.2532933 18.3181634,75 17.4773635,75 Z" id="Shape" fill="#333333"></path>
                <path d="M91.1020047,77 C87.1859277,77 84,73.9195198 84,70.1334194 C84,67.5220864 85.5009172,65.1719184 87.9170597,64 L89.3865304,66.8294453 C88.0844471,67.4609896 87.2756813,68.7272439 87.2756813,70.1337359 C87.2756813,72.1746213 88.9921384,73.8346808 91.1020047,73.8346808 C91.641837,73.8346808 92.1679114,73.7257829 92.6654874,73.5111528 L94,76.402328 C93.0795335,76.7986656 92.1046908,77 91.1020047,77 Z" id="Shape" fill="#333333"></path>
                <path d="M62.4167773,90 L39.5832227,90 C38.7089671,90 38,89.2887924 38,88.411774 L38,77.7827307 C38,76.9057123 38.7089671,76.1945047 39.5832227,76.1945047 C40.4574783,76.1945047 41.1664454,76.9057123 41.1664454,77.7827307 L41.1664454,86.8232305 L60.8335546,86.8232305 L60.8335546,69.1764519 L41.1664454,69.1764519 L41.1664454,71.8945418 C41.1664454,72.7715602 40.4574783,73.4827677 39.5832227,73.4827677 C38.7089671,73.4827677 38,72.7715602 38,71.8945418 L38,67.588226 C38,66.7112076 38.7089671,66 39.5832227,66 L62.4167773,66 C63.2910329,66 64,66.7112076 64,67.588226 L64,88.4114564 C64,89.2887924 63.2910329,90 62.4167773,90 Z" id="Shape" fill="#333333"></path>
                <path d="M55.3615546,85 L47.6384454,85 C45.6323184,85 44,83.2927303 44,81.1937662 L44,74.8062338 C44,72.7075934 45.6320089,71 47.6384454,71 L55.3615546,71 C57.3676816,71 59,72.7075934 59,74.8062338 L59,81.1937662 C58.9996906,83.2927303 57.3676816,85 55.3615546,85 Z M47.6384454,74.2371439 C47.3385939,74.2371439 47.0944424,74.4925546 47.0944424,74.8062338 L47.0944424,81.1937662 C47.0944424,81.5074454 47.3385939,81.7628561 47.6384454,81.7628561 L55.3615546,81.7628561 C55.6614061,81.7628561 55.9055576,81.5074454 55.9055576,81.1937662 L55.9055576,74.8062338 C55.9055576,74.4922309 55.6614061,74.2371439 55.3615546,74.2371439 L47.6384454,74.2371439 Z" id="Shape" fill="#333333"></path>
                <rect id="Rectangle-path" fill="#333333" transform="translate(35.500000, 59.500000) rotate(-121.876630) translate(-35.500000, -59.500000) " x="27" y="58" width="17" height="3"></rect>
                <path d="M18.5888015,117 C18.2444717,117 17.8972804,116.888307 17.6057288,116.658556 C16.9161153,116.114729 16.7978414,115.113945 17.3412021,114.424057 L32.1616914,95.606151 C32.7050521,94.9162629 33.7046578,94.7975691 34.3942712,95.3413969 C35.0838847,95.8852247 35.2021586,96.8860079 34.6587979,97.575896 L19.8383086,116.393802 C19.5245011,116.792206 19.0590359,117 18.5888015,117 Z" id="Shape" fill="#333333"></path>
                <path d="M36.6493588,94 C36.2919048,94 35.9314803,93.8840573 35.6288162,93.6455654 C34.9129181,93.0810465 34.7901361,92.0421864 35.354207,91.3260501 L39.0535091,86.6292133 C39.6179101,85.913077 40.6556158,85.7898672 41.3711838,86.3543861 C42.0870819,86.918905 42.2098639,87.9577651 41.645793,88.6739014 L37.9464909,93.3707382 C37.6207226,93.78397 37.1375162,94 36.6493588,94 Z" id="Shape" fill="#333333"></path>
                <path d="M67.5660325,60 C67.2835939,60 66.9977072,59.9263724 66.7397194,59.7724786 C66.0046268,59.3325233 65.7795537,58.4019183 66.2365964,57.6943085 L70.1013967,51.7120637 C70.5587528,51.0044539 71.524561,50.7877955 72.2602806,51.2277508 C72.9953732,51.667706 73.2204463,52.598311 72.7634036,53.3059208 L68.8986033,59.2881657 C68.6017451,59.7474331 68.0898447,60 67.5660325,60 Z" id="Shape" fill="#333333"></path>
                <path d="M62.4695556,69 C62.2045169,69 61.9362425,68.9196226 61.6941483,68.7516207 C61.0043418,68.2713329 60.7931345,67.2554156 61.2220206,66.4829363 L63.2799679,62.7773415 C63.708854,62.0048622 64.615751,61.7683418 65.3058517,62.2486296 C65.9956582,62.7289174 66.2068655,63.7448348 65.7779794,64.5173141 L63.7200321,68.2229089 C63.441462,68.7242792 62.9610979,69 62.4695556,69 Z" id="Shape" fill="#333333"></path>
                <path d="M84.3929079,117 C83.9172601,117 83.4464364,116.795254 83.1290162,116.402694 L74.3451301,105.538307 C73.7955141,104.858538 73.9151496,103.872434 74.612702,103.336583 C75.3099329,102.800732 76.3210462,102.917058 76.8709838,103.597454 L85.6548699,114.461841 C86.2044859,115.14161 86.0848504,116.127714 85.387298,116.663565 C85.0923899,116.889945 84.7415233,117 84.3929079,117 Z" id="Shape" fill="#333333"></path>
                <path d="M71.4777637,101 C71.0272305,101 70.5812666,100.792871 70.2806065,100.395743 L61.3269069,88.567846 C60.8063111,87.8801665 60.9196298,86.8825872 61.5803509,86.3405004 C62.2407673,85.7984135 63.198493,85.916093 63.7193935,86.6044069 L72.6730931,98.4323038 C73.1936889,99.1199832 73.0803702,100.117563 72.4196491,100.659649 C72.1403125,100.888982 71.8079719,101 71.4777637,101 Z" id="Shape" fill="#333333"></path>
                <path d="M14.2571522,37 L11,37 L11,23.3945179 C11,16.560001 16.7280278,11 23.7686879,11 L27.3714239,11 C28.2707236,11 29,11.7079239 29,12.5808931 L29,17.6198317 C29,18.4928009 28.2707236,19.2007248 27.3714239,19.2007248 L23.7686879,19.2007248 C21.3864068,19.2007248 19.4484013,21.0819875 19.4484013,23.3945179 L19.4484013,27.862438 L16.1912491,27.8655998 L16.1912491,23.3945179 C16.1912491,19.3385787 19.5904131,16.0389386 23.7686879,16.0389386 L25.7428478,16.0389386 L25.7428478,14.1617862 L23.7686879,14.1617862 C18.5240215,14.1617862 14.2571522,18.303726 14.2571522,23.3945179 L14.2571522,37 Z" id="Shape" fill="#333333"></path>
                <path d="M14.2572111,67 L11,67 L11,37.3597478 C11,33.1052023 13.223698,29.2012612 16.9479932,26.9163426 C18.9889617,25.662743 21.347834,25 23.7685932,25 L27.3713944,25 C28.2707104,25 29,25.705938 29,26.5764582 L29,31.6012612 C29,32.4717814 28.2707104,33.1777194 27.3713944,33.1777194 L23.7685932,33.1777194 C21.386269,33.1777194 19.4482284,35.0537047 19.4482284,37.3597478 L19.4482284,58.1393589 L16.1910173,58.1393589 L16.1910173,37.3597478 C16.1910173,33.3151865 19.5902428,30.0248029 23.7685932,30.0248029 L25.7427889,30.0248029 L25.7427889,28.1529164 L23.7685932,28.1529164 C21.9667041,28.1529164 20.211393,28.6460326 18.6922297,29.5789806 C15.9148058,31.2828166 14.2572111,34.191382 14.2572111,37.3597478 C14.2572111,37.3597478 14.2572111,67 14.2572111,67 Z" id="Shape" fill="#333333"></path>
                <path d="M92,37 L88.7427889,37 L88.7427889,23.3945179 C88.7427889,18.3034099 84.4758424,14.1617862 79.2314068,14.1617862 L77.2572111,14.1617862 L77.2572111,16.0389386 L79.2314068,16.0389386 C83.4097572,16.0389386 86.8089827,19.3385787 86.8089827,23.3945179 L86.8089827,27.862438 L83.5517716,27.8655998 L83.5517716,23.3945179 C83.5517716,21.0819875 81.613731,19.2007248 79.2314068,19.2007248 L75.6286056,19.2007248 C74.7292896,19.2007248 74,18.4928009 74,17.6198317 L74,12.5808931 C74,11.7079239 74.7292896,11 75.6286056,11 L79.2314068,11 C86.2721943,11 92,16.5603172 92,23.3945179 L92,37 Z" id="Shape" fill="#333333"></path>
                <path d="M92,67 L88.7427889,67 L88.7427889,37.3597478 C88.7427889,34.191382 87.0851942,31.2828166 84.3087474,29.5796111 C82.788607,28.6460326 81.0332959,28.1529164 79.2314068,28.1529164 L77.2572111,28.1529164 L77.2572111,30.0248029 L79.2314068,30.0248029 C83.4097572,30.0248029 86.8089827,33.3151865 86.8089827,37.3597478 L86.8089827,58.1393589 L83.5517716,58.1393589 L83.5517716,37.3597478 C83.5517716,35.0537047 81.613731,33.1777194 79.2314068,33.1777194 L75.6286056,33.1777194 C74.7292896,33.1777194 74,32.4717814 74,31.6012612 L74,26.5764582 C74,25.705938 74.7292896,25 75.6286056,25 L79.2314068,25 C81.652166,25 84.0110383,25.662743 86.052984,26.9169732 C89.7766277,29.2012612 92,33.1052023 92,37.3600631 L92,67 Z" id="Shape" fill="#333333"></path>
                <path d="M69.5,15 C68.6717,15 68,14.2853039 68,13.4039837 L68,6.59601634 C68,5.71469612 68.6717,5 69.5,5 C70.3283,5 71,5.71469612 71,6.59601634 L71,13.4039837 C71,14.2853039 70.3283,15 69.5,15 Z" id="Shape" fill="#FFFFFF"></path>
            </g>
        </g>
    </g>
</svg>