<?xml version="1.0" encoding="UTF-8"?>
<svg width="52px" height="46px" viewBox="0 0 52 46" version="1.1" xmlns="http://www.w3.org/2000/svg" xmlns:xlink="http://www.w3.org/1999/xlink">
    <!-- Generator: Sketch 49.3 (51167) - http://www.bohemiancoding.com/sketch -->
    <title>calendar</title>
    <desc>Created with Sketch.</desc>
    <defs></defs>
    <g id="Main-Page" stroke="none" stroke-width="1" fill="none" fill-rule="evenodd">
        <g id="Контент-2--RU-" transform="translate(-492.000000, -265.000000)" fill-rule="nonzero">
            <g id="Group-5" transform="translate(492.000000, 259.000000)">
                <g id="calendar" transform="translate(0.000000, 6.000000)">
                    <path d="M51,13 L51,39.9604572 C51,42.7437171 48.4531759,45 45.3103367,45 L6.68848384,45 C3.54682409,45 1,42.7437171 1,39.9604572 L1,13" id="Shape" fill="#E6E6E6"></path>
                    <path d="M47.844998,19 L4.15460886,19 C2.41257605,19 1,17.7914195 1,16.3006238 L1,10.6993762 C1,9.20858049 2.41257605,8 4.15460886,8 L47.844998,8 C49.5874241,8 51,9.20858049 51,10.6993762 L51,16.3006238 C51,17.7914195 49.5874241,19 47.844998,19 Z" id="Shape" fill="#CCCCCC"></path>
                    <path d="M47.844998,16 L4.15460886,16 C2.41257605,16 1,14.7913825 1,13.3008777 L1,7.69912234 C1,6.20828109 2.41257605,5 4.15460886,5 L47.844998,5 C49.5874241,5 51,6.20828109 51,7.69912234 L51,13.3008777 C51,14.7913825 49.5874241,16 47.844998,16 Z" id="Shape" fill="#6198CE"></path>
                    <path d="M3.84551889,13.3008777 L3.84551889,7.69912234 C3.84551889,6.20828109 5.25786164,5 7,5 L4.15408805,5 C2.41234284,5 1,6.20828109 1,7.69912234 L1,13.3008777 C1,14.7913825 2.41234284,16 4.15408805,16 L7,16 C5.25786164,16 3.84551889,14.7913825 3.84551889,13.3008777 Z" id="Shape" fill="#4884B5"></path>
                    <path d="M15,3.56382545 L15,8.43617455 C15,9.14467105 14.6637028,9.78528969 14.1211223,10.2499662 C13.5785417,10.7136296 12.827702,11 12.0001976,11 C10.3424224,11 9,9.85282988 9,8.43617455 L9,3.56382545 C9,2.14818316 10.3424224,1 12.0001976,1 C13.656392,1 15,2.14818316 15,3.56382545 Z" id="Shape" fill="#E58E13"></path>
                    <path d="M43,3.56382545 L43,8.43617455 C43,9.14467105 42.6637029,9.78528969 42.1211223,10.2499662 C41.5785418,10.7136296 40.8277021,11 39.9998024,11 C38.3424225,11 37,9.85282988 37,8.43617455 L37,3.56382545 C37,2.14818316 38.3424225,1 39.9998024,1 C41.656392,1 43,2.14818316 43,3.56382545 Z" id="Shape" fill="#E58E13"></path>
                    <path d="M15,3.62335866 L15,5.37664134 C15,6.1005529 14.6637028,6.75708365 14.1211223,7.23151348 C13.5785417,7.70594331 12.827702,8 12.0001976,8 C10.3424224,8 9,6.8251555 9,5.37664134 L9,3.62335866 C9,2.1748445 10.3424224,1 12.0001976,1 C13.656392,1 15,2.1748445 15,3.62335866 Z" id="Shape" fill="#F7D360"></path>
                    <path d="M43,3.62335866 L43,5.37664134 C43,6.1005529 42.6637029,6.75708365 42.1211223,7.23151348 C41.5785418,7.70594331 40.8277021,8 39.9998024,8 C38.3424225,8 37,6.8251555 37,5.37664134 L37,3.62335866 C37,2.1748445 38.3424225,1 39.9998024,1 C41.656392,1 43,2.1748445 43,3.62335866 Z" id="Shape" fill="#F7D360"></path>
                    <g id="Group" transform="translate(4.000000, 21.000000)" fill="#6198CE">
                        <path d="M20.1554487,2.06876093 C20.1554487,3.1622737 19.1310096,4.0490837 17.8677885,4.0490837 C16.6041667,4.0490837 15.5801282,3.1622737 15.5801282,2.06876093 C15.5801282,0.974901453 16.6041667,0.0884382523 17.8677885,0.0884382523 C19.1310096,0.0884382523 20.1554487,0.974901453 20.1554487,2.06876093 Z" id="Shape"></path>
                        <path d="M12.4042468,2.06876093 C12.4042468,3.1622737 11.3798077,4.0490837 10.1165866,4.0490837 C8.85296472,4.0490837 7.82892626,3.1622737 7.82892626,2.06876093 C7.82892626,0.974901453 8.85296472,0.0884382523 10.1165866,0.0884382523 C11.3798077,0.0884382523 12.4042468,0.974901453 12.4042468,2.06876093 Z" id="Shape"></path>
                        <path d="M27.9066507,2.06876093 C27.9066507,3.1622737 26.8826122,4.0490837 25.6189904,4.0490837 C24.3557692,4.0490837 23.3313302,3.1622737 23.3313302,2.06876093 C23.3313302,0.974901453 24.3557692,0.0884382523 25.6189904,0.0884382523 C26.8826122,0.0884382523 27.9066507,0.974901453 27.9066507,2.06876093 Z" id="Shape"></path>
                        <path d="M4.65264421,9.53988393 C4.65264421,10.6337434 3.62860574,11.5205534 2.364984,11.5205534 C1.10176287,11.5205534 0.0773236923,10.6337434 0.0773236923,9.53988393 C0.0773236923,8.44637116 1.10176287,7.55956116 2.364984,7.55956116 C3.62860574,7.55956116 4.65264421,8.44637116 4.65264421,9.53988393 Z" id="Shape"></path>
                        <path d="M20.1554487,9.53988393 C20.1554487,10.6337434 19.1310096,11.5205534 17.8677885,11.5205534 C16.6041667,11.5205534 15.5801282,10.6337434 15.5801282,9.53988393 C15.5801282,8.44637116 16.6041667,7.55956116 17.8677885,7.55956116 C19.1310096,7.55956116 20.1554487,8.44637116 20.1554487,9.53988393 Z" id="Shape"></path>
                        <path d="M12.4042468,9.53988393 C12.4042468,10.6337434 11.3798077,11.5205534 10.1165866,11.5205534 C8.85296472,11.5205534 7.82892626,10.6337434 7.82892626,9.53988393 C7.82892626,8.44637116 8.85296472,7.55956116 10.1165866,7.55956116 C11.3798077,7.55956116 12.4042468,8.44637116 12.4042468,9.53988393 Z" id="Shape"></path>
                        <path d="M27.9066507,9.53988393 C27.9066507,10.6337434 26.8826122,11.5205534 25.6189904,11.5205534 C24.3557692,11.5205534 23.3313302,10.6337434 23.3313302,9.53988393 C23.3313302,8.44637116 24.3557692,7.55956116 25.6189904,7.55956116 C26.8826122,7.55956116 27.9066507,8.44637116 27.9066507,9.53988393 Z" id="Shape"></path>
                        <path d="M4.65264421,17.0113536 C4.65264421,18.1052132 3.62860574,18.9916764 2.364984,18.9916764 C1.10176287,18.9916764 0.0773236923,18.1052132 0.0773236923,17.0113536 C0.0773236923,15.917841 1.10176287,15.031031 2.364984,15.031031 C3.62860574,15.031031 4.65264421,15.917841 4.65264421,17.0113536 Z" id="Shape"></path>
                        <path d="M20.1554487,17.0113536 C20.1554487,18.1052132 19.1310096,18.9916764 17.8677885,18.9916764 C16.6041667,18.9916764 15.5801282,18.1052132 15.5801282,17.0113536 C15.5801282,15.917841 16.6041667,15.031031 17.8677885,15.031031 C19.1310096,15.031031 20.1554487,15.917841 20.1554487,17.0113536 Z" id="Shape"></path>
                        <path d="M12.4042468,17.0113536 C12.4042468,18.1052132 11.3798077,18.9916764 10.1165866,18.9916764 C8.85296472,18.9916764 7.82892626,18.1052132 7.82892626,17.0113536 C7.82892626,15.917841 8.85296472,15.031031 10.1165866,15.031031 C11.3798077,15.031031 12.4042468,15.917841 12.4042468,17.0113536 Z" id="Shape"></path>
                        <path d="M27.9066507,17.0113536 C27.9066507,18.1052132 26.8826122,18.9916764 25.6189904,18.9916764 C24.3557692,18.9916764 23.3313302,18.1052132 23.3313302,17.0113536 C23.3313302,15.917841 24.3557692,15.031031 25.6189904,15.031031 C26.8826122,15.031031 27.9066507,15.917841 27.9066507,17.0113536 Z" id="Shape"></path>
                    </g>
                    <path d="M40,23 C40,24.1043783 38.8804729,25 37.4999999,25 C36.1190893,25 35,24.1043783 35,23 C35,21.8952715 36.1190893,21 37.4999999,21 C38.8804729,21 40,21.8952715 40,23 Z" id="Shape" fill="#FC5F61"></path>
                    <path d="M48,23 C48,24.1043783 46.8804728,25 45.5,25 C44.1190894,25 43,24.1043783 43,23 C43,21.8952715 44.1190894,21 45.5,21 C46.8804728,21 48,21.8952715 48,23 Z" id="Shape" fill="#FC5F61"></path>
                    <path d="M40,30.9998249 C40,32.1044567 38.8804729,33 37.4999999,33 C36.1190893,33 35,32.1044567 35,30.9998249 C35,29.8955433 36.1190893,29 37.4999999,29 C38.8804729,29 40,29.8955433 40,30.9998249 Z" id="Shape" fill="#FC5F61"></path>
                    <path d="M48,30.9998249 C48,32.1044567 46.8804728,33 45.5,33 C44.1190894,33 43,32.1044567 43,30.9998249 C43,29.8955433 44.1190894,29 45.5,29 C46.8804728,29 48,29.8955433 48,30.9998249 Z" id="Shape" fill="#FC5F61"></path>
                    <path d="M48.0438232,4.24476626 L43.3045043,4.24476626 L43.3045043,3.34738155 C43.3045043,1.50172427 41.6072998,0 39.5209045,0 C37.4341125,0 35.7365113,1.50172427 35.7365113,3.34738155 L35.7365113,4.24476626 L16.2626953,4.24476626 L16.2626953,3.34738155 C16.2626953,1.50172427 14.565094,0 12.4786988,0 C10.3923035,0 8.69470215,1.50172427 8.69470215,3.34738155 L8.69470215,4.24476626 L3.95498655,4.24476626 C1.77416992,4.24476626 0,5.81422427 0,7.7434082 L0,40.2384186 C0,43.4152374 2.92150879,46 6.51269531,46 L37.9447021,46 C38.3711853,46 38.7171326,45.6939697 38.7171326,45.3166961 C38.7171326,44.9394226 38.3711853,44.6337433 37.9447021,44.6337433 L6.51269531,44.6337433 C3.77328494,44.6337433 1.54446409,42.6620941 1.54446409,40.2387695 L1.54446409,16.3592835 C2.21255491,16.8151703 3.04846191,17.0871582 3.95498655,17.0871582 L5.97671506,17.0871582 C6.40319824,17.0871582 6.74914551,16.7814789 6.74914551,16.4042054 C6.74914551,16.0269318 6.40319824,15.7209015 5.97671506,15.7209015 L3.95498655,15.7209015 C2.62594607,15.7209015 1.54446409,14.763855 1.54446409,13.5878143 L1.54446409,7.7434082 C1.54446409,6.56771846 2.62594607,5.61102295 3.95498655,5.61102295 L8.69470215,5.61102295 L8.69470215,8.41162109 C8.69470215,10.2572785 10.3923035,11.7590026 12.4786988,11.7590026 C14.5654907,11.7590026 16.2626953,10.2572785 16.2626953,8.41162109 L16.2626953,5.61102295 L35.736908,5.61102295 L35.736908,8.41162109 C35.736908,10.2572785 37.4345093,11.7590026 39.5209045,11.7590026 C41.6076965,11.7590026 43.3049011,10.2572785 43.3049011,8.41162109 L43.3049011,5.61102295 L48.0442199,5.61102295 C49.3740539,5.61102295 50.4559326,6.56771846 50.4559326,7.7434082 L50.4559326,13.5878143 C50.4559326,14.7642059 49.3740539,15.7209015 48.0442199,15.7209015 L9.06604004,15.7209015 C8.63955686,15.7209015 8.2940063,16.0269318 8.2940063,16.4042054 C8.2940063,16.7814789 8.63955686,17.0875091 9.06604004,17.0875091 L48.0438232,17.0875091 C48.9511414,17.0875091 49.7874451,16.8151703 50.4555359,16.3592835 L50.4555359,40.2387695 C50.4555359,42.6620941 48.2263184,44.6337433 45.4861145,44.6337433 L41.0340271,44.6337433 C40.6075439,44.6337433 40.2619934,44.9394226 40.2619934,45.3166961 C40.2619934,45.6939697 40.6075439,46 41.0340271,46 L45.4861145,46 C49.0780945,46 52,43.4155884 52,40.2387695 L52,7.7434082 C52,5.81422427 50.2254334,4.24476626 48.0438232,4.24476626 Z M14.7182312,8.41162109 C14.7182312,9.50378418 13.7137146,10.3927459 12.4786988,10.3927459 C11.2436828,10.3927459 10.2391662,9.50413511 10.2391662,8.41162109 L10.2391662,4.93052671 C10.2391662,4.92982485 10.2391662,4.92877197 10.2391662,4.92807002 C10.2391662,4.92701723 10.2391662,4.92631529 10.2391662,4.92526241 L10.2391662,3.34738155 C10.2391662,2.25521846 11.2436828,1.36625669 12.4786988,1.36625669 C13.7137146,1.36625669 14.7182312,2.25486753 14.7182312,3.34738155 L14.7182312,8.41162109 Z M41.7600403,8.41162109 C41.7600403,9.50378418 40.7555237,10.3927459 39.5205078,10.3927459 C38.2858887,10.3927459 37.2809754,9.50413511 37.2809754,8.41162109 L37.2809754,4.93122866 C37.2809754,4.93017578 37.2813721,4.9291229 37.2813721,4.92771909 C37.2813721,4.9266663 37.2809754,4.92561343 37.2809754,4.92420962 L37.2809754,3.34738155 C37.2809754,2.25521846 38.2858887,1.36625669 39.5205078,1.36625669 C40.7555237,1.36625669 41.7600403,2.25486753 41.7600403,3.34738155 L41.7600403,8.41162109 Z" id="Shape" fill="#000000"></path>
                    <path d="M22.0000001,21 C20.3458274,21 19,22.1215228 19,23.5 C19,24.8784772 20.3458274,26 22.0000001,26 C23.6541726,26 25,24.8784772 25,23.5 C25,22.1215228 23.6541726,21 22.0000001,21 Z M22.0000001,24.7286143 C21.1870184,24.7286143 20.525271,24.1774846 20.525271,23.5 C20.525271,22.8225153 21.1870184,22.2710591 22.0000001,22.2710591 C22.8129816,22.2710591 23.4743372,22.8225153 23.4743372,23.5 C23.4743372,24.1774846 22.8129816,24.7286143 22.0000001,24.7286143 Z" id="Shape" fill="#000000"></path>
                    <path d="M37.0001959,26 C38.6540847,26 40,24.8784772 40,23.5 C40,22.1215228 38.6540847,21 37.0001959,21 C35.3459153,21 34,22.1215228 34,23.5 C34,24.8784772 35.3459153,26 37.0001959,26 Z M37.0001959,22.2710591 C37.8132306,22.2710591 38.4746294,22.8225153 38.4746294,23.5 C38.4746294,24.1774846 37.8132306,24.7286143 37.0001959,24.7286143 C36.1871612,24.7286143 35.5253706,24.1774846 35.5253706,23.5 C35.5253706,22.8225153 36.1867694,22.2710591 37.0001959,22.2710591 Z" id="Shape" fill="#000000"></path>
                    <path d="M14.0001959,21 C12.3459152,21 11,22.1215228 11,23.5 C11,24.8784772 12.3459152,26 14.0001959,26 C15.6540848,26 17,24.8784772 17,23.5 C17,22.1215228 15.6540848,21 14.0001959,21 Z M14.0001959,24.7286143 C13.1867695,24.7286143 12.5253707,24.1774846 12.5253707,23.5 C12.5253707,22.8225153 13.1867695,22.2710591 14.0001959,22.2710591 C14.8132306,22.2710591 15.4746294,22.8225153 15.4746294,23.5 C15.4746294,24.1774846 14.8132306,24.7286143 14.0001959,24.7286143 Z" id="Shape" fill="#000000"></path>
                    <path d="M29.9998041,21 C28.3459153,21 27,22.1215228 27,23.5 C27,24.8784772 28.3459153,26 29.9998041,26 C31.6540848,26 33,24.8784772 33,23.5 C33,22.1215228 31.6540848,21 29.9998041,21 Z M29.9998041,24.7286143 C29.1867695,24.7286143 28.5253707,24.1774846 28.5253707,23.5 C28.5253707,22.8225153 29.1867695,22.2710591 29.9998041,22.2710591 C30.8128388,22.2710591 31.4746294,22.8225153 31.4746294,23.5 C31.4746294,24.1774846 30.8128388,24.7286143 29.9998041,24.7286143 Z" id="Shape" fill="#000000"></path>
                    <path d="M45,26 C46.6541727,26 48,24.8784772 48,23.5 C48,22.1215228 46.6541727,21 45,21 C43.3458273,21 42,22.1215228 42,23.5 C42,24.8784772 43.3458273,26 45,26 Z M45,22.2710591 C45.8129816,22.2710591 46.4743372,22.8225153 46.4743372,23.5 C46.4743372,24.1774846 45.8129816,24.7286143 45,24.7286143 C44.1870184,24.7286143 43.525271,24.1774846 43.525271,23.5 C43.525271,22.8225153 44.1870184,22.2710591 45,22.2710591 Z" id="Shape" fill="#000000"></path>
                    <path d="M6.9998041,28 C5.34591517,28 4,29.1215961 4,30.5001632 C4,31.8787304 5.34591517,33 6.9998041,33 C8.65408473,33 10,31.8787304 10,30.5001632 C10,29.1215961 8.65408473,28 6.9998041,28 Z M6.9998041,31.7288578 C6.1867694,31.7288578 5.52537058,31.1776922 5.52537058,30.5001632 C5.52537058,29.8226343 6.1867694,29.2711422 6.9998041,29.2711422 C7.81283871,29.2711422 8.47462942,29.8226343 8.47462942,30.5001632 C8.47462942,31.1776922 7.81283871,31.7288578 6.9998041,31.7288578 Z" id="Shape" fill="#000000"></path>
                    <path d="M22.0000001,28 C20.3458274,28 19,29.1215961 19,30.5001632 C19,31.8787304 20.3458274,33 22.0000001,33 C23.6541726,33 25,31.8787304 25,30.5001632 C25,29.1215961 23.6541726,28 22.0000001,28 Z M22.0000001,31.7288578 C21.1870184,31.7288578 20.525271,31.1776922 20.525271,30.5001632 C20.525271,29.8226343 21.1870184,29.2711422 22.0000001,29.2711422 C22.8129816,29.2711422 23.4743372,29.8226343 23.4743372,30.5001632 C23.4743372,31.1776922 22.8129816,31.7288578 22.0000001,31.7288578 Z" id="Shape" fill="#000000"></path>
                    <path d="M37.0001959,33 C38.6540847,33 40,31.8787304 40,30.5001632 C40,29.1215961 38.6540847,28 37.0001959,28 C35.3459153,28 34,29.1215961 34,30.5001632 C34,31.8787304 35.3459153,33 37.0001959,33 Z M37.0001959,29.2711422 C37.8132306,29.2711422 38.4746294,29.8226343 38.4746294,30.5001632 C38.4746294,31.1776922 37.8132306,31.7288578 37.0001959,31.7288578 C36.1871612,31.7288578 35.5253706,31.1776922 35.5253706,30.5001632 C35.5253706,29.8226343 36.1867694,29.2711422 37.0001959,29.2711422 Z" id="Shape" fill="#000000"></path>
                    <path d="M14.0001959,28 C12.3459152,28 11,29.1215961 11,30.5001632 C11,31.8787304 12.3459152,33 14.0001959,33 C15.6540848,33 17,31.8787304 17,30.5001632 C17,29.1215961 15.6540848,28 14.0001959,28 Z M14.0001959,31.7288578 C13.1867695,31.7288578 12.5253707,31.1776922 12.5253707,30.5001632 C12.5253707,29.8226343 13.1867695,29.2711422 14.0001959,29.2711422 C14.8132306,29.2711422 15.4746294,29.8226343 15.4746294,30.5001632 C15.4746294,31.1776922 14.8132306,31.7288578 14.0001959,31.7288578 Z" id="Shape" fill="#000000"></path>
                    <path d="M29.9998041,28 C28.3459153,28 27,29.1215961 27,30.5001632 C27,31.8787304 28.3459153,33 29.9998041,33 C31.6540848,33 33,31.8787304 33,30.5001632 C33,29.1215961 31.6540848,28 29.9998041,28 Z M29.9998041,31.7288578 C29.1867695,31.7288578 28.5253707,31.1776922 28.5253707,30.5001632 C28.5253707,29.8226343 29.1867695,29.2711422 29.9998041,29.2711422 C30.8128388,29.2711422 31.4746294,29.8226343 31.4746294,30.5001632 C31.4746294,31.1776922 30.8128388,31.7288578 29.9998041,31.7288578 Z" id="Shape" fill="#000000"></path>
                    <path d="M45,33 C46.6541727,33 48,31.8787304 48,30.5001632 C48,29.1215961 46.6541727,28 45,28 C43.3458273,28 42,29.1215961 42,30.5001632 C42,31.8787304 43.3458273,33 45,33 Z M45,29.2711422 C45.8129816,29.2711422 46.4743372,29.8226343 46.4743372,30.5001632 C46.4743372,31.1776922 45.8129816,31.7288578 45,31.7288578 C44.1870184,31.7288578 43.525271,31.1776922 43.525271,30.5001632 C43.525271,29.8226343 44.1870184,29.2711422 45,29.2711422 Z" id="Shape" fill="#000000"></path>
                    <path d="M6.9998041,36 C5.34591517,36 4,37.121596 4,38.4998367 C4,39.878404 5.34591517,41 6.9998041,41 C8.65408473,41 10,39.878404 10,38.4998367 C10,37.121596 8.65408473,36 6.9998041,36 Z M6.9998041,39.7288579 C6.1867694,39.7288579 5.52537058,39.1776922 5.52537058,38.4998367 C5.52537058,37.8223079 6.1867694,37.2711422 6.9998041,37.2711422 C7.81283871,37.2711422 8.47462942,37.8223079 8.47462942,38.4998367 C8.47462942,39.1776922 7.81283871,39.7288579 6.9998041,39.7288579 Z" id="Shape" fill="#000000"></path>
                    <path d="M22.0000001,36 C20.3458274,36 19,37.121596 19,38.4998367 C19,39.878404 20.3458274,41 22.0000001,41 C23.6541726,41 25,39.878404 25,38.4998367 C25,37.121596 23.6541726,36 22.0000001,36 Z M22.0000001,39.7288579 C21.1870184,39.7288579 20.525271,39.1776922 20.525271,38.4998367 C20.525271,37.8223079 21.1870184,37.2711422 22.0000001,37.2711422 C22.8129816,37.2711422 23.4743372,37.8223079 23.4743372,38.4998367 C23.4743372,39.1776922 22.8129816,39.7288579 22.0000001,39.7288579 Z" id="Shape" fill="#000000"></path>
                    <path d="M14.0001959,36 C12.3459152,36 11,37.121596 11,38.4998367 C11,39.878404 12.3459152,41 14.0001959,41 C15.6540848,41 17,39.878404 17,38.4998367 C17,37.121596 15.6540848,36 14.0001959,36 Z M14.0001959,39.7288579 C13.1867695,39.7288579 12.5253707,39.1776922 12.5253707,38.4998367 C12.5253707,37.8223079 13.1867695,37.2711422 14.0001959,37.2711422 C14.8132306,37.2711422 15.4746294,37.8223079 15.4746294,38.4998367 C15.4746294,39.1776922 14.8132306,39.7288579 14.0001959,39.7288579 Z" id="Shape" fill="#000000"></path>
                    <path d="M29.9998041,36 C28.3459153,36 27,37.121596 27,38.4998367 C27,39.878404 28.3459153,41 29.9998041,41 C31.6540848,41 33,39.878404 33,38.4998367 C33,37.121596 31.6540848,36 29.9998041,36 Z M29.9998041,39.7288579 C29.1867695,39.7288579 28.5253707,39.1776922 28.5253707,38.4998367 C28.5253707,37.8223079 29.1867695,37.2711422 29.9998041,37.2711422 C30.8128388,37.2711422 31.4746294,37.8223079 31.4746294,38.4998367 C31.4746294,39.1776922 30.8128388,39.7288579 29.9998041,39.7288579 Z" id="Shape" fill="#000000"></path>
                </g>
            </g>
        </g>
    </g>
</svg>