<?xml version="1.0" encoding="UTF-8"?>
<svg width="60px" height="60px" viewBox="0 0 60 60" version="1.1" xmlns="http://www.w3.org/2000/svg" xmlns:xlink="http://www.w3.org/1999/xlink">
    <!-- Generator: Sketch 49.3 (51167) - http://www.bohemiancoding.com/sketch -->
    <title>consulting</title>
    <desc>Created with Sketch.</desc>
    <defs></defs>
    <g id="Main-Page" stroke="none" stroke-width="1" fill="none" fill-rule="evenodd">
        <g id="Контент-1--RU-" transform="translate(-130.000000, -3252.000000)" fill-rule="nonzero">
            <g id="consulting" transform="translate(130.000000, 3252.000000)">
                <path d="M6.95050781,22.1583984 C5.638125,22.1583984 4.57429687,23.2222266 4.57429687,24.5346094 L4.57429687,53.1683203 L22.8713672,53.1683203 L24.0595312,55.4257031 L35.9407031,55.4257031 L37.1288672,53.1683203 L55.4259375,53.1683203 L55.4259375,24.5346094 C55.4259375,23.2222266 54.3621094,22.1583984 53.0497266,22.1583984 L6.95050781,22.1583984 Z" id="Shape" fill="#D8D7DA"></path>
                <path d="M53.2871484,35.3465625 C53.2871484,30.2095312 51.0943359,25.4641406 47.4615234,22.1583984 L23.4868359,22.1583984 C19.8486328,25.4751563 17.6435156,30.2375391 17.6435156,35.3465625 L17.6435156,50.7921094 L53.2871484,50.7921094 L53.2870313,35.3465625 L53.2871484,35.3465625 Z" id="Shape" fill="#ACABB1"></path>
                <path d="M38.0913281,0.89109375 L32.4678516,0.89109375 C26.7950391,0.89109375 23.2740234,7.1334375 26.2823437,11.9428125 C26.6388281,12.5125781 26.9080078,12.7694531 26.9105859,12.7720312 L26.9105859,10.5148828 C26.9105859,8.54625 28.5063281,6.95050781 30.4749609,6.95050781 L39.9799219,6.95050781 C41.9485547,6.95050781 43.5442969,8.54625 43.5442969,10.5148828 L43.5442969,12.7722656 L43.6633594,12.7722656 C43.6633594,12.7722656 44.0076562,12.4279687 44.4342187,11.6738672 C47.1583594,6.856875 43.6253906,0.89109375 38.0913281,0.89109375 Z" id="Shape" fill="#A0815C"></path>
                <path d="M39.9799219,4.57429687 L30.4749609,4.57429687 C28.1758594,4.57429687 26.1791016,5.88796875 25.1920313,7.80339844 C25.1214844,9.18503906 25.4538281,10.6182422 26.2823438,11.9429297 C26.6388281,12.5126953 26.9080078,12.7695703 26.9105859,12.7721484 L26.9105859,10.5148828 C26.9105859,8.54625 28.5063281,6.95050781 30.4749609,6.95050781 L39.9799219,6.95050781 C41.9485547,6.95050781 43.5442969,8.54625 43.5442969,10.5148828 L43.5442969,12.7722656 L43.6633594,12.7722656 C43.6633594,12.7722656 44.0076562,12.4279687 44.4342187,11.6738672 C45.1028906,10.4914453 45.39375,9.24 45.3713672,8.02441406 C44.4275391,5.9896875 42.3665625,4.57429687 39.9799219,4.57429687 Z" id="Shape" fill="#997158"></path>
                <path d="M39.9799219,6.95050781 L30.4749609,6.95050781 C28.5063281,6.95050781 26.9105859,8.54625 26.9105859,10.5148828 L26.9105859,12.7720313 L26.9105859,14.1979688 C26.9105859,18.79125 30.6341016,22.5147656 35.2273828,22.5147656 C39.8206641,22.5147656 43.5441797,18.79125 43.5441797,14.1979688 L43.5441797,10.5146484 C43.5441797,8.54613281 41.9484375,6.95050781 39.9799219,6.95050781 Z" id="Shape" fill="#FDD8A8"></path>
                <path d="M39.2673047,9.92074219 L38.3167969,9.92074219 C37.1110547,9.92074219 36.0278906,10.4523047 35.2871484,11.2926563 C34.5464062,10.4523047 33.463125,9.92074219 32.2575,9.92074219 L31.3069922,9.92074219 C29.0794922,9.92074219 27.2674219,11.7328125 27.2674219,13.9603125 C27.2674219,16.1878125 29.0794922,17.9998828 31.3069922,17.9998828 L32.2575,17.9998828 C33.4632422,17.9998828 34.5464062,17.4683203 35.2871484,16.6279688 C36.0278906,17.4683203 37.1111719,17.9998828 38.3167969,17.9998828 L39.2673047,17.9998828 C41.4948047,17.9998828 43.306875,16.1878125 43.306875,13.9603125 C43.306875,11.7328125 41.4948047,9.92074219 39.2673047,9.92074219 Z" id="Shape" fill="#FFC477"></path>
                <rect id="Rectangle-path" fill="#4A8CFF" x="8.13867187" y="25.7227734" width="43.7227734" height="23.8811719"></rect>
                <path d="M51.8614453,49.6039453 L51.8614453,28.3546875 C51.4707422,27.4378125 51.0051562,26.5575 50.4700781,25.7227734 L20.4785156,25.7227734 C18.6706641,28.5367969 17.6435156,31.8607031 17.6435156,35.3465625 L17.6435156,49.6039453 L51.8614453,49.6039453 Z" id="Shape" fill="#4D73FF"></path>
                <path d="M22.87125,53.1683203 L24.0594141,55.4257031 L35.9405859,55.4257031 L37.12875,53.1683203 L50.9109375,53.1683203 L50.9109375,35.3465625 C50.9109375,28.5425391 46.5113672,22.76625 40.4017969,20.7069141 C38.9813672,21.8375391 37.1840625,22.5148828 35.2275,22.5148828 C33.3380859,22.5148828 31.5964453,21.8837109 30.2000391,20.8223437 C24.2621484,22.9753125 20.0197266,28.6653516 20.0197266,35.3466797 L20.0197266,53.1684375 L22.87125,53.1684375 L22.87125,53.1683203 Z" id="Shape" fill="#B157CE"></path>
                <path d="M28.2237891,44.6738672 L35.2277344,50.7921094 L42.2316797,44.6738672 L40.4554687,26.9114063 L40.4554687,23.5230469 C41.3139844,23.0398828 42.0986719,22.4404688 42.7898437,21.748125 C42.0294141,21.3376172 41.2320703,20.986875 40.4016797,20.7070312 C38.98125,21.8376562 37.1839453,22.515 35.2273828,22.515 C33.3379688,22.515 31.5963281,21.8838281 30.1999219,20.8224609 C29.3769141,21.1209375 28.5880078,21.4894922 27.8368359,21.9171094 C28.4857031,22.5383203 29.2114453,23.0798437 29.9997656,23.5233984 L29.9997656,26.9115234 L28.2237891,44.6738672 Z" id="Shape" fill="#8E56BF"></path>
                <polygon id="Shape" fill="#ACABB1" points="35.6941406 50.7921094 34.5060937 53.0494922 25.4939062 53.0494922 24.3058594 50.7921094 4.57429687 50.7921094 4.57429687 53.1683203 22.87125 53.1683203 24.0594141 55.4257031 35.9405859 55.4257031 37.12875 53.1683203 55.4257031 53.1683203 55.4257031 50.7921094"></polygon>
                <polygon id="Shape" fill="#8E56BF" points="35.6941406 50.7921094 34.5060937 53.0494922 25.4939062 53.0494922 24.3058594 50.7921094 20.0198437 50.7921094 20.0198437 53.1683203 22.87125 53.1683203 24.0594141 55.4257031 35.9405859 55.4257031 37.12875 53.1683203 50.9109375 53.1683203 50.9109375 50.7921094"></polygon>
                <path d="M37.12875,53.1683203 L35.9405859,55.4257031 L24.0594141,55.4257031 L22.87125,53.1683203 L0.89109375,53.1683203 L0.89109375,55.5445312 C0.89109375,57.5131641 2.48683594,59.1089062 4.45546875,59.1089062 L55.5445312,59.1089062 C57.5131641,59.1089062 59.1089062,57.5131641 59.1089062,55.5445312 L59.1089062,53.1683203 L37.12875,53.1683203 Z" id="Shape" fill="#D8D7DA"></path>
                <polygon id="Shape" fill="#FDD844" points="38.0792578 27.0296484 32.3762109 27.0296484 30.7128516 43.6633594 35.2277344 47.4653906 39.7426172 43.6633594"></polygon>
                <polygon id="Shape" fill="#FDBF44" points="32.1386719 29.4059766 38.3167969 29.4059766 38.0792578 27.0296484 32.3762109 27.0296484"></polygon>
                <path d="M35.2275,22.5148828 C34.2257813,22.5148828 33.2655469,22.3375781 32.3762109,22.0129687 L32.3762109,27.0296484 L38.0791406,27.0296484 L38.0791406,22.0128516 C37.1898047,22.3375781 36.2293359,22.5148828 35.2275,22.5148828 Z" id="Shape" fill="#FDD844"></path>
                <path d="M35.2275,24.8910937 C36.2148047,24.8910937 37.1709375,24.7559766 38.0792578,24.504375 L38.0792578,22.0128516 C37.1898047,22.3375781 36.2293359,22.5148828 35.2275,22.5148828 C34.2257813,22.5148828 33.2655469,22.3375781 32.3762109,22.0129687 L32.3762109,24.5044922 C33.2844141,24.7559766 34.2404297,24.8910937 35.2275,24.8910937 Z" id="Shape" fill="#FDBF44"></path>
                <g id="Group" transform="translate(29.531250, 12.187500)" fill="#FFFFFF">
                    <path d="M2.72613281,3.43628906 L1.775625,3.43628906 C0.856992187,3.43628906 0.112265625,2.6915625 0.112265625,1.77292969 C0.112265625,0.854296875 0.856992187,0.109570313 1.775625,0.109570313 L2.72613281,0.109570313 C3.64476562,0.109570313 4.38949219,0.854296875 4.38949219,1.77292969 C4.38949219,2.6915625 3.64488281,3.43628906 2.72613281,3.43628906 Z" id="Shape"></path>
                    <path d="M9.73605469,3.43628906 L8.78554688,3.43628906 C7.86691406,3.43628906 7.1221875,2.6915625 7.1221875,1.77292969 C7.1221875,0.854296875 7.86691406,0.109570313 8.78554688,0.109570313 L9.73605469,0.109570313 C10.6546875,0.109570313 11.3994141,0.854296875 11.3994141,1.77292969 C11.3994141,2.6915625 10.6546875,3.43628906 9.73605469,3.43628906 Z" id="Shape"></path>
                </g>
                <polygon id="Shape" fill="#FDD844" points="0.950507813 0.89109375 0.950507813 12.7722656 11.8811719 12.7722656 16.7524219 16.9306641 16.7524219 12.7722656 21.5049609 12.7722656 21.5049609 0.89109375"></polygon>
                <path d="M36.2376562,43.0693359 L34.4554687,43.0693359 L34.4554687,41.5248047 L36.2376562,41.5248047 L36.2376562,43.0693359 Z M36.2376562,39.7426172 L34.4554687,39.7426172 L34.4554687,35.5842187 L36.2376562,35.5842187 L36.2376562,39.7426172 Z" id="Shape" fill="#FFFFFF"></path>
                <path d="M56.3167969,52.2772266 L56.3167969,24.5346094 C56.3167969,22.7330859 54.8510156,21.2673047 53.0494922,21.2673047 L49.1642578,21.2673047 L49.1642578,23.0494922 L53.0494922,23.0494922 C53.8685156,23.0494922 54.5346094,23.7157031 54.5346094,24.5346094 L54.5346094,52.2772266 L36.5907422,52.2772266 L35.4025781,54.5346094 L24.5974219,54.5346094 L23.4092578,52.2772266 L5.46539063,52.2772266 L5.46539063,24.5346094 C5.46539063,23.7155859 6.13160156,23.0494922 6.95050781,23.0494922 L21.7857422,23.0494922 L21.7857422,21.2673047 L6.95050781,21.2673047 C5.14898438,21.2673047 3.68320312,22.7330859 3.68320312,24.5346094 L3.68320312,52.2772266 L0,52.2772266 L0,55.5445313 C0,58.0013672 1.99863281,60 4.45546875,60 L55.5445312,60 C58.0013672,60 60,58.0013672 60,55.5445313 L60,52.2772266 L56.3167969,52.2772266 Z M58.2178125,55.5445312 C58.2178125,57.0185156 57.0185156,58.2178125 55.5445312,58.2178125 L4.45546875,58.2178125 C2.98148437,58.2178125 1.7821875,57.0185156 1.7821875,55.5445312 L1.7821875,54.0594141 L3.68320312,54.0594141 L22.3333594,54.0594141 L23.5215234,56.3167969 L36.4788281,56.3167969 L37.6669922,54.0594141 L56.3167969,54.0594141 L58.2178125,54.0594141 L58.2178125,55.5445312 Z" id="Shape" fill="#000000"></path>
                <rect id="Rectangle-path" fill="#000000" x="24.8316797" y="36.7722656" width="1.7821875" height="14.0198437"></rect>
                <rect id="Rectangle-path" fill="#000000" x="44.3167969" y="36.7722656" width="1.7821875" height="14.0198437"></rect>
                <polygon id="Shape" fill="#000000" points="19.0841016 26.6138672 19.0841016 24.8316797 7.24757813 24.8316797 7.24757813 50.4950391 16.4554688 50.4950391 16.4554688 48.7128516 9.02964844 48.7128516 9.02964844 26.6138672"></polygon>
                <path d="M19.12875,35.3465625 L19.12875,50.7921094 L20.9109375,50.7921094 L20.9109375,35.3465625 C20.9109375,29.3961328 24.5722266,24.0208594 30.069375,21.8254688 C30.5208984,22.1320313 30.9944531,22.3944141 31.4851172,22.6135547 L31.4851172,26.9855859 L29.7794531,44.0423437 L35.2277344,48.6302344 L40.6760156,44.0423437 L38.9703516,26.9857031 L38.9703516,22.6144922 C39.5226563,22.3674609 40.0530469,22.0648828 40.5553125,21.706875 C46.2358594,23.8238672 50.0198438,29.2470703 50.0198438,35.3465625 L50.0198438,50.7921094 L51.8020312,50.7921094 L51.8020312,35.3465625 C51.8020312,28.8138281 47.9329688,22.9739063 42.0385547,20.3880469 C43.5270703,18.7517578 44.4355078,16.5791016 44.4355078,14.1980859 L44.4355078,13.2460547 C44.6003906,13.0528125 44.8882031,12.6815625 45.2098828,12.1126172 C46.6388672,9.58582031 46.6153125,6.5746875 45.1471875,4.05738281 C43.6651172,1.51675781 41.0274609,0 38.0914453,0 L32.4679687,0 C29.4555469,0 26.7833203,1.57675781 25.3202344,4.21757813 C23.8728516,6.83003906 23.9501953,9.89460937 25.5269531,12.4154297 C25.7163281,12.7182422 25.8866016,12.9469922 26.0194922,13.1101172 L26.0194922,14.1979687 C26.0194922,16.6542187 26.9880469,18.8869922 28.5610547,20.5396875 C22.865625,23.2001953 19.12875,28.9789453 19.12875,35.3465625 Z M42.6532031,10.5148828 L42.6532031,13.0693359 L41.6581641,13.0693359 C41.2954687,12.0996094 40.3620703,11.4059766 39.2671875,11.4059766 L38.3166797,11.4059766 C37.2217969,11.4059766 36.2883984,12.0996094 35.9257031,13.0693359 L34.648125,13.0693359 C34.2854297,12.0996094 33.3520312,11.4059766 32.2571484,11.4059766 L31.3066406,11.4059766 C30.2117578,11.4059766 29.2783594,12.0996094 28.9156641,13.0693359 L27.8014453,13.0693359 L27.8014453,10.5148828 C27.8014453,9.04089844 29.0007422,7.84160156 30.4747266,7.84160156 L39.9796875,7.84160156 C40.1178516,7.84160156 40.2536719,7.85214844 40.3862109,7.87253906 C41.6682422,8.06882813 42.6532031,9.1790625 42.6532031,10.5148828 Z M40.0395703,13.9604297 C40.0395703,14.3862891 39.6931641,14.7326953 39.2673047,14.7326953 L38.3167969,14.7326953 C37.8909375,14.7326953 37.5445313,14.3862891 37.5445313,13.9604297 C37.5445313,13.5345703 37.8909375,13.1881641 38.3167969,13.1881641 L39.2673047,13.1881641 C39.6931641,13.1881641 40.0395703,13.5345703 40.0395703,13.9604297 Z M33.0296484,13.9604297 C33.0296484,14.3862891 32.6832422,14.7326953 32.2573828,14.7326953 L31.306875,14.7326953 C30.8810156,14.7326953 30.5346094,14.3862891 30.5346094,13.9604297 C30.5346094,13.5345703 30.8810156,13.1881641 31.306875,13.1881641 L32.2573828,13.1881641 C32.6832422,13.1881641 33.0296484,13.5345703 33.0296484,13.9604297 Z M28.9160156,14.8515234 C29.2787109,15.82125 30.2121094,16.5148828 31.3069922,16.5148828 L32.2575,16.5148828 C33.3523828,16.5148828 34.2857813,15.82125 34.6484766,14.8515234 L35.9260547,14.8515234 C36.28875,15.82125 37.2221484,16.5148828 38.3170313,16.5148828 L39.2675391,16.5148828 C40.3624219,16.5148828 41.2958203,15.82125 41.6585156,14.8515234 L42.6230859,14.8515234 C42.4339453,17.0094141 41.3196094,18.9057422 39.6781641,20.1385547 C39.673125,20.1423047 39.6682031,20.1462891 39.6630469,20.1500391 C38.9028516,20.7179297 38.0309766,21.1439063 37.0864453,21.388125 C37.0795313,21.3898828 37.0725,21.3914062 37.0655859,21.3932813 C36.9608203,21.42 36.8551172,21.444375 36.7487109,21.4666406 C36.7252734,21.4715625 36.7018359,21.4760156 36.6782813,21.4807031 C36.5878125,21.4986328 36.496875,21.5149219 36.4052344,21.5295703 C36.3732422,21.5347266 36.34125,21.5396484 36.3091406,21.5443359 C36.2247656,21.5566406 36.1398047,21.5673047 36.0544922,21.5767969 C36.0185156,21.5807813 35.9826563,21.5851172 35.9464453,21.5885156 C35.8608984,21.5968359 35.7748828,21.6029297 35.6885156,21.6082031 C35.6589844,21.6099609 35.6295703,21.6124219 35.5999219,21.6139453 C35.5948828,21.6141797 35.5900781,21.6146484 35.5851563,21.6148828 C35.4665625,21.620625 35.3473828,21.6239063 35.2273828,21.6239063 C35.1089063,21.6239063 34.9913672,21.6205078 34.8742969,21.615 C34.8589453,21.6142969 34.8435938,21.6130078 34.8283594,21.6123047 C34.8073828,21.61125 34.7864063,21.6094922 34.7654297,21.6083203 C34.6797656,21.6030469 34.5943359,21.5969531 34.5094922,21.5888672 C34.5090234,21.5888672 34.5085547,21.58875 34.5080859,21.58875 C34.4716406,21.5853516 34.4354297,21.5808984 34.3989844,21.5769141 C34.3146094,21.5675391 34.2305859,21.5571094 34.1472656,21.5448047 C34.1142188,21.5398828 34.0811719,21.5348438 34.0482422,21.5295703 C33.9580078,21.5150391 33.8683594,21.4991016 33.7794141,21.4814063 C33.7545703,21.4764844 33.7297266,21.4717969 33.7048828,21.4665234 C33.6002344,21.4446094 33.4962891,21.4207031 33.3931641,21.3944531 C33.3846094,21.3923438 33.3759375,21.3903516 33.3672656,21.388125 C30.3740625,20.6132813 28.1092969,18.0132422 27.8320312,14.851875 L28.9160156,14.851875 L28.9160156,14.8515234 Z M35.2277344,46.3004297 L31.64625,43.284375 L33.1825781,27.9208594 L37.2727734,27.9208594 L38.8091016,43.2844922 L35.2277344,46.3004297 Z M37.1881641,26.1386719 L33.2674219,26.1386719 L33.2674219,23.1970312 C33.4249219,23.2310156 33.5837109,23.2607813 33.7434375,23.2865625 C33.7476563,23.2872656 33.751875,23.2879688 33.7559766,23.2886719 C33.9261328,23.3158594 34.0974609,23.3384766 34.2698438,23.3561719 C34.2884766,23.3580469 34.3072266,23.3594531 34.3259766,23.3614453 C34.4478516,23.3731641 34.5704297,23.3824219 34.6933594,23.3894531 C34.7281641,23.3914453 34.7629687,23.3935547 34.7978906,23.3953125 C34.9407422,23.401875 35.0837109,23.4062109 35.2276172,23.4062109 C35.3731641,23.4062109 35.5177734,23.4017578 35.6620312,23.3951953 C35.6963672,23.3936719 35.7305859,23.3913281 35.7648047,23.3893359 C35.8866797,23.3824219 36.0079688,23.3731641 36.1287891,23.3615625 C36.1496484,23.3595703 36.1705078,23.3578125 36.1913672,23.3555859 C36.1979297,23.3548828 36.2046094,23.3544141 36.2110547,23.3537109 C36.2130469,23.3534766 36.2149219,23.3533594 36.2170312,23.353125 C36.5450391,23.3184375 36.8688281,23.2661719 37.1880469,23.1972656 L37.1880469,26.1386719 L37.1881641,26.1386719 Z M26.8790625,5.08125 C28.0236328,3.01546875 30.1128516,1.7821875 32.4678516,1.7821875 L38.0913281,1.7821875 C40.3864453,1.7821875 42.4484766,2.96835937 43.6075781,4.95527344 C44.4349219,6.37347656 44.6744531,7.99207031 44.3242969,9.52347656 C44.3187891,9.49957031 44.3123438,9.47601563 44.3064844,9.45234375 C44.3000391,9.42609375 44.2937109,9.39984375 44.2867969,9.37382812 C44.2753125,9.33058594 44.2628906,9.28769531 44.2501172,9.24503906 C44.2432031,9.22183594 44.2366406,9.19851562 44.2294922,9.17542969 C44.2122656,9.12082031 44.19375,9.06667969 44.1745313,9.01300781 C44.1708984,9.00257812 44.1675,8.99191406 44.16375,8.98148438 C44.1405469,8.9184375 44.1157031,8.85597656 44.0898047,8.79421875 C44.0807813,8.77253906 44.0708203,8.75144531 44.0614453,8.73011719 C44.0436328,8.68945312 44.0255859,8.64914063 44.0067188,8.60917969 C43.995,8.58445313 43.9825781,8.56007813 43.9705078,8.53558594 C43.9524609,8.49949219 43.9342969,8.46351563 43.9153125,8.42789063 C43.9018359,8.4028125 43.8882422,8.37785156 43.8744141,8.35300781 C43.8551953,8.3184375 43.8353906,8.28433594 43.8152344,8.25035156 C43.8008203,8.22597656 43.7864063,8.20171875 43.7715234,8.17769531 C43.7499609,8.14300781 43.7279297,8.10890625 43.7054297,8.07480469 C43.6907813,8.05265625 43.6767188,8.03039062 43.6617188,8.00859375 C43.6345313,7.96875 43.6062891,7.92960938 43.5778125,7.89070313 C43.5667969,7.87558594 43.55625,7.86023438 43.5451172,7.84535156 C43.505625,7.79285156 43.4650781,7.74128906 43.4234766,7.69066406 C43.4091797,7.67332031 43.3942969,7.6565625 43.3798828,7.63945313 C43.3511719,7.60558594 43.3223438,7.57183594 43.2926953,7.53878906 C43.2745313,7.51863281 43.2558984,7.49894531 43.2373828,7.47914063 C43.2101953,7.45007813 43.1828906,7.42101563 43.1548828,7.39265625 C43.1349609,7.37238281 43.1146875,7.35234375 43.0942969,7.33253906 C43.0666406,7.30535156 43.0383984,7.27863281 43.0100391,7.25214844 C42.9891797,7.2328125 42.9682031,7.21335938 42.9469922,7.194375 C42.9172266,7.16765625 42.8867578,7.14164063 42.8561719,7.11574219 C42.8356641,7.09839844 42.8152734,7.08082031 42.7945313,7.06382813 C42.7592578,7.035 42.7232813,7.00699219 42.6869531,6.97933594 C42.6700781,6.96632813 42.6535547,6.95296875 42.6364453,6.94019531 C42.5835938,6.90082031 42.5300391,6.86261719 42.4753125,6.82558594 C42.4598438,6.81503906 42.4437891,6.8053125 42.4282031,6.79488281 C42.3877734,6.76828125 42.3473438,6.74191406 42.3060938,6.71648438 C42.2840625,6.70289063 42.2617969,6.69023438 42.2395313,6.67699219 C42.2036719,6.65589844 42.1676953,6.63480469 42.1311328,6.61464844 C42.1069922,6.60128906 42.0827344,6.58839844 42.0582422,6.57539063 C42.0225,6.55640625 41.9865234,6.53800781 41.9500781,6.51996094 C41.9252344,6.50765625 41.9002734,6.49546875 41.8751953,6.48363281 C41.8378125,6.4659375 41.8000781,6.4490625 41.7621094,6.43242188 C41.7377344,6.42175781 41.7134766,6.41085938 41.6888672,6.40054688 C41.6462109,6.38273438 41.6029688,6.36597656 41.5597266,6.34957031 C41.5395703,6.34183594 41.5196484,6.33375 41.499375,6.32625 C41.4357422,6.30304688 41.3715234,6.28125 41.3066016,6.26085938 C41.2955859,6.25746094 41.2842188,6.25453125 41.2730859,6.25113281 C41.2187109,6.23460938 41.1638672,6.21878906 41.1086719,6.204375 C41.0852344,6.19828125 41.0616797,6.19300781 41.0382422,6.18714844 C40.9945313,6.17648438 40.9508203,6.16617188 40.9066406,6.15667969 C40.8802734,6.15105469 40.8536719,6.14601563 40.8270703,6.14085938 C40.7848828,6.13265625 40.7424609,6.12503906 40.6998047,6.11800781 C40.6726172,6.11355469 40.6451953,6.10933594 40.6176563,6.10546875 C40.5742969,6.09914063 40.5308203,6.09386719 40.4871094,6.08882813 C40.4605078,6.08578125 40.4339063,6.08261719 40.4071875,6.08003906 C40.3594922,6.07546875 40.3116797,6.07207031 40.2636328,6.06914063 C40.2405469,6.06773438 40.2178125,6.06574219 40.1946094,6.06457031 C40.1234766,6.06117188 40.0519922,6.0590625 39.9800391,6.0590625 L30.4750781,6.0590625 C30.4040625,6.0590625 30.3333984,6.06105469 30.2630859,6.06445313 C30.2405859,6.06550781 30.2185547,6.06726563 30.1961719,6.06867188 C30.148125,6.07160156 30.1001953,6.07511719 30.0525,6.07957031 C30.0269531,6.08191406 30.0015234,6.08484375 29.9760938,6.08765625 C29.9312109,6.09269531 29.8864453,6.09832031 29.8419141,6.10476563 C29.8168359,6.10828125 29.7917578,6.11191406 29.7669141,6.11589844 C29.7193359,6.12351563 29.6722266,6.1321875 29.6252344,6.14132813 C29.6047266,6.1453125 29.5841016,6.14882813 29.5637109,6.15304688 C29.4966797,6.16710938 29.4301172,6.18210938 29.364375,6.19910156 C29.3594531,6.20027344 29.3547656,6.20179688 29.3498438,6.20308594 C29.2889063,6.21902344 29.2285547,6.23625 29.1685547,6.25464844 C29.1475781,6.26109375 29.1268359,6.26824219 29.1060938,6.27492188 C29.0622656,6.28921875 29.0185547,6.30375 28.9753125,6.31921875 C28.9521094,6.32753906 28.9291406,6.33621094 28.9060547,6.34488281 C28.8648047,6.36046875 28.8239063,6.37664063 28.7834766,6.39339844 C28.7610938,6.40265625 28.7388281,6.41179688 28.7165625,6.42128906 C28.6727344,6.44015625 28.629375,6.46007813 28.58625,6.48035156 C28.5687891,6.48855469 28.5510938,6.49640625 28.53375,6.50484375 C28.4736328,6.53402344 28.4142188,6.564375 28.355625,6.59613281 C28.3482422,6.6 28.3412109,6.60445313 28.3339453,6.6084375 C28.2828516,6.63644531 28.2324609,6.665625 28.1826563,6.69550781 C28.1640234,6.70675781 28.145625,6.71859375 28.1272266,6.73007813 C28.0890234,6.75398438 28.0509375,6.778125 28.0135547,6.80308594 C27.9935156,6.8165625 27.9734766,6.83003906 27.9535547,6.84386719 C27.9175781,6.86871094 27.8820703,6.89402344 27.8467969,6.91992188 C27.8279297,6.93386719 27.8090625,6.94746094 27.7903125,6.96164063 C27.7517578,6.99070313 27.7140234,7.02082031 27.6765234,7.05105469 C27.6624609,7.06242188 27.6481641,7.0734375 27.6343359,7.08492188 C27.5833594,7.12722656 27.5332031,7.17046875 27.4841016,7.215 C27.47625,7.22214844 27.46875,7.22964844 27.4608984,7.23691406 C27.42,7.27441406 27.3799219,7.31273438 27.3405469,7.35164063 C27.3248438,7.36710938 27.3097266,7.38304688 27.294375,7.39863281 C27.2630859,7.43050781 27.2322656,7.46273438 27.2019141,7.49554688 C27.185625,7.51324219 27.1694531,7.53105469 27.1533984,7.54898438 C27.1243359,7.5815625 27.095625,7.61472656 27.0675,7.648125 C27.0525,7.6659375 27.0373828,7.68351563 27.0228516,7.7015625 C26.9915625,7.73976563 26.9613281,7.77867188 26.9313281,7.81804688 C26.9211328,7.83152344 26.9104688,7.84464844 26.9003906,7.85824219 C26.8607813,7.91144531 26.8222266,7.96546875 26.7850781,8.02042969 C26.7776953,8.03121094 26.7707812,8.04246094 26.7635156,8.05335938 C26.7341016,8.09765625 26.7051563,8.14230469 26.6772656,8.18777344 C26.6655469,8.20699219 26.6540625,8.2265625 26.6425781,8.24601563 C26.6198438,8.28421875 26.5975781,8.32277344 26.5758984,8.36167969 C26.5641797,8.38289063 26.5524609,8.40433594 26.5410938,8.42578125 C26.5203516,8.46492188 26.5000781,8.50429688 26.4805078,8.54402344 C26.4703125,8.56464844 26.4598828,8.58539063 26.4498047,8.60625 C26.4277734,8.65253906 26.4066797,8.69941406 26.3862891,8.74652344 C26.3800781,8.7609375 26.3732813,8.77488281 26.3673047,8.78929688 C26.3411719,8.85117188 26.3164453,8.91398438 26.2930078,8.97726563 C26.2878516,8.99109375 26.2833984,9.00515625 26.2783594,9.01910156 C26.2606641,9.06867188 26.2435547,9.11859375 26.2275,9.16886719 C26.2204688,9.19089844 26.2140234,9.21304688 26.2074609,9.23519531 C26.1996094,9.26121094 26.1911719,9.28699219 26.1837891,9.31324219 C25.9107422,7.8975 26.1406641,6.41414062 26.8790625,5.08125 Z" id="Shape" fill="#000000"></path>
                <path d="M17.6435156,18.8630859 L17.6435156,13.6633594 L22.3959375,13.6633594 L22.3959375,0 L0.0594140625,0 L0.0594140625,13.6633594 L11.5525781,13.6633594 L17.6435156,18.8630859 Z M1.84160156,1.7821875 L20.6138672,1.7821875 L20.6138672,11.8811719 L15.8613281,11.8811719 L15.8613281,14.9983594 L12.2097656,11.8811719 L1.84160156,11.8811719 L1.84160156,1.7821875 Z" id="Shape" fill="#000000"></path>
                <rect id="Rectangle-path" fill="#000000" x="4.93066406" y="4.15839844" width="12.5940234" height="1.7821875"></rect>
                <rect id="Rectangle-path" fill="#000000" x="8.49503906" y="7.84160156" width="1.7821875" height="1.7821875"></rect>
                <rect id="Rectangle-path" fill="#000000" x="12.0594141" y="7.84160156" width="1.7821875" height="1.7821875"></rect>
                <rect id="Rectangle-path" fill="#000000" x="4.93066406" y="7.84160156" width="1.7821875" height="1.7821875"></rect>
                <rect id="Rectangle-path" fill="#000000" x="15.6237891" y="7.84160156" width="1.7821875" height="1.7821875"></rect>
            </g>
        </g>
    </g>
</svg>