<?xml version="1.0" encoding="UTF-8"?>
<svg width="51px" height="50px" viewBox="0 0 51 50" version="1.1" xmlns="http://www.w3.org/2000/svg" xmlns:xlink="http://www.w3.org/1999/xlink">
    <!-- Generator: Sketch 49.3 (51167) - http://www.bohemiancoding.com/sketch -->
    <title>earth</title>
    <desc>Created with Sketch.</desc>
    <defs></defs>
    <g id="Main-Page" stroke="none" stroke-width="1" fill="none" fill-rule="evenodd">
        <g id="Контент-2--RU-" transform="translate(-494.000000, -434.000000)" fill-rule="nonzero">
            <g id="Group-4" transform="translate(494.000000, 426.000000)">
                <g id="earth" transform="translate(0.000000, 8.000000)">
                    <ellipse id="Oval" fill="#87DCFF" cx="25.8695006" cy="25.4310345" rx="24.9925684" ry="24.5689655"></ellipse>
                    <path d="M33.577508,41.1989648 C19.9776113,41.1989648 8.95275965,30.3609515 8.95275965,16.9915325 C8.95275965,12.3409779 10.2894326,7.99864182 12.6017807,4.31034483 C5.56772382,8.57202189 0.876932224,16.2116343 0.876932224,24.9304987 C0.876932224,38.2998203 11.9017838,49.137931 25.5016806,49.137931 C34.370851,49.137931 42.142263,44.5266344 46.4774078,37.6116863 C42.7255277,39.884847 38.3082343,41.1989648 33.577508,41.1989648 Z" id="Shape" fill="#00C3FF"></path>
                    <path d="M4.61460661,37.9310345 L5.25241868,31.861162 C5.30336272,31.3847196 5.14023143,30.9105891 4.81084233,30.5777729 L0.876932224,26.7241379 C1.21147091,30.8461451 2.53941845,34.6703998 4.61460661,37.9310345 Z" id="Shape" fill="#AFD755"></path>
                    <path d="M26.0360569,0.862068966 C25.9748164,0.862068966 25.9146747,0.866132957 25.8536339,0.866520004 L24.5010463,6.42093218 L19.1960936,6.42093218 C18.7944832,6.42093218 18.4553123,6.70870149 18.4022638,7.09410337 L17.960992,10.2992381 L15.5035763,10.4238672 C15.0904771,10.4447677 14.761796,10.7671777 14.7454119,11.1675776 L14.6601946,13.2361494 C14.6410132,13.7018635 15.047319,14.0786536 15.5269536,14.0399489 L17.8276214,13.8542632 L19.729576,11.2849496 L25.3354367,11.0910391 L26.5452629,12.8644877 C26.9280914,13.4257056 27.6405002,13.6839626 28.3098508,13.5041793 L30.3741478,12.9493477 L30.8805565,11.6480963 C31.0742685,11.1503541 31.5177382,10.7834337 32.0556163,10.6759314 L33.0580437,10.4755379 C33.7325892,10.3407489 34.3715692,10.8232995 34.4008408,11.4898909 C34.4257167,12.0573015 33.9937358,12.5469158 33.411301,12.6116493 L30.3741478,12.9491542 L30.3406803,13.9510249 L32.7932007,15.1629652 L31.9423263,16.3749056 L24.4345109,16.3749056 L17.8276214,13.8540696 L11.9148584,19.1471284 C11.4866738,19.5304016 11.307148,20.108843 11.4466127,20.6571916 L12.538753,24.9540887 C12.7072895,25.6172934 13.3038107,26.0956833 14.0080274,26.132356 L20.0590563,26.4475088 C21.2496011,26.5094363 22.2130663,27.407772 22.3225601,28.5576881 L22.8328649,33.9241891 L24.8634947,39.0681381 C25.2079604,39.9408319 26.0727214,40.5172414 27.0374853,40.5172414 C27.617023,40.5172414 28.1757808,40.307849 28.604365,39.9298978 L34.0094206,35.1636097 C34.4206216,34.8011404 34.6890612,34.3116229 34.7693832,33.7787562 L35.3459238,29.9490247 L39.2527332,25.7788855 C39.6811175,25.3216864 39.4130776,24.5865877 38.7834885,24.4912774 L38.0524977,24.3806788 L38.1822718,24.1316142 L43.6545622,20.5764924 L42.3865925,18.8959351 L44.6419042,18.6338076 C45.294571,18.5579464 45.9287556,18.8760989 46.241652,19.4361557 L47.8390022,22.2970122 L48.9538205,24.2933997 C49.1505296,24.6458059 49.4803096,24.9108362 49.8743273,25.0329495 L50.8491815,25.4035468 C50.8526781,25.2378908 50.862069,25.0736861 50.862069,24.907256 C50.8619691,11.627486 39.7470536,0.862068966 26.0360569,0.862068966 Z" id="Shape" fill="#BEE86E"></path>
                    <path d="M43.4135574,7.32226562 C38.6102707,2.60048828 32.2239022,0 25.4310345,0 C18.6381668,0 12.2517982,2.60048828 7.44851158,7.32226562 C2.64532429,12.0442383 0,18.3222656 0,25 C0,31.6777344 2.64532429,37.9557617 7.44851158,42.6777344 C12.2517982,47.3995117 18.6381668,50 25.4310345,50 C32.2239022,50 38.6102707,47.3995117 43.4135574,42.6777344 C48.2167447,37.9557617 50.862069,31.6777344 50.862069,25 C50.862069,18.3222656 48.2167447,12.0442383 43.4135574,7.32226562 Z M4.82812163,32.2080078 L4.37165443,36.2146484 C3.11420898,33.9401367 2.25114325,31.4749023 1.81682887,28.9009766 L4.57420865,31.515625 C4.76215989,31.6939453 4.85712891,31.9527344 4.82812163,32.2080078 Z M42.3598582,41.6418945 C37.8380018,46.0871094 31.8259463,48.5351562 25.4310345,48.5351562 C19.0361227,48.5351562 13.0240672,46.0871094 8.50221074,41.6418945 C7.43132577,40.5891602 6.4759732,39.453418 5.63903388,38.2508789 L6.30888335,32.3710937 C6.38915005,31.6670898 6.12728987,30.953125 5.60863584,30.4614258 L1.54612742,26.609082 C1.50976899,26.0757812 1.49009968,25.5394531 1.49009968,25 C1.49009968,18.7134766 3.98035426,12.8033203 8.50221074,8.35810547 C11.326347,5.58183594 14.7318208,3.58466797 18.4487254,2.47626953 L17.9653371,3.73554687 C17.8200027,4.11396484 18.0143117,4.53662109 18.3992541,4.67939453 C18.4858786,4.71152344 18.5748872,4.72675781 18.662207,4.72675781 C18.9632072,4.72675781 19.2468228,4.54599609 19.359375,4.25273437 L20.2155863,2.02226562 C21.4559452,1.75273437 22.7250135,1.58027344 24.0132543,1.50673828 L22.9622373,5.53300781 L22.6763369,5.61005859 L18.6296235,5.61005859 C17.8603347,5.61005859 17.2034988,6.17539062 17.1016753,6.92509766 L16.7447468,9.55703125 L14.9189773,9.65097656 C14.1187938,9.6921875 13.4913625,10.3167969 13.4594743,11.1038086 L13.3748367,13.1916016 C13.3572535,13.625293 13.5301051,14.0460937 13.8489864,14.3462891 C14.1678677,14.6463867 14.6019834,14.7980469 15.0430529,14.7618164 L15.1731883,14.7511719 L13.6620286,16.1241211 C13.3598363,16.3987305 13.3412598,16.8621094 13.6206038,17.1591797 C13.7675276,17.315332 13.9673996,17.3944336 14.1679671,17.3944336 C14.3487658,17.3944336 14.5301606,17.3300781 14.6735082,17.1999023 L17.4309873,14.6945312 L23.5653303,17.0702148 C23.6523522,17.1039062 23.744937,17.1211914 23.8384159,17.1211914 L31.3039147,17.1211914 C31.5601125,17.1211914 31.7859122,16.994043 31.9200212,16.8005859 L31.9209153,16.7994141 C31.921412,16.7987305 31.9219087,16.7979492 31.9224054,16.7972656 L32.7660998,15.5774414 C32.8863012,15.4036133 32.9248451,15.1873047 32.8716982,14.9836914 C32.8186507,14.7800781 32.6791773,14.6086914 32.4886433,14.5131836 L30.6100249,13.5708984 L32.8495454,13.3182617 C33.8123485,13.209668 34.5342521,12.3791016 34.4929267,11.4273437 C34.4697804,10.8916992 34.2098077,10.3954102 33.779765,10.0657227 C33.3496228,9.7359375 32.7965972,9.60898437 32.2627441,9.71748047 L31.2660661,9.91962891 C30.4766113,10.0797852 29.8354711,10.6180664 29.5508621,11.3597656 L29.1808206,12.325 L27.4927364,12.7854492 C27.1373973,12.8821289 26.7621902,12.7442383 26.5590399,12.4418945 L25.3561321,10.6520508 C25.2129832,10.4390625 24.9658254,10.3135742 24.7079388,10.3238281 L19.1336746,10.5195312 C18.9030071,10.5276367 18.6892275,10.640332 18.5547212,10.824707 L16.8640541,13.1427734 L14.919474,13.3020508 C14.9131162,13.3027344 14.8965265,13.3040039 14.8798374,13.2882812 C14.8630489,13.2725586 14.8637443,13.2560547 14.8640423,13.2498047 L14.94868,11.1621094 C14.9497727,11.1359375 14.9706341,11.1151367 14.9971579,11.1137695 L17.4407227,10.9879883 C17.7989426,10.9695312 18.0928896,10.702832 18.1403741,10.3533203 L18.5790595,7.11855469 C18.582437,7.09355469 18.6042918,7.07470703 18.6299215,7.07470703 L22.7769683,7.07470703 C22.8435261,7.07470703 22.9097858,7.06591797 22.9739595,7.04863281 L27.0883233,5.93964844 C27.3213749,5.87685547 27.5089288,5.70683594 27.5914803,5.48359375 L28.1223532,4.0484375 C28.2629192,3.66826172 28.0634446,3.24804687 27.676714,3.10986328 C27.2901822,2.97177734 26.8626229,3.16777344 26.7219575,3.54785156 L26.3227101,4.62714844 L24.6173407,5.08681641 L25.5624613,1.46611328 C31.9082991,1.49941406 37.8691945,3.94306641 42.3601562,8.3578125 C46.7451222,12.668457 49.2193831,18.3567383 49.3652142,24.4297852 L49.3623333,24.4289062 C49.1528253,24.3629883 48.9796757,24.221875 48.8750707,24.0316406 L47.7665359,22.0167969 C47.5708361,21.6610352 47.1188392,21.5283203 46.756745,21.7209961 C46.3948495,21.9133789 46.2601445,22.3578125 46.4559436,22.7136719 L47.5644784,24.7285156 C47.853061,25.2532227 48.3302903,25.6422852 48.9162968,25.8265625 L49.3512072,25.9580078 C49.1110032,31.8851562 46.6510473,37.4233398 42.3598582,41.6418945 Z M23.5398,14.8217773 C23.9051724,14.8217773 24.2089541,14.5633789 24.272631,14.2222656 C24.3274667,14.0462891 24.5833664,13.3956055 24.8954927,12.6243164 L25.3156014,13.2495117 C25.8761769,14.0834961 26.9112995,14.4643555 27.8910897,14.1970703 L28.9671404,13.9035156 L28.9666437,13.9189453 C28.9573057,14.2025391 29.1155543,14.4660156 29.3727455,14.5949219 L31.0588429,15.440625 L30.9096343,15.6564453 L23.9799754,15.6564453 L18.4314403,13.5077148 L19.5523926,11.9707031 L23.6130135,11.828125 C22.7953462,13.8308594 22.7947501,13.9430664 22.7947501,14.0892578 C22.7947501,14.4938477 23.1282344,14.8217773 23.5398,14.8217773 Z M30.8720838,12.0669922 L30.9449993,11.8765625 C31.0481142,11.6076172 31.2806691,11.4124023 31.5669669,11.3542969 L32.5636449,11.1521484 C32.5905661,11.1466797 32.6159971,11.1443359 32.6400374,11.1443359 C32.7453378,11.1443359 32.8226243,11.1897461 32.8632543,11.2208984 C32.913123,11.2591797 32.9977606,11.3449219 33.0040191,11.4897461 C33.0121649,11.6776367 32.8696121,11.8416016 32.6794754,11.8629883 L30.8720838,12.0669922 Z" id="Shape" fill="#000000"></path>
                    <path d="M38.324578,33.7720603 C38.0157715,33.5426063 37.5554327,33.577993 37.2961637,33.8511853 L35.2482887,36.0079668 C34.9890197,36.2809869 35.0291169,36.6883216 35.3377288,36.9176895 C35.4745652,37.0193725 35.6410852,37.0689655 35.8068266,37.0689655 C36.015001,37.0689655 36.2218128,36.9906154 36.3661431,36.8385644 L38.4140181,34.6817829 C38.6732871,34.4087628 38.6331899,34.0014282 38.324578,33.7720603 Z" id="Shape" fill="#000000"></path>
                    <path d="M44.0699455,18.1808071 L40.4556408,18.6122065 L38.1945873,16.5699698 C37.8656906,16.2729897 37.3467911,16.3265779 37.0879839,16.7053871 C36.87386,17.018733 36.9437518,17.4487353 37.2247029,17.7025055 L39.7152031,19.9520096 C39.8731763,20.0946119 40.083346,20.1622706 40.2945042,20.1377219 L41.5827076,19.987735 L42.127211,20.7399647 L37.4091698,23.9337974 C37.2703748,24.0277014 37.0821514,23.9874853 36.9930814,23.8447832 L33.8968853,18.8856357 C33.6744574,18.5291798 33.2035035,18.4270929 32.8550332,18.6637988 C32.5183268,18.8925213 32.4424047,19.3630391 32.6586046,19.7097154 L36.0160793,25.0926782 C36.1302589,25.2756961 36.317296,25.3999367 36.5289485,25.4333669 L38.2464871,25.7043014 C38.2592397,25.7062972 38.2766385,25.7089916 38.2867219,25.7380309 C38.2968053,25.7670703 38.2850413,25.7802428 38.2764408,25.7898228 L34.4104466,30.0906446 C34.3112932,30.2008146 34.2471351,30.3383276 34.225782,30.4856201 L33.6551804,34.4353748 C33.6007103,34.8124875 33.4170343,35.161459 33.1378626,35.4181232 L27.7893124,40.3337616 C27.5012436,40.5986087 27.1279602,40.7445041 26.7380689,40.7445041 C26.0952029,40.7445041 25.5089819,40.3372543 25.2795351,39.7311196 L23.3065505,34.5222933 L22.8108823,29.090233 C22.6699125,27.5459568 21.4068187,26.3186189 19.8725606,26.2352929 L13.8848022,25.9103712 C13.51142,25.8901135 13.2004164,25.6301561 13.1110498,25.2637211 L12.0304457,20.832272 C11.957094,20.5313003 12.0515023,20.2138629 12.2769947,20.0035021 L12.8546152,19.4645272 C13.1527674,19.1864078 13.2003175,18.7118984 12.9337006,18.4027438 C12.6577912,18.0829114 12.1769516,18.0583627 11.870792,18.3440662 L11.2705333,18.9040972 C10.6487238,19.4841862 10.388236,20.3601575 10.5906948,21.1899254 L11.6712989,25.6213745 C11.9178478,26.632364 12.7754308,27.3490678 13.8053213,27.405051 L19.7929809,27.7299727 C20.5977744,27.7736814 21.2604117,28.4175373 21.3342578,29.2275464 L21.8392185,34.7620927 C21.8454465,34.8301507 21.8608681,34.8969113 21.8849892,34.960778 L23.8943532,40.2657036 C24.3418781,41.4474367 25.4847619,42.2413793 26.7380689,42.2413793 C27.4980802,42.2413793 28.2259631,41.956973 28.7875687,41.4406509 L34.1361189,36.5251123 C34.6684629,36.0359335 35.0188115,35.3705226 35.1226112,34.6515235 L35.6605901,30.9276972 L39.3746413,26.7959225 C39.7541527,26.3737039 39.8730775,25.7774487 39.6849529,25.2398709 C39.5857007,24.9560633 39.4091424,24.7144677 39.1830568,24.5360402 L43.5796156,21.5591546 C43.6679936,21.4993794 43.7473756,21.4249348 43.804416,21.3343239 C43.9753395,21.0624914 43.9553704,20.728788 43.7798007,20.4861944 L43.2724674,19.7853575 L44.2465038,19.6674037 C44.5931947,19.6252916 44.9231788,19.7983304 45.0888629,20.1076846 C45.2230116,20.3581617 45.4781611,20.5002651 45.7417134,20.5002651 C45.8898009,20.5002651 46.0406565,20.4553588 46.1740143,20.359459 C46.4832385,20.1370234 46.5641034,19.7052248 46.3795377,19.3703239 C45.918074,18.5325727 45.0148191,18.0666454 44.0699455,18.1808071 Z" id="Shape" fill="#000000"></path>
                    <path d="M37.9443213,13.506425 C38.1047624,13.69274 38.3663367,13.7931034 38.6327795,13.7931034 C38.7925567,13.7931034 38.954215,13.7568997 39.0966203,13.6813666 C39.4763677,13.4800319 39.5761731,13.0752788 39.3196887,12.7773138 L37.4718499,10.6314799 C37.2151442,10.3335149 36.6992984,10.2552036 36.319551,10.4564515 C35.9398035,10.6577862 35.8399981,11.0625393 36.0964825,11.3605043 L37.9443213,13.506425 Z" id="Shape" fill="#000000"></path>
                </g>
            </g>
        </g>
    </g>
</svg>