<?xml version="1.0" encoding="UTF-8"?>
<svg width="51px" height="60px" viewBox="0 0 51 60" version="1.1" xmlns="http://www.w3.org/2000/svg" xmlns:xlink="http://www.w3.org/1999/xlink">
    <!-- Generator: Sketch 49.3 (51167) - http://www.bohemiancoding.com/sketch -->
    <title>invoice</title>
    <desc>Created with Sketch.</desc>
    <defs></defs>
    <g id="Main-Page" stroke="none" stroke-width="1" fill="none" fill-rule="evenodd">
        <g id="Контент-2--RU-" transform="translate(-65.000000, -266.000000)" fill-rule="nonzero">
            <g id="Group-2" transform="translate(65.000000, 258.000000)">
                <g id="invoice" transform="translate(0.000000, 8.000000)">
                    <path d="M43.065116,59 L1.9347674,59 C1.41852298,59 1,58.581163 1,58.0645312 L1,1.93546881 C1,1.41883702 1.41852298,1 1.9347674,1 L32.9431337,1 C33.4389709,1 33.9145175,1.19710664 34.2650552,1.54802414 L43.4523868,10.7418994 C43.8030412,11.0928169 44,11.5687203 44,12.0649296 L44,58.0645312 C44,58.581163 43.581477,59 43.065116,59 Z" id="Shape" fill="#EDEBED"></path>
                    <g id="Group" transform="translate(3.000000, 1.000000)" fill="#DBD9DC">
                        <path d="M31.4208121,10.3679428 C30.8962254,10.3679428 30.4709393,9.94833333 30.4709393,9.43074876 L30.4709393,0.232778607 C30.2255318,0.122293532 29.9591503,0.0586915423 29.6841185,0.0586915423 L27.6212023,0.0586915423 L27.6212023,9.43074876 C27.6212023,11.501204 29.3223468,13.1796418 31.4208121,13.1796418 L40.919659,13.1796418 L40.919659,11.1439104 C40.919659,10.8727836 40.855315,10.6100746 40.7433353,10.3680597 L31.4208121,10.3679428 Z" id="Shape"></path>
                        <path d="M40.9197775,29.1121741 L1.97428035,29.1121741 C0.925106936,29.1121741 0.0745346821,29.951393 0.0745346821,30.9865622 L0.0745346821,42.2331244 C0.0745346821,44.8211642 2.20096532,46.9192114 4.82401734,46.9192114 L40.9197775,46.9192114 L40.9197775,29.1121741 Z" id="Shape"></path>
                    </g>
                    <path d="M48.1304601,45 L8.86953987,45 C7.83704823,45 7,44.1543004 7,43.1111373 L7,29.8888627 C7,28.8456996 7.83704823,28 8.86953987,28 L48.1304601,28 C49.1629518,28 50,28.8456996 50,29.8888627 L50,43.1111373 C50,44.1543004 49.1629518,45 48.1304601,45 Z" id="Shape" fill="#FFD164"></path>
                    <path d="M16.3478159,42.1667059 C12.7339786,42.1667059 9.8043098,39.2067572 9.8043098,35.5555686 L9.8043098,28 L8.86953987,28 C7.83704823,28 7,28.8456996 7,29.8888627 L7,43.1111373 C7,44.1543004 7.83704823,45 8.86953987,45 L48.1304601,45 C49.1629518,45 50,44.1543004 50,43.1111373 L50,42.1667059 L16.3478159,42.1667059 Z" id="Shape" fill="#FFC350"></path>
                    <path d="M44,14 C43.4477333,14 43,14.3880476 43,14.8669518 L43,24.1330482 C43,24.6119524 43.4477333,25 44,25 C44.5522667,25 45,24.6119524 45,24.1330482 L45,14.8669518 C45,14.3881632 44.5522667,14 44,14 Z" id="Shape" fill="#000000"></path>
                    <path d="M44.1204871,47.9093205 C43.6347703,47.9093205 43.2409902,48.3027182 43.2409902,48.788225 L43.2409902,58.1817223 C43.2409902,58.2151207 43.2139017,58.2423081 43.1804809,58.2423081 L1.81950308,58.2423081 C1.7860822,58.2423081 1.7589937,58.2152379 1.7589937,58.1817223 L1.7589937,1.81862926 C1.7589937,1.78523089 1.7860822,1.75804344 1.81950308,1.75804344 L32.9006872,1.75804344 L32.9006872,10.2729877 C32.9006872,11.275642 33.7168602,12.0913826 34.7201902,12.0913826 L44.1204871,12.0913826 C44.4762729,12.0913826 44.7968788,11.8772815 44.9330249,11.5488056 C45.069171,11.2203296 44.9938861,10.8424007 44.74235,10.5909168 L34.4020469,0.257577622 C34.3946591,0.250194824 34.3871541,0.2430464 34.3795318,0.235897977 C34.3794145,0.235663602 34.37918,0.235546415 34.3790627,0.235429228 C34.3787109,0.234960479 34.3782419,0.234608917 34.3778901,0.234257355 C34.3776555,0.233905793 34.3771865,0.233554231 34.3769519,0.233319857 C34.3767174,0.233085482 34.3764829,0.232851108 34.3762483,0.232616733 C34.3757793,0.232147984 34.3751929,0.231679235 34.3746066,0.231093299 C34.3746066,0.231093299 34.3744893,0.231093299 34.3744893,0.230976111 C34.2192288,0.0887107642 34.012723,0.00140624725 33.7856955,0 C33.7839365,0.000117187271 33.7821775,0.000117187271 33.7803013,0 L1.81950308,0 C0.816173075,0 0,0.815740594 0,1.81839489 L0,58.1816051 C0,59.1842594 0.816173075,60 1.81950308,60 L43.1804809,60 C44.1838109,60 44.9999839,59.1842594 44.9999839,58.1816051 L44.9999839,48.7881078 C44.9999839,48.3028353 44.6062039,47.9093205 44.1204871,47.9093205 Z M34.6596809,3.00093164 L41.9971472,10.3334564 L34.7201902,10.3334564 C34.6867694,10.3334564 34.6596809,10.3063861 34.6596809,10.2728706 L34.6596809,3.00093164 Z" id="Shape" fill="#000000"></path>
                    <path d="M48.2404897,27 L8.7595103,27 C7.23786294,27 6,28.2592316 6,29.8068805 L6,43.1931195 C6,44.7408877 7.23798021,46 8.7595103,46 L48.2404897,46 C49.7621371,46 51,44.7407684 51,43.1931195 L51,29.8068805 C51,28.2591123 49.7621371,27 48.2404897,27 Z M49.2410057,43.1931195 C49.2410057,43.7543286 48.7921103,44.2108105 48.2404897,44.2108105 L8.7595103,44.2108105 C8.20777241,44.2108105 7.75899432,43.7543286 7.75899432,43.1931195 L7.75899432,29.8068805 C7.75899432,29.2456714 8.20788968,28.7891895 8.7595103,28.7891895 L48.2404897,28.7891895 C48.7922276,28.7891895 49.2410057,29.2456714 49.2410057,29.8068805 L49.2410057,43.1931195 Z" id="Shape" fill="#000000"></path>
                    <path d="M10,32 C9.44773333,32 9,32.3818196 9,32.8530374 L9,40.1469626 C9,40.6181804 9.44773333,41 10,41 C10.5522667,41 11,40.6181804 11,40.1469626 L11,32.8530374 C11,32.3818196 10.5522667,32 10,32 Z" id="Shape" fill="#000000"></path>
                    <path d="M34,32 C33.4477333,32 33,32.3818196 33,32.8530374 L33,40.1469626 C33,40.6181804 33.4477333,41 34,41 C34.5522667,41 35,40.6181804 35,40.1469626 L35,32.8530374 C35,32.3818196 34.5522667,32 34,32 Z" id="Shape" fill="#000000"></path>
                    <path d="M18.0438552,32.0002621 C17.5158083,32.0002621 17.0877104,32.3820657 17.0877104,32.853264 L17.0877104,36.533455 L14.8113208,32.4716878 C14.6130801,32.1179764 14.1680265,31.9317945 13.7364865,32.0230088 C13.3049465,32.1139957 13,32.4575848 13,32.853264 L13,40.1468844 C13,40.6180827 13.4280979,40.9998863 13.9561448,40.9998863 C14.4841917,40.9998863 14.9122896,40.6180827 14.9122896,40.1468844 L14.9122896,36.4666934 L17.1886792,40.5284606 C17.3532636,40.8221207 17.6879143,41 18.0436002,41 C18.1163947,41 18.1902091,40.9926073 18.2635135,40.9771396 C18.6950535,40.8861527 19,40.5425636 19,40.1468844 L19,32.853264 C19,32.3820657 18.5719021,32.0002621 18.0438552,32.0002621 Z" id="Shape" fill="#000000"></path>
                    <path d="M25.2755937,32.0255772 C24.7641707,31.9120691 24.2443345,32.1892428 24.1162238,32.6462325 L22.99994,36.6298226 L21.8837836,32.6462325 C21.755673,32.189129 21.2363467,31.9116141 20.7244138,32.0255772 C20.2120986,32.1398815 19.9006812,32.6030129 20.0287919,33.0601164 L22.0724442,40.3538679 C22.1787569,40.7336312 22.5611769,41 22.99994,41 C23.4387032,41 23.8209956,40.7335174 23.9274359,40.3538679 L25.9712156,33.0601164 C26.0993262,32.6031267 25.7877815,32.1398815 25.2755937,32.0255772 Z" id="Shape" fill="#000000"></path>
                    <path d="M28.9999363,32 C27.3457134,32 26,33.2007507 26,34.6765241 L26,38.3234759 C26,39.7993631 27.3458409,41 29.0000637,41 C30.6542866,41 32,39.7992493 32,38.3234759 L32,34.6765241 C32,33.2006369 30.6541591,32 28.9999363,32 Z M30.087751,38.3235896 C30.087751,38.8587352 29.599745,39.2940173 29.0000637,39.2940173 C28.400255,39.2940173 27.9123765,38.8587352 27.9123765,38.3235896 L27.9123765,34.6766379 C27.9123765,34.1414923 28.4003824,33.7062102 29.0001912,33.7062102 C29.6,33.7062102 30.0878785,34.1414923 30.0878785,34.6766379 L30.087751,38.3235896 Z" id="Shape" fill="#000000"></path>
                    <path d="M40.5830575,38.496929 C40.184134,38.2612602 39.673347,38.400364 39.4423854,38.808121 C39.2727539,39.1078253 38.9574217,39.2939035 38.6192716,39.2939035 C38.0955731,39.2939035 37.669602,38.8586215 37.669602,38.3234759 L37.669602,34.6765241 C37.669602,34.1413785 38.0956844,33.7060965 38.6192716,33.7060965 C38.9571991,33.7060965 39.2726426,33.8921747 39.4422741,34.1915378 C39.673347,34.5994086 40.184134,34.738626 40.5830575,34.5022748 C40.9819811,34.2662648 41.1182206,33.744313 40.8871477,33.3366697 C40.4199931,32.5121702 39.5510209,32 38.6192716,32 C37.1749546,32 36,33.2007507 36,34.6765241 L36,38.3234759 C36,39.7993631 37.1750659,41 38.6192716,41 C39.5513548,41 40.4205496,40.4874886 40.8875929,39.6624204 C41.1185545,39.2546633 40.9822037,38.7328253 40.5830575,38.496929 Z" id="Shape" fill="#000000"></path>
                    <path d="M46.2317148,33.7060749 C46.6560131,33.7060749 47,33.3242553 47,32.8530374 C47,32.3818196 46.6560131,32 46.2317148,32 L43.7682852,32 C43.3439869,32 43,32.3818196 43,32.8530374 L43,40.1469626 C43,40.6181804 43.3439869,41 43.7682852,41 L46.2317148,41 C46.6560131,41 47,40.6181804 47,40.1469626 C47,39.6757447 46.6560131,39.2939251 46.2317148,39.2939251 L44.5365704,39.2939251 L44.5365704,37.3530943 L46.2317148,37.3530943 C46.6560131,37.3530943 47,36.9712748 47,36.5000569 C47,36.028839 46.6560131,35.6470194 46.2317148,35.6470194 L44.5365704,35.6470194 L44.5365704,33.7061886 L46.2317148,33.7061886 L46.2317148,33.7060749 Z" id="Shape" fill="#000000"></path>
                </g>
            </g>
        </g>
    </g>
</svg>