<?xml version="1.0" encoding="UTF-8"?>
<svg width="84px" height="60px" viewBox="0 0 84 60" version="1.1" xmlns="http://www.w3.org/2000/svg" xmlns:xlink="http://www.w3.org/1999/xlink">
    <!-- Generator: Sketch 49.3 (51167) - http://www.bohemiancoding.com/sketch -->
    <title>laptop</title>
    <desc>Created with Sketch.</desc>
    <defs></defs>
    <g id="Main-Page" stroke="none" stroke-width="1" fill="none" fill-rule="evenodd">
        <g id="Контент-1--RU-" transform="translate(-118.000000, -2719.000000)" fill-rule="nonzero">
            <g id="laptop" transform="translate(118.000000, 2719.000000)">
                <path d="M75.0425721,57.2035092 L8.95742794,57.2035092 L8.95742794,3.97092721 C8.95742794,2.5070441 10.1455994,1.31980016 11.6106262,1.31980016 L72.3893738,1.31980016 C73.8544006,1.31980016 75.0425721,2.5070441 75.0425721,3.97092721 L75.0425721,57.2035092 Z" id="Shape" fill="#97BFFD"></path>
                <path d="M69.6528625,8.70709525 L69.6528625,43.9779713 C69.6528625,45.2106813 68.651825,46.2109375 67.4162293,46.2109375 L16.5837707,46.2109375 C15.348175,46.2109375 14.3471375,45.2106813 14.3471375,43.9779713 L14.3471375,8.70709525 C14.3471375,7.4724641 15.348175,6.47348869 16.5837707,6.47348869 L67.4162293,6.47348869 C68.651825,6.47348869 69.6528625,7.4724641 69.6528625,8.70709525 Z" id="Shape" fill="#D2D2D7"></path>
                <path d="M69.6528625,8.70709525 L69.6528625,43.9779713 C69.6528625,45.2106813 68.651825,46.2109375 67.4162293,46.2109375 L21.5396117,46.2109375 C20.304016,46.2109375 19.3029785,45.2106813 19.3029785,43.9779713 L19.3029785,8.70709525 C19.3029785,7.4724641 20.304016,6.47348869 21.5396117,6.47348869 L67.4162293,6.47348869 C68.651825,6.47348869 69.6528625,7.4724641 69.6528625,8.70709525 Z" id="Shape" fill="#EBEBF0"></path>
                <path d="M82.7612,54.716957 C82.7612,56.8711577 81.0135498,58.616163 78.8595887,58.616163 L5.14041134,58.616163 C4.06311035,58.616163 3.08898926,58.1807121 2.38146973,57.4737449 C1.67459102,56.7693392 1.23880001,55.795338 1.23880001,54.716957 C1.23880001,52.6837859 2.79995723,51.0130636 4.78857422,50.8363216 C4.90457149,50.8247951 5.02185059,50.8196721 5.14041134,50.8196721 L78.8595887,50.8196721 C79.9362488,50.8196721 80.9110107,51.2557633 81.6178894,51.9620902 C82.2805481,52.6223105 82.7054443,53.5169057 82.756073,54.5126793 C82.7599182,54.579918 82.7612,54.647797 82.7612,54.716957 Z" id="Shape" fill="#2476ED"></path>
                <path d="M82.756073,54.5126793 C82.6407166,54.5242059 82.5234375,54.5293289 82.4042359,54.5293289 L8.68569942,54.5293289 C7.60839844,54.5293289 6.63363652,54.0932377 5.92675781,53.3881916 C5.26474003,52.7266905 4.83984375,51.8320952 4.78857422,50.8363216 C4.90457149,50.8247951 5.02185059,50.8196721 5.14041134,50.8196721 L78.8595887,50.8196721 C79.9362488,50.8196721 80.9110107,51.2557633 81.6178894,51.9620902 C82.2805481,52.6223105 82.7054443,53.5169057 82.756073,54.5126793 Z" id="Shape" fill="#5596FB"></path>
                <path d="M60.4724121,41.8794826 C59.85141,42.1586834 59.2156678,42.3636015 58.5741578,42.4967982 C54.434784,43.3638575 50.1063537,41.2768954 48.2991027,37.2624231 C46.2143555,32.6293544 48.2824402,27.1836577 52.9197693,25.0998975 C54.7616272,24.2712603 56.7322998,24.0983607 58.567749,24.4813013 C61.3548889,25.0621157 63.8363342,26.9223872 65.0930785,29.7156762 C67.177826,34.3493852 65.1097412,39.795082 60.4724121,41.8794826 Z" id="Shape" fill="#1ED688"></path>
                <path d="M60.4724121,41.8794826 C59.85141,42.1586834 59.2156678,42.3636015 58.5741578,42.4967982 C55.7857361,41.9191854 53.3042908,40.0569928 52.0475465,37.2624231 C49.9608765,32.6293544 52.0289611,27.1836577 56.6662902,25.0998975 C57.289215,24.8194161 57.9268799,24.6151384 58.567749,24.4813013 C61.3548889,25.0621157 63.8363342,26.9223872 65.0930785,29.7156762 C67.177826,34.3493852 65.1097412,39.795082 60.4724121,41.8794826 Z" id="Shape" fill="#35E298"></path>
                <path d="M13.1089783,8.70709525 L13.1089783,43.977331 C13.1089783,45.8913934 14.6675721,47.4487705 16.5831299,47.4487705 L67.4168701,47.4487705 C69.3324279,47.4487705 70.8910217,45.8913934 70.8910217,43.977331 L70.8910217,8.70709525 C70.8910217,6.79239246 69.3324279,5.23501541 67.4168701,5.23501541 L16.5831299,5.23501541 C14.6675721,5.23501541 13.1089783,6.79239246 13.1089783,8.70709525 Z M68.4134217,8.70709525 L68.4134217,43.977331 C68.4134217,44.526127 67.9660949,44.9724641 67.4168701,44.9724641 L16.5831299,44.9724641 C16.0339051,44.9724641 15.5865783,44.526127 15.5865783,43.977331 L15.5865783,8.70709525 C15.5865783,8.15765885 16.0339051,7.71132164 16.5831299,7.71132164 L67.4168701,7.71132164 C67.9660949,7.71132164 68.4134217,8.15765885 68.4134217,8.70709525 Z" id="Shape" fill="#000000"></path>
                <path d="M78.8595887,49.5818392 L76.2813721,49.5818392 L76.2813721,3.97092721 C76.2813721,1.82633197 74.5356445,0.0819672131 72.3893738,0.0819672131 L63.9760437,0.0819672131 C63.2915955,0.0819672131 62.7372437,0.63588623 62.7372437,1.31980016 C62.7372437,2.0037141 63.2915955,2.55763311 63.9760437,2.55763311 L72.3893738,2.55763311 C73.1686707,2.55763311 73.8031311,3.19159836 73.8031311,3.97092721 L73.8031311,49.5818392 C71.055725,49.5818392 13.105133,49.5818392 10.1968689,49.5818392 L10.1968689,3.97092721 C10.1968689,3.19159836 10.8313293,2.55763311 11.6106262,2.55763311 L59.0202027,2.55763311 C59.7046508,2.55763311 60.2590027,2.0037141 60.2590027,1.31980016 C60.2590027,0.63588623 59.7046508,0.0819672131 59.0202027,0.0819672131 L11.6106262,0.0819672131 C9.46435547,0.0819672131 7.71862793,1.82633197 7.71862793,3.97092721 L7.71862793,49.5818392 L5.14041134,49.5818392 C2.30584725,49.5818392 -2.84217094e-14,51.8858862 -2.84217094e-14,54.7175974 C-2.84217094e-14,57.5499489 2.30584725,59.8546362 5.14041134,59.8546362 L67.9161072,59.8546362 C68.6005555,59.8546362 69.1555481,59.3000769 69.1555481,58.616163 C69.1555481,57.9328893 68.6005555,57.3783298 67.9161072,57.3783298 L5.14041134,57.3783298 C3.67218009,57.3783298 2.47824101,56.1846823 2.47824101,54.7175974 C2.47824101,53.2511526 3.67218009,52.0575051 5.14041134,52.0575051 L78.8595887,52.0575051 C80.3278199,52.0575051 81.521759,53.2511526 81.521759,54.7175974 C81.521759,56.1846823 80.3278199,57.3783298 78.8595887,57.3783298 L72.8725891,57.3783298 C72.1881408,57.3783298 71.6331482,57.9328893 71.6331482,58.616163 C71.6331482,59.3000769 72.1881408,59.8546362 72.8725891,59.8546362 L78.8595887,59.8546362 C81.6935119,59.8546362 84,57.5499489 84,54.7175974 C84,51.8858862 81.6941528,49.5818392 78.8595887,49.5818392 Z" id="Shape" fill="#000000"></path>
                <path d="M24.2626648,15.210041 L60.9351195,15.210041 C61.619568,15.210041 62.1745605,14.6554816 62.1745605,13.9715675 C62.1745605,13.2882941 61.619568,12.7337346 60.9351195,12.7337346 L24.2626648,12.7337346 C23.5782166,12.7337346 23.0238648,13.2882941 23.0238648,13.9715675 C23.0238648,14.6554816 23.5782166,15.210041 24.2626648,15.210041 Z" id="Shape" fill="#000000"></path>
                <path d="M24.2626648,21.42354 L60.9351195,21.42354 C61.619568,21.42354 62.1745605,20.8689805 62.1745605,20.1857069 C62.1745605,19.5017931 61.619568,18.9472336 60.9351195,18.9472336 L24.2626648,18.9472336 C23.5782166,18.9472336 23.0238648,19.5017931 23.0238648,20.1857069 C23.0238648,20.8689805 23.5782166,21.42354 24.2626648,21.42354 Z" id="Shape" fill="#000000"></path>
                <path d="M24.2626648,27.637039 L45.1870422,27.637039 C45.8714904,27.637039 46.4258422,27.0831198 46.4258422,26.3992059 C46.4258422,25.715292 45.8714904,25.161373 45.1870422,25.161373 L24.2626648,25.161373 C23.5782166,25.161373 23.0238648,25.715292 23.0238648,26.3992059 C23.0238648,27.0831198 23.5782166,27.637039 24.2626648,27.637039 Z" id="Shape" fill="#000000"></path>
                <path d="M24.2626648,33.8511784 L42.5992127,33.8511784 C43.2836609,33.8511784 43.8380127,33.2972592 43.8380127,32.6133452 C43.8380127,31.9294313 43.2836609,31.3755123 42.5992127,31.3755123 L24.2626648,31.3755123 C23.5782166,31.3755123 23.0238648,31.9294313 23.0238648,32.6133452 C23.0238648,33.2972592 23.5782166,33.8511784 24.2626648,33.8511784 Z" id="Shape" fill="#000000"></path>
                <path d="M24.2626648,40.0653177 L44.3058472,40.0653177 C44.9902953,40.0653177 45.5452881,39.5107582 45.5452881,38.8268443 C45.5452881,38.1435707 44.9902953,37.5890113 44.3058472,37.5890113 L24.2626648,37.5890113 C23.5782166,37.5890113 23.0238648,38.1435707 23.0238648,38.8268443 C23.0238648,39.5107582 23.5782166,40.0653177 24.2626648,40.0653177 Z" id="Shape" fill="#000000"></path>
                <path d="M47.6434937,28.2799692 C47.3025512,28.8729508 47.5069885,29.6298669 48.0997926,29.970543 C48.6925965,30.3112193 49.4507445,30.107582 49.7916871,29.5146003 C53.0299988,23.8863985 61.3042602,24.3173669 63.9625855,30.2241292 C66.3472596,35.5199795 62.4238586,41.4536374 56.7015381,41.4536374 C53.5683289,41.4536374 50.7138977,39.6093751 49.4289551,36.755251 C48.9790649,35.7562756 48.743225,34.699667 48.7265625,33.6142418 C48.7163086,32.9303279 48.146576,32.3860144 47.4691773,32.3949795 C46.7847289,32.4052254 46.2387086,32.9681097 46.2489625,33.6513833 C46.334198,39.3288934 50.9894715,43.9293033 56.7015381,43.9293033 C58.1813049,43.9293033 59.6213379,43.6200051 60.9806213,43.0084528 C66.2235719,40.6525359 68.5954285,34.4780993 66.22229,29.2078638 C62.7462158,21.4850154 51.9039918,20.8773052 47.6434937,28.2799692 Z" id="Shape" fill="#000000"></path>
                <path d="M21.067932,13.901127 C21.067932,14.72208 20.4020691,15.3867828 19.5811156,15.3867828 C18.7601623,15.3867828 18.0942992,14.72208 18.0942992,13.901127 C18.0942992,13.0808146 18.7601623,12.4154713 19.5811156,12.4154713 C20.4020691,12.4154713 21.067932,13.0808146 21.067932,13.901127 Z" id="Shape" fill="#000000"></path>
                <path d="M21.067932,20.1857069 C21.067932,21.0060195 20.4020691,21.6713626 19.5811156,21.6713626 C18.7601623,21.6713626 18.0942992,21.0060195 18.0942992,20.1857069 C18.0942992,19.3647541 18.7601623,18.7000511 19.5811156,18.7000511 C20.4020691,18.7000511 21.067932,19.3647541 21.067932,20.1857069 Z" id="Shape" fill="#000000"></path>
                <path d="M21.067932,26.4696466 C21.067932,27.2905993 20.4020691,27.9553023 19.5811156,27.9553023 C18.7601623,27.9553023 18.0942992,27.2905993 18.0942992,26.4696466 C18.0942992,25.6493341 18.7601623,24.9839908 19.5811156,24.9839908 C20.4020691,24.9839908 21.067932,25.6493341 21.067932,26.4696466 Z" id="Shape" fill="#000000"></path>
                <path d="M21.067932,32.7542264 C21.067932,33.574539 20.4020691,34.2398821 19.5811156,34.2398821 C18.7601623,34.2398821 18.0942992,33.574539 18.0942992,32.7542264 C18.0942992,31.9332736 18.7601623,31.2685707 19.5811156,31.2685707 C20.4020691,31.2685707 21.067932,31.9332736 21.067932,32.7542264 Z" id="Shape" fill="#000000"></path>
                <path d="M21.067932,39.0381659 C21.067932,39.8584785 20.4020691,40.5238216 19.5811156,40.5238216 C18.7601623,40.5238216 18.0942992,39.8584785 18.0942992,39.0381659 C18.0942992,38.2178534 18.7601623,37.5525102 19.5811156,37.5525102 C20.4020691,37.5525102 21.067932,38.2178534 21.067932,39.0381659 Z" id="Shape" fill="#000000"></path>
                <path d="M54.7097168,37.1875 C54.9596558,37.4122695 55.2909851,37.5275359 55.6287231,37.5032018 C56.5528564,37.4372439 56.3868713,36.9896261 61.1177674,31.5029457 C61.55484,30.977203 61.4837035,30.1959528 60.9569092,29.7592213 C60.4307557,29.3218493 59.650177,29.3935707 59.2124633,29.9193134 L55.4127502,34.4851434 L54.0579529,33.2626793 C53.5503846,32.8041752 52.7666016,32.843878 52.3077393,33.3516905 C51.8495178,33.8588626 51.8892517,34.6420338 52.3968201,35.0998975 L54.7097168,37.1875 Z" id="Shape" fill="#000000"></path>
            </g>
        </g>
    </g>
</svg>