<?xml version="1.0" encoding="UTF-8"?>
<svg width="114px" height="125px" viewBox="0 0 114 125" version="1.1" xmlns="http://www.w3.org/2000/svg" xmlns:xlink="http://www.w3.org/1999/xlink">
    <!-- Generator: Sketch 49.3 (51167) - http://www.bohemiancoding.com/sketch -->
    <title>man-on-the-moon</title>
    <desc>Created with Sketch.</desc>
    <defs></defs>
    <g id="Main-Page" stroke="none" stroke-width="1" fill="none" fill-rule="evenodd">
        <g id="Контент-1--RU-" transform="translate(-443.000000, -523.000000)" fill-rule="nonzero">
            <g id="Group-5" transform="translate(399.000000, 523.000000)">
                <g id="man-on-the-moon" transform="translate(44.000000, 0.000000)">
                    <polyline id="Shape" fill="#F24125" points="76.6016408 40.7648168 87.880679 21.1559806 99.7684716 28.0140086 94.3975522 37.3515625 82.5097596 30.4935345"></polyline>
                    <path d="M89.8131985,45.1449353 C94.1226309,49.4552802 97.584703,54.6169181 99.9169614,60.3604526 C102.087818,65.7052802 103.282192,71.5511853 103.282192,77.674569 C103.282192,80.9881466 102.932488,84.2209052 102.26536,87.3351293 C100.350057,96.3114224 95.8173515,104.315194 89.5038447,110.508621 C86.4560376,113.501616 82.9885855,116.074353 79.2010194,118.124461 C72.7099704,121.645474 65.27741,123.644397 57.3794739,123.644397 C56.6101246,123.644397 55.8461553,123.625539 55.0875661,123.587823 C40.7577618,122.882004 28.1576485,115.594828 20.2328121,104.684267 C14.7263151,97.1007543 11.4767556,87.7661638 11.4767556,77.674569 C11.4767556,77.1707974 11.4848257,76.6697198 11.5009659,76.1686422 C11.8318399,65.8561422 15.5575352,56.4003233 21.5912786,48.8868534 C29.3143626,39.2693966 40.8250126,32.830819 53.8528411,31.8394397 C55.0176252,31.7505388 56.1931695,31.7047414 57.3794739,31.7047414 C67.7118896,31.7047414 77.2453656,35.1233836 84.9173389,40.8911638 C86.64972,42.1923491 88.2852599,43.6147629 89.8131985,45.1449353 Z" id="Shape" fill="#FCBC1D"></path>
                    <path d="M61.3090737,121.14278 C55.9397684,119.243534 51.0277687,116.369073 46.7882771,112.734914 C36.9454474,104.302802 30.7072615,91.7758621 30.7072615,77.7887931 C30.7072615,65.3857759 35.6138812,54.127694 43.5871382,45.8599138 C47.9799616,41.3044181 53.3035364,37.6540948 59.2511987,35.21875 C61.7314089,34.204472 64.3208344,33.403556 66.9952649,32.8327047 C63.8939262,32.170528 60.6782611,31.8189655 57.379743,31.8189655 C51.2357082,31.8189655 45.376817,33.028556 40.0209618,35.21875 C34.0732995,37.6540948 28.7497247,41.3044181 24.3569013,45.8599138 C16.3836443,54.127694 11.4770246,65.3857759 11.4770246,77.7887931 C11.4770246,91.7758621 17.7152105,104.302802 27.5580402,112.734914 C31.7975318,116.369073 36.7095315,119.243534 42.0788368,121.14278 C46.864405,122.837284 52.0158177,123.758621 57.379743,123.758621 C60.6763781,123.758621 63.8917742,123.408405 66.9923059,122.746767 C65.0498332,122.331897 63.1520152,121.795259 61.3090737,121.14278 Z" id="Shape" fill="#000000" opacity="0.25"></path>
                    <g id="Group" transform="translate(77.203939, 56.842672)">
                        <path d="M1.71973792,10.0290948 C1.06283193,6.83108836 2.02801567,3.79633621 3.94896803,2.33782328 C4.4721794,1.94288793 5.06533161,1.66271552 5.71712654,1.52720905 C8.76305059,0.901131466 11.9050088,3.69100216 12.740533,7.76050647 C13.5739051,11.8275862 11.7869164,15.6333513 8.74126133,16.2594289 C7.76746948,16.4620151 6.77861345,16.3108836 5.86507834,15.8811961 C3.92072269,14.967403 2.28921785,12.794181 1.71973792,10.0290948 Z" id="Shape" fill="#000000" opacity="0.25"></path>
                        <path d="M1.71973792,10.0290948 C1.06283193,6.83108836 2.02801567,3.79633621 3.94896803,2.33782328 C5.89305468,3.25188578 7.52913258,5.42591595 8.09403945,8.19019397 C8.75094544,11.3884698 7.7857617,14.4229526 5.86480934,15.8814655 C3.92072269,14.967403 2.28921785,12.794181 1.71973792,10.0290948 Z" id="Shape" fill="#FCBC1D"></path>
                        <path d="M7.87722282,17.6955819 C7.00888025,17.6955819 6.13192959,17.4954203 5.29290838,17.1007543 C4.6206692,16.7844828 4.33175969,15.9822198 4.64756953,15.3089978 C4.96337937,14.6355065 5.76474012,14.346444 6.43671029,14.6624461 C7.11244651,14.9803341 7.81454505,15.0770474 8.467685,14.9410022 C9.51787377,14.7252155 10.4088126,13.938847 10.9788305,12.7268319 C11.6104502,11.3836207 11.7683551,9.71605603 11.4229549,8.03178879 C10.7499088,4.75431034 8.26028348,2.37904095 5.98747483,2.84698276 C5.55061352,2.9377694 5.13607947,3.12877155 4.75866788,3.4137931 C3.19495186,4.60102371 2.50173043,7.15140086 3.03731595,9.7578125 C3.18715077,10.4865302 2.71827806,11.1988147 1.99062421,11.3485991 C1.26054933,11.4989224 0.551725711,11.0288254 0.402428895,10.3006466 C-0.348628241,6.64251078 0.724425812,3.09590517 3.13657815,1.26481681 C3.83679367,0.736260776 4.6120611,0.381734914 5.44381922,0.208782328 C9.21174805,-0.566002155 13.074904,2.70070043 14.057842,7.48976293 C14.5191826,9.74084052 14.2899918,12.0083513 13.4125031,13.8747306 C12.4723367,15.873653 10.9094277,17.1893858 9.01160961,17.579472 C8.63796407,17.6567888 8.25840045,17.6955819 7.87722282,17.6955819 Z" id="Shape" fill="#333333"></path>
                    </g>
                    <g id="Group" transform="translate(76.665933, 46.605603)" fill="#FFFFFF">
                        <path d="M13.4426315,10.4110991 C13.0006591,10.4110991 12.5681019,10.1934267 12.3109347,9.79391164 C10.604378,7.14304957 8.57770734,4.69665948 6.28714448,2.52289871 C5.74806192,2.01104526 5.72519664,1.15867457 6.23630286,0.618534483 C6.74660206,0.0789331897 7.59853543,0.0557650862 8.13761798,0.567349138 C10.5842027,2.88927802 12.7488721,5.50242457 14.5716382,8.33405172 C14.9740671,8.95932112 14.794373,9.79310345 14.1700164,10.1961207 C13.9448606,10.3415948 13.6922665,10.4110991 13.4426315,10.4110991 Z" id="Shape"></path>
                        <path d="M7.0207164,61.970097 C6.66132803,61.970097 6.30301567,61.826778 6.03831645,61.5433728 C5.53070727,61 5.55922162,60.1476293 6.10153222,59.6395474 C14.0035033,52.2359914 18.5356705,41.7949892 18.5356705,30.9938039 C18.5356705,28.6408944 18.3253099,26.2834052 17.9102379,23.9865302 C17.7778882,23.2545797 18.2634392,22.5536099 18.994052,22.4210668 C19.7225129,22.2877155 20.4246114,22.7745151 20.5572301,23.5064655 C21.0008164,25.9612069 21.2257032,28.4803341 21.2257032,30.9935345 C21.2257032,42.5374461 16.3831063,53.6955819 7.93936257,61.606681 C7.68031242,61.8496767 7.3499764,61.970097 7.0207164,61.970097 Z" id="Shape"></path>
                        <path d="M1.36330858,66.404903 C0.922950227,66.404903 0.491468978,66.1885776 0.233763843,65.7912177 C-0.170548075,65.1672953 0.00645607853,64.3329741 0.62973666,63.9280711 C1.31677102,63.4814116 1.9978873,63.0078125 2.65398628,62.5202047 C3.25090454,62.076778 4.09315379,62.201778 4.53566417,62.7992996 C4.97844356,63.3968211 4.85362604,64.2405711 4.25697678,64.6837284 C3.55595425,65.2050108 2.8280314,65.7109375 2.09445948,66.1877694 C1.86822772,66.3345905 1.61428864,66.404903 1.36330858,66.404903 Z" id="Shape"></path>
                    </g>
                    <path d="M57.3794739,124.991379 C31.3270451,124.991379 10.1317392,103.765086 10.1317392,77.674569 C10.1317392,51.5840517 31.3270451,30.3577586 57.3794739,30.3577586 C83.4319028,30.3577586 104.627209,51.5840517 104.627209,77.674569 C104.627209,103.765086 83.4319028,124.991379 57.3794739,124.991379 Z M57.3794739,33.0517241 C32.8103291,33.0517241 12.821772,53.0695043 12.821772,77.674569 C12.821772,102.279634 32.8103291,122.297414 57.3794739,122.297414 C81.9486188,122.297414 101.937176,102.279634 101.937176,77.674569 C101.937176,53.0695043 81.9486188,33.0517241 57.3794739,33.0517241 Z" id="Shape" fill="#333333"></path>
                    <path d="M65.0495642,79.4313039 C65.0495642,84.2508082 61.1463268,88.1597522 56.3338582,88.1597522 C55.3896567,88.1597522 54.4804257,88.0088901 53.6276853,87.7287177 C57.1139677,86.5891703 59.6345284,83.3052263 59.6345284,79.4313039 C59.6345284,75.5573815 57.1139677,72.2734375 53.6276853,71.1338901 C54.4804257,70.8537177 55.3896567,70.7028556 56.3338582,70.7028556 C61.1463268,70.7028556 65.0495642,74.6117996 65.0495642,79.4313039 Z" id="Shape" fill="#000000" opacity="0.25"></path>
                    <g id="Group" transform="translate(22.865278, 84.051724)">
                        <path d="M14.0309417,16.0862069 C13.5332856,16.7381466 12.909198,17.2607759 12.1613689,17.6163793 C8.9037393,19.1654095 4.58892682,16.8890086 2.52567172,12.5355603 C0.462416625,8.18211207 1.4308284,3.39493534 4.68845803,1.84590517 C5.18073402,1.61153017 5.6972203,1.46605603 6.22715675,1.40140086 C9.19695287,1.03502155 12.5702539,3.23060345 14.3241552,6.9294181 C15.9139646,10.2860991 15.704142,13.8960129 14.0309417,16.0862069 Z" id="Shape" fill="#FCBC1D"></path>
                        <path d="M14.0309417,16.0862069 C11.0584555,16.4552802 7.68515448,14.2570043 5.93394318,10.5608836 C4.34413384,7.20420259 4.55395639,3.59159483 6.22715675,1.40140086 C9.19695287,1.03502155 12.5702539,3.23060345 14.3241552,6.9294181 C15.9139646,10.2860991 15.704142,13.8960129 14.0309417,16.0862069 Z" id="Shape" fill="#000000" opacity="0.25"></path>
                        <path d="M9.96468821,19.4542026 C8.75255946,19.4542026 7.49658319,19.1287716 6.26939026,18.4814116 C4.19403002,17.3868534 2.4331346,15.4803341 1.31112195,13.1128772 C0.1891093,10.7454203 -0.172431097,8.17376078 0.293213567,5.87149784 C0.787641581,3.42672414 2.14341807,1.56546336 4.110908,0.630118534 C6.07839794,-0.305226293 8.37541688,-0.180226293 10.5796297,0.981950431 C12.6549899,2.07650862 14.4158854,3.98302802 15.537898,6.35048491 C15.8563979,7.02262931 15.5707164,7.82596983 14.8995532,8.14493534 C14.2281211,8.46390086 13.4259533,8.17753233 13.1077224,7.50565733 C12.2334618,5.66082974 10.8905975,4.19073276 9.32607444,3.36584052 C7.89013497,2.60856681 6.44773943,2.50134698 5.26439403,3.06384698 C4.08104864,3.62634698 3.25171155,4.81330819 2.92971464,6.40625 C2.57866537,8.14143319 2.86703687,10.1128772 3.74129751,11.9577047 C4.61555814,13.8025323 5.95842248,15.2728987 7.5226765,16.0977909 C8.95861597,16.8553341 10.4012805,16.9622845 11.5846259,16.3997845 C12.7679713,15.8372845 13.5970394,14.6500539 13.9193053,13.0573815 C14.0667191,12.3283944 14.7760807,11.8572198 15.5045416,12.0045797 C16.2324644,12.1522091 16.7032202,12.8631466 16.5558064,13.5921336 C16.0616474,16.0369073 14.7056019,17.8981681 12.7381119,18.8337823 C11.8662723,19.2481142 10.9293339,19.4542026 9.96468821,19.4542026 Z" id="Shape" fill="#333333"></path>
                    </g>
                    <path d="M56.3346652,89.5056573 C50.7875488,89.5056573 46.2747499,84.9862608 46.2747499,79.4310345 C46.2747499,78.6872306 46.8770482,78.0840517 47.6197662,78.0840517 C48.3624843,78.0840517 48.9647826,78.6872306 48.9647826,79.4310345 C48.9647826,83.5008082 52.2711018,86.8116918 56.3346652,86.8116918 C60.3984977,86.8116918 63.7045479,83.5005388 63.7045479,79.4310345 C63.7045479,75.3615302 60.3984977,72.0503772 56.3346652,72.0503772 C54.996105,72.0503772 53.686059,72.4129849 52.5460232,73.0988685 C51.9092924,73.4819504 51.0831834,73.2755927 50.7003917,72.637931 C50.3178691,72.0002694 50.5239256,71.1729526 51.1606563,70.7896013 C52.7189923,69.8521013 54.508133,69.3564116 56.3346652,69.3564116 C61.8817817,69.3564116 66.3945806,73.8758082 66.3945806,79.4310345 C66.3945806,84.9862608 61.8817817,89.5056573 56.3346652,89.5056573 Z" id="Shape" fill="#333333"></path>
                    <path d="M55.7971967,57.34375 C54.5813019,57.34375 53.3656761,56.8803879 52.4400359,55.9533944 C51.9146725,55.4272629 51.9146725,54.5743534 52.4400359,54.0484914 C52.9653993,53.5226293 53.8167946,53.5226293 54.342158,54.0484914 C55.1440568,54.8518319 56.4495296,54.8518319 57.2522354,54.0484914 C58.0541342,53.2451509 58.0541342,51.9377694 57.2519664,51.1341595 C56.4503366,50.3310884 55.1443258,50.3305496 54.342158,51.1341595 C53.8167946,51.6600216 52.9653993,51.6600216 52.4400359,51.1341595 C51.9146725,50.608028 51.9146725,49.7551185 52.4400359,49.2292565 C54.2913164,47.3755388 57.303346,47.3758082 59.1543575,49.2292565 C61.0053691,51.0832435 61.0053691,54.0996767 59.1546265,55.9533944 C58.2289863,56.8803879 57.0130915,57.34375 55.7971967,57.34375 Z" id="Shape" fill="#333333"></path>
                    <path d="M72.5797728,105.935075 C71.3638781,105.935075 70.1482523,105.471713 69.222881,104.54472 C68.6975176,104.018588 68.6975176,103.165948 69.222612,102.639817 C69.7479754,102.113685 70.5993708,102.113416 71.1247341,102.639817 C71.9271709,103.443427 73.2331818,103.443157 74.0350805,102.639817 C74.8369793,101.836476 74.8369793,100.529095 74.0348115,99.7254849 C73.2326438,98.921875 71.9269019,98.9226832 71.1247341,99.7254849 C70.5999088,100.251347 69.7479754,100.251616 69.222612,99.7254849 C68.6975176,99.1993534 68.6975176,98.3467134 69.222881,97.8205819 C71.0741615,95.9665948 74.0864602,95.9671336 75.9372027,97.8205819 C77.7882142,99.674569 77.7882142,102.691002 75.9374717,104.54472 C75.0115624,105.471713 73.7959366,105.935075 72.5797728,105.935075 Z" id="Shape" fill="#333333"></path>
                    <polygon id="Shape" fill="#F2F2F2" points="37.6965045 45.1123384 34.8100994 48.0002694 26.7615215 39.9399246 31.7434621 39.1532866"></polygon>
                    <path d="M34.8100994,48.0002694 L26.9444437,55.8774246 L18.8958658,47.8170797 L9.60449283,38.5121228 C9.16601749,38.0730065 8.75175245,37.6150323 8.36438774,37.1382004 C5.65552479,33.811153 4.18945696,29.6166487 4.26477788,25.2847522 C6.73422791,25.2443427 9.16332746,25.7050108 11.4095048,26.6155711 C13.0934653,27.2971444 14.6752045,28.2319504 16.0982318,29.3930496 C16.5743676,29.7809806 17.0316732,30.1958513 17.4701485,30.6349677 L26.7615215,39.9399246 L34.8100994,48.0002694 Z" id="Shape" fill="#F2F2F2"></path>
                    <polygon id="Shape" fill="#000000" opacity="0.25" points="16.0982318 29.3930496 26.9444437 55.8774246 8.36438774 37.1382004"></polygon>
                    <polygon id="Shape" fill="#F2F2F2" points="26.9444437 55.8774246 24.0607287 58.7680496 18.1076863 52.8063039 18.8958658 47.8170797"></polygon>
                    <polygon id="Shape" fill="#000000" opacity="0.25" points="26.9444437 55.8774246 24.0607287 58.7680496 18.1076863 52.8063039 18.8958658 47.8170797"></polygon>
                    <path d="M24.0607287,60.1147629 C23.7040303,60.1147629 23.3618582,59.9727909 23.1095331,59.7203664 L17.1564907,53.7586207 C16.852248,53.4536638 16.7118283,53.0215517 16.7790791,52.5956358 L17.5672587,47.6064116 C17.6463456,47.1061422 17.9990089,46.6923491 18.4799868,46.5358297 C18.9609646,46.3793103 19.4890181,46.5061961 19.8467924,46.8644935 L27.8953703,54.9248384 C28.4204647,55.4507004 28.4207337,56.3033405 27.8956393,56.8292026 L25.0119242,59.7198276 C24.7595992,59.9725216 24.417696,60.1147629 24.0607287,60.1147629 C24.0612667,60.1147629 24.0609977,60.1147629 24.0607287,60.1147629 Z M19.5430877,52.3389009 L24.0601907,56.8626078 L25.0425906,55.877694 L19.811553,50.6390086 L19.5430877,52.3389009 Z" id="Shape" fill="#333333"></path>
                    <path d="M34.8100994,49.3472522 C34.4657752,49.3472522 34.12172,49.2157866 33.8589039,48.9528556 L25.810326,40.8925108 C25.4525516,40.5342134 25.3258511,40.0051185 25.482411,39.5231681 C25.6389709,39.0412177 26.0521599,38.6883082 26.551968,38.609375 L31.5339086,37.8227371 C31.9594717,37.7551185 32.390146,37.8960129 32.6941197,38.200431 L38.6471621,44.1594828 C38.8994872,44.4121767 39.0412519,44.7548491 39.0412519,45.1123384 C39.0412519,45.4698276 38.8994872,45.8125 38.6468931,46.065194 L35.760488,48.953125 C35.4982098,49.2157866 35.1541546,49.3472522 34.8100994,49.3472522 Z M29.5806758,40.8582974 L34.8103684,46.0956358 L35.7935754,45.1117996 L31.2764724,40.5905172 L29.5806758,40.8582974 Z" id="Shape" fill="#333333"></path>
                    <rect id="Rectangle-path" fill="#333333" transform="translate(30.877266, 51.938790) rotate(-135.000000) translate(-30.877266, -51.938790) " x="29.5322622" y="46.3688005" width="2.69000692" height="11.1399794"></rect>
                    <g id="XMLID_43_" transform="translate(2.690033, 23.706897)">
                        <path d="M13.4081991,5.68615302 L5.67435502,13.4313039 C2.96549207,10.1042565 1.49942424,5.90975216 1.57474515,1.5778556 C4.04419519,1.53744612 6.47329474,1.99811422 8.71947206,2.90867457 C10.4034325,3.59024784 11.9851718,4.52505388 13.4081991,5.68615302 Z" id="Shape" fill="#F24125"></path>
                        <g id="Group" fill="#333333">
                            <path d="M15.2546376,25.0625 L5.96326454,15.7575431 C5.48981878,15.2834052 5.04165933,14.7866379 4.63089133,14.28125 C1.71274383,10.6974677 0.149296816,6.17726293 0.229728794,1.5544181 C0.242371948,0.828394397 0.827454065,0.24299569 1.55241788,0.230872845 C4.19833407,0.189116379 6.77780644,0.668642241 9.2238532,1.66002155 C11.0393563,2.39466595 12.7330009,3.39789871 14.2574424,4.64170259 C14.7610165,5.05199353 15.2567896,5.50107759 15.7307733,5.97548491 L25.0221464,15.2807112 L23.1200242,17.1856142 L13.8286512,7.88065733 C13.4194972,7.47090517 12.99232,7.08405172 12.5589558,6.73087284 C11.2427228,5.65732759 9.78149698,4.79148707 8.21509093,4.15759698 C6.52440536,3.47225216 4.75866788,3.06950431 2.95015888,2.95581897 C3.17127957,6.46417026 4.48455355,9.83890086 6.7164737,12.5800108 C7.070213,13.015625 7.4565017,13.4434267 7.86538667,13.8526401 L17.1567597,23.157597 L15.2546376,25.0625 Z" id="Shape"></path>
                            <rect id="Rectangle-path" transform="translate(9.541393, 9.558596) rotate(-135.000000) translate(-9.541393, -9.558596) " x="8.19638971" y="4.08195138" width="2.69000692" height="10.9532894"></rect>
                        </g>
                    </g>
                    <path d="M76.6005647,42.112069 C76.372719,42.112069 76.1421832,42.0541487 75.9304776,41.9321121 C75.2867528,41.5608836 75.0656321,40.737069 75.4363186,40.0926724 L81.3328703,29.8413254 C81.3369054,29.8345905 81.3404024,29.8278556 81.3441684,29.8213901 C81.3482035,29.8146552 81.3519695,29.8081897 81.3560046,29.8014547 L86.7153568,20.4838362 C87.0863123,19.8391703 87.9081173,19.6174569 88.5523801,19.9889547 L100.440173,26.8469828 C100.748988,27.0253233 100.974951,27.3192349 101.067488,27.6643319 C101.160294,28.0094289 101.112143,28.3771552 100.934332,28.6864224 L95.5631434,38.0239763 C95.1921879,38.6686422 94.3703829,38.8903556 93.7261201,38.5188578 L83.0041876,32.3335129 L77.7675009,41.4375 C77.5184039,41.8698815 77.0656714,42.112069 76.6005647,42.112069 Z M84.346514,29.998653 L93.9031242,35.5118534 L97.9317172,28.5086207 L88.374838,22.9954203 L84.346514,29.998653 Z" id="Shape" fill="#333333"></path>
                    <g id="Group" transform="translate(40.081488, 0.000000)">
                        <path d="M18.663985,10.78125 L18.6720551,10.7893319 C17.6068022,12.1578664 15.9443619,13.0360991 14.0774792,13.0360991 C12.2105965,13.0360991 10.5481563,12.1578664 9.48290335,10.7893319 L9.49097345,10.783944 C9.09822867,10.2828664 8.78349484,9.71174569 8.57098226,9.09752155 C9.36185188,6.81303879 11.5273282,5.17241379 14.0774792,5.17241379 C16.6276303,5.17241379 18.7957966,6.81303879 19.5812862,9.10021552 C19.3687736,9.71443966 19.0567298,10.2801724 18.663985,10.78125 Z" id="Shape" fill="#20505B"></path>
                        <path d="M19.9040901,7.18211207 C19.9040901,7.85290948 19.7911087,8.49946121 19.5812862,9.10021552 C18.7957966,6.81303879 16.6276303,5.17241379 14.0774792,5.17241379 C11.5273282,5.17241379 9.36185188,6.81303879 8.57098226,9.09752155 C8.36384974,8.49946121 8.25086836,7.85560345 8.25086836,7.18211207 C8.25086836,3.96012931 10.8575101,1.34698276 14.0774792,1.34698276 C17.2947584,1.34698276 19.9040901,3.96012931 19.9040901,7.18211207 Z" id="Shape" fill="#1AA5E2"></path>
                        <path d="M9.48290335,10.7893319 C10.5481563,12.1578664 12.2105965,13.0360991 14.0774792,13.0360991 C15.9443619,13.0360991 17.6068022,12.1578664 18.6720551,10.7893319 C23.0756387,13.8496767 21.2679367,26.0802802 21.2679367,26.0802802 C20.7110999,26.1961207 20.1542632,26.2984914 19.5947363,26.3846983 L19.5920463,26.3846983 C18.8011767,26.5113147 18.0103071,26.6082974 17.2140574,26.6810345 C16.2833061,26.7618534 15.3498647,26.8103448 14.4191134,26.8184267 C14.306132,26.8184267 14.1904606,26.8184267 14.0774792,26.8184267 C13.9618078,26.8184267 13.8488265,26.8184267 13.7358451,26.8184267 C12.8024037,26.8103448 11.8716524,26.7618534 10.9409011,26.6810345 C10.1446514,26.6082974 9.35109174,26.5113147 8.56022212,26.3846983 C8.00069532,26.2984914 7.44116851,26.1961207 6.88702177,26.0802802 C6.88702177,26.0802802 5.07931978,13.8496767 9.48290335,10.7893319 Z" id="Shape" fill="#1AA5E2"></path>
                        <path d="M19.6149116,11.7338362 L19.0478527,11.1656789 L18.5550387,10.6955819 L18.6561839,10.7920259 L17.5322883,10.0525323 L17.6116442,9.95420259 L17.6059952,9.94962284 C17.9126589,9.55845905 18.1496508,9.12419181 18.3105147,8.65921336 C18.4759517,8.18534483 18.5593428,7.68965517 18.5593428,7.18211207 C18.5593428,4.70743534 16.5488123,2.69396552 14.0777482,2.69396552 C11.6066842,2.69396552 9.59615373,4.70743534 9.59615373,7.18211207 C9.59615373,7.68911638 9.67900673,8.18534483 9.84202272,8.65625 C10.0039627,9.12419181 10.2417616,9.56007543 10.5492323,9.95231681 L8.43325258,11.6158405 C7.9412456,10.9881466 7.56006796,10.2893319 7.3004798,9.5387931 C7.03873962,8.78340517 6.906121,7.99057112 6.906121,7.18211207 C6.906121,3.22198276 10.1231311,-1.0658141e-14 14.0777482,-1.0658141e-14 C18.0323653,-1.0658141e-14 21.2493755,3.22171336 21.2493755,7.18211207 C21.2493755,7.99353448 21.1154118,8.78852371 20.8512506,9.54498922 C20.5959665,10.2828664 20.2196309,10.9744073 19.734618,11.5972522 C19.7020687,11.6408944 19.6665602,11.6829203 19.6305138,11.7209052 L19.6291688,11.7198276 C19.6240577,11.7244073 19.6194846,11.7292565 19.6149116,11.7338362 Z M17.6818541,9.86314655 L17.6837371,9.86476293 L17.6818541,9.86314655 Z" id="Shape" fill="#333333"></path>
                        <path d="M9.84175371,9.5387931 L7.3002108,8.6565194 C8.30063397,5.76697198 11.0240231,3.82543103 14.0774792,3.82543103 C17.1365844,3.82543103 19.8597046,5.76912716 20.8531337,8.66217672 L18.3091697,9.53825431 C17.6891172,7.73248922 15.9884785,6.51939655 14.0774792,6.51939655 C12.16917,6.51939655 10.4669173,7.73275862 9.84175371,9.5387931 Z" id="Shape" fill="#333333"></path>
                        <path d="M14.0774792,28.1654095 L13.7358451,28.1654095 C12.7967547,28.1573276 11.8210798,28.109375 10.8249607,28.0231681 C9.97141329,27.9450431 9.14019318,27.8415948 8.34797854,27.7149784 C7.78710672,27.6285022 7.20041058,27.5218211 6.61236943,27.3989763 C6.06064372,27.2836746 5.63911559,26.8362069 5.55653159,26.2774784 C5.35908319,24.9410022 3.76954285,13.1204203 8.71624402,9.68265086 C9.30294016,9.27505388 10.1051079,9.39735991 10.5438523,9.9612069 C11.3987447,11.0595366 12.6867323,11.6893858 14.0777482,11.6893858 C15.4687642,11.6893858 16.7567518,11.0595366 17.6116442,9.96147629 C18.0509266,9.39709052 18.8533633,9.27613147 19.4392525,9.68292026 C24.3862226,13.1206897 22.7964133,24.9412716 22.5989649,26.2777478 C22.5161119,26.8367457 22.0940457,27.2844828 21.541513,27.3995151 C20.9349106,27.5255927 20.3651617,27.6293103 19.7991788,27.7163254 C19.7905707,27.7176724 19.7822316,27.71875 19.7733545,27.720097 C18.988672,27.8448276 18.16875,27.9466595 17.3361849,28.0228987 C16.3341477,28.1099138 15.3584728,28.157597 14.4306805,28.1656789 L14.0774792,28.1656789 L14.0774792,28.1654095 Z M8.09484646,24.9420797 C8.32054021,24.9819504 8.54408193,25.0193966 8.76466461,25.0533405 C9.50496162,25.1716056 10.275656,25.2675108 11.0630286,25.3397091 C11.9840958,25.4197198 12.8892918,25.4641703 13.7474122,25.471444 L14.4191134,25.471444 C15.2659357,25.4641703 16.1711317,25.4197198 17.097848,25.3391703 C17.8752674,25.2680496 18.6448858,25.1721444 19.3795337,25.0546875 C19.3927149,25.0525323 19.4061651,25.0506466 19.4190772,25.0490302 C19.6310518,25.0161638 19.8438334,24.9806034 20.060112,24.9423491 C20.5160726,20.9768319 20.4507048,15.201778 18.6919614,12.7025862 C17.4133888,13.7834052 15.7942581,14.3833513 14.0772102,14.3833513 C12.3601623,14.3833513 10.7410317,13.7834052 9.4624591,12.7023168 C7.70371571,15.2015086 7.63861691,20.9765625 8.09484646,24.9420797 Z" id="Shape" fill="#333333"></path>
                        <path d="M9.65318242,36.2098599 C9.13319909,36.2098599 8.63823307,35.90625 8.4184574,35.3978987 C6.53893154,31.0541487 7.20094859,26.3838901 7.23000094,26.1872306 C7.33867827,25.4512392 8.02248458,24.9420797 8.75767053,25.0522629 C9.49204946,25.1610991 9.99938963,25.8453664 9.89125031,26.5805496 C9.87995218,26.6608297 9.32768846,30.7230603 10.8868314,34.326778 C11.182197,35.0094289 10.8690772,35.8025323 10.1874229,36.0983297 C10.0128398,36.1740302 9.83153159,36.2098599 9.65318242,36.2098599 Z" id="Shape" fill="#333333"></path>
                        <path d="M18.499086,36.2098599 C18.3207368,36.2098599 18.1391596,36.1740302 17.9651145,36.0983297 C17.2837292,35.8025323 16.9706094,35.0094289 17.265706,34.326778 C18.8326501,30.7052802 18.2669362,26.6204203 18.2610181,26.5797414 C18.1547618,25.8442888 18.663178,25.1605603 19.3972879,25.0530711 C20.1335499,24.9453125 20.8138592,25.4523168 20.9225365,26.1872306 C20.9513198,26.3838901 21.6136059,31.0544181 19.73408,35.3978987 C19.5143044,35.90625 19.0190693,36.2098599 18.499086,36.2098599 Z" id="Shape" fill="#333333"></path>
                        <path d="M1.55672194,21.4280711 C1.46741285,21.4280711 1.37729675,21.419181 1.28637365,21.4005927 C0.558450793,21.2518858 0.0887710798,20.5404095 0.237529889,19.8116918 C2.12189781,10.561153 8.36869179,10.1468211 8.63366002,10.1336207 C9.3804131,10.0988685 10.0066527,10.6694504 10.0435062,11.4127155 C10.0798216,12.1508621 9.51572175,12.7796336 8.78080481,12.8238147 C8.5661402,12.8407866 4.31535049,13.2712823 2.87322395,20.3502155 C2.74329537,20.9881466 2.18269255,21.4280711 1.55672194,21.4280711 Z" id="Shape" fill="#333333"></path>
                        <path d="M26.969461,21.4280711 C26.3434904,21.4280711 25.7831566,20.9884159 25.652959,20.3504849 C24.2024934,13.2413793 19.9242654,12.8370151 19.7426881,12.8232759 C19.0007771,12.7866379 18.4374843,12.154903 18.4740687,11.4119073 C18.5106532,10.6689116 19.1395828,10.0994073 19.892254,10.1333513 C20.1569532,10.1465517 26.4010571,10.5606142 28.2881151,19.8108836 C28.4368739,20.5398707 27.9674632,21.251347 27.2398093,21.4003233 C27.1491552,21.419181 27.0585011,21.4280711 26.969461,21.4280711 Z" id="Shape" fill="#333333"></path>
                        <path d="M16.19857,10.2572737 C16.109799,10.2572737 16.0210279,10.2491918 15.9349468,10.2303341 C15.8488658,10.2141703 15.7654748,10.1872306 15.6847738,10.154903 C15.6013828,10.1198815 15.5233718,10.079472 15.4507409,10.0309806 C15.3781101,9.98248922 15.3081692,9.92591595 15.2462985,9.86395474 C14.9961254,9.61341595 14.8535537,9.2658944 14.8535537,8.91029095 C14.8535537,8.82408405 14.8616238,8.73518319 14.880454,8.64628233 C14.8965942,8.5627694 14.9234945,8.4765625 14.9557749,8.39574353 C14.9907453,8.31492457 15.0310958,8.23679957 15.0795164,8.1640625 C15.127937,8.08863147 15.1844277,8.02128233 15.2462985,7.95932112 C15.3081692,7.89735991 15.3781101,7.84078664 15.4507409,7.78960129 C15.5233718,7.74110991 15.6013828,7.70070043 15.6847738,7.66837284 C15.7654748,7.63335129 15.8488658,7.60641164 15.9349468,7.59024784 C16.3734222,7.50134698 16.8361078,7.64682112 17.1481516,7.95932112 C17.2100223,8.02128233 17.266513,8.08863147 17.3176236,8.1640625 C17.3633542,8.23679957 17.4063947,8.31492457 17.4413652,8.39574353 C17.4736455,8.4765625 17.5005459,8.5627694 17.5166861,8.64628233 C17.5355163,8.73518319 17.5435864,8.82408405 17.5435864,8.91029095 C17.5435864,8.99919181 17.5357853,9.08809267 17.5166861,9.17429957 C17.5002769,9.26050647 17.4736455,9.3440194 17.4413652,9.42483836 C17.4063947,9.50835129 17.3633542,9.58647629 17.3176236,9.65921336 C17.266782,9.73195043 17.2102913,9.80199353 17.1481516,9.86395474 C17.0865498,9.92591595 17.019299,9.98248922 16.9437091,10.0309806 C16.8708092,10.079472 16.7927983,10.1198815 16.7123663,10.154903 C16.6316653,10.1872306 16.5455843,10.2141703 16.4621932,10.2303341 C16.3734222,10.2491918 16.2846511,10.2572737 16.19857,10.2572737 Z" id="Shape" fill="#FFFFFF"></path>
                        <path d="M17.9032438,24.5358297 C17.8610103,24.5358297 17.8185077,24.533944 17.7751982,24.529903 C17.0357082,24.4598599 16.4925906,23.8028017 16.5625315,23.0622306 C16.9859426,18.5703125 16.3279606,15.6158405 16.3215045,15.5864763 C16.1557985,14.8612608 16.6088,14.1390086 17.3329568,13.9733297 C18.0568446,13.8073815 18.7783114,14.2607759 18.9437484,14.9862608 C18.9749528,15.1231142 19.7039517,18.3968211 19.240728,23.315194 C19.1750912,24.012931 18.5892021,24.5358297 17.9032438,24.5358297 Z" id="Shape" fill="#FFFFFF"></path>
                    </g>
                    <g id="Group" transform="translate(104.642273, 11.045259)" fill="#FCBC1D">
                        <path d="M4.43424994,8.66971983 C3.6912629,8.66971983 3.08923358,8.06654095 3.08923358,7.32273707 L3.08923358,1.54849138 C3.08923358,0.8046875 3.6912629,0.201508621 4.43424994,0.201508621 C5.17723697,0.201508621 5.7792663,0.8046875 5.7792663,1.54849138 L5.7792663,7.32273707 C5.7792663,8.06654095 5.17723697,8.66971983 4.43424994,8.66971983 Z" id="Shape"></path>
                        <path d="M7.317158,5.78259698 L1.55134187,5.78259698 C0.808354833,5.78259698 0.20632551,5.1794181 0.20632551,4.43561422 C0.20632551,3.69181034 0.808354833,3.08863147 1.55134187,3.08863147 L7.317158,3.08863147 C8.06014504,3.08863147 8.66217436,3.69181034 8.66217436,4.43561422 C8.66217436,5.1794181 8.06014504,5.78259698 7.317158,5.78259698 Z" id="Shape"></path>
                    </g>
                    <g id="Group" transform="translate(0.000000, 93.480603)" fill="#FCBC1D">
                        <path d="M4.43424994,8.66971983 C3.6915319,8.66971983 3.08923358,8.06654095 3.08923358,7.32273707 L3.08923358,1.54849138 C3.08923358,0.8046875 3.6915319,0.201508621 4.43424994,0.201508621 C5.17696797,0.201508621 5.7792663,0.8046875 5.7792663,1.54849138 L5.7792663,7.32273707 C5.7792663,8.06654095 5.17696797,8.66971983 4.43424994,8.66971983 Z" id="Shape"></path>
                        <path d="M7.316889,5.78259698 L1.55134187,5.78259698 C0.808623836,5.78259698 0.20632551,5.1794181 0.20632551,4.43561422 C0.20632551,3.69181034 0.808623836,3.08863147 1.55134187,3.08863147 L7.316889,3.08863147 C8.05960703,3.08863147 8.66190536,3.69181034 8.66190536,4.43561422 C8.66190536,5.1794181 8.05987604,5.78259698 7.316889,5.78259698 Z" id="Shape"></path>
                    </g>
                </g>
            </g>
        </g>
    </g>
</svg>