<?xml version="1.0" encoding="UTF-8"?>
<svg width="101px" height="165px" viewBox="0 0 101 165" version="1.1" xmlns="http://www.w3.org/2000/svg" xmlns:xlink="http://www.w3.org/1999/xlink">
    <!-- Generator: Sketch 49.3 (51167) - http://www.bohemiancoding.com/sketch -->
    <title>observatory</title>
    <desc>Created with Sketch.</desc>
    <defs></defs>
    <g id="Main-Page" stroke="none" stroke-width="1" fill="none" fill-rule="evenodd">
        <g id="Контент-2--RU-" transform="translate(-856.000000, -531.000000)">
            <g id="observatory" transform="translate(856.000000, 531.000000)">
                <rect id="Rectangle-path" fill="#23464F" fill-rule="nonzero" x="32" y="135" width="37" height="28"></rect>
                <circle id="Oval" fill="#53AEF9" fill-rule="nonzero" cx="50" cy="10" r="9"></circle>
                <path d="M50.5,21 C44.7101671,21 40,16.2899105 40,10.5001731 C40,4.71043566 44.7101671,0 50.5,0 C56.2898329,0 61,4.71008951 61,10.4998269 C61,16.2895643 56.2898329,21 50.5,21 Z M50.5,3.46151944 C46.6188804,3.46151944 43.4615765,6.61911748 43.4615765,10.4998269 C43.4615765,14.3805364 46.6192266,17.5381344 50.5,17.5381344 C54.3807734,17.5381344 57.5384235,14.3805364 57.5384235,10.4998269 C57.5384235,6.61911748 54.3811196,3.46151944 50.5,3.46151944 Z" id="Shape" fill="#333333" fill-rule="nonzero"></path>
                <path d="M79,36 C77.137789,34.5090707 75.1303502,33.1689773 73,32" id="Shape" stroke="#000000" stroke-width="8" stroke-linecap="round" stroke-linejoin="round"></path>
                <path d="M92,66 C92,56.0860149 88.6138894,47.0100095 83,40" id="Shape" stroke="#000000" stroke-width="8" stroke-linecap="round" stroke-linejoin="round"></path>
                <path d="M93,129 L7,129 L7,99 L93,99 L93,129 Z M85.8884817,123.47881 L85.8884817,104.35474 L73.6332804,104.35474 L73.6332804,123.47881 L85.8884817,123.47881 Z M66.0490615,123.47881 L66.0490615,104.35474 L53.7938602,104.35474 L53.7938602,123.47881 L66.0490615,123.47881 Z M46.2061398,123.47881 L46.2061398,104.35474 L33.9509385,104.35474 L33.9509385,123.47881 L46.2061398,123.47881 Z M26.3632181,123.47881 L26.3632181,104.35474 L14.1080168,104.35474 L14.1080168,123.47881 L26.3632181,123.47881 Z" id="Shape" fill="#53AEF9" fill-rule="nonzero"></path>
                <rect id="Rectangle-path" fill="#23464F" fill-rule="nonzero" x="15" y="105" width="13" height="20"></rect>
                <rect id="Rectangle-path" fill="#23464F" fill-rule="nonzero" x="34" y="105" width="13" height="20"></rect>
                <rect id="Rectangle-path" fill="#23464F" fill-rule="nonzero" x="54" y="105" width="13" height="20"></rect>
                <rect id="Rectangle-path" fill="#23464F" fill-rule="nonzero" x="75" y="105" width="13" height="20"></rect>
                <polygon id="Shape" fill="#FCBC1D" fill-rule="nonzero" points="93 130 93 164 68.205977 164 68.205977 135.145888 31.7905216 135.145888 31.7905216 164 7 164 7 130"></polygon>
                <polygon id="Shape" fill="#FCBC1D" fill-rule="nonzero" points="93 90 93 99 7 99 7 90 35.5161028 90 64.4838972 90 92.7654004 90"></polygon>
                <polygon id="Shape" fill="#3590B7" fill-rule="nonzero" points="63 51 63 91 35 91 35 51 40.9973407 51 56.9992747 51"></polygon>
                <polygon id="Shape" fill="#FCBC1D" fill-rule="nonzero" points="60 24.4626531 60 51 43 51 43 24.4626531 43 17 60 17"></polygon>
                <path d="M43,17 C44.2307741,41.1701837 60,51 60,51 L43,51 C43,51 43,28.911449 43,17 Z" id="Shape" fill="#000000" fill-rule="nonzero" opacity="0.25"></path>
                <polygon id="Shape" fill="#0573AF" fill-rule="nonzero" points="64 24 64 50 58 50 58 24 63.7766497 24"></polygon>
                <rect id="Rectangle-path" fill="#0573AF" fill-rule="nonzero" x="35" y="24" width="6" height="26"></rect>
                <path d="M100,67.2050159 C100,75.4473485 97.9358136,83.2066777 94.3008994,90 L94.0680703,90 L66,90 L66,50.8906179 L66,24.3115274 L66,21 C85.6966476,27.126152 100,45.4976583 100,67.2050159 Z" id="Shape" fill="#53AEF9" fill-rule="nonzero"></path>
                <path d="M35,50.8906179 L35,90 L6.69910057,90 C3.06071137,83.2066777 1,75.4473485 1,67.2050159 C1,45.4976583 15.2998774,27.126152 35,21 L35,24.3115274 L35,50.8906179 Z" id="Shape" fill="#53AEF9" fill-rule="nonzero"></path>
                <path d="M35,21 L35,22.0007554 C21.7808667,31.2785919 13.0480376,47.3045777 13.0480376,65.519716 C13.0480376,74.3736214 15.108749,82.7063 18.7471382,90 L6.69910057,90 C3.06071137,83.2066777 1,75.4473485 1,67.2050159 C1,45.4976583 15.2998774,27.126152 35,21 Z" id="Shape" fill="#000000" fill-rule="nonzero" opacity="0.25"></path>
                <path d="M65.7626969,93 C64.7889831,93 64,92.3283 64,91.5 C64,90.6717 64.7889831,90 65.7626969,90 L94.2373031,90 C95.2110169,90 96,90.6717 96,91.5 C96,92.0522 85.920899,92.5522 65.7626969,93 Z" id="Shape" fill="#333333" fill-rule="nonzero"></path>
                <path d="M10.7626969,93 C9.78898314,93 9,92.3283 9,91.5 C9,90.6717 9.78898314,90 10.7626969,90 L39.2373031,90 C40.2110169,90 41,90.6717 41,91.5 C41,92.0522 30.920899,92.5522 10.7626969,93 Z" id="Shape" fill="#333333" fill-rule="nonzero"></path>
                <path d="M32.262086,163 L7.48816313,163 C6.52205012,163 5.7385923,162.21736 5.7385923,161.252256 L5.7385923,89.5919665 C1.98296357,82.4328586 0,74.3645744 0,66.2270795 C0,55.255793 3.46764937,44.8249088 10.0274902,36.0631199 C16.3700344,27.5914564 25.4041183,21.2045017 35.4655502,18.0788368 C35.99637,17.9138498 36.5744282,18.0110243 37.0223183,18.3402992 C37.4702084,18.6695742 37.7347435,19.1921495 37.7347435,19.7475825 L37.7347435,87.4097337 L63.1840007,87.4097337 L63.1840007,19.7479321 C63.1840007,19.1924991 63.4485358,18.6699237 63.896426,18.3406488 C64.3443161,18.0113739 64.9227242,17.9141993 65.4531941,18.0791863 C73.879827,20.697656 81.5156539,25.5238756 87.5359271,32.0366678 C88.1913163,32.7459022 88.1472272,33.8515249 87.4372513,34.5062297 C86.7276254,35.1609345 85.6211968,35.1168914 84.9651077,34.4080065 C79.9070985,28.9361704 73.6243897,24.7433332 66.6831424,22.1867337 L66.6831424,89.157827 C66.6831424,90.1229311 65.9000345,90.9055707 64.9335716,90.9055707 L35.9851727,90.9055707 C35.0190597,90.9055707 34.2356019,90.1229311 34.2356019,89.157827 L34.2356019,22.1842868 C15.7534856,28.9519001 3.49914165,46.3604764 3.49914165,66.2274291 C3.49914165,73.9395231 5.41177247,81.5831056 9.03058476,88.3325424 C9.16670137,88.5863148 9.23773395,88.8697988 9.23773395,89.157827 L9.23773395,159.504513 L32.262086,159.504513 C33.228199,159.504513 34.0116568,160.287152 34.0116568,161.252256 C34.0116568,162.21736 33.228199,163 32.262086,163 Z" id="Shape" fill="#333333" fill-rule="nonzero"></path>
                <path d="M93.5146278,165 L68.7487553,165 C67.7827429,165 67,164.212558 67,163.241532 C67,162.270506 67.7827429,161.483064 68.7487553,161.483064 L91.7658725,161.483064 L91.7658725,90.7047209 C91.7658725,90.4152771 91.836872,90.1304052 91.9729252,89.8750756 C95.5900506,83.0768378 97.5021397,75.3860015 97.5021397,67.6336189 C97.5021397,57.9669678 94.6163437,48.6745187 89.1563799,40.7610604 C88.6058717,39.9630675 88.8027815,38.8675419 89.5963667,38.3139761 C90.3906514,37.7600587 91.4794264,37.9584139 92.0302843,38.7564067 C97.8980579,47.2614137 101,57.2470509 101,67.6336189 C101,75.813661 99.0179607,83.931805 95.2640826,91.1415244 L95.2640826,163.241532 C95.2633831,164.212558 94.4802905,165 93.5146278,165 Z" id="Shape" fill="#333333" fill-rule="nonzero"></path>
                <path d="M74.4447198,32 C74.1479797,32 73.8478217,31.9057003 73.5824646,31.7081198 C72.382454,30.8158992 71.1252705,29.9934534 69.8454042,29.2642711 C69.0816481,28.8290415 68.7799365,27.7882901 69.171447,26.9395924 C69.562336,26.0908946 70.4991645,25.7554915 71.2622992,26.1903757 C72.6487433,26.980352 74.0106403,27.8708455 75.3100821,28.8373316 C76.0231904,29.3675518 76.2145956,30.4404273 75.7376364,31.2331669 C75.4377891,31.7309176 74.9459153,32 74.4447198,32 Z" id="Shape" fill="#FFFFFF" fill-rule="nonzero"></path>
                <path d="M90.4674615,84 C90.2640696,84 90.0576115,83.9621832 89.8562638,83.8830479 C88.9783059,83.5360435 88.5401787,82.5230427 88.8778024,81.6203409 C90.6793706,76.8056981 91.5931009,71.7504983 91.5931009,66.595504 C91.5931009,57.5103606 88.803532,48.8748173 83.5252232,41.6220394 C81.7951999,39.2448314 79.7980756,37.0416509 77.5880202,35.0741252 C76.8770003,34.4410434 76.8000044,33.3352513 77.4159718,32.6044761 C78.0329612,31.8733507 79.1081786,31.7945656 79.8191984,32.4276474 C82.212545,34.559046 84.3776294,36.9471088 86.253468,39.5249561 C91.975355,47.3877054 95,56.7487717 95,66.5958542 C95,72.1822404 94.0102958,77.6600784 92.057802,82.8777505 C91.7968335,83.57316 91.1519075,84 90.4674615,84 Z" id="Shape" fill="#FFFFFF" fill-rule="nonzero"></path>
                <path d="M64.3376431,26 L58.6623569,26 C57.7440709,26 57,25.3283 57,24.5 C57,23.6717 57.7440709,23 58.6623569,23 L64.3376431,23 C65.2559291,23 66,23.6717 66,24.5 C66,25.3283 65.2559291,26 64.3376431,26 Z" id="Shape" fill="#333333" fill-rule="nonzero"></path>
                <path d="M41.3766234,26 L35.6233766,26 C34.7269481,26 34,25.3283 34,24.5 C34,23.6717 34.7269481,23 35.6233766,23 L41.3766234,23 C42.2730519,23 43,23.6717 43,24.5 C43,25.3283 42.2733766,26 41.3766234,26 Z" id="Shape" fill="#333333" fill-rule="nonzero"></path>
                <path d="M59.2541899,53 C58.2898045,53 57.5083799,52.2122037 57.5083799,51.2407407 L57.5083799,18.5185185 L44.4916201,18.5185185 L44.4916201,51.2407407 C44.4916201,52.2122037 43.7098464,53 42.7458101,53 C41.7817737,53 41,52.2122037 41,51.2407407 L41,16.7592593 C41,15.7877963 41.7817737,15 42.7458101,15 L59.2541899,15 C60.2185754,15 61,15.7877963 61,16.7592593 L61,51.2407407 C61,52.2122037 60.2185754,53 59.2541899,53 Z" id="Shape" fill="#333333" fill-rule="nonzero"></path>
                <path d="M93.2662261,101 L79.7337739,101 C78.7760372,101 78,100.3283 78,99.5 C78,98.6717 78.7760372,98 79.7337739,98 L93.2662261,98 C94.2239628,98 95,98.6717 95,99.5 C95,100.3283 94.223616,101 93.2662261,101 Z" id="Shape" fill="#333333" fill-rule="nonzero"></path>
                <path d="M77.0434357,101 L74.9565643,101 C73.8757582,101 73,100.3283 73,99.5 C73,98.6717 73.8757582,98 74.9565643,98 L77.0434357,98 C78.1242418,98 79,98.6717 79,99.5 C79,100.3283 78.1242418,101 77.0434357,101 Z" id="Shape" fill="#333333" fill-rule="nonzero"></path>
                <path d="M68.2473628,101 L7.75263717,101 C6.78483093,101 6,100.3283 6,99.5 C6,98.6717 6.78483093,98 7.75263717,98 L68.2473628,98 C69.2155196,98 70,98.6717 70,99.5 C70,100.3283 69.2155196,101 68.2473628,101 Z" id="Shape" fill="#333333" fill-rule="nonzero"></path>
                <path d="M94.2395055,131 L7.7604945,131 C6.78834944,131 6,130.3283 6,129.5 C6,128.6717 6.78834944,128 7.7604945,128 L94.2395055,128 C95.2120027,128 96,128.6717 96,129.5 C96,130.3283 95.2116506,131 94.2395055,131 Z" id="Shape" fill="#333333" fill-rule="nonzero"></path>
                <path d="M68.245614,165 L31.754386,165 C30.785614,165 30,164.210925 30,163.237885 L30,134.762115 C30,133.789075 30.785614,133 31.754386,133 L68.245614,133 C69.2147368,133 70,133.789075 70,134.762115 C70,135.735154 69.2147368,136.524229 68.245614,136.524229 L33.5087719,136.524229 L33.5087719,161.475771 L66.4912281,161.475771 L66.4912281,141.92793 C66.4912281,140.95489 67.2764912,140.165815 68.245614,140.165815 C69.2147368,140.165815 70,140.95489 70,141.92793 L70,163.237885 C70,164.210925 69.214386,165 68.245614,165 Z" id="Shape" fill="#333333" fill-rule="nonzero"></path>
                <path d="M64.2745606,52 L35.7254394,52 C34.7726518,52 34,51.3283 34,50.5 C34,49.6717 34.7726518,49 35.7254394,49 L64.2745606,49 C65.2276933,49 66,49.6717 66,50.5 C66,51.3283 65.2270031,52 64.2745606,52 Z" id="Shape" fill="#333333" fill-rule="nonzero"></path>
                <path d="M64.2746722,58 L35.7253278,58 C34.7726018,58 34,57.3283 34,56.5 C34,55.6717 34.7726018,55 35.7253278,55 L64.2746722,55 C65.2277433,55 66,55.6717 66,56.5 C66,57.3283 65.2273982,58 64.2746722,58 Z" id="Shape" fill="#333333" fill-rule="nonzero"></path>
                <path d="M64.3548663,66 L52.6451337,66 C51.7363618,66 51,65.3283 51,64.5 C51,63.6717 51.7363618,63 52.6451337,63 L64.3548663,63 C65.2636382,63 66,63.6717 66,64.5 C66,65.3283 65.2633091,66 64.3548663,66 Z" id="Shape" fill="#333333" fill-rule="nonzero"></path>
                <path d="M47.2617563,66 L35.7382437,66 C34.7783855,66 34,65.3283 34,64.5 C34,63.6717 34.7783855,63 35.7382437,63 L47.2617563,63 C48.2216145,63 49,63.6717 49,64.5 C49,65.3283 48.2216145,66 47.2617563,66 Z" id="Shape" fill="#333333" fill-rule="nonzero"></path>
                <path d="M64.2746722,74 L35.7253278,74 C34.7726018,74 34,73.3283 34,72.5 C34,71.6717 34.7726018,71 35.7253278,71 L64.2746722,71 C65.2277433,71 66,71.6717 66,72.5 C66,73.3283 65.2273982,74 64.2746722,74 Z" id="Shape" fill="#333333" fill-rule="nonzero"></path>
                <path d="M64.3689151,81 L58.6310849,81 C57.7300736,81 57,80.3283 57,79.5 C57,78.6717 57.7300736,78 58.6310849,78 L64.3689151,78 C65.2699264,78 66,78.6717 66,79.5 C66,80.3283 65.2696002,81 64.3689151,81 Z" id="Shape" fill="#333333" fill-rule="nonzero"></path>
                <path d="M53.3013557,81 L35.6986443,81 C34.7606529,81 34,80.3283 34,79.5 C34,78.6717 34.7606529,78 35.6986443,78 L53.3013557,78 C54.2396868,78 55,78.6717 55,79.5 C55,80.3283 54.2393471,81 53.3013557,81 Z" id="Shape" fill="#333333" fill-rule="nonzero"></path>
                <path d="M64.2746722,87 L35.7253278,87 C34.7726018,87 34,86.3283 34,85.5 C34,84.6717 34.7726018,84 35.7253278,84 L64.2746722,84 C65.2277433,84 66,84.6717 66,85.5 C66,86.3283 65.2273982,87 64.2746722,87 Z" id="Shape" fill="#333333" fill-rule="nonzero"></path>
                <rect id="Rectangle-path" fill="#FCBC1D" fill-rule="nonzero" x="38" y="7" width="24" height="9"></rect>
                <path d="M61.3352542,17 L38.6647458,17 C37.7454732,17 37,16.2133243 37,15.2432432 L37,5.75675676 C37,4.78667568 37.7454732,4 38.6647458,4 L61.3352542,4 C62.2548598,4 63,4.78667568 63,5.75675676 L63,15.2432432 C63,16.2133243 62.2548598,17 61.3352542,17 Z M40.3298246,13.4864865 L59.6708413,13.4864865 L59.6708413,7.51351351 L40.3298246,7.51351351 L40.3298246,13.4864865 Z" id="Shape" fill="#333333" fill-rule="nonzero"></path>
                <path d="M31.258913,87 L21.741087,87 C20.7796587,87 20,86.3283 20,85.5 C20,84.6717 20.7796587,84 21.741087,84 L31.258913,84 C32.2203413,84 33,84.6717 33,85.5 C33,86.3283 32.2203413,87 31.258913,87 Z" id="Shape" fill="#FFFFFF" fill-rule="nonzero"></path>
                <polygon id="Shape" fill="#808080" fill-rule="nonzero" points="28 105 15 125 28 125"></polygon>
                <polygon id="Shape" fill="#808080" fill-rule="nonzero" points="47 105 34 125 47 125"></polygon>
                <polygon id="Shape" fill="#808080" fill-rule="nonzero" points="67 105 54 125 67 125"></polygon>
                <polygon id="Shape" fill="#808080" fill-rule="nonzero" points="88 105 75 125 88 125"></polygon>
                <path d="M26.3333333,127 L14.6666667,127 C13.7463333,127 13,126.195359 13,125.203125 L13,105.796875 C13,104.804641 13.7463333,104 14.6666667,104 L26.3333333,104 C27.2536667,104 28,104.804641 28,105.796875 L28,118.614703 C28,119.606938 27.2536667,120.411578 26.3333333,120.411578 C25.413,120.411578 24.6666667,119.606938 24.6666667,118.614703 L24.6666667,107.59375 L16.3333333,107.59375 L16.3333333,123.40625 L26.3333333,123.40625 C27.2536667,123.40625 28,124.210891 28,125.203125 C28,126.195359 27.2536667,127 26.3333333,127 Z" id="Shape" fill="#333333" fill-rule="nonzero"></path>
                <path d="M45.3333333,127 L33.6666667,127 C32.7463333,127 32,126.195359 32,125.203125 L32,105.796875 C32,104.804641 32.7463333,104 33.6666667,104 L45.3333333,104 C46.2536667,104 47,104.804641 47,105.796875 L47,125.203125 C47,126.195359 46.2536667,127 45.3333333,127 Z M35.3333333,123.40625 L43.6666667,123.40625 L43.6666667,107.59375 L35.3333333,107.59375 L35.3333333,123.40625 Z" id="Shape" fill="#333333" fill-rule="nonzero"></path>
                <path d="M86.3333333,127 L74.6666667,127 C73.746,127 73,126.195359 73,125.203125 L73,105.796875 C73,104.804641 73.746,104 74.6666667,104 L86.3333333,104 C87.254,104 88,104.804641 88,105.796875 L88,125.203125 C88,126.195359 87.2536667,127 86.3333333,127 Z M76.3333333,123.40625 L84.6666667,123.40625 L84.6666667,107.59375 L76.3333333,107.59375 L76.3333333,123.40625 Z" id="Shape" fill="#333333" fill-rule="nonzero"></path>
                <path d="M65.3333333,127 L53.6666667,127 C52.746,127 52,126.195359 52,125.203125 L52,105.796875 C52,104.804641 52.746,104 53.6666667,104 L65.3333333,104 C66.254,104 67,104.804641 67,105.796875 L67,125.203125 C67,126.195359 66.2536667,127 65.3333333,127 Z M55.3333333,123.40625 L63.6666667,123.40625 L63.6666667,107.59375 L55.3333333,107.59375 L55.3333333,123.40625 Z" id="Shape" fill="#333333" fill-rule="nonzero"></path>
                <path d="M87.5,159 C86.671625,159 86,158.372227 86,157.597938 L86,143.402062 C86,142.627773 86.671625,142 87.5,142 C88.328375,142 89,142.627773 89,143.402062 L89,157.597938 C89,158.372227 88.328,159 87.5,159 Z" id="Shape" fill="#FFFFFF" fill-rule="nonzero"></path>
                <path d="M87.5,140 C86.671625,140 86,139.383446 86,138.622996 L86,134.377004 C86,133.616554 86.671625,133 87.5,133 C88.328375,133 89,133.616554 89,134.377004 L89,138.622996 C89,139.383446 88.328,140 87.5,140 Z" id="Shape" fill="#FFFFFF" fill-rule="nonzero"></path>
                <path d="M88,94 L88,95" id="Shape" stroke="#FFFFFF" stroke-width="8" stroke-linecap="round" stroke-linejoin="round"></path>
                <path d="M58.5,13 C57.671625,13 57,12.4626866 57,11.79997 L57,10.20003 C57,9.53731343 57.671625,9 58.5,9 C59.328375,9 60,9.53731343 60,10.20003 L60,11.79997 C60,12.4626866 59.328375,13 58.5,13 Z" id="Shape" fill="#FFFFFF" fill-rule="nonzero"></path>
                <path d="M53.5,36 C52.671625,36 52,35.3898247 52,34.6372412 L52,19.3627588 C52,18.6101753 52.671625,18 53.5,18 C54.328375,18 55,18.6101753 55,19.3627588 L55,34.6369005 C55,35.3898247 54.328375,36 53.5,36 Z" id="Shape" fill="#FFFFFF" fill-rule="nonzero"></path>
            </g>
        </g>
    </g>
</svg>