<?xml version="1.0" encoding="UTF-8"?>
<svg width="60px" height="60px" viewBox="0 0 60 60" version="1.1" xmlns="http://www.w3.org/2000/svg" xmlns:xlink="http://www.w3.org/1999/xlink">
    <!-- Generator: Sketch 49.3 (51167) - http://www.bohemiancoding.com/sketch -->
    <title>painting</title>
    <desc>Created with Sketch.</desc>
    <defs></defs>
    <g id="Main-Page" stroke="none" stroke-width="1" fill="none" fill-rule="evenodd">
        <g id="Контент-1--RU-" transform="translate(-130.000000, -2455.000000)" fill-rule="nonzero">
            <g id="painting" transform="translate(130.000000, 2455.000000)">
                <g id="Group" transform="translate(7.017544, 1.171875)" fill="#FFC66C">
                    <path d="M25.1260965,0 L20.8374451,0 C20.212902,0 19.7066887,0.507202148 19.7066887,1.13296512 L19.7066887,4.6875 L26.2563963,4.6875 L26.2563963,1.13296512 C26.2563963,0.507202148 25.7501827,0 25.1260965,0 Z" id="Shape"></path>
                    <polygon id="Shape" points="31.3893457 44.0615845 39.2228619 57.65625 45.9498356 57.65625 38.1163194 44.0615845"></polygon>
                    <polygon id="Shape" points="14.5741959 44.0615845 6.74067977 57.65625 0.0137061988 57.65625 7.84722222 44.0615845"></polygon>
                </g>
                <path d="M55.4303729,45.2334595 L4.56825661,45.2334595 C2.72341006,45.2334595 1.22807018,43.7351989 1.22807018,41.8867493 L1.22807018,9.2056275 C1.22807018,7.35763547 2.72341006,5.859375 4.56825661,5.859375 L55.4303729,5.859375 C57.2752193,5.859375 58.7705592,7.35763547 58.7705592,9.2056275 L58.7705592,41.8867493 C58.7705592,43.7351989 57.2752193,45.2334595 55.4303729,45.2334595 Z" id="Shape" fill="#C9F3FF"></path>
                <path d="M55.4303729,45.2334595 C57.2752193,45.2334595 58.7705592,43.7351989 58.7705592,41.8867493 L58.7705592,30.4678345 L44.2096126,15.8784485 L31.8855081,28.2266236 L27.2660819,23.5977173 L5.67251462,45.2334595 L55.4303729,45.2334595 Z" id="Shape" fill="#36D28F"></path>
                <path d="M15.0287829,18.7495423 C15.0287829,20.8204651 13.3534357,22.4995423 11.2860929,22.4995423 C9.2192069,22.4995423 7.54385965,20.8204651 7.54385965,18.7495423 C7.54385965,16.6786194 9.2192069,14.9995423 11.2860929,14.9995423 C13.3534357,14.9995423 15.0287829,16.6786194 15.0287829,18.7495423 Z" id="Shape" fill="#FFC66C"></path>
                <path d="M55.4303729,4.6875 L34.4435308,4.6875 L34.4435308,2.30484012 C34.4435308,1.03363031 33.4119152,0 32.1436404,0 L27.854989,0 C26.5867142,0 25.5550987,1.03363031 25.5550987,2.30484012 L25.5550987,4.6875 L4.56825661,4.6875 C2.08150585,4.6875 0.0584795322,6.71447754 0.0584795322,9.2056275 L0.0584795322,41.8867493 C0.0584795322,44.3783569 2.08150585,46.4053345 4.56825661,46.4053345 L12.8389986,46.4053345 L6.0183662,58.2421875 C5.80911918,58.6047363 5.80911918,59.0515137 6.0183662,59.4140625 C6.22715649,59.7766113 6.61321275,60 7.03125006,60 L13.7582236,60 C14.1762609,60 14.5623172,59.7766113 14.7711075,59.4140625 L22.2669956,46.4053345 L37.7316338,46.4053345 L40.5674342,51.3267517 L28.1281981,51.3267517 C27.482182,51.3267517 26.9586075,51.8518066 26.9586075,52.4986267 C26.9586075,53.1459046 27.482182,53.6705017 28.1281981,53.6705017 L41.917946,53.6705017 L45.2275219,59.4140625 C45.4363122,59.7766113 45.8228253,60 46.2404057,60 L52.9678363,60 C53.3854166,60 53.771473,59.7766113 53.9802632,59.4140625 C54.1895102,59.0515137 54.1895102,58.6047363 53.9802632,58.2421875 L47.1596309,46.4053345 L55.4303729,46.4053345 C57.9171235,46.4053345 59.9401498,44.3783569 59.9401498,41.8867493 L59.9401498,9.2056275 C59.9401498,6.71447754 57.9171235,4.6875 55.4303729,4.6875 Z M27.89428,2.34375 L32.1043495,2.34375 L32.1043495,4.6875 L27.89428,4.6875 L27.89428,2.34375 Z M2.39766082,41.8867493 L2.39766082,9.2056275 C2.39766082,8.00674441 3.37125368,7.03125 4.56825661,7.03125 L55.4303729,7.03125 C56.6273757,7.03125 57.6009685,8.00674441 57.6009685,9.2056275 L57.6009685,27.6388549 L45.0365497,15.0498962 C44.5796784,14.5921325 43.8395468,14.5921325 43.3822186,15.0498962 L31.8855081,26.5690613 L28.0930189,22.769165 C27.6361476,22.3114014 26.8955592,22.3114014 26.4386878,22.769165 L5.18777415,44.0615845 L4.56825661,44.0615845 C3.37125368,44.0615845 2.39766082,43.0860901 2.39766082,41.8867493 Z M13.0829678,57.65625 L9.0565607,57.65625 L15.540022,46.4053345 L19.5664291,46.4053345 L13.0829678,57.65625 Z M50.9416118,57.65625 L46.9156615,57.65625 L40.4322002,46.4053345 L44.4586075,46.4053345 L50.9416118,57.65625 Z M55.4303729,44.0615845 L8.49597953,44.0615845 L27.265625,25.2548217 L31.058114,29.054718 C31.058114,29.054718 31.0585709,29.054718 31.0585709,29.0551758 L31.0590278,29.0551758 L36.3217288,34.3281555 C36.7786001,34.7859192 37.5187317,34.7859192 37.975603,34.3281555 C38.4324744,33.8708496 38.4324744,33.1288147 37.975603,32.6710511 L33.5398392,28.2261657 L44.2096126,17.535553 L57.6009685,30.9535218 L57.6009685,41.8862916 C57.6009685,43.0860901 56.6273757,44.0615845 55.4303729,44.0615845 Z" id="Shape" fill="#000000"></path>
                <path d="M23.3328765,51.3267517 C23.0254021,51.3267517 22.7234101,51.452179 22.5059393,51.6700745 C22.2884685,51.8884277 22.1632858,52.1905518 22.1632858,52.4986267 C22.1632858,52.8071595 22.2884685,53.1092835 22.5059393,53.327179 C22.7234101,53.5450745 23.0254021,53.6705017 23.3328765,53.6705017 C23.6403509,53.6705017 23.9423428,53.5450745 24.1593567,53.327179 C24.3772843,53.1092835 24.5024671,52.8071595 24.5024671,52.4986267 C24.5024671,52.1905518 24.3772843,51.8884277 24.1593567,51.6700745 C23.9423428,51.452179 23.6403509,51.3267517 23.3328765,51.3267517 Z" id="Shape" fill="#000000"></path>
                <path d="M40.6574379,35.8433532 C40.3485929,35.8433532 40.0479715,35.9687805 39.8305007,36.1866761 C39.6130299,36.4045716 39.4878473,36.7071533 39.4878473,37.0152282 C39.4878473,37.3233033 39.6130299,37.625885 39.8305007,37.8433228 C40.0479715,38.0616761 40.3499635,38.1871032 40.6574379,38.1871032 C40.9649123,38.1871032 41.2669042,38.0616761 41.484375,37.8433228 C41.7018457,37.625885 41.8270285,37.3233033 41.8270285,37.0152282 C41.8270285,36.7071533 41.7018457,36.4045716 41.484375,36.1866761 C41.2669042,35.9687805 40.9649123,35.8433532 40.6574379,35.8433532 Z" id="Shape" fill="#000000"></path>
                <path d="M11.2860929,23.6714173 C13.994883,23.6714173 16.1983736,21.463623 16.1983736,18.7495423 C16.1983736,16.0354615 13.994883,13.8276673 11.2860929,13.8276673 C8.57775953,13.8276673 6.37426901,16.0354615 6.37426901,18.7495423 C6.37426901,21.463623 8.57775953,23.6714173 11.2860929,23.6714173 Z M11.2860929,16.1714173 C12.7051352,16.1714173 13.8591923,17.3281861 13.8591923,18.7495423 C13.8591923,20.1708984 12.7051352,21.3276673 11.2860929,21.3276673 C9.86750737,21.3276673 8.71345029,20.1708984 8.71345029,18.7495423 C8.71345029,17.3281861 9.86750737,16.1714173 11.2860929,16.1714173 Z" id="Shape" fill="#000000"></path>
            </g>
        </g>
    </g>
</svg>