<?xml version="1.0" encoding="UTF-8"?>
<svg width="55px" height="49px" viewBox="0 0 55 49" version="1.1" xmlns="http://www.w3.org/2000/svg" xmlns:xlink="http://www.w3.org/1999/xlink">
    <!-- Generator: Sketch 49.3 (51167) - http://www.bohemiancoding.com/sketch -->
    <title>paperless</title>
    <desc>Created with Sketch.</desc>
    <defs></defs>
    <g id="Main-Page" stroke="none" stroke-width="1" fill="none" fill-rule="evenodd">
        <g id="Контент-2--RU-" transform="translate(-64.000000, -432.000000)" fill-rule="nonzero">
            <g id="Group-3" transform="translate(64.000000, 425.000000)">
                <g id="paperless" transform="translate(0.000000, 7.000000)">
                    <path d="M21.389056,45 L20.7671343,45 C15.9330188,45 12,41.4907271 12,37.177324 L12,20.6851547 C12,20.2686683 12.3783033,19.9311144 12.8450678,19.9311144 C13.3119401,19.9311144 13.6901357,20.2687645 13.6901357,20.6851547 L13.6901357,37.177324 C13.6901357,40.6591003 16.8648238,43.4918231 20.7670266,43.4918231 L21.3889482,43.4918231 C25.2910433,43.4918231 28.4657314,40.6591003 28.4657314,37.177324 L28.4657314,12.8227722 C28.4657314,8.50927288 32.3986424,5 37.2328657,5 C42.067089,5 46,8.50927288 46,12.8227722 L46,30.6468903 C46,31.0633767 45.6216967,31.4009307 45.1549322,31.4009307 C44.6880599,31.4009307 44.3098643,31.0632806 44.3098643,30.6468903 L44.3098643,12.8227722 C44.3098643,9.34099584 41.1351762,6.50817686 37.2329734,6.50817686 C33.3307706,6.50817686 30.1560825,9.3408997 30.1560825,12.8227722 L30.1560825,37.177324 C30.1560825,41.4907271 26.2232793,45 21.389056,45 Z" id="Shape" fill="#F9572B"></path>
                    <ellipse id="Oval" fill="#FCC63D" cx="13.5" cy="12" rx="13.5" ry="12"></ellipse>
                    <path d="M13.5961176,6 C12.5075139,6 11.5232069,6.16097032 10.6704951,6.47866274 C9.86331541,6.77936231 9.17095593,7.22099171 8.61290064,7.79117572 C7.55774271,8.8694829 7,10.3838783 7,12.1706211 C7,14.0053872 7.6053587,15.5250468 8.750539,16.5654894 C9.76881277,17.4905839 11.1819763,18 12.729965,18 C13.260305,18 14.1540687,17.9334139 14.9276984,17.7457537 C15.5116976,17.6040851 16.2080164,17.34753 16.2080164,16.9300969 C16.2080164,16.6996775 15.9918169,16.2697769 15.5785892,16.2697769 C15.4310526,16.2697769 15.2634068,16.323249 15.0511666,16.3909433 C14.6489833,16.5193132 14.041124,16.7132533 13.0186825,16.7132533 C11.4574614,16.7132533 10.2956103,16.2514911 9.56542891,15.3407113 C8.95413123,14.5782495 8.6441584,13.5057605 8.6441584,12.1532589 C8.6441584,10.7074813 8.99539148,9.56203391 9.68795935,8.74859355 C10.5142063,7.77833873 11.8291162,7.28628489 13.5961176,7.28628489 C15.2127692,7.28628489 16.4364065,7.69679152 17.2331669,8.50616837 C18.0035666,9.28894772 18.3941845,10.4643173 18.3941845,11.9996768 C18.3941845,12.4208039 18.3612596,13.0275595 18.2046582,13.5274633 C18.0210709,14.1130702 17.7139113,14.4099833 17.2914105,14.4099833 C16.9116287,14.4099833 16.7020975,14.1606317 16.6122835,13.6031923 L16.6122835,10.7201336 C16.6122835,9.13259503 15.0490827,8.42212765 13.4999479,8.42212765 C12.1943111,8.42212765 10.7340525,8.91612089 10.7340525,9.57717971 C10.7340525,9.86162525 10.9917207,10.408167 11.3443083,10.408167 C11.4695477,10.408167 11.5967668,10.3497079 11.7580569,10.2757336 C12.0597985,10.137205 12.4730262,9.94751303 13.2306102,9.94751303 C14.2849346,9.94751303 14.775994,10.3231104 14.775994,11.1296244 L14.775994,11.3734348 L14.1737611,11.3734348 C11.5613414,11.3734348 10.2915468,12.063677 10.2915468,13.4837806 C10.2915468,14.8472721 11.5067445,15.4577218 12.7110019,15.4577218 C13.652069,15.4577218 14.4150711,15.0937608 15.1100353,14.3129209 C15.3075844,15.0497087 16.1184108,15.5429631 17.1378307,15.5429631 C18.0662905,15.5429631 18.8200194,15.1434464 19.3172262,14.3875417 C19.7638997,13.7085665 20,12.7649091 20,11.6583421 C19.9995832,8.11551752 17.6057594,6 13.5961176,6 Z M14.8720596,12.3533866 L14.8720596,12.8701909 C14.8720596,13.5701301 14.030288,14.2569553 13.1726791,14.2569553 C12.6268144,14.2569553 12.3010043,13.9553322 12.3010043,13.4501643 C12.3010043,12.7120835 12.9889876,12.3533866 14.4045476,12.3533866 L14.8720596,12.3533866 Z" id="Shape" fill="#45B8C4"></path>
                    <path d="M49.833559,26 L41.166441,26 C38.3132038,26 36,28.0359718 36,30.5474661 L36,40.6381649 C36,45.2562989 40.2532722,49 45.5,49 C50.7467278,49 55,45.2562989 55,40.6381649 L55,30.5473717 C55,28.0359718 52.6869034,26 49.833559,26 Z" id="Shape" fill="#D8D8D8"></path>
                    <g id="Group" transform="translate(36.000000, 26.000000)" fill="#BCBCBC">
                        <path d="M3.4960283,14.6370492 L3.4960283,4.55569672 C3.4960283,2.04652869 5.73535849,0.0125368852 8.49770755,0.0125368852 L5.07940566,0.0125368852 C2.31716038,0.0125368852 0.0777264151,2.04662295 0.0777264151,4.55569672 L0.0777264151,14.6370492 C0.0777264151,19.2509057 4.19535849,22.9911393 9.27476415,22.9911393 C9.85900943,22.9911393 10.4298679,22.9394836 10.9839151,22.8448443 C6.72162264,22.1168566 3.4960283,18.720209 3.4960283,14.6370492 Z" id="Shape"></path>
                        <rect id="Rectangle-path" x="8.46086792" y="0.0129139344" width="1.62789623" height="5.09308607"></rect>
                    </g>
                    <path d="M47,30.818165 L47,35.181835 C47,35.9410728 46.4869572,36.5927489 45.7583956,36.8642496 C45.5248234,36.9515045 45.268812,37 44.999949,37 C43.895938,37 43,36.185405 43,35.181835 L43,30.818165 C43,29.8145023 43.89604,29 44.999949,29 C45.26871,29 45.5247214,29.0484955 45.7583956,29.1357504 C46.0058393,29.227827 46.2288038,29.3636701 46.4144376,29.5323381 C46.7759135,29.8620706 47,30.31587 47,30.818165 Z" id="Shape" fill="#242C35"></path>
                    <path d="M48,30.7415175 L48,35.2584825 C48,36.0443922 47.3804401,36.7189615 46.5006159,37 C45.6207916,36.7199213 45,36.045448 45,35.2584825 L45,30.7415175 C45,29.954552 45.6209148,29.2799827 46.5006159,29 C46.7994334,29.0953112 47.0686894,29.2359265 47.2928642,29.4105197 C47.7293891,29.7518357 48,30.221577 48,30.7415175 Z" id="Shape" fill="#424C59"></path>
                </g>
            </g>
        </g>
    </g>
</svg>