<?xml version="1.0" encoding="UTF-8"?>
<svg width="124px" height="171px" viewBox="0 0 124 171" version="1.1" xmlns="http://www.w3.org/2000/svg" xmlns:xlink="http://www.w3.org/1999/xlink">
    <!-- Generator: Sketch 49.3 (51167) - http://www.bohemiancoding.com/sketch -->
    <title>rocket</title>
    <desc>Created with Sketch.</desc>
    <defs></defs>
    <g id="Main-Page" stroke="none" stroke-width="1" fill="none" fill-rule="evenodd">
        <g id="Контент-1--RU-" transform="translate(-776.000000, -484.000000)">
            <g id="Group-6" transform="translate(733.000000, 460.000000)">
                <g id="rocket" transform="translate(110.000000, 122.500000) rotate(15.000000) translate(-110.000000, -122.500000) translate(25.000000, 19.000000)">
                    <g id="Rocket-space" transform="translate(85.000000, 122.000000) rotate(-41.000000) translate(-85.000000, -122.000000) translate(24.000000, 63.000000)">
                        <g id="space">
                            <path d="M32.3335809,61.6640236 C29.6417758,66.3433348 23.6689386,67.7222729 23.6689386,67.7222729 C23.8396781,67.6438811 24.0072217,67.5638241 24.171628,67.4821744 C24.1691675,67.4829572 24.166706,67.4837397 24.1642437,67.4845219 C24.1642437,67.4845219 24.1677002,67.4832669 24.174459,67.4807681 C28.7949353,65.1850675 30.9365887,61.6311929 31.8971608,58.4306933 C31.9439323,57.9786302 31.9679144,57.5196423 31.9679144,57.0549451 C31.9679144,49.8934505 26.2721145,44.0879121 19.2459893,44.0879121 C14.6948184,44.0879121 10.701825,46.5237985 8.4534696,50.1862518 C8.47187212,49.992931 8.48128342,49.7970083 8.48128342,49.5989011 C8.48128342,46.1971912 5.70640655,43.4395604 2.28342246,43.4395604 C1.57273126,43.4395604 0.889978297,43.5584348 0.254198382,43.777267 C0.175247992,43.6491737 0.128709335,43.5479569 0.115956892,43.4747945 C26.6043313,-21.6666188 89.5850169,6.26718136 88.6818771,6.49430136 C79.366926,22.7488044 101.903388,49.5989011 121.481184,41.7438576 C121.481184,41.7438576 129.151933,98.920145 83.6585852,117.70547 C83.6585852,117.739411 83.6033615,117.724563 83.4957536,117.663362 C83.9246581,116.664179 84.1604278,115.574598 84.1604278,114.434066 C84.1604278,111.708685 82.8141721,109.274235 80.7033941,107.668963 C82.0562729,105.841982 82.855615,103.585187 82.855615,101.142857 C82.855615,95.0555868 77.8900458,90.1208791 71.7647059,90.1208791 C70.8372611,90.1208791 69.9364045,90.2340089 69.0753466,90.4471402 C70.4355616,93.1081308 70.8266458,95.5773393 70.8266458,95.5773393 C66.5160125,83.6647773 54.840615,84.7400943 54.840615,84.7400943 C58.4393978,83.5972411 61.253298,83.8202198 63.4456176,84.7656415 C62.1456368,84.0988326 60.6647075,83.6984158 59.088437,83.6437949 L75.6316309,59.0099352 L59.8805708,71.9864847 L77.6627083,51.2601267 L50.9986909,67.1743927 L61.8149951,65.0862667 L44.4019192,74.819261 C46.037204,76.8653085 45.7354796,79.6267372 45.7354796,79.6267372 C44.9077861,73.6431753 38.548025,72.6689196 38.548025,72.6689196 C38.6168467,72.6661898 38.6850158,72.6640243 38.7525387,72.6624135 C39.006806,71.8318571 39.144385,70.9442149 39.144385,70.021978 C39.144385,65.7384612 36.1763552,62.2012658 32.3335809,61.6640236 Z" id="Combined-Shape" fill="#222233"></path>
                            <path d="M22.0386261,78.7585893 C22.0386261,78.7585893 22.0386261,63.4179442 7.94472839,65.5540026 C7.94472839,65.5540026 19.644599,66.3183591 22.0386261,78.7585893 Z" id="Path-16" fill="#362D2C"></path>
                            <path d="M42.2640384,90.6836606 C42.2640384,90.6836606 42.2640384,75.3430155 28.1701407,77.4790739 C28.1701407,77.4790739 39.8700113,78.2434304 42.2640384,90.6836606 Z" id="Path-16" fill="#362D2C" transform="translate(35.217090, 83.979354) rotate(1.000000) translate(-35.217090, -83.979354) "></path>
                            <path d="M46.1784769,112.079265 C46.1784769,112.079265 46.1784769,96.7386199 32.0845792,98.8746783 C32.0845792,98.8746783 43.7844498,99.6390348 46.1784769,112.079265 Z" id="Path-16-Copy" fill="#362D2C" transform="translate(39.131528, 105.374958) rotate(1.000000) translate(-39.131528, -105.374958) "></path>
                            <path d="M66.6025887,114.267761 C66.6025887,114.267761 66.6025887,98.9271156 52.508691,101.063174 C52.508691,101.063174 64.2085617,101.82753 66.6025887,114.267761 Z" id="Path-16-Copy-2" fill="#362D2C" transform="translate(59.555640, 107.563454) rotate(-9.000000) translate(-59.555640, -107.563454) "></path>
                        </g>
                    </g>
                    <g id="rocket-ship" transform="translate(51.000000, 0.000000)" fill-rule="nonzero">
                        <path d="M73,42.5771971 L73,47 L60,47 L60,42.5771971 C60,36.4362629 62.320137,30.517023 66.498609,26 C70.6770811,30.517023 73,36.4362629 73,42.5771971 Z" id="Shape" fill="#F24125"></path>
                        <path d="M73,47 L73,123 L70.7772309,123 L68.3903274,109.432189 C67.5140167,104.466086 64.7904986,100.463636 61.1906698,98.8538958 C60.7817248,98.670473 60.3839076,98.456936 60,98.2160225 L60,59.8067433 L60,48.6973452 L60,47 L73,47 Z" id="Shape" fill="#E6E6E6"></path>
                        <path d="M64,30 L64,121.808504 L60,124 L60,43.0745455 C60,38.4131378 61.4056399,33.8812903 64,30 Z" id="Shape" fill="#000000" opacity="0.25"></path>
                        <path d="M23,42.5771971 L23,47 L10,47 L10,42.5771971 C10,37.8911322 11.3520223,33.3353127 13.8474214,29.4334917 C14.6235823,28.219715 15.5082388,27.0696754 16.498609,26 C20.6770811,30.517023 23,36.4362629 23,42.5771971 Z" id="Shape" fill="#F24125"></path>
                        <path d="M23,59.8067433 L23,98.2132848 C22.6160924,98.456936 22.2182752,98.670473 21.8065483,98.8538958 C18.2067195,100.463636 15.4832014,104.466086 14.6096726,109.432189 L12.2199872,123 L10,123 L10,47 L23,47 L23,48.6973452 L23,59.8067433 Z" id="Shape" fill="#E6E6E6"></path>
                        <path d="M14,30 L14,121.808504 L10,124 L10,43.0745455 C10,38.4131378 11.4056399,33.8812903 14,30 Z" id="Shape" fill="#000000" opacity="0.25"></path>
                        <path d="M68.624043,109.472633 L71,123 L66.7160775,123 L54,123 L54,85 C54,90.742853 56.4784167,95.8988651 60.2721942,98.2899009 C60.6543411,98.5300963 61.0503339,98.7429967 61.4574035,98.9258727 C65.0407232,100.530815 67.7517511,104.521333 68.624043,109.472633 Z" id="Shape" fill="#B3B3B3"></path>
                        <path d="M55,24 L27,24 C30.1333268,15.5627862 34.8607063,7.74090142 41.0013695,1 C47.1420327,7.74090142 51.8666732,15.5627862 55,24 Z" id="Shape" fill="#F24125"></path>
                        <path d="M60,59.6000296 L60,98 C56.2376605,95.6023967 53.7797818,90.4322225 53.7797818,84.6735954 L53.7797818,73.3315087 L53.7797818,65.5584569 C53.7797818,56.6851352 50.4293773,48.1347783 44.3931567,41.612531 C42.8332962,39.9265451 40.1639575,39.9265451 38.6040971,41.612531 C35.588733,44.8722861 33.2407036,48.6411214 31.6506346,52.7028147 C30.0578193,56.7672449 29.2202182,61.1217961 29.2202182,65.5584569 L29.2202182,73.3315087 L29.2202182,84.6735954 C29.2202182,90.4294855 26.7595933,95.5996597 23,97.997263 L23,59.6000296 L23,48.493324 C23,40.0551836 24.5378906,31.7648408 27.462629,24 L55.537371,24 C58.4621094,31.7648408 60,40.0551836 60,48.493324 L60,59.6000296 Z" id="Shape" fill="#E6E6E6"></path>
                        <path d="M42,1 L35.7136708,23.8185322 L35.7136708,113 L23,98.1643792 L23,48.4272386 C23,39.9493481 24.579338,31.6199514 27.5829004,23.8185322 C29.6416803,18.4782587 38.6523675,5.72154976 42,1 Z" id="Shape" fill="#000000" opacity="0.25"></path>
                        <path d="M22.7288274,98.2871714 C26.5192182,95.8961356 29,90.7401235 29,85 L29,123 L24.1242671,123 L12,123 L14.3783388,109.472633 C15.2477199,104.521333 17.9583062,100.530815 21.5410423,98.9258727 C21.9508143,98.7429967 22.3467427,98.5300963 22.7288274,98.2871714 Z" id="Shape" fill="#999999"></path>
                        <path d="M41.4986023,124 L29,124 L29,85.6321015 L29,74.2115749 L29,66.3847661 C29,61.9174221 29.8526222,57.5327556 31.474002,53.4402165 C33.0925864,49.3504333 35.4827239,45.5555334 38.5521637,42.2732344 C40.1399978,40.5755885 42.8572068,40.5755885 44.4450408,42.2732344 C50.5895113,48.8405884 54,57.450078 54,66.3847661 L54,74.2115749 L54,85.6321015 L54,124 L41.4986023,124 Z" id="Shape" fill="#CCCCCC"></path>
                        <path d="M53.6422609,125 L29.3577391,125 C28.6079956,125 28,124.3283 28,123.5 C28,122.6717 28.6079956,122 29.3577391,122 L53.6422609,122 C54.3920044,122 55,122.6717 55,123.5 C55,124.3283 54.392276,125 53.6422609,125 Z" id="Shape" fill="#000000"></path>
                        <rect id="Rectangle-path" fill="#333333" x="59" y="60" width="3" height="39"></rect>
                        <path d="M62,49 L59.2362139,49 C59.2362139,40.7017242 57.7548245,32.5519919 54.8332262,24.7769313 C51.8701711,16.900817 47.5564538,9.72986984 42.0012437,3.44162394 C36.4429935,9.73290697 32.128447,16.903302 29.1664974,24.7772074 C26.2451755,32.5514397 24.7637861,40.7014481 24.7637861,49 L22,49 C22,40.368744 23.5408108,31.8926579 26.5793172,23.8064293 C29.8455596,15.1240942 34.6924113,7.26427002 40.9855523,0.444801938 C41.2467301,0.161244154 41.6151428,0 42.0012437,0 C42.3873446,0 42.7554809,0.161244154 43.0172115,0.444801938 C49.3073123,7.26095678 54.1530585,15.120781 57.4204064,23.805877 C60.4594656,31.8926579 62,40.3690201 62,49 Z" id="Shape" fill="#333333"></path>
                        <polygon id="Shape" fill="#333333" points="22 99 22 60 25 60 25 98.9944409"></polygon>
                        <path d="M12.6608496,125 L10.4101886,125 C9.63148246,125 9,124.383858 9,123.624068 L9,42.837585 C9,36.3742811 11.4723427,30.1968959 15.9615371,25.4436005 C16.2283448,25.1609841 16.6045831,25 16.9985898,25 C17.3925965,25 17.7685528,25.1607089 18.0356425,25.4436005 C22.5268112,30.1990974 25,36.3764826 25,42.837585 L25,60.1027821 L22.1796228,60.1027821 L22.1796228,42.837585 C22.1796228,37.5873029 20.3506081,32.5472633 16.9985898,28.4827596 C13.6488278,32.5456122 11.8203772,37.585927 11.8203772,42.837585 L11.8203772,122.248136 L12.6608496,122.248136 L12.6608496,125 Z" id="Shape" fill="#333333"></path>
                        <path d="M19.4944587,44 C18.6630987,44 17.9889173,43.3939701 17.9889173,42.6466505 C17.9889173,39.9542971 17.365021,37.3520767 16.1346926,34.9125289 C15.7914292,34.2317941 16.1268638,33.4297992 16.8841511,33.1212355 C17.6411373,32.8124012 18.5336222,33.1139274 18.8768856,33.7949329 C20.2857712,36.5882462 21,39.5664271 21,42.6466505 C21,43.3939701 20.3258186,44 19.4944587,44 Z" id="Shape" fill="#FFFFFF"></path>
                        <path d="M73.5898114,125 L71.33633,125 L71.33633,122.248136 L72.1796228,122.248136 L72.1796228,42.837585 C72.1796228,37.5873029 70.3506081,32.5472633 66.9985898,28.4827596 C63.6488278,32.5456122 61.8203772,37.585927 61.8203772,42.837585 L61.8203772,60.1027821 L59,60.1027821 L59,42.837585 C59,36.3742811 61.4723427,30.1968959 65.9615371,25.4436005 C66.2283448,25.1609841 66.6045831,25 66.9985898,25 C67.3925965,25 67.7685528,25.1607089 68.0356425,25.4436005 C72.5268112,30.1990974 75,36.3764826 75,42.837585 L75,123.624068 C75,124.383858 74.3687996,125 73.5898114,125 Z" id="Shape" fill="#333333"></path>
                        <path d="M70.598953,125 L53.4007345,125 C52.6272489,125 52,124.384808 52,123.62619 L52,113.930659 C52,113.172041 52.6272489,112.556849 53.4007345,112.556849 C54.1742201,112.556849 54.8014691,113.172041 54.8014691,113.930659 L54.8014691,122.252379 L68.9348804,122.252379 L66.8150088,110.243352 C66.0177107,105.739452 63.5462547,102.060387 60.3657469,100.643164 C59.8962207,100.432971 59.4348187,100.186785 58.9933072,99.9103739 C54.7445992,97.2460059 52.0002801,91.5402962 52.0002801,85.3738105 C52.0002801,84.6151923 52.6275291,84 53.4010147,84 C54.1745003,84 54.8017492,84.6151923 54.8017492,85.3738105 C54.8017492,90.6264375 57.0387222,95.4232342 60.5007777,97.594679 C60.8316312,97.8013001 61.1770523,97.9859402 61.5266757,98.1422799 C65.5977705,99.9568087 68.6073887,104.305194 69.5755764,109.773784 L71.979517,123.391817 C72.0498339,123.791322 71.9372148,124.200717 71.6707951,124.510923 C71.4043754,124.82113 71.0121697,125 70.598953,125 Z" id="Shape" fill="#333333"></path>
                        <path d="M53.5,109 C52.6717,109 52,108.38669 52,107.630392 L52,85.3696079 C52,84.6133104 52.6717,84 53.5,84 C54.3283,84 55,84.6133104 55,85.3696079 L55,107.630392 C55,108.38669 54.3286,109 53.5,109 Z" id="Shape" fill="#333333"></path>
                        <path d="M55.6542635,26 L42.3457365,26 C41.6026208,26 41,25.3283 41,24.5 C41,23.6717 41.6026208,23 42.3457365,23 L55.6542635,23 C56.3973792,23 57,23.6717 57,24.5 C57,25.3283 56.3976483,26 55.6542635,26 Z" id="Shape" fill="#333333"></path>
                        <path d="M37.5905414,26 L27.4094586,26 C26.6311555,26 26,25.3283 26,24.5 C26,23.6717 26.6311555,23 27.4094586,23 L37.5905414,23 C38.3688445,23 39,23.6717 39,24.5 C39,25.3283 38.3688445,26 37.5905414,26 Z" id="Shape" fill="#333333"></path>
                        <path d="M23.5865724,49 L18.4134276,49 C17.6329329,49 17,48.3283 17,47.5 C17,46.6717 17.6329329,46 18.4134276,46 L23.5865724,46 C24.3670671,46 25,46.6717 25,47.5 C25,48.3283 24.3673498,49 23.5865724,49 Z" id="Shape" fill="#333333"></path>
                        <path d="M13.5779969,49 L10.4220031,49 C9.636773,49 9,48.3283 9,47.5 C9,46.6717 9.636773,46 10.4220031,46 L13.5779969,46 C14.363227,46 15,46.6717 15,47.5 C15,48.3283 14.363227,49 13.5779969,49 Z" id="Shape" fill="#333333"></path>
                        <rect id="Rectangle-path" fill="#333333" x="60" y="46" width="13" height="3"></rect>
                        <path d="M46.6082215,61.9998934 C46.2519084,61.9998934 45.8958737,61.8611437 45.6239066,61.5836443 C43.3501836,59.2610086 39.6498164,59.2610086 37.3760934,61.5836443 C36.8324376,62.1389274 35.9513977,62.1386431 35.4077419,61.5836443 C34.864086,61.0283612 34.864086,60.1281942 35.4077419,59.5731954 C38.7671063,56.1422682 44.2328937,56.1422682 47.5922581,59.5731954 C48.135914,60.1284785 48.135914,61.0286456 47.5922581,61.5836443 C47.3208477,61.8608594 46.9645346,61.9998934 46.6082215,61.9998934 Z" id="Shape" fill="#333333"></path>
                        <path d="M41.5,125 C40.6717,125 40,124.37771 40,123.610339 L40,101.389661 C40,100.62229 40.6717,100 41.5,100 C42.3283,100 43,100.62229 43,101.389661 L43,123.610339 C43,124.37771 42.3283,125 41.5,125 Z" id="Shape" fill="#333333"></path>
                        <polygon id="Shape" fill="#999999" points="1 117 10 117 10 96 10 96"></polygon>
                        <path d="M9.67283753,117 L1.32710907,117 C0.882775079,117 0.468169524,116.773508 0.222113603,116.396293 C-0.0239423189,116.019077 -0.0685349778,115.54147 0.103199845,115.123935 L8.44892831,94.8300669 C8.6931262,94.2355601 9.31503453,93.8997463 9.93455397,94.0266574 C10.5540734,94.1538391 11,94.7088384 11,95.3531354 L11,115.647003 C11,116.394128 10.4056966,117 9.67283753,117 Z M3.32263056,114.294007 L8.34567507,114.294007 L8.34567507,102.079423 L3.32263056,114.294007 Z" id="Shape" fill="#333333"></path>
                        <g id="Group" transform="translate(71.000000, 94.000000)">
                            <polygon id="Shape" fill="#FFFFFF" points="10.422 22.4539535 1.43857143 22.4539535 1.43857143 1.52483721 1.43857143 1.52483721"></polygon>
                            <path d="M10.422,23.8493023 L1.43857143,23.8493023 C0.649714286,23.8493023 0.01,23.2244651 0.01,22.4539535 L0.01,1.52483721 C0.01,0.860372093 0.49,0.288 1.15685714,0.156837209 C1.82342857,0.0265116279 2.49285714,0.37227907 2.756,0.985395349 L11.7394286,21.9145116 C11.9242857,22.3451163 11.8762857,22.8379535 11.6114286,23.2266977 C11.3468571,23.6157209 10.9002857,23.8493023 10.422,23.8493023 Z M2.86714286,21.0586047 L8.274,21.0586047 L2.86714286,8.46167442 L2.86714286,21.0586047 Z" id="Shape" fill="#333333"></path>
                        </g>
                        <path d="M50,51.908287 L49.8063649,52 L32,52 C33.5248767,48.4648813 35.6064545,45.1771097 38.185567,42.2839818 C39.7131331,40.5720061 42.3272075,40.5720061 43.8547736,42.2839818 C46.4150605,45.152097 48.4831914,48.4065184 50,51.908287 Z" id="Shape" fill="#999999"></path>
                        <path d="M42,41.0107969 C42,41.0107969 38.3912568,46.1120162 38.3912568,51.9904066 C38.3912568,57.8715529 38.3912568,124 38.3912568,124 L29,124 L29,66.3846087 C29,61.9172524 29.8666667,57.532574 31.5147541,53.4400237 C31.7221858,52.9246655 31.9438251,52.4120633 32.1739891,51.9077288 C33.7851366,48.4021908 35.9844809,45.1419302 38.7095082,42.2730111 C39.5903825,41.3470199 40.8093989,40.9253632 42,41.0107969 Z" id="Shape" fill="#000000" opacity="0.25"></path>
                        <path d="M29.5994496,125 L12.400691,125 C11.9872486,125 11.5953746,124.820855 11.3289899,124.510923 C11.0628853,124.200717 10.950001,123.791047 11.0205887,123.391543 L13.4267342,109.774333 C14.3917135,104.306293 17.4000957,99.9573583 21.4740166,98.1414556 C21.8258348,97.9851159 22.1689697,97.8013001 22.4958581,97.594679 C25.9619402,95.4193875 28.1988993,90.6231403 28.1988993,85.3738105 C28.1988993,84.6151923 28.8260657,84 29.5994496,84 C30.3728335,84 31,84.6151923 31,85.3738105 L31,123.62619 C31,124.384808 30.3728335,125 29.5994496,125 Z M14.0651051,122.252379 L28.1988993,122.252379 L28.1988993,95.5864428 C27.0767783,97.3831122 25.65606,98.873147 24.0098531,99.9065273 C23.5717609,100.183762 23.1064981,100.432697 22.6311513,100.643989 C19.4516218,102.061212 16.9816112,105.739727 16.1869389,110.243627 L14.0651051,122.252379 Z" id="Shape" fill="#333333"></path>
                        <path d="M55,85 L52.2845218,85 L52.2845218,65.7569382 C52.2845218,60.8957506 51.2895706,56.1858294 49.327366,51.757225 C47.8417278,48.3896892 45.835261,45.3042968 43.3628181,42.5848091 C42.9237252,42.1012528 42.3276778,41.8097413 41.684381,41.7629011 C40.9074827,41.7039375 40.1623554,42.004266 39.6344665,42.5848091 C37.1460022,45.3257882 35.125958,48.4412134 33.6310872,51.8440172 C33.4124912,52.3446564 33.2085588,52.8411626 33.0258071,53.315902 C31.4926481,57.2984223 30.7154782,61.4840086 30.7154782,65.7566627 L30.7154782,84.9997245 L28,85 L28,65.7566627 C28,61.1395953 28.8398974,56.6167594 30.4963391,52.313797 C30.6934829,51.8013099 30.913165,51.2667804 31.1494116,50.7253627 C32.7662074,47.0453751 34.9486372,43.6789414 37.6380469,40.7169867 C38.7315699,39.5142953 40.279121,38.8954535 41.8812531,39.0144827 C43.2137383,39.111194 44.4500955,39.7157083 45.3592377,40.7167112 C48.0309967,43.6555213 50.1998491,46.9905445 51.8046968,50.6289269 C53.9246706,55.4129659 55,60.5031194 55,65.7563871 L55,85 Z" id="Shape" fill="#333333"></path>
                        <path d="M40.5650926,53 L32.4349074,53 C31.6425515,53 31,52.3283 31,51.5 C31,50.6717 31.6425515,50 32.4349074,50 L40.5650926,50 C41.3574485,50 42,50.6717 42,51.5 C42,52.3283 41.3574485,53 40.5650926,53 Z" id="Shape" fill="#333333"></path>
                        <path d="M50.5652798,53 L45.4347202,53 C44.6424677,53 44,52.3283 44,51.5 C44,50.6717 44.6424677,50 45.4347202,50 L50.5652798,50 C51.3575323,50 52,50.6717 52,51.5 C52,52.3283 51.3575323,53 50.5652798,53 Z" id="Shape" fill="#333333"></path>
                        <path d="M44.6191177,49 C44.1799803,49 43.7480283,48.8116729 43.4799583,48.4609261 C43.1057657,47.9709268 42.7078061,47.4856606 42.297963,47.0180812 C41.8245568,46.478509 41.9262576,45.6953073 42.5248552,45.268582 C43.1234528,44.8418566 43.9926077,44.9335291 44.4657374,45.4731012 C44.9131656,45.9830293 45.3473285,46.5128862 45.7560662,47.0477253 C46.1888473,47.6142013 46.0304925,48.3896806 45.402048,48.7800359 C45.1621668,48.9287546 44.8893986,49 44.6191177,49 Z" id="Shape" fill="#FFFFFF"></path>
                        <path d="M49.7256437,77 C49.0219441,77 48.4512874,76.3755189 48.4512874,75.6054465 L48.4512874,66.3715497 C48.4512874,63.1068999 47.9843632,59.8966377 47.0640231,56.8302934 C46.844324,56.0984317 47.2082802,55.310509 47.8768075,55.0700879 C48.54508,54.8296669 49.265601,55.2276725 49.4853001,55.9595342 C50.4905123,59.3075783 51,62.8104178 51,66.3715497 L51,75.6054465 C51,76.3755189 50.4293432,77 49.7256437,77 Z" id="Shape" fill="#FFFFFF"></path>
                        <path d="M50.5,99 C49.6717,99 49,98.3922714 49,97.6428571 L49,81.3571429 C49,80.6077286 49.6717,80 50.5,80 C51.3283,80 52,80.6077286 52,81.3571429 L52,97.6428571 C52,98.3922714 51.3283,99 50.5,99 Z" id="Shape" fill="#FFFFFF"></path>
                        <path d="M50.5,111 C49.6717,111 49,110.402933 49,109.666667 L49,104.333333 C49,103.597067 49.6717,103 50.5,103 C51.3283,103 52,103.597067 52,104.333333 L52,109.666667 C52,110.402933 51.3283,111 50.5,111 Z" id="Shape" fill="#FFFFFF"></path>
                        <path d="M68.7090711,44 C67.9963627,44 67.4184003,43.3688853 67.4184003,42.5906326 C67.4184003,39.2684716 66.638577,35.9852093 65.1635984,33.096006 C64.816408,32.4161272 65.0399522,31.5578224 65.6625718,31.1787025 C66.2849332,30.7995827 67.0712099,31.0434033 67.4184003,31.723564 C69.107114,35.0313494 70,38.7892867 70,42.5906326 C69.9997419,43.3688853 69.4217795,44 68.7090711,44 Z" id="Shape" fill="#FFFFFF"></path>
                        <path d="M42.5978936,10 C42.1749661,10 41.7568095,9.82384187 41.4806577,9.48890792 C41.101791,9.02918449 40.7086115,8.56608837 40.3120643,8.11285088 C39.8248697,7.55583835 39.9183235,6.73886934 40.5211426,6.28848566 C41.123681,5.83810199 42.0074228,5.92449471 42.4946174,6.48176668 C42.9077225,6.95420255 43.3177405,7.43701593 43.7128845,7.91619718 C44.1823986,8.48618159 44.063687,9.30003735 43.4473971,9.7343359 C43.1931354,9.91334784 42.8942516,10 42.5978936,10 Z" id="Shape" fill="#FFFFFF"></path>
                        <path d="M50.5597203,22 C50.0176935,22 49.4987194,21.7175088 49.2537844,21.2362666 C47.8124138,18.4036691 46.1266845,15.6532219 44.2429901,13.0615105 C43.8009544,12.4530678 43.9787484,11.6302392 44.6403611,11.2234624 C45.3016857,10.8169506 46.1964189,10.9804563 46.6390309,11.588899 C48.6031217,14.2913809 50.3611788,17.1594886 51.8639273,20.1129267 C52.2010731,20.7756946 51.8901497,21.5646031 51.1694644,21.8746544 C50.9720756,21.9597198 50.7643131,22 50.5597203,22 Z" id="Shape" fill="#FFFFFF"></path>
                    </g>
                </g>
            </g>
        </g>
    </g>
</svg>