<?xml version="1.0" encoding="UTF-8"?>
<svg width="133px" height="103px" viewBox="0 0 133 103" version="1.1" xmlns="http://www.w3.org/2000/svg" xmlns:xlink="http://www.w3.org/1999/xlink">
    <!-- Generator: Sketch 49.3 (51167) - http://www.bohemiancoding.com/sketch -->
    <title>satellite</title>
    <desc>Created with Sketch.</desc>
    <defs></defs>
    <g id="Main-Page" stroke="none" stroke-width="1" fill="none" fill-rule="evenodd">
        <g id="Контент-1--RU-" transform="translate(-79.000000, -538.000000)" fill-rule="nonzero">
            <g id="Group-4" transform="translate(56.000000, 502.000000)">
                <g id="satellite" transform="translate(82.500000, 82.500000) rotate(23.000000) translate(-82.500000, -82.500000) translate(20.000000, 20.000000)">
                    <path d="M53.4970024,98.9694245 C53.1915468,98.9694245 52.883693,98.8764988 52.617506,98.6834532 C51.9478417,98.1969424 51.7988609,97.2598921 52.2853717,96.5899281 L93.7583933,39.4586331 C94.2443046,38.7889688 95.1816547,38.639988 95.8516187,39.126199 C96.521283,39.6124101 96.6702638,40.5497602 96.183753,41.2197242 L54.7107314,98.3510192 C54.4178657,98.7547962 53.9607314,98.9694245 53.4970024,98.9694245 Z" id="Shape" fill="#333333"></path>
                    <path d="M27.2946643,72.7646882 C26.8309353,72.7646882 26.373801,72.55006 26.0806355,72.146283 C25.5941247,71.4763189 25.7431055,70.5389688 26.4127698,70.0527578 L83.5443645,28.5797362 C84.2146283,28.0935252 85.1516787,28.242506 85.6375899,28.9121703 C86.1241007,29.5821343 85.9751199,30.5194844 85.3054556,31.0056954 L28.1741607,72.478717 C27.9079736,72.6717626 27.6001199,72.7646882 27.2946643,72.7646882 Z" id="Shape" fill="#333333"></path>
                    <circle id="Oval" fill="#F73E3E" cx="95.8390288" cy="28.92506" r="22.330036"></circle>
                    <path d="M114.866007,40.6160072 C113.969724,42.0728417 112.890588,43.4517386 111.628597,44.713729 C102.908573,53.433753 88.7688849,53.433753 80.0488609,44.713729 C71.3288369,35.993705 71.3288369,21.8570144 80.0488609,13.1339928 C81.3138489,11.8720024 82.6897482,10.7898681 84.1495803,9.89658273 C78.8558153,18.4997002 90.7823741,23.8693046 98.2374101,31.3243405 C105.692446,38.7793765 106.26289,45.9067746 114.866007,40.6160072 Z" id="Shape" fill="#000000" opacity="0.25"></path>
                    <path d="M122.050659,38.4844125 C121.905576,38.4844125 121.757794,38.4631295 121.61211,38.4184652 C120.820144,38.1765588 120.3747,37.338729 120.616906,36.5470624 C121.610012,33.2964628 121.955935,29.9259592 121.643585,26.5296763 C121.568046,25.7053357 122.17476,24.9757194 122.999101,24.8998801 C123.822542,24.82494 124.552758,25.4307554 124.628897,26.2550959 C124.976619,30.0407674 124.591427,33.7985612 123.483513,37.4229616 C123.285971,38.0689448 122.692146,38.4844125 122.050659,38.4844125 Z" id="Shape" fill="#333333"></path>
                    <path d="M120.736511,18.9160671 C120.169664,18.9160671 119.627398,18.5929257 119.3744,18.0443645 C118.097122,15.2736811 116.346823,12.7661871 114.172362,10.5911271 C109.27548,5.69454436 102.764688,2.99760192 95.8390288,2.99760192 C93.6369904,2.99760192 91.4523381,3.27158273 89.3459233,3.81205036 C88.5461631,4.01738609 87.7278177,3.53477218 87.5218825,2.73261391 C87.3159472,1.9307554 87.7994604,1.11420863 88.6013189,0.908273381 C90.9508393,0.305755396 93.3860911,0 95.8390288,0 C103.565348,0 110.829137,3.00869305 116.291667,8.47182254 C118.717626,10.8980815 120.670564,13.6966427 122.096523,16.7898681 C122.443046,17.5416667 122.114508,18.4319544 121.36271,18.7784772 C121.159772,18.8720024 120.946343,18.9160671 120.736511,18.9160671 Z" id="Shape" fill="#333333"></path>
                    <path d="M95.8390288,52.7538969 C89.4739209,52.7538969 83.4901079,50.2751799 78.9895084,45.7745803 C74.4886091,41.2736811 72.0101918,35.2898681 72.0101918,28.92506 C72.0101918,22.5602518 74.4889089,16.5761391 78.9895084,12.0755396 C83.4901079,7.57464029 89.4739209,5.09592326 95.8390288,5.09592326 C102.203837,5.09592326 108.18795,7.57464029 112.688549,12.0752398 C121.979317,21.3660072 121.979317,36.4835132 112.688549,45.7745803 C108.18795,50.2751799 102.204137,52.7538969 95.8390288,52.7538969 Z M95.8390288,8.09352518 C90.2745803,8.09352518 85.0434652,10.2604916 81.1088129,14.1948441 C77.1744604,18.1291966 75.007494,23.3606115 75.007494,28.9247602 C75.007494,34.4889089 77.1744604,39.7203237 81.1088129,43.6546763 C85.0434652,47.5890288 90.2745803,49.7559952 95.8390288,49.7559952 C101.403477,49.7559952 106.634592,47.5890288 110.569245,43.6546763 C118.691247,35.5323741 118.691247,22.3168465 110.569245,14.1948441 C106.634592,10.2604916 101.403477,8.09352518 95.8390288,8.09352518 Z" id="Shape" fill="#333333"></path>
                    <path d="M112.751799,33.7173261 C112.657374,33.7173261 112.561751,33.7083333 112.465827,33.6897482 C111.652878,33.5326739 111.121703,32.7467026 111.278477,31.933753 C112.274281,26.7790767 110.66217,21.4946043 106.965528,17.7979616 C105.88789,16.7203237 104.672362,15.8090528 103.352518,15.0896283 C102.6256,14.6936451 102.357614,13.7832734 102.753597,13.0563549 C103.15018,12.3294365 104.059952,12.0617506 104.786871,12.4577338 C106.358513,13.3141487 107.804556,14.3980815 109.085132,15.6783573 C113.486511,20.080036 115.406475,26.3693046 114.221523,32.5023981 C114.083034,33.2194245 113.455635,33.7173261 112.751799,33.7173261 Z" id="Shape" fill="#FFFFFF"></path>
                    <path d="M98.7502998,13.4328537 C98.6672662,13.4328537 98.5830336,13.4259592 98.4985012,13.4115707 C97.6270983,13.2643885 96.7323141,13.1894484 95.8390288,13.1894484 C95.0110911,13.1894484 94.3402278,12.5182854 94.3402278,11.6906475 C94.3402278,10.8630096 95.0110911,10.1918465 95.8390288,10.1918465 C96.8992806,10.1918465 97.9622302,10.2805755 98.9985012,10.4559353 C99.8147482,10.5938249 100.364508,11.367506 100.226319,12.183753 C100.102818,12.9151679 99.4685252,13.4328537 98.7502998,13.4328537 Z" id="Shape" fill="#FFFFFF"></path>
                    <path d="M59.6085132,124.758393 C59.3705036,124.758393 59.1291966,124.701739 58.9046763,124.582134 C58.1741607,124.193046 57.8977818,123.285072 58.2865707,122.554556 L104.908573,35.0521583 C105.297962,34.3213429 106.205935,34.044964 106.936451,34.4340528 C107.666966,34.8231415 107.943345,35.7311151 107.554556,36.4616307 L60.932554,123.964029 C60.6627698,124.470024 60.1441847,124.758393 59.6085132,124.758393 Z" id="Shape" fill="#333333"></path>
                    <path d="M1.50569544,66.6531775 C0.969724221,66.6531775 0.451139089,66.3651079 0.181654676,65.8588129 C-0.207434053,65.1282974 0.0692446043,64.2206235 0.799760192,63.831235 L88.3018585,17.2095324 C89.0320743,16.8204436 89.940048,17.0965228 90.3297362,17.8276379 C90.7188249,18.5581535 90.4421463,19.4658273 89.7116307,19.8552158 L2.20923261,66.4769185 C1.98471223,66.5965228 1.74370504,66.6531775 1.50569544,66.6531775 Z" id="Shape" fill="#333333"></path>
                    <path d="M109.273681,49.2494005 L75.5146882,15.4904077 C73.6121103,13.5878297 73.6121103,10.5032974 75.5146882,8.60071942 C77.4172662,6.69814149 80.5017986,6.69814149 82.4043765,8.60071942 L116.163369,42.3597122 C118.065947,44.2622902 118.065947,47.3468225 116.163369,49.2494005 C114.260791,51.1516787 111.176259,51.1516787 109.273681,49.2494005 Z" id="Shape" fill="#FCBC1D"></path>
                    <path d="M116.16217,49.2491007 C115.21193,50.2023381 113.964928,50.6759592 112.717926,50.6759592 C111.473921,50.6759592 110.226918,50.2023381 109.273681,49.2491007 L75.5146882,15.4901079 C73.611211,13.5866307 73.611211,10.5020983 75.5146882,8.60161871 L116.16217,49.2491007 Z" id="Shape" fill="#000000" opacity="0.25"></path>
                    <path d="M112.717926,52.1747602 C111.016787,52.1747602 109.417266,51.5122902 108.214029,50.3090528 L74.455036,16.5497602 C73.2508993,15.3459233 72.5881295,13.7461031 72.5881295,12.0446643 C72.5881295,10.3426259 73.2514988,8.74310552 74.4556355,7.54076739 C75.6576739,6.33842926 77.2571942,5.67595923 78.9583333,5.67595923 C80.6633693,5.67595923 82.263789,6.33902878 83.4640288,7.54346523 L103.640887,27.7203237 C104.226319,28.3057554 104.226319,29.2547962 103.640887,29.8399281 C103.056055,30.42506 102.106415,30.42506 101.521583,29.8399281 L81.3435252,9.66127098 C80.7080336,9.02368106 79.8618106,8.67356115 78.9589329,8.67356115 C78.0584532,8.67356115 77.2116307,9.02428058 76.57494,9.66127098 C75.9367506,10.2982614 75.5860312,11.1441847 75.5860312,12.0446643 C75.5860312,12.9454436 75.9370504,13.7925659 76.5746403,14.4301559 L110.333333,48.1891487 C110.970624,48.8261391 111.817446,49.1768585 112.717926,49.1768585 C113.620504,49.1768585 114.466727,48.8267386 115.100719,48.1906475 C115.739808,47.5515588 116.091127,46.7044365 116.091127,45.8036571 C116.091127,44.9031775 115.740108,44.0569544 115.103118,43.4211631 L106.834832,35.1525779 C106.2494,34.5671463 106.2494,33.6181055 106.834832,33.0329736 C107.419664,32.4478417 108.369305,32.4478417 108.954137,33.0329736 L117.221823,41.3009592 C118.42536,42.5023981 119.088729,44.1019185 119.088729,45.8039568 C119.088729,47.5053957 118.425659,49.1055156 117.222122,50.3090528 C116.023082,51.5113909 114.422962,52.1747602 112.717926,52.1747602 Z" id="Shape" fill="#333333"></path>
                </g>
            </g>
        </g>
    </g>
</svg>