<?xml version="1.0" encoding="UTF-8"?>
<svg width="409px" height="235px" viewBox="0 0 409 235" version="1.1" xmlns="http://www.w3.org/2000/svg" xmlns:xlink="http://www.w3.org/1999/xlink">
    <!-- Generator: Sketch 49.3 (51167) - http://www.bohemiancoding.com/sketch -->
    <title>saturn</title>
    <desc>Created with Sketch.</desc>
    <defs></defs>
    <g id="Main-Page" stroke="none" stroke-width="1" fill="none" fill-rule="evenodd">
        <g id="saturn" transform="translate(204.498541, 119.008268) rotate(24.000000) translate(-204.498541, -119.008268) translate(43.998541, -40.491732)" fill-rule="nonzero">
            <path d="M273.005083,159.055686 C273.005083,167.229795 272.134709,175.204536 270.474302,182.88687 C265.707328,205.030066 254.425936,224.774195 238.712329,240.05247 C231.126681,247.43575 222.496583,253.782315 213.069758,258.83963 C203.468858,264.003274 193.04445,267.837795 182.037561,270.103951 C174.518864,271.645734 166.73236,272.456499 158.758391,272.456499 C156.843567,272.456499 154.942134,272.40998 153.054091,272.316941 C131.51567,271.266934 111.550618,264.295681 94.7724767,253.004778 C89.5234491,249.4826 84.5824002,245.528458 80.0095866,241.208807 C74.9815002,236.463836 70.3952962,231.266963 66.3045362,225.684645 C52.6530473,207.050334 44.5719551,184.122955 44.5116984,159.334802 C44.5116984,158.809798 44.5183936,158.29144 44.5183936,157.766436 C44.5250888,157.334471 44.5384791,156.902506 44.5451743,156.477187 C44.5518695,156.098386 44.5585647,155.719586 44.5719551,155.340786 C45.3954632,129.901363 54.668299,106.575246 69.6856063,88.0406199 C72.5779276,84.4719234 75.6777998,81.0826586 78.9785276,77.8927623 C93.5204765,63.8040537 111.838512,53.5299293 132.285617,48.7185024 C138.030088,47.3627965 143.941939,46.4457013 149.980999,45.9871537 C152.880016,45.7678484 155.805813,45.6548729 158.758391,45.6548729 C178.482416,45.6548729 197.034782,50.6125034 213.223747,59.3581357 C218.144711,62.0030914 222.844733,65.0002648 227.297033,68.3164278 C231.608734,71.5262609 235.679409,75.0351469 239.482276,78.8098575 C241.343538,80.6573391 243.144544,82.5646312 244.865207,84.5383796 C253.113679,93.9086999 259.835648,104.634726 264.629403,116.344304 C270.03242,129.529209 273.005083,143.950198 273.005083,159.055686 Z" id="Shape" fill="#F9911E"></path>
            <path d="M267.07019,121.938316 C248.679482,146.343122 225.806331,172.576129 199.633141,198.616344 C173.226141,224.902534 146.618735,247.844781 121.901837,266.233148 C121.754871,266.346164 121.601226,266.452532 121.454261,266.565548 C113.678458,263.826572 106.29679,260.27654 99.4094597,256.008525 C99.5564251,255.935397 99.6967102,255.855621 99.8436755,255.775845 L99.8503558,255.775845 C99.8770767,255.762549 99.9104779,255.735957 99.9371989,255.722661 C124.887905,242.134149 156.472093,217.769231 187.675506,186.716424 C218.571629,155.969426 242.874351,124.856787 256.60893,100.146173 C259.90229,105.444628 262.761434,111.042244 265.14628,116.879188 C265.827665,118.547836 266.468969,120.22978 267.07019,121.938316 Z" id="Shape" fill="#F9A24B"></path>
            <g id="Group" transform="translate(195.851473, 61.854989)" fill="#FFFFFF">
                <path d="M16.9114486,13.7993928 C16.2985386,13.7993928 15.6788712,13.6353673 15.1213732,13.2920427 C11.133742,10.8369727 6.93392367,8.64753098 2.63949964,6.78481216 C0.932542117,6.04437313 0.158802462,4.0840359 0.912269462,2.40659286 C1.66506071,0.729813895 3.65988993,-0.0305472604 5.36752321,0.709891769 C9.95860375,2.70077626 14.4469695,5.04096204 18.7082815,7.66470608 C20.2902243,8.63823398 20.768659,10.6875567 19.7780019,12.2414826 C19.1367103,13.2475499 18.0365809,13.7993928 16.9114486,13.7993928 Z" id="Shape"></path>
                <path d="M32.5207169,171.677596 C31.617908,171.677596 30.7178022,171.32431 30.0528591,170.625707 C28.7777091,169.286276 28.8493392,167.185156 30.2116616,165.932718 C50.0619693,147.682059 61.4470922,121.944663 61.4470922,95.3194057 C61.4470922,68.5414116 50.5201313,43.6175034 30.6786084,25.137739 C29.324395,23.8760044 29.2669559,21.7748841 30.5508907,20.443422 C31.8334739,19.1126239 33.9729148,19.0561779 35.3271281,20.3172485 C56.5289462,40.0633961 68.2046438,66.699279 68.2046438,95.3187416 C68.2046438,123.774843 56.0396994,151.279995 34.8284208,170.7811 C34.1769928,171.380756 33.3478412,171.677596 32.5207169,171.677596 Z" id="Shape"></path>
                <path d="M18.3089102,182.60953 C17.202699,182.60953 16.1187878,182.076282 15.4714143,181.096777 C14.4557543,179.558789 14.9004012,177.502161 16.4661259,176.504063 C18.1872743,175.406354 19.8976106,174.238253 21.5505077,173.032964 C23.0500084,171.939904 25.1651221,172.248033 26.277415,173.720942 C27.389708,175.193851 27.0761576,177.273057 25.5773327,178.366118 C23.8115845,179.653751 21.9843425,180.900876 20.1456127,182.073625 C19.5773027,182.436208 18.938714,182.60953 18.3089102,182.60953 Z" id="Shape"></path>
            </g>
            <path d="M240.888621,78.6935913 C237.067024,74.9188696 232.976301,71.4099734 228.643364,68.2001308 C224.169135,64.8839581 219.445964,61.8867759 214.500764,59.2418125 C214.722794,59.6405507 214.99192,60.0060607 215.3216,60.3316969 C222.453453,67.3627806 218.726051,83.8638966 206.857571,105.316012 C206.844114,105.342595 206.817202,105.375823 206.803745,105.402405 C206.669182,105.648294 206.527891,105.894182 206.386599,106.146717 C192.553495,130.848548 168.076437,161.950128 136.958682,192.686198 C131.492722,198.085114 126.015997,203.278679 120.564839,208.248951 C115.045726,213.281027 106.143693,211.534553 103.01106,204.79189 C96.3347039,190.418707 92.6093199,174.431963 92.6093199,157.583281 C92.6093199,126.986769 104.88149,99.214653 124.823766,78.8191938 C135.810857,67.581422 149.125892,58.5765842 164.001861,52.5689286 C170.205228,50.0668464 176.681758,48.0910986 183.370898,46.6828881 C175.613999,45.0493906 167.571152,44.182135 159.321078,44.182135 C143.953953,44.182135 129.300013,47.1660259 115.90424,52.5689286 C101.028271,58.5765842 87.7132354,67.581422 76.7261446,78.8191938 C56.7838684,99.214653 44.5116984,126.986769 44.5116984,157.583281 C44.5116984,190.405416 58.6368046,219.961221 81.2037373,240.66969 C81.0133303,240.809248 80.820232,240.954123 80.629825,241.093017 C85.2251606,245.41268 90.1905451,249.366834 95.4654252,252.889022 C95.7036022,252.694305 95.942452,252.4956 96.180629,252.300218 C103.874957,257.316345 112.213169,261.447273 121.051285,264.530848 C133.020688,268.710954 145.90512,270.983762 159.321078,270.983762 C167.566442,270.983762 175.608616,270.119829 183.363497,268.48766 C178.504418,267.464232 173.758371,266.141086 169.148906,264.530848 C155.719492,259.845674 143.433866,252.75478 132.83028,243.789816 C132.259059,243.307343 131.693221,242.819553 131.132092,242.325782 C124.980532,236.916898 124.973131,227.432246 130.971962,221.857886 C136.976175,216.278874 142.993844,210.516442 149.002094,204.581224 C175.363038,178.550265 198.400269,152.326582 216.922903,127.930449 C217.091107,127.704498 217.266039,127.478546 217.434244,127.252594 C228.899034,112.107188 238.614502,97.6662196 246.298064,84.4214656 C244.568926,82.448376 242.759051,80.5410783 240.888621,78.6935913 Z" id="Shape" fill="#000000" opacity="0.25"></path>
            <path d="M310.883111,8.0544758 C295.906838,-6.80401832 251.212336,11.6827127 197.740949,51.3607398 L197.258923,51.8391886 C205.018199,54.570334 212.389177,58.1188294 219.264739,62.378353 L219.840492,61.8068725 C241.451314,50.0782311 258.074509,46.4101234 265.150915,53.4473083 C272.247406,60.477848 268.538485,76.9776874 256.728854,98.4281431 C256.715464,98.4547236 256.688685,98.4879492 256.675295,98.5145297 C256.541399,98.7603992 256.400808,99.0062688 256.260218,99.2587834 C242.495704,123.958704 218.140012,155.057878 187.17655,185.79157 C155.905128,216.830938 124.252101,241.185312 99.247014,254.767942 C99.2202348,254.781233 99.1867607,254.807813 99.1599815,254.821103 L99.1532867,254.821103 C99.0060011,254.900845 98.8654102,254.980586 98.7181246,255.053683 C93.4359254,257.90444 88.4549923,260.276749 83.8422734,262.110803 C69.7764933,267.725932 59.1384521,268.45025 53.8428633,263.187313 C46.8066258,256.209934 50.4084296,239.916093 62.0038275,218.698217 C57.6990695,211.860386 54.1039606,204.530816 51.3323123,196.815828 C11.6388282,249.657843 -6.80535279,293.768167 8.11736203,308.580145 C19.71276,320.096143 49.1364171,311.597031 86.66748,288.737809 L86.6741748,288.737809 C97.4595017,282.172428 108.914309,274.41757 120.810973,265.606137 C120.958259,265.49317 121.112239,265.386848 121.259525,265.273881 C146.030294,246.893472 172.695692,223.961154 199.160247,197.686339 C225.390483,171.657394 248.313487,145.43574 266.744278,121.041495 C266.911648,120.815561 267.085713,120.589627 267.253083,120.363693 C307.227749,67.2824535 325.859385,22.9196151 310.883111,8.0544758 Z" id="Shape" fill="#F7DB9C"></path>
            <path d="M159.656287,275.401975 C146.110088,275.401975 132.82841,273.138526 120.181586,268.674112 L122.424999,262.410905 C134.351253,266.620057 146.877536,268.753882 159.656957,268.753882 C220.918886,268.753882 270.759497,219.280393 270.759497,158.469715 C270.759497,145.78908 268.609168,133.357059 264.368782,121.519318 L264.175246,120.978882 L264.175246,120.405209 L267.533669,120.401885 L270.678466,119.291765 C275.176008,131.846763 277.456253,145.02795 277.456253,158.469715 C277.455584,222.94645 224.610808,275.401975 159.656287,275.401975 Z" id="Shape" fill="#333333"></path>
            <path d="M23.554889,318.111372 C16.0975291,318.111372 10.2878191,316.069716 6.17271966,311.984406 C-2.20909523,303.66529 -2.05412491,288.361527 6.63360543,266.499958 C14.5491676,246.58016 29.3988133,221.889839 49.5764863,195.097265 L54.9501326,199.084021 C35.123994,225.409132 20.5748969,249.566066 12.8746831,268.943153 C5.47367603,287.569103 4.77798674,301.182807 10.9164217,307.275812 C17.0555275,313.368817 30.7707367,312.678942 49.5348925,305.332044 C69.0564574,297.688818 93.3928362,283.247398 119.91423,263.567991 C145.271668,244.752259 172.141242,221.440355 197.616753,196.153386 C223.090923,170.867748 246.575971,144.1977 265.533336,119.026598 C285.359475,92.7014869 299.908572,68.5445535 307.608786,49.167466 C315.010464,30.5415161 315.705482,16.927812 309.567718,10.834807 C303.429283,4.74180209 289.714074,5.43101084 270.948577,12.7785755 C251.427012,20.4211348 227.090633,34.8632213 200.56924,54.5426284 L196.552087,49.2094178 C223.544429,29.1804121 248.419514,14.4413332 268.487836,6.58435342 C290.512406,-2.0384139 305.930276,-2.19290321 314.312091,6.12621272 C322.693235,14.4453286 322.538265,29.7490925 313.850535,51.611327 C305.934972,71.5311248 291.085327,96.2214458 270.907654,123.01402 C251.761104,148.436167 228.058023,175.355929 202.360455,200.862646 C176.661545,226.371361 149.541738,249.898351 123.932053,268.901867 C96.9397111,288.930207 72.0646259,303.669952 51.9963043,311.526932 C40.7861132,315.915893 31.2852918,318.110706 23.554889,318.111372 Z M64.8393861,271.026095 C59.3516923,271.026761 55.0386871,269.523154 51.9936208,266.499958 C43.9103418,258.476503 46.6347336,241.523299 59.8716144,217.474242 L65.7584742,220.666577 C54.5965856,240.945296 51.2241361,256.31898 56.736652,261.790698 C62.2625852,267.273736 77.7462003,263.926912 98.1586768,252.836977 L98.9167568,252.428113 C124.46338,238.421527 156.01091,213.60868 185.606217,184.233071 C215.42224,154.637714 240.580431,123.065294 254.641807,97.5985315 L254.716274,97.4626874 C265.89158,77.1646572 269.262687,61.7916395 263.742792,56.3185895 C258.222226,50.8335532 242.73794,54.1810435 222.319425,65.2649853 L219.099934,59.4223595 C243.320923,46.2754528 260.39919,43.5732218 268.486494,51.6099952 C276.572456,59.6281233 273.858799,76.5666771 260.636006,100.594425 L260.564223,100.727606 C246.217057,126.737745 220.624815,158.890166 190.349249,188.940999 C160.067644,218.998492 127.675492,244.398665 101.477457,258.628994 L101.41775,258.660958 C101.362068,258.690923 101.30974,258.718225 101.262109,258.741532 L101.248691,258.748191 C86.2024815,266.910154 73.9175612,271.025429 64.8393861,271.026095 Z" id="Shape" fill="#333333"></path>
            <path d="M22.9655204,301.911256 C19.8612886,301.911256 17.4897118,301.323753 16.4587663,300.300446 C16.2355512,300.078885 11.0962411,294.603064 20.3600034,271.289239 C25.3860302,258.642287 33.5055636,243.795692 44.2446907,227.537891 C35.7390554,247.870954 36.0400271,262.718879 45.1791107,271.790246 C48.4328229,275.01985 54.3751711,278.870224 64.2033392,278.870224 C71.3334867,278.870224 79.864594,276.823611 89.6813667,272.768309 C61.1942922,291.294284 37.1742012,301.911256 22.9688719,301.911256 C22.966861,301.911256 22.966861,301.911256 22.9655204,301.911256 Z M274.766913,89.0847747 C283.267186,68.7596967 282.960852,53.9124361 273.813724,44.8424 C270.569396,41.6187846 264.628389,37.7664145 254.796869,37.7664145 C247.674765,37.7664145 239.149691,39.8097009 229.340292,43.8570183 C257.819323,25.3383625 281.83271,14.7273783 296.036029,14.7273783 C299.13892,14.7273783 301.509826,15.3142161 302.540772,16.3375227 C302.764657,16.5590839 307.904638,22.0349052 298.640875,45.3487305 C293.616859,57.9916902 285.499337,72.833628 274.766913,89.0847747 Z" id="Shape" fill="#DDBE7F"></path>
            <path d="M99.7725979,257.729121 L96.8778295,256.341208 C81.6487432,246.924463 68.5994604,233.963274 59.1384283,218.858885 C54.7324996,211.824658 51.0824867,204.299129 48.289089,196.49295 C43.8140134,184.014397 41.5442518,170.903217 41.5442518,157.524721 C41.5442518,93.4033971 94.0790611,41.2366594 158.652804,41.2366594 C172.131065,41.2366594 185.33811,43.4898518 197.906051,47.9349072 C205.745153,50.7034007 213.319752,54.3278407 220.419051,58.7062336 C235.648809,68.112312 248.702119,81.076168 258.167851,96.197889 L254.210369,102.820808 L252.466929,99.7170023 C243.540946,85.4592273 231.233481,73.2359916 216.874437,64.3678795 C210.183306,60.2408043 203.043727,56.8250179 195.654415,54.2151811 C183.810167,50.0267763 171.361723,47.9029092 158.652804,47.9029092 C97.780095,47.9029092 48.2575365,97.0791673 48.2575365,157.524721 C48.2575365,170.139265 50.396389,182.497826 54.6136745,194.25909 C57.247296,201.617963 60.6878544,208.70952 64.8393497,215.338439 C73.7263959,229.527551 85.9727699,241.710789 100.265353,250.582901 L102.650583,251.706831 L99.7725979,257.729121 Z" id="Shape" fill="#333333"></path>
        </g>
    </g>
</svg>