<?xml version="1.0" encoding="UTF-8"?>
<svg width="211px" height="120px" viewBox="0 0 211 120" version="1.1" xmlns="http://www.w3.org/2000/svg" xmlns:xlink="http://www.w3.org/1999/xlink">
    <!-- Generator: Sketch 49.3 (51167) - http://www.bohemiancoding.com/sketch -->
    <title>ursa-major</title>
    <desc>Created with Sketch.</desc>
    <defs></defs>
    <g id="Main-Page" stroke="none" stroke-width="1" fill="none" fill-rule="evenodd">
        <g id="Контент-2--RU-" transform="translate(-747.000000, -25.000000)" fill-rule="nonzero">
            <g id="ursa-major" transform="translate(848.417762, 96.933173) rotate(-13.000000) translate(-848.417762, -96.933173) translate(741.417762, 43.933173)">
                <path d="M100.818332,38.645314 C99.858538,38.645314 98.9755271,38.0134709 98.697959,37.0436138 C98.3625825,35.8705066 99.040396,34.6474704 100.212007,34.3116657 L182.416745,10.7470112 C183.587033,10.4103228 184.809392,11.0894437 185.145209,12.2629928 C185.480586,13.4361001 184.802772,14.6591362 183.631161,14.9949409 L101.426423,38.5595954 C101.223873,38.6179194 101.019558,38.645314 100.818332,38.645314 Z" id="Shape" fill="#333333"></path>
                <path d="M131.068635,89.2840013 C130.495895,89.2840013 129.923593,89.0604208 129.494148,88.615017 L92.5657759,50.3643133 C91.7244133,49.4928328 91.746762,48.1021537 92.6166083,47.2587854 C93.4860164,46.4154172 94.8733884,46.4382584 95.714751,47.3097389 L132.643123,85.5604426 C133.484485,86.4319231 133.462137,87.8226022 132.59229,88.6659705 C132.166789,89.0784303 131.617274,89.2840013 131.068635,89.2840013 Z" id="Shape" fill="#333333"></path>
                <path d="M152.817573,93.2817924 C151.820218,93.2817924 150.911377,92.6513644 150.653433,91.7036266 C150.348102,90.5819342 151.070525,89.4409601 152.266368,89.1546687 L190.438127,80.0214269 C191.634417,79.7351354 192.851271,80.4125102 193.156602,81.5337834 C193.461933,82.6554758 192.73951,83.7964498 191.543667,84.0827413 L153.371908,93.2159831 C153.186832,93.260834 153.000862,93.2817924 152.817573,93.2817924 Z" id="Shape" fill="#333333"></path>
                <path d="M201.505462,65.2972547 C200.306204,65.2972547 199.274871,64.4805096 199.143576,63.3794926 L194.572981,25.0311208 C194.432648,23.8523799 195.377402,22.7938748 196.683694,22.6667684 C197.990461,22.5392324 199.162128,23.3929071 199.302938,24.5720775 L203.873532,62.9204492 C204.013866,64.0991901 203.069111,65.1576952 201.762819,65.2848017 C201.676241,65.2929605 201.590613,65.2972547 201.505462,65.2972547 Z" id="Shape" fill="#333333"></path>
                <path d="M18.15114,63.9646576 C17.6321099,63.9646576 17.1113512,63.7691596 16.6973371,63.3727077 C15.8148563,62.5275196 15.7508959,61.0899268 16.5538584,60.1615384 L32.2215662,42.0534167 C33.025393,41.1250282 34.3914664,41.0577405 35.2739472,41.902474 C36.156428,42.7476621 36.2203884,44.1852549 35.417426,45.1136433 L19.7497181,63.221765 C19.3236035,63.714602 18.7384522,63.9646576 18.15114,63.9646576 Z" id="Shape" fill="#333333"></path>
                <path d="M73.7247162,41.3105081 C73.6384092,41.3105081 73.5512079,41.3055351 73.4631121,41.295137 L55.2814054,39.1535813 C54.054773,39.0093643 53.1760516,37.886822 53.3191513,36.6467361 C53.4618038,35.4066502 54.5730621,34.5182911 55.7988002,34.6629603 L73.9805069,36.8045159 C75.2071393,36.948733 76.0858607,38.0712752 75.942761,39.3113611 C75.8103938,40.461933 74.8440239,41.3105081 73.7247162,41.3105081 Z" id="Shape" fill="#333333"></path>
                <g id="Group" transform="translate(30.649732, 25.319344)" fill="#FFFFFF">
                    <path d="M9.99447776,19.8581582 C8.76804429,19.8581582 7.7734827,18.8852175 7.7734827,17.6854457 L7.7734827,2.47645777 C7.7734827,1.2766859 8.76804429,0.303745215 9.99447776,0.303745215 C11.2209112,0.303745215 12.2154728,1.2766859 12.2154728,2.47645777 L12.2154728,17.6854457 C12.2154728,18.8856521 11.2209112,19.8581582 9.99447776,19.8581582 Z" id="Shape"></path>
                    <path d="M17.7679605,12.2536643 L2.22099506,12.2536643 C0.994561586,12.2536643 0,11.2807236 0,10.0809517 C0,8.88117984 0.994561586,7.90823916 2.22099506,7.90823916 L17.7679605,7.90823916 C18.9943939,7.90823916 19.9889555,8.88117984 19.9889555,10.0809517 C19.9889555,11.2807236 18.9943939,12.2536643 17.7679605,12.2536643 Z" id="Shape"></path>
                </g>
                <g id="Group" transform="translate(0.000000, 59.966867)" fill="#FFFFFF">
                    <path d="M9.99447776,19.8581582 C8.76804429,19.8581582 7.7734827,18.8852175 7.7734827,17.6854457 L7.7734827,2.47645777 C7.7734827,1.2766859 8.76804429,0.303745215 9.99447776,0.303745215 C11.2209112,0.303745215 12.2154728,1.2766859 12.2154728,2.47645777 L12.2154728,17.6854457 C12.2154728,18.8856521 11.2209112,19.8581582 9.99447776,19.8581582 Z" id="Shape"></path>
                    <path d="M17.7679605,12.2536643 L2.22099506,12.2536643 C0.994561586,12.2536643 0,11.2807236 0,10.0809517 C0,8.88117984 0.994561586,7.90823916 2.22099506,7.90823916 L17.7679605,7.90823916 C18.9943939,7.90823916 19.9889555,8.88117984 19.9889555,10.0809517 C19.9889555,11.2807236 18.9943939,12.2536643 17.7679605,12.2536643 Z" id="Shape"></path>
                </g>
                <g id="Group" transform="translate(77.290628, 30.649732)" fill="#FFFFFF">
                    <path d="M9.99578138,19.6634832 C8.79600951,19.6634832 7.82306883,18.6905425 7.82306883,17.4907706 L7.82306883,2.28178273 C7.82306883,1.08201085 8.79600951,0.10907017 9.99578138,0.10907017 C11.1955533,0.10907017 12.1684939,1.08201085 12.1684939,2.28178273 L12.1684939,17.4907706 C12.1684939,18.6905425 11.1959878,19.6634832 9.99578138,19.6634832 Z" id="Shape"></path>
                    <path d="M17.6002753,12.0589892 L2.39128744,12.0589892 C1.19151557,12.0589892 0.218574883,11.0860485 0.218574883,9.88627667 C0.218574883,8.6865048 1.19151557,7.71356411 2.39128744,7.71356411 L17.6002753,7.71356411 C18.8000472,7.71356411 19.7729879,8.6865048 19.7729879,9.88627667 C19.7729879,11.0860485 18.8004817,12.0589892 17.6002753,12.0589892 Z" id="Shape"></path>
                </g>
                <g id="Group" transform="translate(185.230988, 0.000000)" fill="#FFFFFF">
                    <path d="M9.99578138,19.6634832 C8.79600951,19.6634832 7.82306883,18.6905425 7.82306883,17.4907706 L7.82306883,2.28178273 C7.82306883,1.08201085 8.79600951,0.10907017 9.99578138,0.10907017 C11.1955533,0.10907017 12.1684939,1.08201085 12.1684939,2.28178273 L12.1684939,17.4907706 C12.1684939,18.6905425 11.1959878,19.6634832 9.99578138,19.6634832 Z" id="Shape"></path>
                    <path d="M17.6002753,12.0589892 L2.39128744,12.0589892 C1.19151557,12.0589892 0.218574883,11.0860485 0.218574883,9.88627667 C0.218574883,8.6865048 1.19151557,7.71356411 2.39128744,7.71356411 C5.41158283,7.71356411 7.67680438,7.71356411 9.18695208,7.71356411 C11.0565795,7.71356411 13.8610205,7.71356411 17.6002753,7.71356411 C18.8000472,7.71356411 19.7729879,8.6865048 19.7729879,9.88627667 C19.7729879,11.0860485 18.8004817,12.0589892 17.6002753,12.0589892 Z" id="Shape"></path>
                </g>
                <g id="Group" transform="translate(130.594509, 85.286210)" fill="#FFFFFF">
                    <path d="M9.99578138,19.6634832 C8.79600951,19.6634832 7.82306883,18.6905425 7.82306883,17.4907706 L7.82306883,2.28178273 C7.82306883,1.08201085 8.79600951,0.10907017 9.99578138,0.10907017 C11.1955533,0.10907017 12.1684939,1.08201085 12.1684939,2.28178273 L12.1684939,17.4907706 C12.1684939,18.6905425 11.1959878,19.6634832 9.99578138,19.6634832 Z" id="Shape"></path>
                    <path d="M17.6002753,12.0589892 L2.39128744,12.0589892 C1.19151557,12.0589892 0.218574883,11.0860485 0.218574883,9.88627667 C0.218574883,8.6865048 1.19151557,7.71356411 2.39128744,7.71356411 L17.6002753,7.71356411 C18.8000472,7.71356411 19.7729879,8.6865048 19.7729879,9.88627667 C19.7729879,11.0860485 18.8004817,12.0589892 17.6002753,12.0589892 Z" id="Shape"></path>
                </g>
                <g id="Group" transform="translate(193.226570, 69.295046)" fill="#FFFFFF">
                    <path d="M9.99578138,19.6634832 C8.79600951,19.6634832 7.82306883,18.6905425 7.82306883,17.4907706 L7.82306883,2.28178273 C7.82306883,1.08201085 8.79600951,0.10907017 9.99578138,0.10907017 C11.1955533,0.10907017 12.1684939,1.08201085 12.1684939,2.28178273 L12.1684939,17.4907706 C12.1684939,18.6905425 11.1959878,19.6634832 9.99578138,19.6634832 Z" id="Shape"></path>
                    <path d="M17.6002753,12.0589892 L2.39128744,12.0589892 C1.19151557,12.0589892 0.218574883,11.0860485 0.218574883,9.88627667 C0.218574883,8.6865048 1.19151557,7.71356411 2.39128744,7.71356411 L17.6002753,7.71356411 C18.8000472,7.71356411 19.7729879,8.6865048 19.7729879,9.88627667 C19.7729879,11.0860485 18.8004817,12.0589892 17.6002753,12.0589892 Z" id="Shape"></path>
                </g>
            </g>
        </g>
    </g>
</svg>